<?xml version="1.0" encoding="utf-8"?>
<!-- Generator: Adobe Illustrator 24.0.1, SVG Export Plug-In . SVG Version: 6.00 Build 0)  -->
<svg version="1.1" id="Layer_1" xmlns="http://www.w3.org/2000/svg" xmlns:xlink="http://www.w3.org/1999/xlink" x="0px" y="0px"
	 viewBox="0 0 42 42" style="enable-background:new 0 0 42 42;" xml:space="preserve">
<style type="text/css">
	.st0{fill:#01041C;}
	.st1{fill:#FFFFFF;fill-opacity:0.602;}
	.st2{fill:#FFFFFF;}
	.st3{fill:#FFFFFF;fill-opacity:0.2;}
</style>
<path class="st0" d="M21,42c11.6,0,21-9.4,21-21C42,9.4,32.6,0,21,0C9.4,0,0,9.4,0,21C0,32.6,9.4,42,21,42z"/>
<path class="st1" d="M21.2,5.1v11.4l9.6,4.3L21.2,5.1z"/>
<path class="st2" d="M21.2,5.1l-9.6,15.7l9.6-4.3V5.1z"/>
<path class="st1" d="M21.2,28.2V36l9.6-13.3L21.2,28.2z"/>
<path class="st2" d="M21.2,36v-7.7l-9.6-5.6L21.2,36z"/>
<path class="st3" d="M21.2,26.4l9.6-5.6l-9.6-4.3V26.4z"/>
<path class="st1" d="M11.6,20.8l9.6,5.6v-9.9L11.6,20.8z"/>
</svg>
