<svg width="209" height="153" viewBox="0 0 209 153" fill="none" xmlns="http://www.w3.org/2000/svg">
<path d="M77.6482 101.347C76.933 100.108 75.9045 99.079 74.666 98.3632C73.4276 97.6475 72.0231 97.2701 70.5927 97.2688C69.3181 97.2652 68.0603 97.562 66.922 98.1351C65.7836 98.7083 64.7965 99.5417 64.0404 100.568L16.4355 140.933L24.2702 150.097L64.4527 116.008V147.669H76.5028V116.146L119.892 152.8L127.682 143.637L77.6482 101.347Z" fill="white"/>
<path d="M28.0465 52.1447L0 57.2012L6.0564 90.794L34.1029 85.7375L28.0465 52.1447Z" fill="white"/>
<path d="M83.1437 34.3183L30.0264 43.8948L38.8468 92.8185L91.9641 83.242L83.1437 34.3183Z" fill="white"/>
<path d="M188.602 2.77637e-05L83.9014 18.8765L98.0628 97.4249L202.764 78.5485L188.602 2.77637e-05Z" fill="white"/>
<path d="M192.691 22.729L193.928 29.6475L199.197 19.5217C198.234 18.3533 197.209 17.2369 196.127 16.177L192.691 22.729Z" fill="white"/>
<path d="M206.442 33.0305C205.898 31.2213 205.209 29.4592 204.38 27.7615L196.362 43.1563L197.599 50.029L206.442 33.0305Z" fill="white"/>
<path d="M203.235 25.5186C202.436 24.0902 201.549 22.713 200.578 21.395L194.53 32.987L195.767 39.8596L203.235 25.5186Z" fill="white"/>
<path d="M200.023 63.5477L200.802 68.1295C204.924 62.3227 207.423 55.5218 208.042 48.4277L200.023 63.5477Z" fill="white"/>
<path d="M208.367 43.4791C208.302 41.5281 208.103 39.5839 207.771 37.6603C207.771 37.1104 207.771 36.6065 207.405 36.0566L198.241 53.33L199.478 60.2485L208.367 43.4791Z" fill="white"/>
<path d="M194.617 14.753C193.413 13.6674 192.143 12.6575 190.814 11.729L192.188 19.4264L194.617 14.753Z" fill="white"/>
</svg>
