<svg width="45" height="33" viewBox="0 0 45 33" fill="none" xmlns="http://www.w3.org/2000/svg">
<path d="M0 26.188V25.6119C0 25.4511 0.0469153 25.2903 0.0603145 25.1295C0.291094 21.994 0.761423 18.8808 1.46722 15.817C2.31409 11.8984 3.72928 8.12454 5.66789 4.61528C5.88953 4.22779 6.19375 3.89383 6.55895 3.63712C8.39347 2.32711 10.4304 1.32678 12.5886 0.675902C13.6337 0.381119 14.719 0.213628 15.7843 0.00594042C15.8529 -0.00542524 15.9233 -0.000436525 15.9897 0.0205181C16.056 0.0414728 16.1165 0.0777968 16.1662 0.126529C16.3274 0.403946 16.4728 0.690252 16.6017 0.984078C14.9102 1.37896 13.2693 1.96562 11.7109 2.73267C10.0695 3.58352 7.92567 5.11774 7.52369 5.72071C17.2515 0.669202 26.9838 0.669202 36.7206 5.72071C34.1716 3.36546 31.0322 1.7448 27.6359 1.03098C27.7402 0.847553 27.832 0.657294 27.9106 0.461509C28.0312 0.066232 28.2791 -0.000774731 28.661 0.0528222C31.5349 0.471782 34.2893 1.48732 36.7474 3.03416C37.5822 3.46171 38.279 4.1167 38.7573 4.92345C40.1229 7.5107 41.2185 10.2317 42.0267 13.0434C42.8498 15.8108 43.4458 18.6407 43.8088 21.505C43.9763 22.8449 44.1169 24.2451 44.2643 25.6119V26.188C43.7418 26.7039 43.2527 27.26 42.6899 27.7423C39.7595 30.1927 36.1698 31.7218 32.3725 32.1373C31.9912 32.2426 31.5849 32.2096 31.2257 32.044C30.8664 31.8785 30.5772 31.5911 30.4095 31.2328C30.1315 30.801 29.8295 30.3849 29.5051 29.9867C32.6713 28.9138 35.5167 27.0614 37.7791 24.6002C37.716 24.6106 37.6563 24.6358 37.6049 24.6739C35.107 26.4558 32.285 27.7326 29.2974 28.4324C25.4789 29.3074 21.532 29.4732 17.6535 28.9215C14.4031 28.5161 11.2703 27.449 8.4482 25.786C7.83854 25.4176 7.23559 25.029 6.62593 24.6471C8.84834 27.0957 11.6561 28.9399 14.786 30.0068C14.2836 30.6768 13.8079 31.3065 13.359 31.943C13.2996 32.041 13.2127 32.1193 13.109 32.1682C13.0053 32.217 12.8896 32.2343 12.7762 32.2177C10.9216 32.0874 9.09356 31.7042 7.34279 31.0787C4.51607 30.1056 1.98735 28.4213 0 26.188ZM19.114 17.8336C19.0183 17.3123 18.8816 16.7993 18.7053 16.2994C18.5271 15.7975 18.229 15.3468 17.8369 14.9864C17.4448 14.626 16.9705 14.3669 16.4555 14.2315C15.9404 14.0961 15.4 14.0886 14.8814 14.2097C14.3628 14.3307 13.8816 14.5766 13.4796 14.926C12.6401 15.7175 12.1472 16.8085 12.1083 17.9617C12.0694 19.1148 12.4877 20.2367 13.2719 21.0829C13.7687 21.6366 14.448 21.9934 15.1859 22.0881C15.9238 22.1828 16.6712 22.0091 17.2917 21.5988C18.5311 20.8015 19.0202 19.5755 19.114 17.8336ZM25.1772 18.0815C25.1665 18.8399 25.3535 19.588 25.7198 20.2522C25.929 20.6801 26.2293 21.0571 26.5998 21.3566C26.9702 21.6561 27.4017 21.8709 27.8639 21.9858C28.3262 22.1008 28.8081 22.1131 29.2756 22.0219C29.7432 21.9307 30.1851 21.7383 30.5703 21.4581C31.0596 21.0581 31.4554 20.556 31.7302 19.9869C32.0049 19.4178 32.1519 18.7955 32.1608 18.1636C32.1698 17.5317 32.0404 16.9055 31.7819 16.3289C31.5234 15.7523 31.1419 15.2392 30.6641 14.8255C30.1907 14.4127 29.5989 14.1599 28.9733 14.1034C28.3477 14.0469 27.7202 14.1894 27.1803 14.5106C26.5522 14.8662 26.0335 15.387 25.6804 16.0165C25.3272 16.6459 25.1532 17.3601 25.1772 18.0815Z" fill="#37394C"/>
</svg>
