<svg width="31" height="32" viewBox="0 0 31 32" fill="none" xmlns="http://www.w3.org/2000/svg">
<path d="M9.73689 28.1801C9.59575 28.2001 9.53527 28.2201 9.39413 28.2401C6.49074 28.6201 4.59548 27.6001 2.82118 25.4201C2.70021 25.2801 2.29696 24.7602 2.19615 24.6402C1.65176 23.9802 1.32917 23.7002 1.00657 23.6202C0.260558 23.4002 -0.162854 22.6402 0.0589329 21.9002C0.260557 21.2002 0.966242 20.7802 1.69209 20.9402C2.7607 21.2002 3.48654 21.8002 4.37369 22.9002C4.49466 23.0402 4.89791 23.5602 4.99872 23.6802C6.34961 25.3401 7.37789 25.9201 9.73689 25.3801V25.3201C9.6764 24.4202 9.81754 23.5002 10.1603 22.6602C4.91808 21.4602 2.05501 18.3403 2.05501 11.9204C2.03485 9.90045 2.72037 7.92049 3.9906 6.34052C3.50671 4.52056 3.64784 2.6006 4.39385 0.880635C4.59548 0.400644 5.05921 0.080651 5.58344 0.0406518C6.89399 -0.159344 8.82958 0.360645 11.4104 2.00061C14.4751 1.28063 17.6406 1.28063 20.7052 2.00061C23.286 0.380645 25.2216 -0.139345 26.5322 0.0406518C27.0564 0.080651 27.5201 0.400644 27.7218 0.880635C28.4678 2.6006 28.6089 4.52056 28.125 6.34052C29.3751 7.92049 30.0606 9.86045 30.0606 11.8804C30.0606 18.3403 27.1572 21.5002 21.9553 22.6402C22.2981 23.4602 22.4392 24.3402 22.3586 25.2401V30.62C22.3182 31.38 21.673 31.98 20.8867 31.94C20.1609 31.9 19.5762 31.34 19.556 30.62V25.1401C19.6366 24.2002 19.9189 23.4602 19.2536 22.7802C18.7092 22.2202 18.7293 21.3402 19.2939 20.8202C19.5157 20.6002 19.7979 20.4802 20.1004 20.4402C25.6854 20.0202 27.5806 17.0203 27.7218 11.9004C27.7218 10.3204 26.9153 8.74047 25.8265 7.5805C25.4636 7.20051 25.3426 6.64052 25.5241 6.14053C25.9273 5.08055 26.0886 3.60058 25.8265 2.5006L25.5039 2.5806C24.3143 2.6006 23.1247 3.38058 21.7739 4.28057C21.4311 4.50056 21.1085 4.62056 20.7052 4.52056C18.8503 3.58058 14.092 3.50058 11.1281 4.28057C10.745 4.38056 10.3216 4.32056 9.97884 4.10057C8.84975 3.34058 7.59968 2.8006 6.28912 2.5006C6.02701 3.60058 5.88587 4.78056 6.28912 5.84053C6.47058 6.34052 6.34961 6.84051 5.96652 7.22051C4.85759 8.38048 4.39385 10.3404 4.39385 11.9404C4.39385 17.5603 7.19643 20.1402 12.4991 20.4202C12.8016 20.4602 13.0839 20.7202 13.3056 20.9402C13.8702 21.4802 13.6887 22.1802 13.104 22.9002C12.7008 23.4402 12.4387 24.1002 12.5193 25.1201V30.5C12.5193 31.26 11.9346 32 11.1684 32C10.4023 32 9.77722 31.38 9.77722 30.62C9.73689 30.62 9.73689 28.1801 9.73689 28.1801Z" fill="#37394C"/>
</svg>
