<svg width="33" height="33" viewBox="0 0 33 33" fill="none" xmlns="http://www.w3.org/2000/svg">
<path d="M32.1581 32.1581H0V0H32.1581V32.1581ZM25.1102 23.1271C24.9829 22.8792 24.9828 22.7586 24.8623 22.6313L23.7502 21.5192C23.5929 21.3522 23.5044 21.1321 23.5023 20.9028V10.8869C23.5059 10.6559 23.5941 10.4342 23.7502 10.2638L24.8623 9.15167C24.9828 9.03108 24.9829 8.90377 25.1102 8.65589H20.0453C18.8058 11.6238 17.6937 14.5918 16.4543 17.5664C16.3337 17.3185 16.3337 17.1912 16.2064 17.0706C14.9737 14.3506 13.7342 11.6238 12.5015 9.03106C12.5015 8.78318 12.2537 8.65589 11.8785 8.65589H7.05471C7.182 8.90377 7.182 9.03108 7.30259 9.15167C7.68298 9.73956 8.13286 10.2794 8.64252 10.7596C8.89479 11.123 9.02611 11.5567 9.01773 11.999V19.5428C9.02736 19.9461 8.89448 20.3398 8.64252 20.6549C8.14674 21.2713 7.53036 21.8943 7.03459 22.6313C6.914 22.7586 6.78675 22.8792 6.91405 23.1271H12.3541C12.2335 22.8792 12.2335 22.7586 12.1062 22.6313C11.5955 21.918 11.0166 21.2561 10.3777 20.6549C10.2747 20.5384 10.1989 20.4003 10.1561 20.2508C10.1132 20.1013 10.1042 19.9441 10.1298 19.7907V12.9972C10.1985 13.0627 10.2413 13.1507 10.2504 13.2451C10.9941 14.853 11.7377 16.4609 12.4814 18.1961C13.2183 19.8041 13.962 21.412 14.7057 22.8859C14.8263 23.0132 14.8262 23.2611 15.0741 23.2611C15.322 23.2611 15.4493 23.1338 15.5699 22.8859C16.8093 19.6701 18.0421 16.5815 19.2815 13.3657C19.2815 13.2384 19.4021 13.1178 19.4021 12.9905V21.0301C19.3743 21.2175 19.2875 21.3912 19.1542 21.5259L17.9215 22.7653C17.8401 22.8153 17.7815 22.895 17.7577 22.9875C17.734 23.0799 17.7471 23.178 17.7942 23.2611C20.2865 23.1271 22.6314 23.1271 25.1102 23.1271Z" fill="#37394C"/>
</svg>
