<svg width="33" height="33" viewBox="0 0 33 33" fill="none" xmlns="http://www.w3.org/2000/svg">
<path d="M15.1911 0.00345676H16.6784C16.7449 -0.00478209 16.8125 0.00174899 16.8762 0.0225938C16.9398 0.0434387 16.9981 0.078079 17.0469 0.124045L19.6464 0.499221C27.438 2.22772 32.8781 10.0194 32.0138 18.0589C31.6746 21.6111 30.0976 24.9311 27.5586 27.4384C23.4785 31.5251 18.5342 33.0057 12.8194 31.8936C9.09098 31.131 5.75541 29.0669 3.40921 26.0706C1.06302 23.0742 -0.140754 19.3409 0.0131192 15.5384C0.166992 11.7359 1.66849 8.1121 4.24912 5.3151C6.82975 2.5181 10.3212 0.730309 14.0991 0.271437C14.4465 0.124565 14.8152 0.0341026 15.1911 0.00345676ZM15.5662 21.8978C15.6868 22.0184 15.6869 22.0184 15.8142 22.0184C17.4221 23.1305 18.9027 24.3699 20.5039 25.4821C20.6493 25.5931 20.82 25.666 21.0007 25.6944C21.1814 25.7227 21.3662 25.7054 21.5386 25.6442C21.7109 25.583 21.8652 25.4798 21.9876 25.3438C22.1099 25.2079 22.1964 25.0435 22.2391 24.8657C23.3512 19.6668 24.336 14.354 25.4549 9.15513C25.5189 8.95396 25.517 8.7376 25.4496 8.53757C25.3821 8.33754 25.2525 8.16428 25.0797 8.04299C24.9319 7.90611 24.7439 7.82047 24.5436 7.79875C24.3433 7.77703 24.1413 7.82039 23.9676 7.9224L5.04118 15.3389C4.94875 15.3529 4.86378 15.3978 4.80001 15.4662C4.67915 15.5176 4.57614 15.6035 4.50371 15.7131C4.43127 15.8227 4.39265 15.9512 4.39265 16.0825C4.39265 16.2139 4.43127 16.3423 4.50371 16.4519C4.57614 16.5615 4.67915 16.6474 4.80001 16.6989C4.9206 16.8262 5.04118 16.8262 5.28906 16.8262C6.62899 17.3219 8.13642 17.6904 9.49644 18.1661C9.74433 18.2867 9.86495 18.414 9.86495 18.5346L10.6086 20.7655C10.9979 21.8185 11.3289 22.892 11.6001 23.9814C11.848 24.7183 12.5917 25.0935 13.2081 24.3498L13.4559 24.102C14.2063 23.3784 14.8226 22.6347 15.5662 21.8978Z" fill="#37394C"/>
<path d="M12.089 23.1317C12.089 23.0111 11.9617 22.8838 11.9617 22.7632C11.5932 21.4233 11.0974 19.9159 10.7289 18.5558C10.6016 18.1874 10.6016 18.0601 10.9768 17.8122L15.8006 14.8443C17.6564 13.7321 19.3849 12.62 21.2407 11.4945C21.3349 11.4798 21.4218 11.4352 21.4885 11.3672C21.5556 11.3588 21.6236 11.3659 21.6875 11.388C21.7514 11.4101 21.8094 11.4465 21.857 11.4945C21.857 11.615 21.7364 11.7423 21.7364 11.8629C21.1134 12.486 20.3965 13.1024 19.7265 13.7187C17.5023 15.7286 15.278 17.6782 13.1743 19.534C12.9391 19.7759 12.7686 20.0731 12.6785 20.3982C12.5361 21.3412 12.4534 22.2922 12.4307 23.2456C12.1828 22.9977 12.1827 23.1183 12.0621 23.1183L12.089 23.1317Z" fill="#37394C"/>
</svg>
