<svg width="39" height="33" viewBox="0 0 39 33" fill="none" xmlns="http://www.w3.org/2000/svg">
<path d="M2.33145 1.56372C6.6661 6.76262 11.9923 9.60326 18.5512 9.98514C18.5512 9.11419 18.4306 8.37052 18.4306 7.50627C18.5512 4.28376 21.0301 1.06794 24.1253 0.324286C25.4647 -0.0780345 26.8885 -0.106553 28.2429 0.241788C29.5973 0.590129 30.8307 1.30208 31.8097 2.30068C32.0576 2.54857 32.1782 2.66916 32.4261 2.54856C33.9548 2.20669 35.4184 1.62079 36.7608 0.813365C36.8881 0.813365 37.0087 0.686076 37.1359 0.565483C36.8751 1.45952 36.4552 2.29921 35.8965 3.04433C35.2734 3.78128 34.6571 4.27706 34.0407 5.02072C35.4481 4.84175 36.8235 4.46744 38.1275 3.90858C38.1275 3.94057 38.1402 3.97125 38.1628 3.99386C38.1854 4.01648 38.2161 4.02917 38.2481 4.02917L36.3923 6.26015C35.8753 6.85877 35.2933 7.39804 34.6571 7.86806C34.5828 7.92822 34.5222 8.0036 34.4795 8.08911C34.4367 8.17463 34.4128 8.26828 34.4092 8.36382C34.5444 13.4366 33.0717 18.4221 30.2018 22.6072C28.6237 24.9853 26.5844 27.0225 24.2045 28.598C21.8246 30.1734 19.1527 31.2551 16.347 31.779C12.2865 32.5665 8.0878 32.2259 4.20733 30.7941C2.76351 30.2661 1.39256 29.557 0.127294 28.6838C0.127294 28.6838 0 28.6838 0 28.5632C4.33465 28.9316 8.17353 27.9468 11.5166 25.2134C7.92564 24.8382 5.44676 22.9824 4.20733 19.5187C5.36346 19.6629 6.53527 19.6199 7.67773 19.3914C5.85549 18.9924 4.22872 17.9721 3.07612 16.5054C1.92352 15.0387 1.31683 13.2168 1.36 11.3519C2.36014 11.993 3.52182 12.3369 4.70981 12.3434C3.86639 11.7774 3.14655 11.0463 2.59381 10.1941C2.04107 9.34197 1.66692 8.38657 1.494 7.38568C1.02773 5.40891 1.32693 3.32892 2.33145 1.56372Z" fill="#37394C"/>
</svg>
