<?xml version="1.0" encoding="utf-8"?>
<!-- Generator: Adobe Illustrator 24.0.1, SVG Export Plug-In . SVG Version: 6.00 Build 0)  -->
<svg version="1.1" id="Layer_1" xmlns="http://www.w3.org/2000/svg" xmlns:xlink="http://www.w3.org/1999/xlink" x="0px" y="0px"
	 viewBox="0 0 42 42" style="enable-background:new 0 0 42 42;" xml:space="preserve">
<style type="text/css">
	.st0{fill:#01041C;}
	.st1{fill:#FFFFFF;}
</style>
<path class="st0" d="M21,42c11.6,0,21-9.4,21-21C42,9.4,32.6,0,21,0C9.4,0,0,9.4,0,21C0,32.6,9.4,42,21,42z"/>
<path class="st1" d="M29.6,18.4c0.4-2.6-1.6-4.1-4.4-5.1l0.9-3.5l-2.2-0.6L23,12.7c-0.6-0.2-1.2-0.3-1.8-0.5l0.9-3.4l-2.2-0.6
	l-0.9,3.5l-4.5-1.2l-0.6,2.3c0,0,1.6,0.4,1.6,0.4c0.9,0.2,1.1,0.8,1,1.3l-2.6,9.6c-0.1,0.3-0.4,0.7-1,0.5c0,0-1.6-0.4-1.6-0.4
	l-1.1,2.4l4.5,1.2l-1,3.6l2.2,0.6l0.9-3.5c0.6,0.2,1.2,0.3,1.8,0.5l-0.9,3.5l2.2,0.6l1-3.5c3.8,0.8,6.6,0.6,7.9-2.7
	c1-2.6,0-4.2-2-5.3C28.2,21.2,29.3,20.3,29.6,18.4L29.6,18.4z M24.4,25.2c-0.7,2.7-5.3,1.1-6.9,0.7l1.3-4.7
	C20.3,21.6,25.2,22.4,24.4,25.2L24.4,25.2z M25.2,18.3c-0.6,2.4-4.5,1.1-5.8,0.7l1.1-4.3C21.8,15.1,25.9,15.8,25.2,18.3"/>
</svg>
