<?xml version="1.0" encoding="utf-8"?>
<!-- Generator: Adobe Illustrator 24.0.1, SVG Export Plug-In . SVG Version: 6.00 Build 0)  -->
<svg version="1.1" id="Layer_1" xmlns="http://www.w3.org/2000/svg" xmlns:xlink="http://www.w3.org/1999/xlink" x="0px" y="0px"
	 viewBox="0 0 42 42" style="enable-background:new 0 0 42 42;" xml:space="preserve">
<style type="text/css">
	.st0{fill:#01041C;}
	.st1{fill:#FFFFFF;}
</style>
<path class="st0" d="M42,21c0,11.6-9.4,21-21,21C9.4,42,0,32.6,0,21C0,9.4,9.4,0,21,0C32.6,0,42,9.4,42,21z"/>
<g>
	<rect x="12.2" y="9.8" transform="matrix(0.7071 -0.7071 0.7071 0.7071 -3.4838 16.7816)" class="st1" width="12.6" height="5.6"/>
	<rect x="10.5" y="18.2" transform="matrix(0.7071 -0.7071 0.7071 0.7071 -8.6978 21)" class="st1" width="21" height="5.6"/>
	<rect x="15.9" y="23.6" transform="matrix(0.7071 -0.7071 0.7071 0.7071 -10.9532 26.4446)" class="st1" width="21" height="5.6"/>
	<rect x="7.3" y="18.2" transform="matrix(0.7071 -0.7071 0.7071 0.7071 -11.8874 13.2997)" class="st1" width="5.6" height="5.6"/>
</g>
</svg>
