<svg width="42" height="42" viewBox="0 0 42 42" fill="none" xmlns="http://www.w3.org/2000/svg">
<path d="M42 21C42 32.598 32.598 42 21 42C9.40202 42 0 32.598 0 21C0 9.40202 9.40202 0 21 0C32.598 0 42 9.40202 42 21Z" fill="#050C28"/>
<rect x="21" y="6.1524" width="5.6" height="12.628" transform="rotate(45 21 6.1524)" fill="white"/>
<rect x="26.4451" y="11.5955" width="5.6" height="21" transform="rotate(45 26.4451 11.5955)" fill="white"/>
<rect x="31.8896" y="17.0403" width="5.6" height="21" transform="rotate(45 31.8896 17.0403)" fill="white"/>
<rect x="10.1104" y="17.0403" width="5.6" height="5.6" transform="rotate(45 10.1104 17.0403)" fill="white"/>
<path fill-rule="evenodd" clip-rule="evenodd" d="M21 40.7778C31.923 40.7778 40.7778 31.923 40.7778 21C40.7778 10.077 31.923 1.22222 21 1.22222C10.077 1.22222 1.22222 10.077 1.22222 21C1.22222 31.923 10.077 40.7778 21 40.7778ZM21 41C32.0457 41 41 32.0457 41 21C41 9.95431 32.0457 1 21 1C9.95431 1 1 9.95431 1 21C1 32.0457 9.95431 41 21 41Z" fill="white"/>
<path fill-rule="evenodd" clip-rule="evenodd" d="M21.0001 39.2222C31.064 39.2222 39.2223 31.0638 39.2223 21C39.2223 10.9361 31.064 2.77776 21.0001 2.77776C10.9363 2.77776 2.77789 10.9361 2.77789 21C2.77789 31.0638 10.9363 39.2222 21.0001 39.2222ZM21.0001 39.4444C31.1867 39.4444 39.4446 31.1866 39.4446 21C39.4446 10.8134 31.1867 2.55554 21.0001 2.55554C10.8135 2.55554 2.55566 10.8134 2.55566 21C2.55566 31.1866 10.8135 39.4444 21.0001 39.4444Z" fill="white"/>
</svg>
