<svg width="64" height="64" viewBox="0 0 64 64" fill="none" xmlns="http://www.w3.org/2000/svg">
<path fill-rule="evenodd" clip-rule="evenodd" d="M2.438 38.115L2.426 38.671C2.426 39.375 2.482 40.069 2.592 40.754H2.426V41.831C2.4259 42.353 2.45695 42.8746 2.519 43.393C3.725 53.45 16.463 61.36 32 61.36C47.537 61.36 60.275 53.448 61.48 43.393C61.5421 42.8746 61.5731 42.353 61.573 41.831V40.754H61.407C61.5176 40.0651 61.5731 39.3686 61.573 38.671C61.5729 38.4856 61.5689 38.3002 61.561 38.115C61.116 27.587 48.05 19.143 32 19.143C15.95 19.143 2.884 27.587 2.438 38.115ZM0.008 38.115C0.228 31.691 4.241 26.295 9.828 22.605C15.618 18.781 23.463 16.502 31.998 16.502C40.533 16.502 48.378 18.782 54.168 22.605C59.754 26.295 63.768 31.69 63.988 38.115H64V41.831C64 48.501 59.918 54.101 54.17 57.896C48.38 61.72 40.536 64 32 64C23.464 64 15.62 61.7199 9.83 57.8969C4.082 54.102 0 48.5 0 41.832V38.116H0.01L0.008 38.115Z" fill="#606063"/>
<path d="M61.574 41.832C61.574 52.618 48.334 61.362 32 61.362C15.666 61.362 2.427 52.618 2.427 41.832V38.74H61.574V41.832Z" fill="#BEBEBE"/>
<path d="M61.574 38.6721C61.574 49.4581 48.334 58.2021 32 58.2021C15.666 58.2021 2.427 49.4581 2.427 38.6721C2.427 27.8861 15.667 19.1431 32 19.1431C48.333 19.1431 61.574 27.8861 61.574 38.6731V38.6721Z" fill="#FAF9FA"/>
<path fill-rule="evenodd" clip-rule="evenodd" d="M6.97705 33.1549V33.1919C6.97734 34.0707 7.09334 34.9455 7.32205 35.7939H6.97705V36.9379C6.97705 37.4429 7.01505 37.9419 7.09005 38.4329C8.21705 45.8589 17.65 51.6529 29.12 51.6529C40.59 51.6529 50.0221 45.8569 51.1501 38.4329C51.2253 37.9382 51.263 37.4384 51.2631 36.9379V35.7939H50.918C51.1405 34.9688 51.2564 34.1185 51.2631 33.2639V33.1909V33.1539C51.2331 25.0439 41.331 18.4739 29.121 18.4739C16.911 18.4739 7.00905 25.0439 6.97905 33.1539L6.97705 33.1549ZM4.55005 33.1549V36.9379C4.55005 42.2679 7.79005 46.6679 12.196 49.5979C16.643 52.5539 22.632 54.2959 29.118 54.2959C35.604 54.2959 41.5931 52.5539 46.0401 49.5979C50.445 46.6699 53.6861 42.2709 53.6861 36.9379V33.1919C53.6861 27.8619 50.4461 23.4619 46.0401 20.5339C41.5931 17.5779 35.604 15.8359 29.118 15.8359C22.632 15.8359 16.643 17.5779 12.196 20.5339C7.80105 23.4539 4.56405 27.8409 4.55005 33.1559V33.1549Z" fill="#633001"/>
<path d="M51.2599 36.9381C51.2599 45.0661 41.347 51.6551 29.118 51.6551C16.889 51.6551 6.97595 45.0661 6.97595 36.9381V33.4851H51.2599V36.9381Z" fill="#FEDC90"/>
<path d="M51.2599 33.1901C51.2599 41.3181 41.347 47.9071 29.118 47.9071C16.889 47.9071 6.97595 41.3201 6.97595 33.1901C6.97595 25.0601 16.9 18.4741 29.118 18.4741C41.336 18.4741 51.2599 25.0631 51.2599 33.1901Z" fill="#D1884F"/>
<path fill-rule="evenodd" clip-rule="evenodd" d="M13.65 25.237V25.274C13.6503 26.1527 13.7663 27.0276 13.995 27.876H13.65V29.02C13.65 29.525 13.688 30.024 13.763 30.515C14.89 37.941 24.323 43.737 35.793 43.737C47.263 43.737 56.695 37.941 57.823 30.515C57.8982 30.0202 57.9359 29.5205 57.936 29.02V27.876H57.591C57.811 27.054 57.931 26.209 57.936 25.346V25.273V25.236C57.906 17.126 48.004 10.556 35.794 10.556C23.584 10.556 13.682 17.126 13.652 25.236L13.65 25.237ZM11.224 25.237V29.02C11.224 34.35 14.464 38.75 18.871 41.68C23.318 44.636 29.307 46.378 35.793 46.378C42.279 46.378 48.268 44.636 52.715 41.68C57.12 38.752 60.361 34.353 60.361 29.02V25.274C60.361 19.944 57.121 15.544 52.715 12.614C48.268 9.65802 42.279 7.91602 35.793 7.91602C29.307 7.91602 23.316 9.66002 18.87 12.615C14.475 15.535 11.238 19.922 11.224 25.237Z" fill="#633001"/>
<path d="M57.933 29.0199C57.933 37.1479 48.02 43.7369 35.791 43.7369C23.562 43.7369 13.65 37.1479 13.65 29.0199V25.5669H57.934V29.0199H57.933Z" fill="#FEDC90"/>
<path d="M57.933 25.2739C57.933 33.4019 48.02 39.9909 35.791 39.9909C23.562 39.9909 13.65 33.4019 13.65 25.2739C13.65 17.1459 23.563 10.5569 35.792 10.5569C48.021 10.5569 57.934 17.1469 57.934 25.2739H57.933Z" fill="#D1884F"/>
<path fill-rule="evenodd" clip-rule="evenodd" d="M6.97705 17.32V17.357C6.97734 18.2357 7.09334 19.1106 7.32205 19.959H6.97705V21.103C6.97705 21.608 7.01505 22.107 7.09005 22.598C8.21705 30.024 17.65 35.818 29.12 35.818C40.59 35.818 50.0221 30.022 51.1501 22.598C51.2253 22.1032 51.263 21.6035 51.2631 21.103V19.96H50.918C51.1405 19.1348 51.2564 18.2846 51.2631 17.43V17.357V17.32C51.23 9.208 41.33 2.64 29.12 2.64C16.91 2.64 7.00605 9.208 6.97705 17.32ZM4.55005 17.32V21.103C4.55005 26.433 7.79005 30.833 12.196 33.763C16.643 36.719 22.632 38.461 29.118 38.461C35.604 38.461 41.5931 36.719 46.0401 33.763C50.445 30.835 53.6861 26.436 53.6861 21.103V17.357C53.6861 12.027 50.4461 7.627 46.0401 4.697C41.5941 1.742 35.605 0 29.12 0C22.635 0 16.643 1.742 12.197 4.698C7.80205 7.62 4.56505 12.005 4.55005 17.32Z" fill="#633001"/>
<path d="M51.2599 21.1029C51.2599 29.2309 41.347 35.8199 29.118 35.8199C16.889 35.8199 6.97595 29.2299 6.97595 21.1029V17.6499H51.2599V21.1029Z" fill="#FEDC90"/>
<path d="M51.2599 17.3559C51.2599 25.4839 41.347 32.0729 29.118 32.0729C16.889 32.0729 6.97595 25.4839 6.97595 17.3559C6.97595 9.22789 16.9 2.63989 29.118 2.63989C41.336 2.63989 51.2599 9.22789 51.2599 17.3559Z" fill="#D1884F"/>
<path fill-rule="evenodd" clip-rule="evenodd" d="M12.2141 18.2722C12.2141 20.9862 14.0271 23.4162 16.8871 25.0522L14.9051 28.7852V38.2332C14.9051 39.4832 15.8351 40.4952 16.9851 40.4952C18.1351 40.4952 19.0651 39.4822 19.0651 38.2332V30.7202L21.1971 26.7042C22.5601 27.0182 24.0241 27.1892 25.5471 27.1892C32.9111 27.1892 38.8801 23.1972 38.8801 18.2732C38.8801 13.3492 32.9001 9.3562 25.5471 9.3562C18.1941 9.3562 12.2141 13.3482 12.2141 18.2722Z" fill="url(#paint0_linear)"/>
<path fill-rule="evenodd" clip-rule="evenodd" d="M16.8871 25.0501L15.9771 24.4781C13.6471 22.8731 12.2151 20.6841 12.2151 18.2711C12.2151 13.3471 18.1851 9.35512 25.5481 9.35512C32.9111 9.35512 38.8811 13.3471 38.8811 18.2711C38.8811 23.1951 32.9111 27.1871 25.5481 27.1871C24.0844 27.1902 22.6251 27.0274 21.1981 26.7021L19.0661 30.7181V38.2321C19.0661 39.4821 18.1361 40.4941 16.9861 40.4941C15.8361 40.4941 14.9061 39.4811 14.9061 38.2321V28.7841L16.8881 25.0511L16.8871 25.0501ZM12.7821 28.8231V38.2311C12.7821 40.7561 14.6641 42.8031 16.9851 42.8031C19.3061 42.8031 21.1881 40.7561 21.1881 38.2331V31.3381L22.2941 29.2551C23.3708 29.4172 24.4582 29.4981 25.5471 29.4971C29.5471 29.4971 33.2871 28.4151 36.0871 26.5441C38.8511 24.6961 41.0031 21.8361 41.0031 18.2721C41.0031 14.7081 38.8501 11.8501 36.0871 10.0001C33.2891 8.13012 29.5571 7.04712 25.5471 7.04712C21.5371 7.04712 17.8051 8.13012 15.0071 10.0001C12.2431 11.8481 10.0911 14.7081 10.0911 18.2701C10.0911 21.3981 11.7381 23.9741 14.0271 25.8201L13.0821 27.6001C12.9821 27.7641 12.9201 27.9401 12.8691 28.1301C12.8071 28.3581 12.7691 28.5921 12.7831 28.8241L12.7821 28.8231Z" fill="#633001"/>
<path d="M16.38 14.516C16.38 17.066 19.368 19.136 23.053 19.136C26.738 19.136 29.726 17.068 29.726 14.516C29.726 11.964 26.738 9.896 23.053 9.896C19.368 9.896 16.38 11.964 16.38 14.516Z" fill="#9E7200"/>
<path d="M16.38 12.5359H29.726V14.5159H16.38V12.5359Z" fill="#9E7200"/>
<path d="M16.38 12.536C16.38 15.086 19.368 17.154 23.053 17.154C26.738 17.154 29.726 15.086 29.726 12.536C29.726 9.98602 26.738 7.91602 23.053 7.91602C19.368 7.91602 16.38 9.98402 16.38 12.536Z" fill="#F0B90B"/>
<path d="M20.52 11.9799L22.4 10.6779C22.5906 10.5434 22.8182 10.4712 23.0515 10.4712C23.2848 10.4712 23.5124 10.5434 23.703 10.6779L25.583 11.9799C25.958 12.2399 25.958 12.8339 25.583 13.0929L23.703 14.3949C23.5124 14.5294 23.2848 14.6016 23.0515 14.6016C22.8182 14.6016 22.5906 14.5294 22.4 14.3949L20.52 13.0929C20.145 12.8329 20.145 12.2389 20.52 11.9799Z" fill="#9E7200"/>
<path fill-rule="evenodd" clip-rule="evenodd" d="M17.194 7.32191C18.791 6.21591 20.868 5.60791 23.052 5.60791C25.236 5.60791 27.312 6.21591 28.91 7.32191C30.482 8.40991 31.848 10.1969 31.848 12.5359V14.5159C31.848 16.8559 30.482 18.6419 28.91 19.7299C27.313 20.8349 25.236 21.4439 23.052 21.4439C20.868 21.4439 18.792 20.8359 17.194 19.7299C15.622 18.6419 14.256 16.8549 14.256 14.5159V12.5359C14.256 10.1959 15.622 8.40991 17.194 7.32191ZM23.052 7.91791C19.367 7.91791 16.379 9.98591 16.379 12.5379V14.5179C16.379 17.0679 19.367 19.1379 23.052 19.1379C26.737 19.1379 29.725 17.0699 29.725 14.5179V12.5379C29.725 9.98791 26.737 7.91791 23.052 7.91791Z" fill="#633001"/>
<defs>
<linearGradient id="paint0_linear" x1="25.6911" y1="9.6552" x2="25.6911" y2="40.2612" gradientUnits="userSpaceOnUse">
<stop stop-color="#9F4A08"/>
<stop offset="0.37" stop-color="#7D3900"/>
<stop offset="1" stop-color="#8D4104"/>
</linearGradient>
</defs>
</svg>
