<svg width="42" height="42" viewBox="0 0 42 42" fill="none" xmlns="http://www.w3.org/2000/svg">
<path d="M20.9999 42C32.598 42 42 32.598 42 21C42 9.40203 32.598 0 20.9999 0C9.40202 0 0 9.40203 0 21C0 32.598 9.40202 42 20.9999 42Z" fill="#050C28"/>
<path d="M21.2031 5.14124V16.541L30.8382 20.8465L21.2031 5.14124Z" fill="white" fill-opacity="0.602"/>
<path d="M21.2028 5.14124L11.5664 20.8465L21.2028 16.541V5.14124Z" fill="white"/>
<path d="M21.2021 28.2335V35.9793L30.8436 22.6403L21.2021 28.2335Z" fill="white" fill-opacity="0.602"/>
<path d="M21.2028 35.9793V28.2322L11.5664 22.6403L21.2028 35.9793Z" fill="white"/>
<path d="M21.2021 26.4405L30.8372 20.846L21.2021 16.5431V26.4405Z" fill="white" fill-opacity="0.2"/>
<path d="M11.5664 20.846L21.2028 26.4405V16.5431L11.5664 20.846Z" fill="white" fill-opacity="0.602"/>
<path fill-rule="evenodd" clip-rule="evenodd" d="M21 40.7778C31.923 40.7778 40.7778 31.923 40.7778 21C40.7778 10.077 31.923 1.22222 21 1.22222C10.077 1.22222 1.22222 10.077 1.22222 21C1.22222 31.923 10.077 40.7778 21 40.7778ZM21 41C32.0457 41 41 32.0457 41 21C41 9.95431 32.0457 1 21 1C9.95431 1 1 9.95431 1 21C1 32.0457 9.95431 41 21 41Z" fill="white"/>
<path fill-rule="evenodd" clip-rule="evenodd" d="M21.0001 39.2222C31.064 39.2222 39.2223 31.0638 39.2223 21C39.2223 10.9361 31.064 2.77776 21.0001 2.77776C10.9363 2.77776 2.77789 10.9361 2.77789 21C2.77789 31.0638 10.9363 39.2222 21.0001 39.2222ZM21.0001 39.4444C31.1867 39.4444 39.4446 31.1866 39.4446 21C39.4446 10.8134 31.1867 2.55554 21.0001 2.55554C10.8135 2.55554 2.55566 10.8134 2.55566 21C2.55566 31.1866 10.8135 39.4444 21.0001 39.4444Z" fill="white"/>
</svg>
