<svg width="42" height="42" viewBox="0 0 42 42" fill="none" xmlns="http://www.w3.org/2000/svg">
<circle cx="21" cy="21" r="21" fill="#050C28"/>
<path fill-rule="evenodd" clip-rule="evenodd" d="M17.1426 8.37803H5.85469V8.14286H17.3721V32.8818H36.7142V33.117H17.1426V8.37803ZM16.5074 9.11818H5.28564V8.88301H16.738L16.6285 33.622H36.1233V33.8571H16.398L16.5074 9.11818Z" fill="white"/>
<path fill-rule="evenodd" clip-rule="evenodd" d="M21 40.767C31.917 40.767 40.767 31.917 40.767 21C40.767 10.083 31.917 1.23301 21 1.23301C10.083 1.23301 1.23301 10.083 1.23301 21C1.23301 31.917 10.083 40.767 21 40.767ZM21 41C32.0457 41 41 32.0457 41 21C41 9.95431 32.0457 1 21 1C9.95431 1 1 9.95431 1 21C1 32.0457 9.95431 41 21 41Z" fill="white"/>
<path fill-rule="evenodd" clip-rule="evenodd" d="M20.9999 39.3368C31.127 39.3368 39.3367 31.1271 39.3367 21C39.3367 10.8729 31.127 2.66318 20.9999 2.66318C10.8728 2.66318 2.66308 10.8729 2.66308 21C2.66308 31.1271 10.8728 39.3368 20.9999 39.3368ZM20.9999 39.5714C31.2566 39.5714 39.5713 31.2567 39.5713 21C39.5713 10.7433 31.2566 2.42857 20.9999 2.42857C10.7432 2.42857 2.42847 10.7433 2.42847 21C2.42847 31.2567 10.7432 39.5714 20.9999 39.5714Z" fill="white"/>
<path fill-rule="evenodd" clip-rule="evenodd" d="M12.4285 32.4286V9.57143H20.5087C23.3078 9.57143 25.4308 10.1052 26.8779 11.1727C28.325 12.2297 29.0485 13.7839 29.0485 15.8352C29.0485 16.955 28.758 17.944 28.1771 18.8022C27.5961 19.6499 26.7881 20.2726 25.753 20.6703C26.936 20.9634 27.8655 21.5547 28.5415 22.4443C29.228 23.3339 29.5713 24.4223 29.5713 25.7096C29.5713 27.9074 28.8636 29.5714 27.4483 30.7017C26.0329 31.832 24.0155 32.4076 21.396 32.4286L14.5401 32.4286V9.57143L14.2892 9.57143V32.4286H13.828L13.828 9.57143L13.5771 9.57143L13.5771 32.4286L12.4285 32.4286ZM17.1816 22.4757V28.6452H21.2534C22.373 28.6452 23.2444 28.3836 23.8676 27.8603C24.5013 27.3265 24.8182 26.5939 24.8182 25.6625C24.8182 23.5693 23.725 22.5071 21.5386 22.4757H17.1816ZM17.1816 19.1476H20.6989C23.0965 19.1057 24.2954 18.1586 24.2954 16.3061C24.2954 15.27 23.9891 14.5269 23.3764 14.0769C22.7744 13.6164 21.8185 13.3862 20.5087 13.3862H17.1816V19.1476Z" fill="white"/>
</svg>
