<svg width="17" height="18" viewBox="0 0 17 18" fill="none" xmlns="http://www.w3.org/2000/svg">
<path d="M10.2235 9.72516C10.3099 9.63171 10.3873 9.54047 10.4733 9.45804C10.6451 9.29275 10.8886 9.28922 11.0519 9.4435C11.0916 9.48117 11.1231 9.52634 11.1448 9.57634C11.1665 9.62633 11.1777 9.68012 11.178 9.73452C11.1782 9.78892 11.1674 9.84281 11.1463 9.89299C11.1251 9.94318 11.0939 9.98863 11.0546 10.0267C10.9424 10.143 10.8196 10.2497 10.7021 10.3603C11.1027 11.1383 11.1726 11.9256 10.8739 12.7304C10.6365 13.3866 10.1583 13.9302 9.53444 14.2529C8.91784 14.5817 8.20135 14.6766 7.51918 14.5198C6.83701 14.363 6.23595 13.9654 5.8286 13.4013C5.41838 12.8366 5.23098 12.1427 5.30175 11.4506C5.37252 10.7585 5.69655 10.1159 6.21276 9.64406C7.26553 8.66904 9.01585 8.5725 10.2235 9.72516ZM10.078 10.992C9.85984 11.2093 9.65151 11.4173 9.44274 11.6245C9.13114 11.9331 8.81953 12.2451 8.50437 12.5502C8.31963 12.73 8.06768 12.7437 7.90965 12.5647C7.62431 12.2421 7.34966 11.9097 7.08035 11.5734C6.97218 11.4381 6.97886 11.2789 7.06833 11.1326C7.10782 11.0608 7.17063 11.0044 7.24657 10.9724C7.32252 10.9404 7.40716 10.9347 7.48676 10.9563C7.59094 10.9893 7.68477 11.0484 7.75919 11.1277C7.92212 11.3005 8.06723 11.4896 8.22704 11.6814L9.63459 10.3105C9.27765 9.95012 8.79828 9.73381 8.28942 9.70351C7.78055 9.67321 7.27846 9.8311 6.88048 10.1466C6.4747 10.4692 6.20707 10.9318 6.13121 11.4417C6.05535 11.9515 6.17686 12.4709 6.47139 12.8957C6.76694 13.323 7.21556 13.6228 7.72622 13.7345C8.23688 13.8461 8.77131 13.7612 9.22106 13.497C10.1839 12.9275 10.4341 11.7876 10.078 10.992Z" fill="#7416B2"/>
<path d="M16.1286 5.56327H0.13896C0.136289 5.50068 0.131836 5.44734 0.131836 5.39401C0.131836 4.25589 0.131836 3.11778 0.131836 1.97966C0.131836 1.56576 0.338384 1.36256 0.755041 1.36035C1.32127 1.36035 1.88764 1.36035 2.45417 1.36035C2.50358 1.36035 2.55254 1.36432 2.62377 1.36741V1.56576C2.62377 2.03873 2.6162 2.51169 2.62777 2.98422C2.63219 3.19504 2.67936 3.40284 2.76647 3.59526C2.85358 3.78768 2.97885 3.96081 3.13486 4.10435C3.29086 4.24789 3.47441 4.35891 3.67459 4.43083C3.87478 4.50275 4.08753 4.5341 4.30019 4.52301C5.07652 4.49039 5.75092 3.86888 5.79944 3.10367C5.83149 2.59412 5.81369 2.08148 5.81814 1.57017C5.81814 1.50581 5.81814 1.44146 5.81814 1.36829H10.4339C10.4374 1.42647 10.4441 1.48378 10.4441 1.54108C10.4441 1.992 10.4397 2.44293 10.4441 2.89386C10.457 3.85389 11.1879 4.564 12.1152 4.52257C12.9302 4.48686 13.6015 3.83318 13.6287 3.02786C13.6456 2.53902 13.6345 2.04931 13.6362 1.56003V1.37137C13.699 1.36697 13.7471 1.36035 13.7952 1.36035C14.3739 1.36035 14.9525 1.35815 15.5277 1.36035C15.9109 1.36035 16.1264 1.5737 16.1268 1.95277C16.1268 3.10764 16.1268 4.26236 16.1268 5.41693L16.1286 5.56327Z" fill="#7416B2"/>
<path d="M3.684 1.87968C3.684 1.54424 3.68089 1.2088 3.684 0.873805C3.68712 0.538807 3.90657 0.300781 4.21506 0.300781C4.52354 0.300781 4.7519 0.535721 4.75413 0.870719C4.75799 1.55218 4.75799 2.23363 4.75413 2.91509C4.75413 3.23775 4.52221 3.47093 4.21995 3.47137C3.9177 3.47181 3.68934 3.2448 3.68578 2.9195C3.67999 2.57216 3.684 2.2257 3.684 1.87968Z" fill="#7416B2"/>
<path d="M12.5772 1.88261C12.5772 2.21761 12.5798 2.55305 12.5772 2.88805C12.574 3.23847 12.3546 3.47165 12.0372 3.469C11.7296 3.46636 11.5079 3.23098 11.5066 2.89289C11.503 2.21702 11.503 1.54114 11.5066 0.86527C11.5066 0.533357 11.7421 0.295772 12.0492 0.298858C12.3564 0.301943 12.5718 0.532476 12.5763 0.860422C12.5807 1.20115 12.5772 1.54188 12.5772 1.88261Z" fill="#7416B2"/>
<path d="M16.1295 6.84735V6.62695H0.131849V6.83236C0.131849 10.0598 0.130218 13.2873 0.126953 16.5147C0.126953 16.8382 0.229334 17.0657 0.530699 17.1962H15.7302C16.0329 17.0661 16.134 16.8374 16.1335 16.5143C16.1264 13.2918 16.1251 10.0695 16.1295 6.84735ZM14.5933 16.2842H1.66627C1.6418 16.2844 1.61759 16.2791 1.59549 16.2687C1.36357 16.1594 1.28389 15.9769 1.28389 15.7222C1.29071 13.0607 1.2922 10.3994 1.28834 7.73818C1.28834 7.69329 1.30635 7.65023 1.33841 7.61849C1.37046 7.58675 1.41394 7.56892 1.45927 7.56892H14.8021C14.8246 7.56886 14.8469 7.57319 14.8676 7.58167C14.8884 7.59015 14.9073 7.60261 14.9233 7.61834C14.9392 7.63406 14.9518 7.65274 14.9604 7.6733C14.969 7.69387 14.9735 7.71591 14.9735 7.73818V7.75184C14.9735 10.4086 14.9745 13.0652 14.9766 15.7217C14.9766 15.9761 14.8982 16.1599 14.665 16.2692C14.6425 16.2793 14.618 16.2844 14.5933 16.2842Z" fill="#7416B2"/>
</svg>
