<svg width="17" height="18" viewBox="0 0 17 18" fill="none" xmlns="http://www.w3.org/2000/svg">
<path d="M0 8.22989C0.0439672 7.91113 0.0729856 7.58973 0.131902 7.27317C0.567177 4.91037 1.79079 3.05715 3.77239 1.70868C4.91554 0.92914 6.19058 0.482433 7.56808 0.342617C8.84889 0.211154 10.1428 0.37665 11.3493 0.826256C12.1623 1.12806 12.9247 1.55161 13.6105 2.0824C13.8954 2.30004 13.993 2.61704 13.869 2.92569C13.7499 3.22335 13.461 3.40669 13.1339 3.35305C12.9846 3.32293 12.8442 3.25884 12.7237 3.16575C12.1561 2.73529 11.5292 2.38921 10.8625 2.13824C9.80371 1.74731 8.66612 1.61789 7.54653 1.761C6.23639 1.91512 4.9998 2.4486 3.9887 3.29589C2.66969 4.38672 1.82816 5.77608 1.52302 7.46618C1.23812 9.04417 1.44696 10.565 2.21507 11.9772C3.30326 13.9782 4.97137 15.2282 7.22381 15.6331C9.06472 15.9637 10.7852 15.5984 12.3328 14.5462C13.9723 13.4308 14.9924 11.8853 15.3393 9.92263C15.5925 8.49018 15.4057 7.10873 14.809 5.7796C14.7323 5.61801 14.6952 5.44046 14.7009 5.26167C14.7233 4.9539 14.9765 4.72043 15.2623 4.67647C15.5934 4.62546 15.8955 4.76836 16.0247 5.08888C16.2274 5.5901 16.4446 6.09221 16.5787 6.6141C17.6616 10.8178 15.4057 15.1152 11.3365 16.6294C10.6069 16.9027 9.84154 17.0686 9.06428 17.1218C9.01593 17.128 8.96804 17.1374 8.92095 17.15H7.93344C7.89184 17.1376 7.84937 17.1285 7.80638 17.1227C6.4944 17.0299 5.26639 16.6558 4.14479 15.9716C1.95346 14.635 0.606749 12.7027 0.133222 10.1741C0.0738662 9.85844 0.0452875 9.53704 0.0013203 9.21828L0 8.22989Z" fill="#44484F"/>
<path d="M9.1262 8.02138H9.33195C10.176 8.02138 11.0205 8.02402 11.8646 8.02138C12.1701 8.02138 12.4115 8.12601 12.5565 8.40253C12.6103 8.50479 12.6376 8.61885 12.636 8.73435C12.6344 8.84985 12.604 8.96312 12.5476 9.06389C12.4911 9.16465 12.4103 9.2497 12.3126 9.31132C12.2149 9.37294 12.1034 9.40917 11.9881 9.41673C11.9441 9.4198 11.9002 9.42156 11.8562 9.42156C10.7378 9.42156 9.6196 9.42156 8.50151 9.42156C8.00386 9.42156 7.72734 9.14504 7.7269 8.64827C7.72515 7.05862 7.72515 5.46896 7.7269 3.87931C7.7269 3.36891 8.08871 3.04404 8.55339 3.12317C8.70292 3.14913 8.8396 3.224 8.942 3.33602C9.04439 3.44805 9.10671 3.59089 9.11917 3.74215C9.12489 3.8182 9.12532 3.89513 9.12532 3.97207C9.12532 5.24901 9.12532 6.52624 9.12532 7.80377L9.1262 8.02138Z" fill="#44484F"/>
</svg>
