<svg width="34" height="34" viewBox="0 0 34 34" fill="none" xmlns="http://www.w3.org/2000/svg">
<path d="M33.0019 16.5037C32.9938 25.6049 25.6007 32.998 16.5005 33.0051C7.40022 33.0122 -0.0172861 25.5876 3.02575e-05 16.4935C0.0153094 7.37081 7.43485 -0.0395667 16.5137 0.000158979C25.6516 0.0398847 33.0101 7.41054 33.0019 16.5037ZM31.3559 23.1053C31.3813 23.0594 31.4088 23.0156 31.4302 22.9688C32.0266 21.602 32.4291 20.1586 32.6261 18.6804C32.8337 17.1548 32.8238 15.6073 32.5965 14.0845C32.3324 12.2769 31.7583 10.5284 30.8995 8.91604C29.3982 6.04939 27.0697 3.70033 24.2164 2.17387C21.4193 0.660217 18.4226 0.0449777 15.2527 0.278239C13.5005 0.398497 11.7815 0.815254 10.1688 1.51076C6.2913 3.19485 3.45956 5.95562 1.6736 9.79306C1.05317 11.1415 0.627882 12.5713 0.410529 14.0396C0.213058 15.3414 0.174067 16.6623 0.294408 17.9735C0.349929 18.6976 0.467155 19.4156 0.644809 20.1197L0.663144 20.1829L0.678423 20.2369C0.684203 20.3543 0.707197 20.4703 0.74667 20.5811C1.73259 24.3878 4.06406 27.7084 7.30962 29.9284C10.5552 32.1485 14.4951 33.1177 18.4002 32.6567C19.9349 32.4853 21.4359 32.0882 22.8545 31.4782C26.3178 29.9819 28.9519 27.5759 30.7854 24.2868C31.0112 23.9112 31.2021 23.5157 31.3559 23.1053Z" fill="#0A0809"/>
<path d="M0.678772 20.239L0.663493 20.1851L0.645158 20.1219C0.467503 19.4178 0.350277 18.6998 0.294757 17.9757C0.17425 16.6639 0.213242 15.3422 0.410878 14.0398C0.628042 12.5708 1.05334 11.1402 1.67395 9.79118C3.45652 5.95849 6.28825 3.1984 10.1691 1.51091C11.7813 0.81598 13.4996 0.399574 15.251 0.279411C18.4229 0.0461496 21.4197 0.661389 24.2147 2.17504C27.0681 3.7015 29.3965 6.05056 30.8978 8.91721C31.7566 10.5296 32.3307 12.278 32.5948 14.0856C32.8221 15.6085 32.8321 17.1559 32.6244 18.6816C32.4274 20.1598 32.0249 21.6032 31.4285 22.9699C31.4071 23.0168 31.3796 23.0606 31.3542 23.1064C31.2666 23.1156 31.2442 23.194 31.2075 23.2511C30.4436 24.4667 29.5268 25.5793 28.4797 26.5615C27.6677 27.3264 26.7854 28.0129 25.8445 28.612C24.7978 29.2811 23.6778 29.8279 22.5065 30.2418C21.4586 30.6214 20.3751 30.8944 19.2724 31.0567C18.6237 31.1591 17.9691 31.22 17.3126 31.239C16.7514 31.2461 16.1922 31.2583 15.6279 31.2135C15.0829 31.1707 14.538 31.1249 13.9981 31.0373C13.0599 30.8845 12.136 30.6545 11.2356 30.3497C9.84771 29.8836 8.52634 29.2389 7.30482 28.4317C6.1606 27.6775 5.11135 26.7884 4.17973 25.7833C3.50235 25.0514 2.88702 24.2643 2.34012 23.4303C1.82669 22.6392 1.37904 21.8073 1.00167 20.9429C0.89981 20.7066 0.849898 20.4448 0.678772 20.239ZM6.15379 8.05954C6.62439 8.12269 7.06443 7.94036 7.4627 7.55737C7.92821 7.11325 8.36825 6.63349 8.86329 6.21382C9.38237 5.76452 9.95347 5.37911 10.5644 5.06585C11.3884 4.6523 12.2614 4.35283 13.1017 3.97492C13.5856 3.75898 14.0551 3.52266 14.4483 3.14985C15.0024 2.62425 14.7091 1.74315 14.0521 1.54554C13.2708 1.30922 12.4855 1.37238 11.7093 1.53943C10.6163 1.77473 9.60382 2.22801 8.6229 2.76176C7.48702 3.35619 6.46001 4.13868 5.58541 5.07604C5.17366 5.50678 4.85043 6.01412 4.63403 6.56932C4.3753 7.26706 4.64523 7.80387 5.36437 7.99537C5.62302 8.05485 5.88893 8.07647 6.15379 8.05954ZM16.4275 20.3633C17.2933 20.3633 18.1591 20.3165 19.0158 20.2462C20.6072 20.1271 22.1842 19.8614 23.7268 19.4527C25.0306 19.0982 26.2937 18.6449 27.4458 17.9248C27.7391 17.7404 28.0274 17.5469 28.2352 17.2586C28.6915 16.6301 28.5021 15.9201 27.7911 15.6125C27.5426 15.5102 27.2774 15.4546 27.0088 15.4485C26.1155 15.4057 25.2558 15.6288 24.3889 15.7867C22.1164 16.1977 19.8165 16.4401 17.5082 16.512C15.4659 16.5802 13.4246 16.5568 11.3854 16.4284C10.1768 16.3677 8.97451 16.2162 7.78866 15.9751C7.17749 15.8417 6.55614 15.7358 5.92155 15.7989C5.75718 15.8066 5.59878 15.8628 5.4664 15.9606C5.33403 16.0583 5.23364 16.1931 5.17797 16.348C4.97424 16.8369 5.08833 17.3299 5.51411 17.7587C5.95236 18.1839 6.4779 18.5085 7.05424 18.7101C10.0539 19.8202 13.2291 20.3803 16.4275 20.3633ZM25.9708 14.3454C26.4364 14.358 26.8944 14.226 27.2818 13.9675C27.3887 13.8921 27.4855 13.8055 27.4559 13.6619C27.4264 13.5183 27.3042 13.4765 27.1799 13.447C26.7989 13.3543 26.4282 13.4215 26.0594 13.5203C25.8236 13.5777 25.6034 13.6866 25.4147 13.8391C25.2109 14.0082 25.2486 14.1926 25.4849 14.2894C25.6419 14.3386 25.8068 14.3576 25.9708 14.3454ZM21.6112 12.4233C21.6126 12.554 21.6528 12.6815 21.7266 12.7894C21.8005 12.8973 21.9047 12.9809 22.0261 13.0296C22.1475 13.0783 22.2806 13.0899 22.4086 13.0629C22.5365 13.036 22.6536 12.9716 22.745 12.8781C22.8364 12.7845 22.898 12.666 22.9221 12.5374C22.9461 12.4089 22.9314 12.2761 22.8799 12.1558C22.8284 12.0356 22.7424 11.9334 22.6328 11.862C22.5232 11.7907 22.3949 11.7534 22.2641 11.7551C22.089 11.7591 21.9225 11.8316 21.8004 11.9572C21.6783 12.0827 21.6103 12.2512 21.6112 12.4263V12.4233ZM11.4811 12.4233C11.4908 12.3319 11.4813 12.2395 11.4532 12.1521C11.4252 12.0646 11.3791 11.984 11.318 11.9154C11.2569 11.8468 11.1822 11.7917 11.0985 11.7537C11.0149 11.7156 10.9243 11.6955 10.8324 11.6946C10.7406 11.6937 10.6495 11.712 10.5651 11.7483C10.4808 11.7846 10.4049 11.8382 10.3425 11.9055C10.28 11.9729 10.2323 12.0526 10.2025 12.1395C10.1726 12.2263 10.1613 12.3185 10.1691 12.41C10.1647 12.4985 10.1781 12.587 10.2085 12.6701C10.239 12.7533 10.2859 12.8295 10.3465 12.8941C10.4071 12.9588 10.4801 13.0105 10.5611 13.0463C10.6422 13.0821 10.7296 13.1012 10.8182 13.1024C10.9067 13.1036 10.9947 13.087 11.0767 13.0535C11.1587 13.02 11.2331 12.9703 11.2954 12.9073C11.3578 12.8444 11.4068 12.7696 11.4396 12.6873C11.4724 12.605 11.4882 12.5169 11.4862 12.4284L11.4811 12.4233Z" fill="#99CAE5"/>
<path d="M0.678837 20.2388C0.849963 20.4425 0.898856 20.7063 1.00275 20.9426C1.38025 21.8038 1.82755 22.6327 2.34019 23.4209C2.88709 24.2549 3.50241 25.0419 4.17979 25.7739C5.11142 26.7789 6.16067 27.6681 7.30488 28.4223C8.52641 29.2294 9.84777 29.8742 11.2357 30.3403C12.136 30.6451 13.06 30.8751 13.9982 31.0279C14.536 31.1155 15.0809 31.1613 15.6279 31.2041C16.1902 31.2489 16.7484 31.2367 17.3127 31.2296C17.9684 31.2115 18.6224 31.1516 19.2705 31.0503C20.3732 30.8881 21.4567 30.615 22.5046 30.2354C23.6759 29.8215 24.7958 29.2747 25.8425 28.6056C26.7835 28.0065 27.6657 27.32 28.4777 26.5552C29.5248 25.5729 30.4416 24.4603 31.2055 23.2447C31.2422 23.1876 31.2646 23.1092 31.3522 23.1C31.1997 23.51 31.0102 23.9051 30.7858 24.2806C28.9524 27.5697 26.3131 29.9756 22.855 31.472C21.4363 32.0819 19.9353 32.4791 18.4006 32.6505C14.4974 33.1068 10.5608 32.1367 7.31652 29.919C4.07226 27.7013 1.73907 24.3856 0.747084 20.5831C0.707611 20.4723 0.684617 20.3563 0.678837 20.2388Z" fill="#74B3D7"/>
<path d="M0.645164 20.1218L0.663499 20.185L0.645164 20.1218Z" fill="#BB5BA2"/>
<path d="M6.1538 8.05933C5.88807 8.07512 5.62145 8.05213 5.36234 7.99108C4.64321 7.80264 4.37328 7.26584 4.632 6.56503C4.84949 6.01112 5.17339 5.50519 5.58542 5.07583C6.46039 4.13719 7.48812 3.35365 8.62495 2.75849C9.60587 2.2278 10.6184 1.77452 11.7113 1.53616C12.4855 1.36911 13.2708 1.30596 14.0541 1.54227C14.7111 1.73988 15.0045 2.62098 14.4504 3.14658C14.0572 3.51939 13.5876 3.75775 13.1038 3.97166C12.2634 4.34752 11.3905 4.64903 10.5664 5.06258C9.95552 5.37584 9.38442 5.76125 8.86534 6.21056C8.36826 6.63328 7.92822 7.11304 7.46272 7.55716C7.06444 7.94015 6.6244 8.12248 6.1538 8.05933Z" fill="#DEEDF5"/>
<path d="M16.4275 20.3631C13.2298 20.3798 10.0553 19.8198 7.05633 18.7099C6.48 18.5083 5.95445 18.1837 5.5162 17.7586C5.09042 17.3297 4.97939 16.8418 5.18006 16.3478C5.23528 16.1929 5.33521 16.0578 5.46721 15.9597C5.59921 15.8616 5.75735 15.8049 5.9216 15.7967C6.5562 15.7336 7.17449 15.8395 7.78871 15.9729C8.97458 16.2136 10.1769 16.3648 11.3854 16.4252C13.4226 16.5535 15.466 16.577 17.5083 16.5087C19.8166 16.4369 22.1164 16.1945 24.389 15.7835C25.2558 15.6256 26.1206 15.4025 27.0088 15.4453C27.2775 15.4514 27.5427 15.507 27.7911 15.6093C28.5042 15.9149 28.6916 16.6279 28.2352 17.2554C28.0315 17.5436 27.7392 17.7372 27.4458 17.9215C26.2938 18.6447 25.0307 19.098 23.7269 19.4494C22.1843 19.8582 20.6072 20.1238 19.0158 20.2429C18.1551 20.3163 17.2933 20.3662 16.4275 20.3631ZM26.4099 18.1986C26.6157 18.1167 26.8141 18.0172 27.0027 17.9012C27.2762 17.7569 27.492 17.5232 27.6139 17.2391C27.785 16.8754 27.6974 16.5393 27.3664 16.3142C27.1723 16.1793 26.953 16.0851 26.7216 16.0371C25.9159 15.8772 25.1071 15.9291 24.3034 16.0514C23.3357 16.1991 22.3681 16.362 21.3994 16.4771C19.8327 16.6615 18.261 16.7471 16.6873 16.7756C14.5886 16.8308 12.4884 16.7703 10.3963 16.5943C9.49876 16.5198 8.60652 16.3908 7.72454 16.2082C7.15776 16.0727 6.57532 16.0141 5.99291 16.034C5.85758 16.0321 5.72519 16.0735 5.61518 16.1524C5.50517 16.2312 5.42335 16.3433 5.38174 16.472C5.21367 16.9039 5.37155 17.2533 5.66084 17.5609C6.06828 17.9877 6.57148 18.2536 7.11134 18.4665C7.6349 18.6702 8.16763 18.8464 8.70546 19.0063C10.6802 19.592 12.7153 19.9505 14.7713 20.0749C16.4178 20.1642 18.069 20.1159 19.7074 19.9302C21.3765 19.7713 23.024 19.4357 24.6222 18.9289C25.2402 18.7407 25.8396 18.4962 26.4129 18.1986H26.4099Z" fill="#0A0809"/>
<path d="M25.9708 14.3451C25.8074 14.3571 25.6433 14.3381 25.487 14.2891C25.2506 14.1923 25.217 14.0079 25.4167 13.8389C25.6054 13.6863 25.8256 13.5774 26.0614 13.52C26.4292 13.4182 26.7999 13.354 27.1819 13.4467C27.3062 13.4762 27.4305 13.52 27.458 13.6616C27.4855 13.8032 27.3907 13.8888 27.2838 13.9672C26.8958 14.2261 26.437 14.3582 25.9708 14.3451Z" fill="#DEEDF5"/>
<path d="M21.6112 12.4263C21.6094 12.2507 21.6775 12.0816 21.8004 11.9562C21.9233 11.8308 22.091 11.7594 22.2666 11.7576C22.4422 11.7558 22.6113 11.8239 22.7368 11.9468C22.8622 12.0698 22.9336 12.2375 22.9354 12.4131C22.9362 12.5 22.92 12.5863 22.8875 12.667C22.855 12.7476 22.807 12.8211 22.7461 12.8832C22.6853 12.9453 22.6128 12.9948 22.5328 13.0289C22.4528 13.0629 22.3668 13.0809 22.2799 13.0818C22.1929 13.0827 22.1067 13.0664 22.026 13.0339C21.9453 13.0015 21.8719 12.9534 21.8098 12.8926C21.7477 12.8317 21.6982 12.7592 21.6641 12.6792C21.63 12.5992 21.612 12.5133 21.6112 12.4263Z" fill="#0A0809"/>
<path d="M11.4811 12.4281C11.4789 12.5585 11.438 12.6852 11.3638 12.7923C11.2895 12.8994 11.1852 12.9821 11.0639 13.0299C10.9427 13.0778 10.81 13.0885 10.6826 13.0609C10.5552 13.0333 10.4389 12.9686 10.3483 12.8749C10.2577 12.7812 10.197 12.6627 10.1737 12.5344C10.1504 12.4062 10.1657 12.2739 10.2176 12.1544C10.2696 12.0348 10.3558 11.9333 10.4653 11.8628C10.5749 11.7922 10.703 11.7557 10.8333 11.7579C11.0076 11.7622 11.1733 11.8349 11.2945 11.9603C11.4157 12.0857 11.4828 12.2537 11.4811 12.4281Z" fill="#0A0809"/>
<path d="M26.4129 18.1985C25.8396 18.4962 25.2402 18.7406 24.6222 18.9289C23.0274 19.4356 21.3833 19.7719 19.7176 19.9322C18.0791 20.1178 16.428 20.1662 14.7814 20.0769C12.7254 19.9525 10.6903 19.594 8.71561 19.0083C8.17778 18.8484 7.64505 18.6691 7.12149 18.4685C7.12964 18.3931 7.1877 18.4033 7.23863 18.3951C7.69496 18.3259 8.15537 18.2515 8.60764 18.1863C9.45817 18.0641 10.3118 17.9694 11.1664 17.8899C11.8794 17.822 12.5924 17.7704 13.3055 17.7351C14.0409 17.6954 14.7784 17.6587 15.5148 17.6566C16.7494 17.6566 17.9849 17.624 19.2195 17.6801C19.9101 17.7117 20.6017 17.7259 21.2924 17.7595C22.2621 17.8064 23.2277 17.8756 24.1974 17.9632C24.939 18.0213 25.6785 18.0906 26.4129 18.1985Z" fill="#D26B73"/>
<path d="M26.4129 18.1986C25.6785 18.0906 24.94 18.0214 24.2015 17.9572C23.2338 17.8737 22.2662 17.8044 21.2964 17.7535C20.6058 17.7199 19.9142 17.7056 19.2236 17.674C17.989 17.618 16.7535 17.6465 15.5189 17.6506C14.7824 17.6506 14.045 17.6893 13.3095 17.729C12.5945 17.7671 11.8815 17.8187 11.1705 17.8839C10.3158 17.9633 9.46225 18.058 8.61172 18.1803C8.15436 18.2455 7.69497 18.3198 7.24271 18.3891C7.19178 18.3972 7.13372 18.3891 7.12557 18.4624C6.5857 18.2495 6.07742 17.9837 5.67507 17.5569C5.38578 17.2513 5.2279 16.8999 5.39597 16.468C5.43758 16.3392 5.5194 16.2272 5.62941 16.1483C5.73942 16.0695 5.87181 16.028 6.00713 16.03C6.58955 16.01 7.17199 16.0686 7.73877 16.2042C8.62075 16.3868 9.51299 16.5157 10.4106 16.5902C12.4982 16.7671 14.5939 16.829 16.6883 16.7756C18.262 16.7471 19.8337 16.6615 21.4003 16.4772C22.3731 16.3621 23.3357 16.1991 24.3044 16.0514C25.1081 15.9291 25.9169 15.8772 26.7226 16.0371C26.954 16.0851 27.1733 16.1793 27.3674 16.3142C27.6984 16.5393 27.786 16.8754 27.6149 17.2391C27.4929 17.5232 27.2772 17.7569 27.0037 17.9012C26.8157 18.0171 26.618 18.1166 26.4129 18.1986Z" fill="#993044"/>
</svg>
