<svg width="33" height="14" viewBox="0 0 33 14" fill="none" xmlns="http://www.w3.org/2000/svg">
<path fill-rule="evenodd" clip-rule="evenodd" d="M21.082 12.8678L23.1358 13.4127V12.7001L23.3035 12.5325H24.477V13.3707V13.9575H23.2196L21.6688 13.2869L21.082 12.8678Z" fill="#CDBDB2"/>
<path fill-rule="evenodd" clip-rule="evenodd" d="M27.7881 12.8678L25.7763 13.4127V12.7001L25.6086 12.5325H24.435V13.3707V13.9575H25.6924L27.2432 13.2869L27.7881 12.8678Z" fill="#CDBDB2"/>
<path fill-rule="evenodd" clip-rule="evenodd" d="M23.3039 11.3168L23.1362 12.6999L23.3458 12.5322H25.5252L25.7767 12.6999L25.6091 11.3168L25.2738 11.1072L23.5972 11.1491L23.3039 11.3168Z" fill="#393939"/>
<path fill-rule="evenodd" clip-rule="evenodd" d="M22.1716 1.97021L23.1775 4.31735L23.6386 11.1492H25.2732L25.7762 4.31735L26.6983 1.97021H22.1716Z" fill="#F89C35"/>
<path fill-rule="evenodd" clip-rule="evenodd" d="M17.7712 7.1258L16.5977 10.5207L19.5316 10.3531H21.4176V8.88616L21.3338 5.86841L20.9147 6.20371L17.7712 7.1258Z" fill="#F89D35"/>
<path fill-rule="evenodd" clip-rule="evenodd" d="M19.9927 7.50244L23.4296 7.58627L23.0524 9.34662L21.4177 8.92749L19.9927 7.50244Z" fill="#D87C30"/>
<path fill-rule="evenodd" clip-rule="evenodd" d="M19.9927 7.54468L21.4177 8.8859V10.2271L19.9927 7.54468Z" fill="#EA8D3A"/>
<path fill-rule="evenodd" clip-rule="evenodd" d="M21.418 8.92761L23.0945 9.34674L23.6394 11.149L23.2621 11.3586L21.418 10.2688V8.92761Z" fill="#F89D35"/>
<path fill-rule="evenodd" clip-rule="evenodd" d="M21.4173 10.2689L21.082 12.8675L23.3035 11.3168L21.4173 10.2689Z" fill="#EB8F35"/>
<path fill-rule="evenodd" clip-rule="evenodd" d="M23.4299 7.58618L23.6395 11.1488L23.0107 9.3256L23.4299 7.58618Z" fill="#EA8E3A"/>
<path fill-rule="evenodd" clip-rule="evenodd" d="M19.4897 10.3109L21.4178 10.2689L21.0824 12.8675L19.4897 10.3109Z" fill="#D87C30"/>
<path fill-rule="evenodd" clip-rule="evenodd" d="M17.5197 14L21.0823 12.8683L19.4896 10.3116L16.5977 10.5212L17.5197 14Z" fill="#EB8F35"/>
<path fill-rule="evenodd" clip-rule="evenodd" d="M23.1781 4.31787L21.3758 5.82674L19.9927 7.50327L23.4296 7.62905L23.1781 4.31787Z" fill="#E8821E"/>
<path fill-rule="evenodd" clip-rule="evenodd" d="M21.082 12.8675L23.3035 11.3168L23.1358 12.658V13.4124L21.6269 13.119L21.082 12.8675Z" fill="#DFCEC3"/>
<path fill-rule="evenodd" clip-rule="evenodd" d="M27.7881 12.8675L25.6086 11.3168L25.7763 12.658V13.4124L27.2851 13.119L27.7881 12.8675Z" fill="#DFCEC3"/>
<path fill-rule="evenodd" clip-rule="evenodd" d="M22.5077 8.34131L22.9688 9.30535L21.3341 8.88622L22.5077 8.34131Z" fill="#393939"/>
<path fill-rule="evenodd" clip-rule="evenodd" d="M17.4775 0L23.1777 4.31702L22.2138 1.96988L17.4775 0Z" fill="#E88F35"/>
<path fill-rule="evenodd" clip-rule="evenodd" d="M17.4783 0L16.7239 2.30522L17.143 4.82001L16.8496 4.98766L17.2687 5.36488L16.9334 5.65827L17.3945 6.07741L17.1011 6.32889L17.7717 7.16715L20.9152 6.20315C22.452 4.97369 23.2064 4.345 23.1785 4.31705C23.1506 4.28911 21.2505 2.85009 17.4783 0Z" fill="#8E5A30"/>
<path fill-rule="evenodd" clip-rule="evenodd" d="M31.1001 7.1258L32.2737 10.5207L29.3398 10.3531H27.4537V8.88616L27.5375 5.86841L27.9567 6.20371L31.1001 7.1258Z" fill="#F89D35"/>
<path fill-rule="evenodd" clip-rule="evenodd" d="M28.8787 7.50244L25.4418 7.58627L25.819 9.34662L27.4536 8.92749L28.8787 7.50244Z" fill="#D87C30"/>
<path fill-rule="evenodd" clip-rule="evenodd" d="M28.8787 7.54468L27.4536 8.8859V10.2271L28.8787 7.54468Z" fill="#EA8D3A"/>
<path fill-rule="evenodd" clip-rule="evenodd" d="M27.4534 8.92749L25.7768 9.34662L25.2319 11.1489L25.6092 11.3585L27.4534 10.2687V8.92749Z" fill="#F89D35"/>
<path fill-rule="evenodd" clip-rule="evenodd" d="M27.454 10.2686L27.7893 12.8672L25.6098 11.3583L27.454 10.2686Z" fill="#EB8F35"/>
<path fill-rule="evenodd" clip-rule="evenodd" d="M25.4415 7.58618L25.2319 11.1488L25.8606 9.3256L25.4415 7.58618Z" fill="#EA8E3A"/>
<path fill-rule="evenodd" clip-rule="evenodd" d="M29.3821 10.3105L27.4541 10.2686L27.7894 12.8672L29.3821 10.3105Z" fill="#D87C30"/>
<path fill-rule="evenodd" clip-rule="evenodd" d="M31.3516 13.9989L27.789 12.8672L29.3817 10.3105L32.2737 10.5201L31.3516 13.9989Z" fill="#EB8F35"/>
<path fill-rule="evenodd" clip-rule="evenodd" d="M25.6933 4.31689L27.4955 5.82577L28.8787 7.50229L25.4418 7.62807L25.6933 4.31689Z" fill="#E8821E"/>
<path fill-rule="evenodd" clip-rule="evenodd" d="M26.3637 8.34058L25.9026 9.30462L27.5372 8.88548L26.3637 8.34058Z" fill="#393939"/>
<path fill-rule="evenodd" clip-rule="evenodd" d="M31.3938 0L25.6936 4.31702L26.6576 1.96988L31.3938 0Z" fill="#E88F35"/>
<path fill-rule="evenodd" clip-rule="evenodd" d="M31.3938 0L32.1482 2.30522L31.7291 4.82001L32.0225 4.98766L31.6033 5.36488L31.9386 5.65827L31.4776 6.07741L31.771 6.32889L31.1004 7.16715L27.9569 6.20315C26.4201 4.97369 25.6656 4.345 25.6936 4.31705C25.7215 4.28911 27.6216 2.85009 31.3938 0Z" fill="#8E5A30"/>
<circle cx="6.45459" cy="7.2417" r="6.45459" fill="#7416B2"/>
<path d="M5.60372 10.2204V8.09253H3.47583V6.39022H5.60372V4.26233H7.30603V6.39022H9.43392V8.09253H7.30603V10.2204H5.60372Z" fill="white"/>
</svg>
