<svg width="62" height="20" viewBox="0 0 62 20" fill="none" xmlns="http://www.w3.org/2000/svg">
<circle cx="9.45459" cy="10.4546" r="4.45459" fill="#7416B2"/>
<path d="M8.86747 12.5104V11.0418H7.39893V9.86698H8.86747V8.39844H10.0423V9.86698H11.5109V11.0418H10.0423V12.5104H8.86747Z" fill="white"/>
<path d="M18.504 9.896L18.168 10.88H20.04L19.704 9.896C19.5973 9.58133 19.496 9.28 19.4 8.992C19.304 8.704 19.2107 8.39733 19.12 8.072H19.088C18.9973 8.39733 18.904 8.704 18.808 8.992C18.712 9.28 18.6107 9.58133 18.504 9.896ZM17.064 13L18.92 7.728H19.288L21.144 13H20.76L20.144 11.192H18.056L17.432 13H17.064ZM23.2189 13.096C22.7336 13.096 22.3469 12.9253 22.0589 12.584C21.7709 12.2373 21.6269 11.7387 21.6269 11.088C21.6269 10.7787 21.6723 10.4987 21.7629 10.248C21.8536 9.99733 21.9763 9.784 22.1309 9.608C22.2909 9.432 22.4723 9.29867 22.6749 9.208C22.8829 9.112 23.1016 9.064 23.3309 9.064C23.5656 9.064 23.7683 9.10667 23.9389 9.192C24.1149 9.272 24.2989 9.38667 24.4909 9.536L24.4749 8.832V7.248H24.8269V13H24.5229L24.4909 12.504H24.4669C24.3123 12.6587 24.1283 12.7973 23.9149 12.92C23.7069 13.0373 23.4749 13.096 23.2189 13.096ZM23.2669 12.784C23.4803 12.784 23.6829 12.7307 23.8749 12.624C24.0723 12.512 24.2723 12.3547 24.4749 12.152V9.872C24.2723 9.69067 24.0803 9.56267 23.8989 9.488C23.7229 9.41333 23.5416 9.376 23.3549 9.376C23.1629 9.376 22.9843 9.42133 22.8189 9.512C22.6536 9.59733 22.5096 9.71733 22.3869 9.872C22.2696 10.0213 22.1763 10.2027 22.1069 10.416C22.0376 10.624 22.0029 10.848 22.0029 11.088C22.0029 11.344 22.0296 11.576 22.0829 11.784C22.1416 11.992 22.2243 12.1707 22.3309 12.32C22.4376 12.464 22.5683 12.5787 22.7229 12.664C22.8829 12.744 23.0643 12.784 23.2669 12.784ZM27.5705 13.096C27.0852 13.096 26.6985 12.9253 26.4105 12.584C26.1225 12.2373 25.9785 11.7387 25.9785 11.088C25.9785 10.7787 26.0238 10.4987 26.1145 10.248C26.2052 9.99733 26.3278 9.784 26.4825 9.608C26.6425 9.432 26.8238 9.29867 27.0265 9.208C27.2345 9.112 27.4532 9.064 27.6825 9.064C27.9172 9.064 28.1198 9.10667 28.2905 9.192C28.4665 9.272 28.6505 9.38667 28.8425 9.536L28.8265 8.832V7.248H29.1785V13H28.8745L28.8425 12.504H28.8185C28.6638 12.6587 28.4798 12.7973 28.2665 12.92C28.0585 13.0373 27.8265 13.096 27.5705 13.096ZM27.6185 12.784C27.8318 12.784 28.0345 12.7307 28.2265 12.624C28.4238 12.512 28.6238 12.3547 28.8265 12.152V9.872C28.6238 9.69067 28.4318 9.56267 28.2505 9.488C28.0745 9.41333 27.8932 9.376 27.7065 9.376C27.5145 9.376 27.3358 9.42133 27.1705 9.512C27.0052 9.59733 26.8612 9.71733 26.7385 9.872C26.6212 10.0213 26.5278 10.2027 26.4585 10.416C26.3892 10.624 26.3545 10.848 26.3545 11.088C26.3545 11.344 26.3812 11.576 26.4345 11.784C26.4932 11.992 26.5758 12.1707 26.6825 12.32C26.7892 12.464 26.9198 12.5787 27.0745 12.664C27.2345 12.744 27.4158 12.784 27.6185 12.784ZM32.7236 13.096C32.409 13.096 32.2516 12.8933 32.2516 12.488V7.248H32.6036V12.536C32.6036 12.6213 32.6196 12.6853 32.6516 12.728C32.6836 12.7653 32.7236 12.784 32.7716 12.784C32.7876 12.784 32.8036 12.784 32.8196 12.784C32.841 12.784 32.873 12.7787 32.9156 12.768L32.9796 13.056C32.9423 13.0667 32.905 13.0747 32.8676 13.08C32.8303 13.0907 32.7823 13.096 32.7236 13.096ZM34.1501 13V9.16H34.5021V13H34.1501ZM34.3341 8.232C34.2434 8.232 34.1661 8.20267 34.1021 8.144C34.0434 8.08533 34.0141 8.01067 34.0141 7.92C34.0141 7.81867 34.0434 7.74133 34.1021 7.688C34.1661 7.62933 34.2434 7.6 34.3341 7.6C34.4247 7.6 34.4994 7.62933 34.5581 7.688C34.6221 7.74133 34.6541 7.81867 34.6541 7.92C34.6541 8.01067 34.6221 8.08533 34.5581 8.144C34.4994 8.20267 34.4247 8.232 34.3341 8.232ZM38.5062 14.736V13.256L38.5222 12.496C38.3515 12.6613 38.1595 12.8027 37.9462 12.92C37.7382 13.0373 37.5062 13.096 37.2502 13.096C36.7649 13.096 36.3782 12.9253 36.0902 12.584C35.8022 12.2373 35.6582 11.7387 35.6582 11.088C35.6582 10.7787 35.7035 10.4987 35.7942 10.248C35.8849 9.99733 36.0075 9.784 36.1622 9.608C36.3222 9.432 36.5035 9.29867 36.7062 9.208C36.9142 9.112 37.1329 9.064 37.3622 9.064C37.5969 9.064 37.7995 9.104 37.9702 9.184C38.1462 9.264 38.3249 9.37333 38.5062 9.512H38.5222L38.5622 9.16H38.8582V14.736H38.5062ZM37.2982 12.784C37.5115 12.784 37.7142 12.7307 37.9062 12.624C38.1035 12.512 38.3035 12.3547 38.5062 12.152V9.872C38.3035 9.69067 38.1115 9.56267 37.9302 9.488C37.7542 9.41333 37.5729 9.376 37.3862 9.376C37.1942 9.376 37.0155 9.42133 36.8502 9.512C36.6849 9.59733 36.5409 9.71733 36.4182 9.872C36.3009 10.0213 36.2075 10.2027 36.1382 10.416C36.0689 10.624 36.0342 10.848 36.0342 11.088C36.0342 11.344 36.0609 11.576 36.1142 11.784C36.1729 11.992 36.2555 12.1707 36.3622 12.32C36.4689 12.464 36.5995 12.5787 36.7542 12.664C36.9142 12.744 37.0955 12.784 37.2982 12.784ZM41.4338 13.096C41.0338 13.096 40.7404 12.976 40.5538 12.736C40.3671 12.496 40.2738 12.1253 40.2738 11.624V9.16H40.6258V11.576C40.6258 11.9867 40.6924 12.2907 40.8258 12.488C40.9644 12.68 41.1884 12.776 41.4978 12.776C41.7271 12.776 41.9351 12.7147 42.1218 12.592C42.3084 12.464 42.5138 12.264 42.7378 11.992V9.16H43.0898V13H42.7938L42.7538 12.36H42.7378C42.5511 12.584 42.3538 12.7627 42.1458 12.896C41.9378 13.0293 41.7004 13.096 41.4338 13.096ZM44.5641 13V9.16H44.9161V13H44.5641ZM44.7481 8.232C44.6575 8.232 44.5801 8.20267 44.5161 8.144C44.4575 8.08533 44.4281 8.01067 44.4281 7.92C44.4281 7.81867 44.4575 7.74133 44.5161 7.688C44.5801 7.62933 44.6575 7.6 44.7481 7.6C44.8388 7.6 44.9135 7.62933 44.9721 7.688C45.0361 7.74133 45.0681 7.81867 45.0681 7.92C45.0681 8.01067 45.0361 8.08533 44.9721 8.144C44.9135 8.20267 44.8388 8.232 44.7481 8.232ZM47.6643 13.096C47.1789 13.096 46.7923 12.9253 46.5043 12.584C46.2163 12.2373 46.0723 11.7387 46.0723 11.088C46.0723 10.7787 46.1176 10.4987 46.2083 10.248C46.2989 9.99733 46.4216 9.784 46.5763 9.608C46.7363 9.432 46.9176 9.29867 47.1203 9.208C47.3283 9.112 47.5469 9.064 47.7763 9.064C48.0109 9.064 48.2136 9.10667 48.3843 9.192C48.5603 9.272 48.7443 9.38667 48.9363 9.536L48.9203 8.832V7.248H49.2723V13H48.9683L48.9363 12.504H48.9123C48.7576 12.6587 48.5736 12.7973 48.3603 12.92C48.1523 13.0373 47.9203 13.096 47.6643 13.096ZM47.7122 12.784C47.9256 12.784 48.1283 12.7307 48.3203 12.624C48.5176 12.512 48.7176 12.3547 48.9203 12.152V9.872C48.7176 9.69067 48.5256 9.56267 48.3443 9.488C48.1683 9.41333 47.9869 9.376 47.8003 9.376C47.6083 9.376 47.4296 9.42133 47.2643 9.512C47.0989 9.59733 46.9549 9.71733 46.8322 9.872C46.7149 10.0213 46.6216 10.2027 46.5523 10.416C46.4829 10.624 46.4483 10.848 46.4483 11.088C46.4483 11.344 46.4749 11.576 46.5283 11.784C46.5869 11.992 46.6696 12.1707 46.7763 12.32C46.8829 12.464 47.0136 12.5787 47.1683 12.664C47.3283 12.744 47.5096 12.784 47.7122 12.784ZM50.7438 13V9.16H51.0958V13H50.7438ZM50.9278 8.232C50.8371 8.232 50.7598 8.20267 50.6958 8.144C50.6371 8.08533 50.6078 8.01067 50.6078 7.92C50.6078 7.81867 50.6371 7.74133 50.6958 7.688C50.7598 7.62933 50.8371 7.6 50.9278 7.6C51.0185 7.6 51.0931 7.62933 51.1518 7.688C51.2158 7.74133 51.2478 7.81867 51.2478 7.92C51.2478 8.01067 51.2158 8.08533 51.1518 8.144C51.0931 8.20267 51.0185 8.232 50.9278 8.232ZM53.6199 13.096C53.4333 13.096 53.2786 13.0667 53.1559 13.008C53.0333 12.9547 52.9346 12.8773 52.8599 12.776C52.7853 12.6747 52.7319 12.552 52.6999 12.408C52.6733 12.264 52.6599 12.1067 52.6599 11.936V9.464H52.0599V9.192L52.6679 9.16L52.7159 8.048H53.0199V9.16H54.1319V9.464H53.0199V11.968C53.0199 12.0907 53.0279 12.2027 53.0439 12.304C53.0653 12.4 53.0999 12.4853 53.1479 12.56C53.1959 12.6293 53.2599 12.6853 53.3399 12.728C53.4253 12.7653 53.5346 12.784 53.6679 12.784C53.7426 12.784 53.8226 12.7733 53.9079 12.752C53.9986 12.7253 54.0786 12.696 54.1479 12.664L54.2439 12.952C54.1319 12.9947 54.0199 13.0293 53.9079 13.056C53.7959 13.0827 53.6999 13.096 53.6199 13.096ZM54.9121 14.752C54.7681 14.752 54.6375 14.7253 54.5201 14.672L54.6001 14.36C54.6428 14.376 54.6908 14.3893 54.7441 14.4C54.7975 14.416 54.8535 14.424 54.9121 14.424C55.1521 14.424 55.3521 14.328 55.5121 14.136C55.6721 13.944 55.8001 13.7013 55.8961 13.408L56.0001 13.072L54.4241 9.16H54.8081L55.7361 11.576C55.7948 11.736 55.8588 11.912 55.9281 12.104C56.0028 12.296 56.0775 12.4773 56.1521 12.648H56.1841C56.2428 12.4773 56.3015 12.296 56.3601 12.104C56.4241 11.912 56.4828 11.736 56.5361 11.576L57.3601 9.16H57.7201L56.2001 13.48C56.1468 13.64 56.0801 13.7973 56.0001 13.952C55.9255 14.1067 55.8348 14.2427 55.7281 14.36C55.6268 14.4773 55.5068 14.5707 55.3681 14.64C55.2348 14.7147 55.0828 14.752 54.9121 14.752Z" fill="#353659"/>
<rect x="0.25" y="0.25" width="61.5" height="19.5" rx="4.75" stroke="#ADADAD" stroke-width="0.5"/>
</svg>
