<svg width="8" height="5" viewBox="0 0 8 5" fill="none" xmlns="http://www.w3.org/2000/svg">
<path d="M0.00402701 0.608627C0.0845623 0.381114 0.271807 0.242191 0.438918 0.0911871C0.577841 -0.0336426 0.805353 -0.0235757 0.954344 0.0911871C0.988571 0.117361 1.02079 0.147562 1.05099 0.179776C1.99728 1.12607 2.94357 2.07236 3.88986 3.01865C3.912 3.04079 3.9261 3.06898 3.9422 3.09515C3.95428 3.09515 3.96435 3.09515 3.97643 3.09515C3.99455 3.06898 4.00865 3.04079 4.02878 3.02066C4.98111 2.06833 5.93143 1.116 6.88376 0.16367C7.05288 -0.00545454 7.26428 -0.0557899 7.43341 0.0710533C7.59045 0.187829 7.73139 0.334806 7.84816 0.489837C7.96091 0.636814 7.92669 0.840165 7.80588 0.983115C7.78575 1.00728 7.7636 1.02942 7.74347 1.05157C6.59786 2.1992 5.45224 3.34683 4.30663 4.49446C4.27844 4.52264 4.24824 4.55284 4.21602 4.577C4.05697 4.70586 3.85764 4.70385 3.69858 4.57499C3.66436 4.5468 3.63416 4.5166 3.60194 4.4864C2.48653 3.36696 1.37111 2.24752 0.253686 1.12808C0.151004 1.02338 0.0463078 0.922715 0 0.777751C0.00402677 0.721377 0.00402701 0.665001 0.00402701 0.608627Z" fill="#9248A2"/>
</svg>
