<svg xmlns="http://www.w3.org/2000/svg" viewBox="0 0 46.12 46.12"><defs><style>.cls-1{opacity:0.85;}.cls-2{fill:#1d2e4c;}.cls-3{fill:#f6e526;}</style></defs><title>资源 2</title><g id="图层_2" data-name="图层 2"><g id="图层_1-2" data-name="图层 1"><g class="cls-1"><path class="cls-2" d="M23.06,46.12h0A23.06,23.06,0,1,1,46.12,23.06,23.06,23.06,0,0,1,23.06,46.12"/></g><path class="cls-3" d="M19,23.06l.83.84q4.65,4.74,9.29,9.48A1.22,1.22,0,0,1,29.25,35l-.12.12-1.77,1.77a1.17,1.17,0,0,1-1.72,0L13.84,25l-1.07-1.08a1.18,1.18,0,0,1,0-1.76l5.44-5.48Q21.9,13,25.58,9.27a1.24,1.24,0,0,1,1.17-.39,1.12,1.12,0,0,1,.56.29c.63.62,1.25,1.24,1.87,1.87a1.16,1.16,0,0,1,0,1.62c-.41.43-.82.85-1.24,1.27Q23.51,18.46,19.07,23l-.07.08"/></g></g></svg>