<svg xmlns="http://www.w3.org/2000/svg" width="49.731" height="49.736" viewBox="0 0 49.731 49.736">
  <path id="路径_42" data-name="路径 42" d="M1088.471,293.529l0,0-20.288-20.288a4.579,4.579,0,0,0-6.475,0l-20.278,20.277-.02.021a4.576,4.576,0,0,0,3.046,7.8,1.335,1.335,0,0,0,.142.007h.808v14.93a5.365,5.365,0,0,0,5.359,5.359h7.937a1.458,1.458,0,0,0,1.458-1.457V308.47a2.448,2.448,0,0,1,2.445-2.445h4.681a2.447,2.447,0,0,1,2.445,2.445v11.706a1.458,1.458,0,0,0,1.457,1.457h7.938a5.365,5.365,0,0,0,5.359-5.359v-14.93h.75a4.58,4.58,0,0,0,3.24-7.815Zm-2.063,4.413a1.657,1.657,0,0,1-1.177.488h-2.207a1.457,1.457,0,0,0-1.457,1.457v16.387a2.447,2.447,0,0,1-2.445,2.444h-6.481V308.47a5.364,5.364,0,0,0-5.359-5.359H1062.6a5.366,5.366,0,0,0-5.36,5.359v10.248h-6.48a2.447,2.447,0,0,1-2.445-2.444V299.887a1.457,1.457,0,0,0-1.457-1.457h-2.169c-.023,0-.045,0-.068,0a1.663,1.663,0,0,1-1.147-2.84h0v0l20.288-20.286a1.662,1.662,0,0,1,2.353,0l20.283,20.282.01.009A1.669,1.669,0,0,1,1086.408,297.942Z" transform="translate(-1040.076 -271.897)" fill="#4f4e4e"/>
</svg>
