<svg width="31" height="34" viewBox="0 0 31 34" fill="none" xmlns="http://www.w3.org/2000/svg">
<path d="M13.6333 33.2202C13.2872 33.0307 12.9045 32.8961 12.6042 32.6398C12.0759 32.1863 11.87 31.5065 11.8243 30.783C11.7907 30.2429 11.8182 29.6969 11.8182 29.1328H19.139C19.1062 29.8983 19.1497 30.6758 19.0224 31.4174C18.8699 32.3235 18.292 32.8867 17.4977 33.1464C17.4253 33.1696 17.3536 33.1953 17.2819 33.2202H13.6333Z" fill="white"/>
<path d="M30.0696 17.0442C29.8409 17.6263 29.4528 17.85 28.8917 17.8226C28.2056 17.7883 27.5195 17.8174 26.838 17.8132C26.2784 17.8132 25.8675 17.3845 25.8576 16.8025C25.8477 16.2101 26.2632 15.7652 26.838 15.7618C27.5241 15.7618 28.2102 15.7866 28.8917 15.7523C29.4544 15.7241 29.8439 15.9504 30.0696 16.5307V17.0442Z" fill="white"/>
<path d="M19.1637 27.0408H11.7224C11.56 26.1647 11.2414 25.3898 10.6665 24.7708C10.5019 24.5934 10.3189 24.4391 10.1451 24.2736C7.46468 21.7199 6.39815 18.4684 7.17194 14.6374C7.94038 10.8261 10.1451 8.38462 13.5299 7.46394C18.5729 6.09235 23.5167 10.1325 23.9413 15.9507C24.1837 19.2648 23.1264 22.0285 20.8668 24.1802C20.1501 24.866 19.5349 25.6109 19.2658 26.6499C19.2285 26.7751 19.1995 26.8985 19.1637 27.0408ZM15.9237 10.628C15.3001 10.6143 14.8656 11.0181 14.8488 11.6276C14.832 12.2371 15.2559 12.6606 15.8802 12.6811C17.6435 12.7403 19.0585 14.3545 19.1103 16.3673C19.1278 17.0136 19.5235 17.4817 20.0388 17.4731C20.5542 17.4646 20.9399 16.9802 20.9361 16.3347C20.9186 13.2923 18.6285 10.6855 15.9237 10.628Z" fill="white"/>
<path d="M16.3723 2.72256C16.3723 3.16147 16.3776 3.59952 16.3723 4.03843C16.3631 4.6385 15.9652 5.09284 15.4575 5.0937C15.3355 5.09293 15.2149 5.06491 15.1027 5.01128C14.9905 4.95764 14.8889 4.87946 14.8037 4.78127C14.7186 4.68308 14.6517 4.56685 14.6069 4.43932C14.5621 4.3118 14.5402 4.17553 14.5427 4.03843C14.5366 3.16233 14.5366 2.28565 14.5427 1.4084C14.5472 0.808332 14.9429 0.35828 15.4529 0.357423C15.9629 0.356566 16.3563 0.807476 16.3677 1.40755C16.3776 1.84903 16.3723 2.28451 16.3723 2.72256Z" fill="white"/>
<path d="M2.95238 17.8143C2.56206 17.8143 2.1725 17.8203 1.78294 17.8143C1.2493 17.8041 0.849825 17.3574 0.850587 16.7856C0.851349 16.2139 1.2493 15.7681 1.78523 15.763C2.56536 15.7561 3.34499 15.7561 4.12411 15.763C4.24603 15.7598 4.36729 15.784 4.48075 15.8343C4.59422 15.8845 4.6976 15.9598 4.78483 16.0556C4.87205 16.1515 4.94135 16.266 4.98865 16.3924C5.03596 16.5188 5.06031 16.6545 5.06027 16.7916C5.06027 17.3591 4.6547 17.8058 4.12182 17.8152C3.73226 17.8203 3.34194 17.8143 2.95238 17.8143Z" fill="white"/>
<path d="M7.44205 8.88185C7.23698 8.7627 6.99455 8.68897 6.83217 8.51752C6.2505 7.90288 5.68865 7.26081 5.13289 6.61787C4.96104 6.4278 4.86336 6.16875 4.86136 5.8977C4.85936 5.62665 4.95319 5.36581 5.12222 5.17256C5.29125 4.97931 5.52163 4.86947 5.76267 4.86722C6.00372 4.86497 6.23568 4.97049 6.40754 5.16056C6.98794 5.7932 7.55945 6.43585 8.12206 7.0885C8.39117 7.40054 8.44301 7.78372 8.2974 8.1892C8.16475 8.56039 7.82551 8.81242 7.44205 8.88185Z" fill="white"/>
<path d="M23.5465 8.83255C23.089 8.78969 22.8001 8.6131 22.6393 8.22648C22.4784 7.83986 22.5028 7.45496 22.7597 7.14806C23.3482 6.45027 23.9528 5.76704 24.5741 5.10611C24.9149 4.74349 25.4599 4.79921 25.7939 5.17126C26.1278 5.5433 26.175 6.15195 25.8495 6.53856C25.2625 7.23808 24.6534 7.9153 24.0321 8.57709C23.888 8.72625 23.6616 8.7734 23.5465 8.83255Z" fill="white"/>
<path d="M25.0356 28.7202C24.9152 28.6517 24.6804 28.5822 24.5248 28.4176C23.9371 27.7944 23.3684 27.1472 22.8057 26.4948C22.6339 26.3048 22.5362 26.0457 22.5342 25.7747C22.5322 25.5036 22.626 25.2428 22.7951 25.0495C22.9641 24.8563 23.1945 24.7464 23.4355 24.7442C23.6766 24.7419 23.9085 24.8474 24.0804 25.0375C24.6689 25.6764 25.247 26.3271 25.8147 26.9895C26.0831 27.3023 26.1281 27.6915 25.9725 28.091C25.817 28.4905 25.5189 28.6808 25.0356 28.7202Z" fill="white"/>
<path d="M5.881 28.7167C5.41597 28.6867 5.12399 28.511 4.96008 28.1286C4.79618 27.7463 4.816 27.3374 5.08282 27.0228C5.66678 26.3336 6.26522 25.6606 6.87815 25.004C7.22731 24.6302 7.78229 24.6834 8.1162 25.0691C8.45011 25.4549 8.47908 26.0524 8.1528 26.4407C7.57036 27.1265 6.96887 27.802 6.35518 28.4569C6.21414 28.6053 5.99154 28.6584 5.881 28.7167Z" fill="white"/>
</svg>
