<svg width="954" height="260" viewBox="0 0 954 260" fill="none" xmlns="http://www.w3.org/2000/svg">
<path d="M29.4512 67.1973L34.9655 68.7144L46.9386 230.087L41.4242 228.57L29.4512 67.1973Z" fill="#404040"/>
<path d="M89.8887 224.799L95.403 226.32L97.3997 253.214L91.8854 251.697L89.8887 224.799Z" fill="#404040"/>
<path d="M91.8929 251.703L97.4072 253.22L19.4782 259.266L13.9639 257.749L91.8929 251.703Z" fill="#404040"/>
<path d="M135.567 92.5078L141.081 94.0286L133.953 190.341L128.438 188.82L135.567 92.5078Z" fill="#404040"/>
<path d="M126.571 214.662L132.086 216.183L129.535 250.734L124.021 249.213L126.571 214.662Z" fill="#404040"/>
<path d="M124.021 249.213L129.535 250.734L102.488 252.831L96.9736 251.314L124.021 249.213Z" fill="#404040"/>
<path d="M162.73 211.857L168.245 213.375L132.088 216.182L126.573 214.661L162.73 211.857Z" fill="#404040"/>
<path d="M156.116 57.375L161.631 58.8921L205.596 244.835L200.082 243.315L156.116 57.375Z" fill="#404040"/>
<path d="M200.079 243.303L205.593 244.824L175.869 247.129L170.354 245.612L200.079 243.303Z" fill="#404040"/>
<path d="M227.88 51.7969L233.394 53.3177L244.174 198.553L238.659 197.035L227.88 51.7969Z" fill="#404040"/>
<path d="M254.32 215.174L248.806 213.657C243.087 212.08 239.409 207.094 238.662 197.043L244.176 198.564C244.924 208.611 248.601 213.597 254.32 215.174Z" fill="#404040"/>
<path d="M238.662 197.043L244.176 198.564C244.286 200.126 244.494 201.679 244.797 203.215L239.287 201.695C238.983 200.159 238.776 198.605 238.666 197.043" fill="#404040"/>
<path d="M239.278 201.697L244.793 203.218C245.169 205.216 245.827 207.15 246.749 208.963L241.234 207.446C240.313 205.632 239.655 203.696 239.278 201.697Z" fill="#404040"/>
<path d="M241.235 207.449L246.75 208.966C247.127 209.69 247.568 210.379 248.066 211.026L242.552 209.509C242.054 208.862 241.614 208.173 241.235 207.449Z" fill="#404040"/>
<path d="M242.561 209.494L248.075 211.011C248.761 211.904 249.572 212.693 250.484 213.354L244.97 211.837C244.058 211.176 243.246 210.387 242.561 209.494Z" fill="#404040"/>
<path d="M244.967 211.854L250.481 213.371C250.972 213.726 251.492 214.041 252.035 214.311L246.521 212.791C245.979 212.52 245.459 212.207 244.967 211.854Z" fill="#404040"/>
<path d="M246.521 212.777L252.036 214.298C252.528 214.544 253.036 214.756 253.557 214.934L248.042 213.413C247.521 213.237 247.013 213.025 246.521 212.777Z" fill="#404040"/>
<path d="M248.041 213.41L253.555 214.931C253.804 215.016 254.061 215.095 254.321 215.165L248.807 213.648C248.547 213.574 248.29 213.496 248.041 213.41Z" fill="#404040"/>
<path d="M286.258 47.2773L291.772 48.7981L302.41 192.148L296.896 190.631L286.258 47.2773Z" fill="#404040"/>
<path d="M243.416 241.42L237.901 239.899C243.356 241.405 249.558 241.915 256.493 241.387C285.414 239.156 299.131 220.765 296.893 190.639L302.407 192.159C304.638 222.278 290.929 240.662 262.007 242.904C255.073 243.435 248.87 242.922 243.416 241.42Z" fill="#404040"/>
<path d="M296.893 190.613L302.407 192.134C302.474 193.019 302.526 193.897 302.563 194.759L297.049 193.242C297.012 192.376 296.96 191.502 296.893 190.613Z" fill="#404040"/>
<path d="M297.053 193.262L302.567 194.779C302.723 198.028 302.66 201.284 302.378 204.525L296.863 203.004C297.145 199.764 297.209 196.51 297.053 193.262Z" fill="#404040"/>
<path d="M296.857 202.984L302.371 204.505C302.167 206.851 301.818 209.182 301.326 211.485L295.797 209.964C296.293 207.662 296.643 205.331 296.845 202.984" fill="#404040"/>
<path d="M295.792 209.973L301.31 211.493C300.897 213.41 300.365 215.298 299.718 217.149L294.204 215.628C294.852 213.778 295.382 211.889 295.792 209.973Z" fill="#404040"/>
<path d="M294.227 215.627L299.741 217.148C299.14 218.859 298.426 220.529 297.603 222.145L292.085 220.624C292.908 219.008 293.622 217.339 294.223 215.627" fill="#404040"/>
<path d="M292.083 220.629L297.597 222.15C296.705 223.901 295.671 225.577 294.507 227.162L288.993 225.641C290.158 224.057 291.191 222.381 292.083 220.629Z" fill="#404040"/>
<path d="M288.995 225.633L294.509 227.153C287.783 236.282 276.914 241.726 262.007 242.882C255.08 243.421 248.878 242.908 243.416 241.395L237.901 239.874C243.356 241.38 249.558 241.889 256.493 241.361C271.4 240.205 282.269 234.761 288.995 225.629" fill="#404040"/>
<path d="M336.453 95.6016L341.967 97.1224L352.085 233.482L346.571 231.964L336.453 95.6016Z" fill="#404040"/>
<path d="M346.558 231.963L352.072 233.48L325.564 235.54L320.05 234.019L346.558 231.963Z" fill="#404040"/>
<path d="M343.043 42.8594L348.557 44.3802L387.183 154.722L381.669 153.205L343.043 42.8594Z" fill="#404040"/>
<path d="M399.538 38.4902L405.052 40.011L419.026 228.282L413.512 226.761L399.538 38.4902Z" fill="#404040"/>
<path d="M413.512 226.764L419.026 228.284L388.766 230.631L383.248 229.11L413.512 226.764Z" fill="#404040"/>
<path d="M471.161 58.7838L476.675 60.3009C474.612 59.7748 472.473 59.6088 470.354 59.8101C460.984 60.5538 455.481 66.109 456.47 79.5545L450.952 78.0337C449.955 64.5882 455.469 59.0181 464.84 58.293C466.959 58.0898 469.098 58.2559 471.161 58.7838Z" fill="#404040"/>
<path d="M471.156 58.776L476.671 60.2931C474.607 59.767 472.469 59.601 470.349 59.8023C465.571 60.1741 461.797 61.8027 459.377 65.0935L453.862 63.5727C456.283 60.2857 460.057 58.6533 464.835 58.2852C466.955 58.082 469.094 58.2481 471.156 58.776Z" fill="#404040"/>
<path d="M453.863 63.5762L459.378 65.097C458.97 65.6508 458.609 66.2379 458.299 66.852L452.781 65.3312C453.094 64.7182 453.456 64.1313 453.863 63.5762Z" fill="#404040"/>
<path d="M452.784 65.3291L458.302 66.8499C457.998 67.445 457.734 68.0599 457.513 68.6905L451.999 67.1697C452.219 66.5334 452.481 65.9123 452.784 65.3105" fill="#404040"/>
<path d="M451.994 67.1602L457.508 68.6809C457.261 69.3918 457.057 70.117 456.898 70.8525L451.384 69.3354C451.542 68.5985 451.746 67.8721 451.994 67.1602Z" fill="#404040"/>
<path d="M451.386 69.3477L456.901 70.8647C456.695 71.8241 456.55 72.7952 456.466 73.7725L450.951 72.2554C451.036 71.2781 451.181 70.307 451.386 69.3477Z" fill="#404040"/>
<path d="M450.95 72.2578L456.465 73.7749C456.34 75.2589 456.314 76.7495 456.387 78.2369L450.858 76.7235C450.785 75.2361 450.811 73.7455 450.936 72.2615" fill="#404040"/>
<path d="M450.865 76.7266L456.38 78.2437C456.398 78.6713 456.424 79.11 456.458 79.5562L450.94 78.0354C450.91 77.5892 450.884 77.1542 450.865 76.7266Z" fill="#404040"/>
<path d="M450.953 78.043L456.467 79.5638L464.012 181.231L458.498 179.714L450.953 78.043Z" fill="#404040"/>
<path d="M474.166 197.832L468.651 196.315C462.929 194.738 459.251 189.748 458.504 179.697L464.018 181.218C464.766 191.265 468.443 196.255 474.166 197.832Z" fill="#404040"/>
<path d="M458.504 179.697L464.018 181.218C464.127 182.78 464.336 184.334 464.643 185.87L459.129 184.349C458.821 182.813 458.613 181.26 458.504 179.697Z" fill="#404040"/>
<path d="M459.118 184.352L464.632 185.872C465.008 187.871 465.665 189.807 466.585 191.621L461.07 190.1C460.151 188.286 459.493 186.351 459.118 184.352Z" fill="#404040"/>
<path d="M461.076 190.109L466.59 191.63C466.972 192.353 467.413 193.042 467.91 193.69L462.392 192.169C461.894 191.522 461.453 190.833 461.072 190.109" fill="#404040"/>
<path d="M462.388 192.156L467.902 193.677C468.587 194.57 469.397 195.359 470.308 196.02L464.793 194.499C463.881 193.84 463.07 193.051 462.388 192.156Z" fill="#404040"/>
<path d="M464.807 194.508L470.321 196.029C470.814 196.384 471.335 196.698 471.879 196.969L466.365 195.449C465.821 195.178 465.3 194.863 464.807 194.508Z" fill="#404040"/>
<path d="M466.36 195.447L471.875 196.968C472.367 197.213 472.875 197.424 473.396 197.6L467.881 196.083C467.36 195.907 466.852 195.695 466.36 195.447Z" fill="#404040"/>
<path d="M467.873 196.08L473.387 197.597C473.637 197.686 473.893 197.765 474.153 197.835L468.639 196.318C468.379 196.244 468.122 196.166 467.873 196.08Z" fill="#404040"/>
<path d="M480.607 32.9375L486.122 34.4583C503.449 39.2326 513.266 54.0019 514.969 76.9107L509.454 75.3936C507.77 52.4811 497.95 37.7304 480.607 32.9375Z" fill="#404040"/>
<path d="M480.607 32.9375L486.122 34.4583C486.917 34.6764 487.697 34.9169 488.461 35.1797L482.946 33.6589C482.185 33.411 481.406 33.1705 480.607 32.9375Z" fill="#404040"/>
<path d="M482.961 33.6582L488.475 35.179C490.055 35.7153 491.597 36.3588 493.09 37.1051L487.575 35.5843C486.082 34.8396 484.541 34.1961 482.961 33.6582Z" fill="#404040"/>
<path d="M487.572 35.5742L493.087 37.095C494.748 37.9224 496.34 38.8837 497.846 39.9693L492.332 38.4485C490.825 37.3642 489.233 36.403 487.572 35.5742Z" fill="#404040"/>
<path d="M492.328 38.4688L497.842 39.9895C500.524 41.9276 502.913 44.2405 504.937 46.8574L499.423 45.3365C497.399 42.7197 495.009 40.4069 492.328 38.4688Z" fill="#404040"/>
<path d="M499.43 45.3164L504.944 46.8372C506.384 48.6923 507.653 50.6735 508.737 52.7568L503.222 51.236C502.136 49.1545 500.866 47.1736 499.43 45.3164Z" fill="#404040"/>
<path d="M503.217 51.2344L508.731 52.7552C511.034 57.2552 512.687 62.0587 513.643 67.0225L508.129 65.5017C507.172 60.5381 505.519 55.7347 503.217 51.2344Z" fill="#404040"/>
<path d="M508.119 65.5156L513.633 67.0364C514.288 70.2967 514.734 73.5954 514.968 76.9124L509.454 75.3953C509.22 72.077 508.774 68.7771 508.119 65.5156Z" fill="#404040"/>
<path d="M509.47 75.3887L514.984 76.9095L516.341 95.1963L510.827 93.6755L509.47 75.3887Z" fill="#404040"/>
<path d="M510.829 93.6816L516.343 95.2024L488.493 97.3628L482.979 95.8457L510.829 93.6816Z" fill="#404040"/>
<path d="M514.875 148.279L520.389 149.8L522.249 174.813L516.73 173.296L514.875 148.279Z" fill="#404040"/>
<path d="M463.259 224.078L457.745 222.558C463.2 224.045 469.402 224.573 476.337 224.045C505.258 221.814 518.975 203.423 516.74 173.301L522.255 174.822C524.486 204.94 510.772 223.32 481.851 225.562C474.916 226.094 468.707 225.581 463.259 224.078Z" fill="#404040"/>
<path d="M516.745 173.297L522.259 174.818C522.326 175.703 522.378 176.58 522.416 177.443L516.901 175.926C516.864 175.059 516.812 174.186 516.745 173.297Z" fill="#404040"/>
<path d="M516.904 175.945L522.418 177.462C522.57 180.71 522.506 183.965 522.228 187.204L516.714 185.687C516.992 182.448 517.055 179.193 516.904 175.945Z" fill="#404040"/>
<path d="M516.706 185.668L522.22 187.185C522.014 189.531 521.664 191.862 521.172 194.164L515.657 192.644C516.149 190.342 516.499 188.012 516.706 185.668Z" fill="#404040"/>
<path d="M515.655 192.646L521.169 194.167C520.757 196.084 520.226 197.973 519.577 199.823L514.074 198.302C514.723 196.452 515.255 194.563 515.666 192.646" fill="#404040"/>
<path d="M514.078 198.311L519.592 199.831C518.993 201.542 518.28 203.21 517.458 204.825L511.943 203.308C512.765 201.692 513.478 200.022 514.078 198.311Z" fill="#404040"/>
<path d="M511.927 203.312L517.441 204.83C516.547 206.581 515.514 208.257 514.351 209.842L508.837 208.325C509.999 206.739 511.032 205.063 511.927 203.312Z" fill="#404040"/>
<path d="M508.845 208.303L514.359 209.82C507.632 218.952 496.764 224.396 481.853 225.552C474.926 226.091 468.724 225.578 463.261 224.065L457.747 222.544C463.202 224.031 469.404 224.559 476.339 224.031C491.249 222.875 502.118 217.427 508.845 208.299" fill="#404040"/>
<path d="M553.525 26.5352L559.04 28.0522L565.026 108.737L559.512 107.22L553.525 26.5352Z" fill="#404040"/>
<path d="M561.503 134.113L567.017 135.634L573.004 216.322L567.49 214.801L561.503 134.113Z" fill="#404040"/>
<path d="M567.487 214.809L573.001 216.329L543.545 218.616L538.03 217.095L567.487 214.809Z" fill="#404040"/>
<path d="M594.966 131.52L600.48 133.037L567.007 135.636L561.493 134.115L594.966 131.52Z" fill="#404040"/>
<path d="M616.994 21.6133L622.508 23.1341L636.478 211.405L630.964 209.884L616.994 21.6133Z" fill="#404040"/>
<path d="M630.958 209.887L636.472 211.408L606.476 213.731L600.962 212.214L630.958 209.887Z" fill="#404040"/>
<path d="M683.803 43.4883L689.317 45.0054L675.392 46.0874L669.878 44.5666L683.803 43.4883Z" fill="#404040"/>
<path d="M690.279 43.9531L695.793 45.4702C693.674 44.9468 691.48 44.7934 689.308 45.0166L683.794 43.4957C685.966 43.2753 688.159 43.4301 690.279 43.9531Z" fill="#404040"/>
<path d="M690.279 43.9531L695.793 45.4702C693.674 44.9468 691.48 44.7934 689.308 45.0166L683.794 43.4957C685.966 43.2753 688.159 43.4301 690.279 43.9531Z" fill="#404040"/>
<path d="M669.878 44.5645L675.392 46.0853L680.122 109.829L674.608 108.312L669.878 44.5645Z" fill="#404040"/>
<path d="M690.517 134.131L696.031 135.648L682.106 136.73L676.592 135.209L690.517 134.131Z" fill="#404040"/>
<path d="M676.592 135.203L682.106 136.724L687.353 207.458L681.838 205.937L676.592 135.203Z" fill="#404040"/>
<path d="M681.838 205.947L687.352 207.468L657.899 209.755L652.381 208.234L681.838 205.947Z" fill="#404040"/>
<path d="M701.145 18.084L706.659 19.6048C723.711 24.301 733.007 38.5684 734.688 61.2503L729.173 59.7332C727.493 37.0475 718.197 22.784 701.145 18.084Z" fill="#404040"/>
<path d="M701.145 18.084L706.659 19.6048C707.452 19.8229 708.226 20.0609 708.979 20.3187L703.465 18.8016C702.721 18.5414 701.937 18.3034 701.145 18.084Z" fill="#404040"/>
<path d="M703.469 18.7969L708.983 20.3139C710.538 20.8436 712.056 21.4771 713.527 22.2103L708.013 20.6895C706.543 19.956 705.025 19.3236 703.469 18.7969Z" fill="#404040"/>
<path d="M708.015 20.6758L713.529 22.1966C715.13 22.9942 716.663 23.9207 718.114 24.9668L712.599 23.4459C711.147 22.4025 709.614 21.4762 708.015 20.6758Z" fill="#404040"/>
<path d="M712.595 23.4531L718.109 24.974C720.682 26.829 722.974 29.0456 724.914 31.5554L719.399 30.0346C717.459 27.5257 715.167 25.3092 712.595 23.4531Z" fill="#404040"/>
<path d="M719.4 30.043L724.915 31.5638C726.287 33.3356 727.499 35.2257 728.536 37.2119L723.022 35.6948C721.985 33.707 720.773 31.8155 719.4 30.043Z" fill="#404040"/>
<path d="M723.021 35.6855L728.535 37.2026C730.787 41.6117 732.403 46.3175 733.335 51.1799L727.821 49.6628C726.89 44.8001 725.274 40.0941 723.021 35.6855Z" fill="#404040"/>
<path d="M727.828 49.6543L733.342 51.1714C734.005 54.486 734.457 57.8392 734.696 61.2109L729.182 59.6939C728.943 56.3221 728.491 52.9688 727.828 49.6543Z" fill="#404040"/>
<path d="M729.163 59.7266L734.677 61.2474L736.492 85.7215L730.978 84.2007L729.163 59.7266Z" fill="#404040"/>
<path d="M731.003 84.1914L736.517 85.7085C738.748 115.827 725.511 133.363 696.05 135.65L690.536 134.129C719.997 131.842 733.238 114.314 731.003 84.1914Z" fill="#404040"/>
<path d="M730.98 84.1875L736.495 85.7046C736.562 86.6193 736.615 87.5229 736.655 88.4153L731.14 86.8945C731.101 86.0045 731.047 85.1022 730.98 84.1875Z" fill="#404040"/>
<path d="M731.149 86.9004L736.663 88.4212C736.818 91.6988 736.756 94.9831 736.477 98.2525L730.963 96.7317C731.242 93.4623 731.304 90.178 731.149 86.9004Z" fill="#404040"/>
<path d="M730.967 96.7164L736.481 98.2372C736.279 100.534 735.936 102.816 735.455 105.072L729.94 103.547C730.422 101.291 730.764 99.0071 730.967 96.709" fill="#404040"/>
<path d="M729.942 103.559L735.456 105.076C735.058 106.928 734.545 108.753 733.92 110.542L728.402 109.021C729.028 107.234 729.542 105.409 729.942 103.559Z" fill="#404040"/>
<path d="M728.4 109.037L733.918 110.558C733.341 112.198 732.657 113.798 731.869 115.347L726.354 113.83C727.143 112.28 727.826 110.679 728.4 109.037Z" fill="#404040"/>
<path d="M726.359 113.812L731.874 115.33C731.013 117.007 730.018 118.613 728.899 120.13L723.385 118.609C724.504 117.093 725.499 115.489 726.359 113.812Z" fill="#404040"/>
<path d="M723.396 118.617L728.91 120.138C722.254 129.166 711.33 134.461 696.04 135.647L690.525 134.126C705.815 132.94 716.74 127.649 723.396 118.617Z" fill="#404040"/>
<path d="M782.005 42.3555L787.519 43.8726L780.391 140.185L774.877 138.668L782.005 42.3555Z" fill="#404040"/>
<path d="M773.015 164.502L778.53 166.019L775.975 200.574L770.457 199.053L773.015 164.502Z" fill="#404040"/>
<path d="M770.456 199.064L775.974 200.585L748.926 202.682L743.412 201.162L770.456 199.064Z" fill="#404040"/>
<path d="M809.165 161.705L814.683 163.226L778.53 166.03L773.016 164.512L809.165 161.705Z" fill="#404040"/>
<path d="M802.549 7.22266L808.063 8.74346L852.029 194.687L846.515 193.166L802.549 7.22266Z" fill="#404040"/>
<path d="M846.514 193.158L852.029 194.679L822.3 196.984L816.786 195.464L846.514 193.158Z" fill="#404040"/>
<path d="M28.5337 68.2835L40.4325 228.655L40.5068 229.656L41.5072 229.578L88.9792 225.893L90.8279 250.797L14.8928 256.688L1.07101 70.412L28.5337 68.2835Z" fill="#B39447" stroke="#EBD66C" stroke-width="2"/>
<mask id="path-106-inside-1" fill="white">
<path d="M156.12 57.3672L200.086 243.311L170.361 245.616L162.738 211.853L126.585 214.661L124.023 249.212L96.9795 251.309L112.998 60.7137L156.12 57.3672ZM128.437 188.818L156.826 186.613L135.55 92.5056L128.422 188.811"/>
</mask>
<path d="M156.12 57.3672L200.086 243.311L170.361 245.616L162.738 211.853L126.585 214.661L124.023 249.212L96.9795 251.309L112.998 60.7137L156.12 57.3672ZM128.437 188.818L156.826 186.613L135.55 92.5056L128.422 188.811" fill="#B39447"/>
<path d="M156.12 57.3672L158.066 56.907L157.672 55.2407L155.965 55.3732L156.12 57.3672ZM200.086 243.311L200.24 245.305L202.569 245.124L202.032 242.85L200.086 243.311ZM170.361 245.616L168.41 246.056L168.791 247.744L170.516 247.61L170.361 245.616ZM162.738 211.853L164.689 211.413L164.308 209.725L162.584 209.859L162.738 211.853ZM126.585 214.661L126.43 212.667L124.717 212.8L124.59 214.513L126.585 214.661ZM124.023 249.212L124.178 251.206L125.89 251.073L126.018 249.359L124.023 249.212ZM96.9795 251.309L94.9865 251.141L94.7896 253.485L97.1341 253.303L96.9795 251.309ZM112.998 60.7137L112.843 58.7197L111.148 58.8513L111.005 60.5462L112.998 60.7137ZM156.826 186.613L156.981 188.607L159.287 188.428L158.777 186.172L156.826 186.613ZM135.55 92.5056L137.501 92.0645L133.555 92.3579L135.55 92.5056ZM154.173 57.8274L198.139 243.771L202.032 242.85L158.066 56.907L154.173 57.8274ZM199.931 241.317L170.206 243.622L170.516 247.61L200.24 245.305L199.931 241.317ZM172.312 245.175L164.689 211.413L160.788 212.294L168.41 246.056L172.312 245.175ZM162.584 209.859L126.43 212.667L126.74 216.655L162.893 213.847L162.584 209.859ZM124.59 214.513L122.028 249.064L126.018 249.359L128.579 214.809L124.59 214.513ZM123.868 247.218L96.8249 249.315L97.1341 253.303L124.178 251.206L123.868 247.218ZM98.9725 251.476L114.991 60.8812L111.005 60.5462L94.9865 251.141L98.9725 251.476ZM113.153 62.7077L156.275 59.3612L155.965 55.3732L112.843 58.7197L113.153 62.7077ZM128.592 190.812L156.981 188.607L156.671 184.619L128.282 186.824L128.592 190.812ZM158.777 186.172L137.501 92.0645L133.599 92.9466L154.875 187.054L158.777 186.172ZM133.555 92.3579L126.427 188.663L130.416 188.958L137.544 92.6532L133.555 92.3579Z" fill="#EBD66C" mask="url(#path-106-inside-1)"/>
<path d="M259.489 50.3645L285.345 48.3484L295.905 190.697C297.01 205.603 294.158 217.452 287.597 225.833C281.05 234.198 270.685 239.267 256.426 240.374C242.166 241.481 231.172 238.072 223.465 230.816C215.743 223.546 211.173 212.275 210.065 197.365L199.505 55.0166L226.967 52.8881L237.676 197.122C238.184 203.968 240.04 208.721 243.157 211.651C246.294 214.6 250.522 215.535 255.374 215.15C260.223 214.765 264.261 213.19 266.925 209.799C269.572 206.427 270.708 201.453 270.198 194.606L259.489 50.3645Z" fill="#B39447" stroke="#EBD66C" stroke-width="2"/>
<path d="M335.447 95.659L345.491 231.028L320.977 232.93L307.151 46.6567L342.347 43.9229L380.719 153.542L382.66 153.138L374.371 41.4399L398.618 39.5571L412.443 225.833L383.94 228.043L337.388 95.2542L335.447 95.659Z" fill="#B39447" stroke="#EBD66C" stroke-width="2"/>
<path d="M483.901 94.7621L509.756 92.7564L508.473 75.4635C507.367 60.553 502.799 49.2858 495.079 42.0176C487.373 34.7635 476.38 31.3543 462.12 32.4543L483.901 94.7621ZM483.901 94.7621L482.487 75.5911L482.487 75.5908C481.98 68.7452 480.117 63.9361 477.003 60.9423C473.866 57.9274 469.634 56.9173 464.769 57.2956C459.904 57.6738 455.875 59.3253 453.224 62.786C450.591 66.2227 449.459 71.2608 449.961 78.1063L449.961 78.1073L457.506 179.774L457.506 179.774C458.015 186.621 459.873 191.373 462.99 194.303C466.126 197.252 470.353 198.186 475.203 197.802C480.051 197.417 484.089 195.84 486.753 192.449C489.401 189.077 490.539 184.101 490.031 177.254L490.031 177.254L488.109 151.353L513.965 149.347L515.75 173.36C516.854 188.266 514.001 200.114 507.44 208.494C500.891 216.859 490.526 221.926 476.266 223.033C462.006 224.141 451.014 220.733 443.307 213.478C435.586 206.209 431.014 194.94 429.898 180.031L422.633 82.1313C422.633 82.1312 422.633 82.1312 422.633 82.1312C421.527 67.2212 424.38 55.3731 430.942 46.9927C437.491 38.6283 447.858 33.5617 462.12 32.4543L483.901 94.7621Z" fill="#B39447" stroke="#EBD66C" stroke-width="2"/>
<path d="M629.888 208.964L601.887 211.137L595.974 131.45L595.9 130.449L594.9 130.527L561.427 133.122L560.433 133.199L560.507 134.193L566.42 213.887L538.957 216.019L525.135 29.7431L552.598 27.6146L558.51 107.298L558.585 108.299L559.585 108.221L593.058 105.622L594.051 105.545L593.978 104.551L588.065 24.8609L616.067 22.6879L629.888 208.964Z" fill="#B39447" stroke="#EBD66C" stroke-width="2"/>
<mask id="path-112-inside-2" fill="white">
<path d="M681.773 16.5929C711.233 14.3061 726.91 29.6071 729.144 59.7257L730.963 84.1999C733.194 114.318 719.956 131.85 690.496 134.137L676.567 135.208L681.817 205.942L652.36 208.229L638.391 19.958L681.773 16.5929ZM701.647 88.357L699.55 60.0975C698.553 46.652 693.143 42.7403 683.769 43.4654L669.844 44.5474L674.574 108.291L688.499 107.213C697.873 106.469 702.629 101.788 701.647 88.3384"/>
</mask>
<path d="M681.773 16.5929C711.233 14.3061 726.91 29.6071 729.144 59.7257L730.963 84.1999C733.194 114.318 719.956 131.85 690.496 134.137L676.567 135.208L681.817 205.942L652.36 208.229L638.391 19.958L681.773 16.5929ZM701.647 88.357L699.55 60.0975C698.553 46.652 693.143 42.7403 683.769 43.4654L669.844 44.5474L674.574 108.291L688.499 107.213C697.873 106.469 702.629 101.788 701.647 88.3384" fill="#B39447"/>
<path d="M681.773 16.5929L681.927 18.5869L681.927 18.5869L681.773 16.5929ZM729.144 59.7257L727.15 59.8737L727.15 59.8739L729.144 59.7257ZM730.963 84.1999L732.957 84.0521L732.957 84.0517L730.963 84.1999ZM690.496 134.137L690.649 136.131L690.651 136.131L690.496 134.137ZM676.567 135.208L676.414 133.214L674.425 133.367L674.572 135.356L676.567 135.208ZM681.817 205.942L681.972 207.936L683.959 207.782L683.812 205.794L681.817 205.942ZM652.36 208.229L650.366 208.377L650.514 210.378L652.515 210.223L652.36 208.229ZM638.391 19.958L638.236 17.964L636.249 18.1182L636.396 20.106L638.391 19.958ZM699.55 60.0975L697.555 60.2454L697.555 60.2455L699.55 60.0975ZM683.769 43.4654L683.615 41.4713L683.614 41.4714L683.769 43.4654ZM669.844 44.5474L669.689 42.5534L667.702 42.7079L667.85 44.6954L669.844 44.5474ZM674.574 108.291L672.579 108.439L672.728 110.44L674.728 110.285L674.574 108.291ZM688.499 107.213L688.653 109.207L688.657 109.206L688.499 107.213ZM681.927 18.5869C696.293 17.4718 706.959 20.6624 714.309 27.4742C721.686 34.3113 726.054 45.102 727.15 59.8737L731.139 59.5777C730 44.2308 725.413 32.3118 717.028 24.5404C708.615 16.7437 696.713 13.4272 681.618 14.5989L681.927 18.5869ZM727.15 59.8739L728.968 84.348L732.957 84.0517L731.139 59.5775L727.15 59.8739ZM728.968 84.3476C730.062 99.1183 727.336 110.46 721.049 118.36C714.784 126.231 704.706 131.028 690.341 132.143L690.651 136.131C705.746 134.959 717.017 129.847 724.178 120.851C731.316 111.883 734.094 99.4 732.957 84.0521L728.968 84.3476ZM690.342 132.143L676.414 133.214L676.72 137.202L690.649 136.131L690.342 132.143ZM674.572 135.356L679.823 206.09L683.812 205.794L678.561 135.06L674.572 135.356ZM681.662 203.948L652.206 206.235L652.515 210.223L681.972 207.936L681.662 203.948ZM654.355 208.081L640.385 19.81L636.396 20.106L650.366 208.377L654.355 208.081ZM638.545 21.952L681.927 18.5869L681.618 14.5989L638.236 17.964L638.545 21.952ZM703.642 88.2089L701.544 59.9495L697.555 60.2455L699.653 88.505L703.642 88.2089ZM701.545 59.9497C701.033 53.0516 699.368 48.1094 696.193 45.0315C692.956 41.8934 688.572 41.088 683.615 41.4713L683.924 45.4594C688.341 45.1177 691.348 45.9056 693.409 47.9034C695.532 49.9615 697.07 53.6979 697.555 60.2454L701.545 59.9497ZM683.614 41.4714L669.689 42.5534L669.999 46.5414L683.924 45.4594L683.614 41.4714ZM667.85 44.6954L672.579 108.439L676.568 108.143L671.839 44.3994L667.85 44.6954ZM674.728 110.285L688.653 109.207L688.345 105.219L674.419 106.297L674.728 110.285ZM688.657 109.206C693.613 108.813 697.819 107.342 700.549 103.75C703.227 100.227 704.145 95.0928 703.642 88.1928L699.652 88.484C700.13 95.0332 699.162 98.9647 697.364 101.33C695.618 103.627 692.759 104.868 688.341 105.219L688.657 109.206Z" fill="#EBD66C" mask="url(#path-112-inside-2)"/>
<mask id="path-114-inside-3" fill="white">
<path d="M802.559 7.20508L846.525 193.152L816.801 195.457L809.178 161.695L773.025 164.499L770.47 199.053L743.423 201.15L759.445 10.5553L802.559 7.20508ZM774.88 138.652L803.262 136.451L782.004 42.3434L774.88 138.649"/>
</mask>
<path d="M802.559 7.20508L846.525 193.152L816.801 195.457L809.178 161.695L773.025 164.499L770.47 199.053L743.423 201.15L759.445 10.5553L802.559 7.20508ZM774.88 138.652L803.262 136.451L782.004 42.3434L774.88 138.649" fill="#B39447"/>
<path d="M802.559 7.20508L804.506 6.74488L804.112 5.07843L802.404 5.21109L802.559 7.20508ZM846.525 193.152L846.68 195.146L849.009 194.965L848.471 192.692L846.525 193.152ZM816.801 195.457L814.85 195.898L815.231 197.585L816.955 197.451L816.801 195.457ZM809.178 161.695L811.129 161.254L810.748 159.567L809.023 159.701L809.178 161.695ZM773.025 164.499L772.87 162.504L771.157 162.637L771.03 164.351L773.025 164.499ZM770.47 199.053L770.625 201.047L772.338 200.914L772.465 199.201L770.47 199.053ZM743.423 201.15L741.43 200.983L741.233 203.326L743.577 203.144L743.423 201.15ZM759.445 10.5553L759.29 8.56132L757.595 8.69308L757.452 10.3878L759.445 10.5553ZM803.262 136.451L803.417 138.445L805.723 138.266L805.213 136.01L803.262 136.451ZM782.004 42.3434L783.955 41.9028L780.01 42.1959L782.004 42.3434ZM800.613 7.66527L844.579 193.612L848.471 192.692L804.506 6.74488L800.613 7.66527ZM846.37 191.158L816.646 193.463L816.955 197.451L846.68 195.146L846.37 191.158ZM818.752 195.017L811.129 161.254L807.227 162.135L814.85 195.898L818.752 195.017ZM809.023 159.701L772.87 162.504L773.179 166.493L809.333 163.689L809.023 159.701ZM771.03 164.351L768.476 198.906L772.465 199.201L775.019 164.646L771.03 164.351ZM770.315 197.059L743.268 199.156L743.577 203.144L770.625 201.047L770.315 197.059ZM745.416 201.318L761.438 10.7228L757.452 10.3878L741.43 200.983L745.416 201.318ZM759.6 12.5493L802.714 9.19907L802.404 5.21109L759.29 8.56132L759.6 12.5493ZM775.035 140.646L803.417 138.445L803.108 134.457L774.725 136.658L775.035 140.646ZM805.213 136.01L783.955 41.9028L780.054 42.7841L801.311 136.892L805.213 136.01ZM780.01 42.1959L772.885 138.501L776.875 138.796L783.999 42.491L780.01 42.1959Z" fill="#EBD66C" mask="url(#path-114-inside-3)"/>
<mask id="path-116-inside-4" fill="white">
<path d="M892.814 0.223765C922.271 -2.06302 937.947 13.238 940.182 43.3566L947.247 138.565C949.478 168.683 936.241 186.219 906.784 188.502L860.182 192.12L846.212 3.84915L892.814 0.223765ZM917.894 142.186L910.632 44.2862C909.632 30.8369 903.653 26.4381 894.272 27.1595L877.673 28.446L887.649 162.927L904.252 161.637C913.626 160.893 918.891 155.636 917.891 142.186"/>
</mask>
<path d="M892.814 0.223765C922.271 -2.06302 937.947 13.238 940.182 43.3566L947.247 138.565C949.478 168.683 936.241 186.219 906.784 188.502L860.182 192.12L846.212 3.84915L892.814 0.223765ZM917.894 142.186L910.632 44.2862C909.632 30.8369 903.653 26.4381 894.272 27.1595L877.673 28.446L887.649 162.927L904.252 161.637C913.626 160.893 918.891 155.636 917.891 142.186" fill="#B39447"/>
<path d="M892.814 0.223765L892.659 -1.77024L892.659 -1.77021L892.814 0.223765ZM940.182 43.3566L938.187 43.5046V43.5046L940.182 43.3566ZM947.247 138.565L949.241 138.417L949.241 138.417L947.247 138.565ZM906.784 188.502L906.629 186.508L906.629 186.508L906.784 188.502ZM860.182 192.12L858.187 192.268L858.336 194.269L860.337 194.114L860.182 192.12ZM846.212 3.84915L846.057 1.85518L844.07 2.00974L844.217 3.99715L846.212 3.84915ZM910.632 44.2862L912.627 44.1382L912.627 44.1378L910.632 44.2862ZM894.272 27.1595L894.118 25.1654L894.117 25.1655L894.272 27.1595ZM877.673 28.446L877.518 26.452L875.531 26.606L875.678 28.594L877.673 28.446ZM887.649 162.927L885.655 163.075L885.803 165.077L887.804 164.921L887.649 162.927ZM904.252 161.637L904.407 163.631L904.41 163.631L904.252 161.637ZM892.969 2.21777C907.332 1.10271 917.997 4.29323 925.347 11.105C932.723 17.9421 937.091 28.7329 938.187 43.5046L942.176 43.2086C941.038 27.8617 936.45 15.9427 928.066 8.17132C919.654 0.374619 907.752 -2.94196 892.659 -1.77024L892.969 2.21777ZM938.187 43.5046L945.252 138.713L949.241 138.417L942.176 43.2086L938.187 43.5046ZM945.252 138.713C946.346 153.483 943.621 164.826 937.333 172.726C931.069 180.598 920.992 185.395 906.629 186.508L906.938 190.496C922.032 189.326 933.303 184.214 940.463 175.217C947.601 166.249 950.378 153.765 949.241 138.417L945.252 138.713ZM906.629 186.508L860.027 190.126L860.337 194.114L906.939 190.496L906.629 186.508ZM862.176 191.972L848.206 3.70116L844.217 3.99715L858.187 192.268L862.176 191.972ZM846.367 5.84313L892.969 2.21774L892.659 -1.77021L846.057 1.85518L846.367 5.84313ZM919.889 142.039L912.627 44.1382L908.638 44.4341L915.9 142.334L919.889 142.039ZM912.627 44.1378C912.11 37.1908 910.284 32.1499 906.983 28.9686C903.631 25.7396 899.136 24.7796 894.118 25.1654L894.425 29.1536C898.789 28.818 901.973 29.6967 904.207 31.8491C906.491 34.0492 908.154 37.9323 908.638 44.4345L912.627 44.1378ZM894.117 25.1655L877.518 26.452L877.827 30.44L894.426 29.1535L894.117 25.1655ZM875.678 28.594L885.655 163.075L889.644 162.779L879.667 28.2981L875.678 28.594ZM887.804 164.921L904.407 163.631L904.097 159.643L887.494 160.933L887.804 164.921ZM904.41 163.631C909.423 163.233 913.719 161.592 916.55 157.892C919.34 154.245 920.402 148.987 919.885 142.038L915.896 142.335C916.38 148.835 915.309 152.931 913.373 155.461C911.478 157.938 908.454 159.297 904.093 159.643L904.41 163.631Z" fill="#EBD66C" mask="url(#path-116-inside-4)"/>
<path d="M894.277 27.1621L899.792 28.6792L883.189 29.9695L877.675 28.4487L894.277 27.1621Z" fill="#404040"/>
<path d="M900.648 27.6449L906.163 29.162C904.081 28.6363 901.923 28.4741 899.786 28.6823L894.271 27.1653C896.409 26.9551 898.567 27.1174 900.648 27.6449Z" fill="#404040"/>
<path d="M900.648 27.6449L906.163 29.162C904.081 28.6363 901.923 28.4741 899.786 28.6823L894.271 27.1653C896.409 26.9551 898.567 27.1174 900.648 27.6449Z" fill="#404040"/>
<path d="M877.677 28.4258L883.191 29.9466L893.171 164.428L887.657 162.907L877.677 28.4258Z" fill="#404040"/>
<path d="M912.165 1.70703L917.679 3.22787C934.732 7.92414 944.027 22.1914 945.712 44.8733L940.194 43.3562C938.513 20.6706 929.217 6.40702 912.165 1.70703Z" fill="#404040"/>
<path d="M912.156 1.7088L917.671 3.22964C918.464 3.4453 919.237 3.68324 919.991 3.94353L914.476 2.41902C913.733 2.17113 912.959 1.93314 912.156 1.70508" fill="#404040"/>
<path d="M914.466 2.44336L919.98 3.96415C921.536 4.49377 923.054 5.12731 924.524 5.8605L919.01 4.33971C917.539 3.60652 916.021 2.97298 914.466 2.44336Z" fill="#404040"/>
<path d="M919.001 4.32227L924.515 5.84306C926.115 6.64081 927.648 7.56597 929.1 8.60953L923.586 7.09246C922.134 6.0477 920.601 5.1213 919.001 4.32227Z" fill="#404040"/>
<path d="M923.596 7.09766L929.11 8.61473C931.683 10.472 933.976 12.6897 935.918 15.1999L930.404 13.6791C928.461 11.171 926.168 8.9546 923.596 7.09766Z" fill="#404040"/>
<path d="M930.406 13.6738L935.921 15.1946C937.291 16.9669 938.502 18.857 939.539 20.8428L934.024 19.322C932.986 17.3366 931.776 15.4466 930.406 13.6738Z" fill="#404040"/>
<path d="M934.03 19.3125L939.545 20.8333C941.798 25.2419 943.414 29.9479 944.345 34.8106L938.831 33.2935C937.899 28.4298 936.283 23.7226 934.03 19.3125Z" fill="#404040"/>
<path d="M938.827 33.3105L944.341 34.8276C945.005 38.1421 945.459 41.4953 945.699 44.8672L940.181 43.3501C939.942 39.9783 939.49 36.625 938.827 33.3105Z" fill="#404040"/>
<path d="M906.795 188.492L912.309 190.009L865.711 193.627L860.196 192.106L906.795 188.492Z" fill="#404040"/>
<path d="M940.188 43.3477L945.702 44.8685L952.767 140.077L947.252 138.56L940.188 43.3477Z" fill="#404040"/>
<path d="M947.284 138.553L952.799 140.074C955.03 170.192 941.792 187.724 912.335 190.011L906.821 188.49C936.259 186.207 949.515 168.679 947.284 138.553Z" fill="#404040"/>
<path d="M947.282 138.553L952.797 140.074C952.863 140.988 952.915 141.888 952.956 142.78L947.442 141.263C947.403 140.371 947.349 139.467 947.282 138.553Z" fill="#404040"/>
<path d="M947.426 141.266L952.94 142.783C953.096 146.06 953.033 149.345 952.751 152.614L947.236 151.097C947.519 147.828 947.582 144.543 947.426 141.266Z" fill="#404040"/>
<path d="M947.231 151.092L952.746 152.609C952.547 154.907 952.204 157.191 951.719 159.447L946.205 157.926C946.69 155.672 947.033 153.389 947.231 151.092Z" fill="#404040"/>
<path d="M946.216 157.912L951.73 159.433C951.334 161.284 950.821 163.109 950.194 164.895L944.688 163.378C945.314 161.59 945.827 159.765 946.223 157.912" fill="#404040"/>
<path d="M944.68 163.373L950.194 164.89C949.621 166.533 948.936 168.134 948.145 169.683L942.631 168.162C943.422 166.614 944.107 165.014 944.68 163.373Z" fill="#404040"/>
<path d="M942.632 168.178L948.146 169.699C947.287 171.376 946.292 172.98 945.171 174.495L939.657 172.978C940.778 171.462 941.773 169.856 942.632 168.178Z" fill="#404040"/>
<path d="M939.661 172.994L945.175 174.511C938.519 183.543 927.598 188.834 912.312 190.02L906.798 188.5C922.084 187.313 933.005 182.022 939.661 172.994Z" fill="#404040"/>
</svg>
