<svg id="Layer_1" data-name="Layer 1" xmlns="http://www.w3.org/2000/svg" xmlns:xlink="http://www.w3.org/1999/xlink" viewBox="0 0 562.15 154.04"><defs><style>.cls-1{fill:#404040;}.cls-2{isolation:isolate;}.cls-3{clip-path:url(#clip-path);}.cls-4{clip-path:url(#clip-path-2);}.cls-5{clip-path:url(#clip-path-3);}.cls-6{clip-path:url(#clip-path-4);}.cls-7{clip-path:url(#clip-path-5);}.cls-8{clip-path:url(#clip-path-6);}.cls-9{clip-path:url(#clip-path-7);}.cls-10{clip-path:url(#clip-path-8);}.cls-11{clip-path:url(#clip-path-9);}.cls-12{clip-path:url(#clip-path-10);}.cls-13{clip-path:url(#clip-path-11);}.cls-14{clip-path:url(#clip-path-12);}.cls-15{fill:#b39447;stroke:#ebd66c;stroke-miterlimit:10;stroke-width:2px;}</style><clipPath id="clip-path" transform="translate(-318.89 -260.12)"><path class="cls-1" d="M465.63,387.35l-3.39-2.77c-1.88-1.55-3-4.28-3.24-8.56l3.38,2.77C462.59,383.08,463.75,385.81,465.63,387.35Z"/></clipPath><clipPath id="clip-path-2" transform="translate(-318.89 -260.12)"><path class="cls-1" d="M453.7,400.23l-3.38-2.78c4.51,3.7,10.73,5.39,18.56,4.81,17.11-1.26,25.49-12.09,24.61-29.9l3.39,2.78c.87,17.8-7.5,28.64-24.61,29.89C464.43,405.61,458.22,403.93,453.7,400.23Z"/></clipPath><clipPath id="clip-path-3" transform="translate(-318.89 -260.12)"><path class="cls-1" d="M600.9,296.14l3.39,2.78a8.56,8.56,0,0,0-6.26-1.61c-5.54.41-8.88,3.69-8.49,11.64l-3.39-2.78c-.39-7.94,3-11.22,8.5-11.63A8.49,8.49,0,0,1,600.9,296.14Z"/></clipPath><clipPath id="clip-path-4" transform="translate(-318.89 -260.12)"><path class="cls-1" d="M612,283.48l3.39,2.77c5.35,4.39,8.33,11.61,8.8,21.27l-3.39-2.78C620.28,295.09,617.31,287.86,612,283.48Z"/></clipPath><clipPath id="clip-path-5" transform="translate(-318.89 -260.12)"><path class="cls-1" d="M595.73,377.61l-3.39-2.77c-1.88-1.55-3-4.28-3.25-8.56l3.39,2.78C592.69,373.34,593.84,376.07,595.73,377.61Z"/></clipPath><clipPath id="clip-path-6" transform="translate(-318.89 -260.12)"><path class="cls-1" d="M583.8,390.49l-3.39-2.77c4.52,3.7,10.73,5.38,18.56,4.8,17.12-1.26,25.49-12.09,24.62-29.89L627,365.4c.87,17.81-7.51,28.64-24.62,29.9C594.53,395.87,588.32,394.19,583.8,390.49Z"/></clipPath><clipPath id="clip-path-7" transform="translate(-318.89 -260.12)"><path class="cls-1" d="M730.23,287.7l3.39,2.78c-1.5-1.23-3.52-1.61-6-1.42l-3.39-2.78C726.71,286.09,728.74,286.48,730.23,287.7Z"/></clipPath><clipPath id="clip-path-8" transform="translate(-318.89 -260.12)"><path class="cls-1" d="M742.23,275.09l3.39,2.77c5.22,4.28,8,11.32,8.51,20.89L750.74,296C750.27,286.41,747.45,279.36,742.23,275.09Z"/></clipPath><clipPath id="clip-path-9" transform="translate(-318.89 -260.12)"><path class="cls-1" d="M751.45,310.45l3.39,2.77c.87,17.81-7.21,28.14-24.65,29.42l-3.39-2.78C744.24,338.58,752.32,328.25,751.45,310.45Z"/></clipPath><clipPath id="clip-path-10" transform="translate(-318.89 -260.12)"><path class="cls-1" d="M854.14,278.71l3.39,2.78a8.47,8.47,0,0,0-6.19-1.55L848,277.17A8.42,8.42,0,0,1,854.14,278.71Z"/></clipPath><clipPath id="clip-path-11" transform="translate(-318.89 -260.12)"><path class="cls-1" d="M866.31,266l3.39,2.78c5.22,4.27,8,11.32,8.51,20.89l-3.39-2.78C874.35,277.27,871.53,270.23,866.31,266Z"/></clipPath><clipPath id="clip-path-12" transform="translate(-318.89 -260.12)"><path class="cls-1" d="M877.58,343.13,881,345.9c.87,17.82-7.21,28.14-24.64,29.43L853,372.55C870.37,371.27,878.45,360.94,877.58,343.13Z"/></clipPath></defs><g class="cls-2"><polygon class="cls-1" points="18.48 38.67 21.87 41.45 26.55 136.85 23.16 134.08 18.48 38.67"/><polygon class="cls-1" points="51.84 131.97 55.22 134.74 56 150.64 52.62 147.87 51.84 131.97"/><polygon class="cls-1" points="52.62 147.87 56 150.64 9.89 154.04 6.5 151.26 52.62 147.87"/></g><g class="cls-2"><polygon class="cls-1" points="80.77 53.87 84.16 56.65 78.52 113.56 75.13 110.78 80.77 53.87"/><polygon class="cls-1" points="73.66 126.05 77.05 128.82 75.02 149.24 71.64 146.47 73.66 126.05"/><polygon class="cls-1" points="71.64 146.47 75.02 149.24 59.02 150.42 55.63 147.65 71.64 146.47"/><polygon class="cls-1" points="95.05 124.47 98.44 127.25 77.05 128.82 73.66 126.05 95.05 124.47"/><polygon class="cls-1" points="93.44 33.15 96.83 35.93 120.03 145.93 116.64 143.15 93.44 33.15"/><polygon class="cls-1" points="116.64 143.15 120.03 145.93 102.43 147.22 99.05 144.45 116.64 143.15"/></g><g class="cls-2"><polygon class="cls-1" points="135.9 30.03 139.29 32.8 143.5 118.67 140.11 115.89 135.9 30.03"/><g class="cls-2"><path class="cls-1" d="M465.63,387.35l-3.39-2.77c-1.88-1.55-3-4.28-3.24-8.56l3.38,2.77C462.59,383.08,463.75,385.81,465.63,387.35Z" transform="translate(-318.89 -260.12)"/><g class="cls-3"><g class="cls-2"><path class="cls-1" d="M459,376l3.38,2.77a22.44,22.44,0,0,0,.26,2.49l-3.39-2.78A20.18,20.18,0,0,1,459,376" transform="translate(-318.89 -260.12)"/><path class="cls-1" d="M459.25,378.5l3.39,2.78a11.42,11.42,0,0,0,1.59,4.5L460.84,383a11.53,11.53,0,0,1-1.59-4.51" transform="translate(-318.89 -260.12)"/><path class="cls-1" d="M460.84,383l3.39,2.77a7.48,7.48,0,0,0,1,1.18l-3.39-2.78a7,7,0,0,1-1-1.17" transform="translate(-318.89 -260.12)"/><path class="cls-1" d="M461.8,384.18l3.39,2.78a5.34,5.34,0,0,0,.44.39l-3.39-2.77c-.15-.13-.3-.26-.44-.4" transform="translate(-318.89 -260.12)"/></g></g></g><polygon class="cls-1" points="170.45 27.48 173.84 30.26 178 115.02 174.61 112.24 170.45 27.48"/><g class="cls-2"><path class="cls-1" d="M453.7,400.23l-3.38-2.78c4.51,3.7,10.73,5.39,18.56,4.81,17.11-1.26,25.49-12.09,24.61-29.9l3.39,2.78c.87,17.8-7.5,28.64-24.61,29.89C464.43,405.61,458.22,403.93,453.7,400.23Z" transform="translate(-318.89 -260.12)"/><g class="cls-4"><g class="cls-2"><path class="cls-1" d="M493.49,372.36l3.39,2.78c.08,1.55.08,3.05,0,4.5l-3.39-2.78c.06-1.44.06-2.94,0-4.5" transform="translate(-318.89 -260.12)"/><path class="cls-1" d="M493.51,376.86l3.39,2.78a38.18,38.18,0,0,1-.62,5.42l-3.39-2.78a36.62,36.62,0,0,0,.62-5.42" transform="translate(-318.89 -260.12)"/><path class="cls-1" d="M492.89,382.28l3.39,2.78a31.07,31.07,0,0,1-.92,3.63L492,385.91a30.08,30.08,0,0,0,.92-3.63" transform="translate(-318.89 -260.12)"/><path class="cls-1" d="M492,385.91l3.39,2.78a27.82,27.82,0,0,1-1.11,2.86l-3.39-2.78a25,25,0,0,0,1.11-2.86" transform="translate(-318.89 -260.12)"/><path class="cls-1" d="M490.86,388.77l3.39,2.78a23.62,23.62,0,0,1-1.31,2.44l-3.39-2.77a22.92,22.92,0,0,0,1.31-2.45" transform="translate(-318.89 -260.12)"/><path class="cls-1" d="M489.55,391.22l3.39,2.77a21.73,21.73,0,0,1-1.59,2.26L488,393.48a22.37,22.37,0,0,0,1.59-2.26" transform="translate(-318.89 -260.12)"/><path class="cls-1" d="M488,393.48l3.39,2.77a21.2,21.2,0,0,1-2.25,2.39l-3.39-2.78a21.11,21.11,0,0,0,2.25-2.38" transform="translate(-318.89 -260.12)"/><path class="cls-1" d="M485.71,395.86l3.39,2.78c-4.06,3.67-9.69,5.87-16.83,6.39-7.84.58-14-1.1-18.57-4.8l-3.38-2.78c4.51,3.7,10.73,5.39,18.56,4.81,7.15-.53,12.77-2.72,16.83-6.4" transform="translate(-318.89 -260.12)"/></g></g></g></g><g class="cls-2"><polygon class="cls-1" points="204.05 25.01 207.44 27.79 228.61 93.09 225.23 90.31 204.05 25.01"/><polygon class="cls-1" points="199.38 56.15 202.76 58.93 206.72 139.55 203.33 136.77 199.38 56.15"/><polygon class="cls-1" points="203.33 136.77 206.72 139.55 191.03 140.7 187.64 137.93 203.33 136.77"/><polygon class="cls-1" points="237.49 22.55 240.88 25.32 246.33 136.63 242.95 133.86 237.49 22.55"/><polygon class="cls-1" points="242.95 133.86 246.33 136.63 228.42 137.95 225.03 135.18 242.95 133.86"/></g><g class="cls-2"><g class="cls-2"><path class="cls-1" d="M600.9,296.14l3.39,2.78a8.56,8.56,0,0,0-6.26-1.61c-5.54.41-8.88,3.69-8.49,11.64l-3.39-2.78c-.39-7.94,3-11.22,8.5-11.63A8.49,8.49,0,0,1,600.9,296.14Z" transform="translate(-318.89 -260.12)"/><g class="cls-5"><g class="cls-2"><path class="cls-1" d="M600.9,296.14l3.39,2.78a8.56,8.56,0,0,0-6.26-1.61,9.24,9.24,0,0,0-5.67,2.14L589,296.68a9.21,9.21,0,0,1,5.68-2.14,8.49,8.49,0,0,1,6.25,1.6" transform="translate(-318.89 -260.12)"/><path class="cls-1" d="M589,296.68l3.39,2.77a7.28,7.28,0,0,0-.76.81l-3.39-2.78a6.41,6.41,0,0,1,.76-.8" transform="translate(-318.89 -260.12)"/><path class="cls-1" d="M588.21,297.48l3.39,2.78a7.48,7.48,0,0,0-.56.79l-3.39-2.77a6.7,6.7,0,0,1,.56-.8" transform="translate(-318.89 -260.12)"/><path class="cls-1" d="M587.65,298.28l3.39,2.77a8.18,8.18,0,0,0-.47.88l-3.39-2.77a7.33,7.33,0,0,1,.47-.88" transform="translate(-318.89 -260.12)"/><path class="cls-1" d="M587.18,299.16l3.39,2.77a11.1,11.1,0,0,0-.41,1.06l-3.39-2.77a9.36,9.36,0,0,1,.41-1.06" transform="translate(-318.89 -260.12)"/><path class="cls-1" d="M586.77,300.22l3.39,2.77a12,12,0,0,0-.37,1.46l-3.39-2.77a11.52,11.52,0,0,1,.37-1.46" transform="translate(-318.89 -260.12)"/><path class="cls-1" d="M586.4,301.68l3.39,2.77a14.68,14.68,0,0,0-.26,2.32L586.14,304a16,16,0,0,1,.26-2.31" transform="translate(-318.89 -260.12)"/><path class="cls-1" d="M586.14,304l3.39,2.78c0,.68,0,1.41,0,2.18l-3.39-2.78c0-.77,0-1.49,0-2.18" transform="translate(-318.89 -260.12)"/></g></g></g><g class="cls-2"><path class="cls-1" d="M612,283.48l3.39,2.77c5.35,4.39,8.33,11.61,8.8,21.27l-3.39-2.78C620.28,295.09,617.31,287.86,612,283.48Z" transform="translate(-318.89 -260.12)"/><g class="cls-6"><g class="cls-2"><path class="cls-1" d="M612,283.48l3.39,2.77c.46.38.9.77,1.32,1.19l-3.39-2.78c-.42-.41-.86-.81-1.32-1.18" transform="translate(-318.89 -260.12)"/><path class="cls-1" d="M613.27,284.66l3.39,2.78a20.84,20.84,0,0,1,2.8,3.43l-3.39-2.77a20.51,20.51,0,0,0-2.8-3.44" transform="translate(-318.89 -260.12)"/><path class="cls-1" d="M616.07,288.1l3.39,2.77a29.34,29.34,0,0,1,4.15,11.44l-3.39-2.78a29.35,29.35,0,0,0-4.15-11.43" transform="translate(-318.89 -260.12)"/><path class="cls-1" d="M620.22,299.53l3.39,2.78a48.81,48.81,0,0,1,.53,5.21l-3.39-2.78a46.59,46.59,0,0,0-.53-5.21" transform="translate(-318.89 -260.12)"/></g></g></g><polygon class="cls-1" points="301.87 44.62 305.26 47.39 305.79 58.21 302.4 55.44 301.87 44.62"/><polygon class="cls-1" points="302.4 55.44 305.79 58.21 289.31 59.42 285.92 56.65 302.4 55.44"/><polygon class="cls-1" points="267.26 46.05 270.65 48.83 273.6 108.93 270.21 106.16 267.26 46.05"/><g class="cls-2"><path class="cls-1" d="M595.73,377.61l-3.39-2.77c-1.88-1.55-3-4.28-3.25-8.56l3.39,2.78C592.69,373.34,593.84,376.07,595.73,377.61Z" transform="translate(-318.89 -260.12)"/><g class="cls-7"><g class="cls-2"><path class="cls-1" d="M589.09,366.28l3.39,2.78c0,.89.13,1.72.25,2.48l-3.38-2.78a22.25,22.25,0,0,1-.26-2.48" transform="translate(-318.89 -260.12)"/><path class="cls-1" d="M589.35,368.76l3.38,2.78a11.58,11.58,0,0,0,1.6,4.5l-3.39-2.77a11.47,11.47,0,0,1-1.59-4.51" transform="translate(-318.89 -260.12)"/><path class="cls-1" d="M590.94,373.27l3.39,2.77a7.05,7.05,0,0,0,1,1.18l-3.39-2.78a7,7,0,0,1-1-1.17" transform="translate(-318.89 -260.12)"/><path class="cls-1" d="M591.9,374.44l3.39,2.78a5.34,5.34,0,0,0,.44.39l-3.39-2.77c-.15-.13-.3-.26-.44-.4" transform="translate(-318.89 -260.12)"/></g></g></g><polygon class="cls-1" points="303.98 87.71 307.37 90.49 308.09 105.28 304.7 102.5 303.98 87.71"/><g class="cls-2"><path class="cls-1" d="M583.8,390.49l-3.39-2.77c4.52,3.7,10.73,5.38,18.56,4.8,17.12-1.26,25.49-12.09,24.62-29.89L627,365.4c.87,17.81-7.51,28.64-24.62,29.9C594.53,395.87,588.32,394.19,583.8,390.49Z" transform="translate(-318.89 -260.12)"/><g class="cls-8"><g class="cls-2"><path class="cls-1" d="M623.59,362.63,627,365.4c.07,1.56.08,3.06,0,4.5l-3.39-2.77c.06-1.45.06-2.95,0-4.5" transform="translate(-318.89 -260.12)"/><path class="cls-1" d="M623.61,367.13,627,369.9a38.18,38.18,0,0,1-.62,5.42L623,372.54a38,38,0,0,0,.62-5.41" transform="translate(-318.89 -260.12)"/><path class="cls-1" d="M623,372.54l3.39,2.78a31.07,31.07,0,0,1-.92,3.63l-3.39-2.78a30.08,30.08,0,0,0,.92-3.63" transform="translate(-318.89 -260.12)"/><path class="cls-1" d="M622.07,376.17l3.39,2.78a27.85,27.85,0,0,1-1.12,2.86L621,379a25,25,0,0,0,1.11-2.86" transform="translate(-318.89 -260.12)"/><path class="cls-1" d="M621,379l3.38,2.78a21.79,21.79,0,0,1-1.3,2.44l-3.39-2.77A23.78,23.78,0,0,0,621,379" transform="translate(-318.89 -260.12)"/><path class="cls-1" d="M619.65,381.48l3.39,2.77a23,23,0,0,1-1.59,2.27l-3.39-2.78a22.86,22.86,0,0,0,1.59-2.26" transform="translate(-318.89 -260.12)"/><path class="cls-1" d="M618.06,383.74l3.39,2.78a22,22,0,0,1-2.25,2.38l-3.39-2.78a21.11,21.11,0,0,0,2.25-2.38" transform="translate(-318.89 -260.12)"/><path class="cls-1" d="M615.81,386.12l3.39,2.78c-4.07,3.67-9.69,5.87-16.84,6.4-7.83.57-14-1.11-18.56-4.81l-3.39-2.77c4.52,3.7,10.73,5.38,18.56,4.8,7.15-.52,12.78-2.72,16.84-6.4" transform="translate(-318.89 -260.12)"/></g></g></g></g><g class="cls-2"><polygon class="cls-1" points="328.61 15.84 332 18.62 334.33 66.33 330.95 63.55 328.61 15.84"/><polygon class="cls-1" points="351.53 77.98 354.92 80.76 335.11 82.22 331.73 79.44 351.53 77.98"/><polygon class="cls-1" points="331.73 79.44 335.11 82.22 337.45 129.93 334.06 127.15 331.73 79.44"/><polygon class="cls-1" points="334.06 127.15 337.45 129.93 320.02 131.21 316.63 128.43 334.06 127.15"/><polygon class="cls-1" points="366.16 13.08 369.55 15.85 375 127.16 371.62 124.39 366.16 13.08"/><polygon class="cls-1" points="371.62 124.39 375 127.16 357.26 128.47 353.87 125.69 371.62 124.39"/></g><g class="cls-2"><polygon class="cls-1" points="405.29 26.16 408.68 28.93 400.44 29.54 397.05 26.76 405.29 26.16"/><g class="cls-2"><path class="cls-1" d="M730.23,287.7l3.39,2.78c-1.5-1.23-3.52-1.61-6-1.42l-3.39-2.78C726.71,286.09,728.74,286.48,730.23,287.7Z" transform="translate(-318.89 -260.12)"/><g class="cls-9"><g class="cls-2"><path class="cls-1" d="M730.23,287.7l3.39,2.78c-1.5-1.23-3.52-1.61-6-1.42l-3.39-2.78c2.53-.19,4.56.2,6.05,1.42" transform="translate(-318.89 -260.12)"/></g></g></g><polygon class="cls-1" points="397.05 26.76 400.44 29.54 402.29 67.22 398.9 64.44 397.05 26.76"/><g class="cls-2"><path class="cls-1" d="M742.23,275.09l3.39,2.77c5.22,4.28,8,11.32,8.51,20.89L750.74,296C750.27,286.41,747.45,279.36,742.23,275.09Z" transform="translate(-318.89 -260.12)"/><g class="cls-10"><g class="cls-2"><path class="cls-1" d="M742.23,275.09l3.39,2.77c.44.37.86.75,1.27,1.15l-3.39-2.78c-.4-.4-.83-.78-1.27-1.14" transform="translate(-318.89 -260.12)"/><path class="cls-1" d="M743.5,276.23l3.39,2.78a19.5,19.5,0,0,1,2.67,3.28l-3.39-2.78a19.41,19.41,0,0,0-2.67-3.28" transform="translate(-318.89 -260.12)"/><path class="cls-1" d="M746.17,279.51l3.39,2.78a28.44,28.44,0,0,1,4,11.14l-3.39-2.78a28.44,28.44,0,0,0-4-11.14" transform="translate(-318.89 -260.12)"/><path class="cls-1" d="M750.19,290.65l3.39,2.78a48,48,0,0,1,.55,5.32L750.74,296a45.69,45.69,0,0,0-.55-5.33" transform="translate(-318.89 -260.12)"/></g></g></g><polygon class="cls-1" points="407.92 79.74 411.31 82.52 403.07 83.12 399.68 80.35 407.92 79.74"/><polygon class="cls-1" points="431.85 35.85 435.24 38.63 435.95 53.1 432.56 50.32 431.85 35.85"/><g class="cls-2"><path class="cls-1" d="M751.45,310.45l3.39,2.77c.87,17.81-7.21,28.14-24.65,29.42l-3.39-2.78C744.24,338.58,752.32,328.25,751.45,310.45Z" transform="translate(-318.89 -260.12)"/><g class="cls-11"><g class="cls-2"><path class="cls-1" d="M751.45,310.45l3.39,2.77c.08,1.6.08,3.13,0,4.6l-3.39-2.77c.06-1.47.06-3,0-4.6" transform="translate(-318.89 -260.12)"/><path class="cls-1" d="M751.47,315.05l3.39,2.77a38.8,38.8,0,0,1-.61,5.37l-3.39-2.78a38.48,38.48,0,0,0,.61-5.36" transform="translate(-318.89 -260.12)"/><path class="cls-1" d="M750.86,320.41l3.39,2.78a30.86,30.86,0,0,1-.9,3.53L750,323.94a30.86,30.86,0,0,0,.9-3.53" transform="translate(-318.89 -260.12)"/><path class="cls-1" d="M750,323.94l3.39,2.78a26.58,26.58,0,0,1-1.07,2.75l-3.39-2.78a23.77,23.77,0,0,0,1.07-2.75" transform="translate(-318.89 -260.12)"/><path class="cls-1" d="M748.89,326.69l3.39,2.78A20.75,20.75,0,0,1,751,331.8L747.65,329a22.61,22.61,0,0,0,1.24-2.34" transform="translate(-318.89 -260.12)"/><path class="cls-1" d="M747.65,329,751,331.8a19.58,19.58,0,0,1-1.52,2.17l-3.39-2.78a21,21,0,0,0,1.53-2.16" transform="translate(-318.89 -260.12)"/><path class="cls-1" d="M746.12,331.19l3.39,2.78a20.32,20.32,0,0,1-2.16,2.29L744,333.48a20.32,20.32,0,0,0,2.16-2.29" transform="translate(-318.89 -260.12)"/><path class="cls-1" d="M744,333.48l3.39,2.78c-4.06,3.67-9.77,5.83-17.16,6.38l-3.39-2.78c7.39-.54,13.1-2.71,17.16-6.38" transform="translate(-318.89 -260.12)"/></g></g></g><polygon class="cls-1" points="399.68 80.35 403.07 83.12 405.12 124.94 401.73 122.17 399.68 80.35"/><polygon class="cls-1" points="401.73 122.17 405.12 124.94 387.68 126.23 384.3 123.45 401.73 122.17"/></g><g class="cls-2"><polygon class="cls-1" points="462.53 25.77 465.92 28.55 460.28 85.46 456.89 82.68 462.53 25.77"/><polygon class="cls-1" points="455.42 97.95 458.81 100.72 456.79 121.14 453.4 118.37 455.42 97.95"/><polygon class="cls-1" points="453.4 118.37 456.79 121.14 440.78 122.32 437.39 119.54 453.4 118.37"/><polygon class="cls-1" points="476.81 96.37 480.2 99.15 458.81 100.72 455.42 97.95 476.81 96.37"/><polygon class="cls-1" points="475.2 5.05 478.59 7.83 501.79 117.83 498.4 115.05 475.2 5.05"/><polygon class="cls-1" points="498.4 115.05 501.79 117.83 484.19 119.12 480.81 116.35 498.4 115.05"/></g><g class="cls-2"><polygon class="cls-1" points="529.06 17.05 532.45 19.82 522.63 20.54 519.24 17.77 529.06 17.05"/><g class="cls-2"><path class="cls-1" d="M854.14,278.71l3.39,2.78a8.47,8.47,0,0,0-6.19-1.55L848,277.17A8.42,8.42,0,0,1,854.14,278.71Z" transform="translate(-318.89 -260.12)"/><g class="cls-12"><g class="cls-2"><path class="cls-1" d="M854.14,278.71l3.39,2.78a8.47,8.47,0,0,0-6.19-1.55L848,277.17a8.42,8.42,0,0,1,6.19,1.54" transform="translate(-318.89 -260.12)"/></g></g></g><g class="cls-2"><path class="cls-1" d="M866.31,266l3.39,2.78c5.22,4.27,8,11.32,8.51,20.89l-3.39-2.78C874.35,277.27,871.53,270.23,866.31,266Z" transform="translate(-318.89 -260.12)"/><g class="cls-13"><g class="cls-2"><path class="cls-1" d="M866.31,266l3.39,2.78c.44.36.87.74,1.27,1.14l-3.39-2.77c-.4-.4-.83-.79-1.27-1.15" transform="translate(-318.89 -260.12)"/><path class="cls-1" d="M867.58,267.1l3.39,2.77a19.91,19.91,0,0,1,2.67,3.28l-3.38-2.77a19.07,19.07,0,0,0-2.68-3.28" transform="translate(-318.89 -260.12)"/><path class="cls-1" d="M870.26,270.38l3.38,2.77a28.49,28.49,0,0,1,4,11.15l-3.38-2.78a28.76,28.76,0,0,0-4-11.14" transform="translate(-318.89 -260.12)"/><path class="cls-1" d="M874.28,281.52l3.38,2.78a45.51,45.51,0,0,1,.55,5.32l-3.39-2.78a48.08,48.08,0,0,0-.54-5.32" transform="translate(-318.89 -260.12)"/></g></g></g><polygon class="cls-1" points="519.24 17.77 522.63 20.54 526.52 100.05 523.14 97.27 519.24 17.77"/><polygon class="cls-1" points="534.06 112.43 537.45 115.2 509.87 117.23 506.48 114.46 534.06 112.43"/><polygon class="cls-1" points="555.94 26.72 559.33 29.49 562.08 85.78 558.7 83 555.94 26.72"/><g class="cls-2"><path class="cls-1" d="M877.58,343.13,881,345.9c.87,17.82-7.21,28.14-24.64,29.43L853,372.55C870.37,371.27,878.45,360.94,877.58,343.13Z" transform="translate(-318.89 -260.12)"/><g class="cls-14"><g class="cls-2"><path class="cls-1" d="M877.58,343.13,881,345.9c.08,1.6.08,3.13,0,4.61l-3.39-2.78c.07-1.47.06-3,0-4.6" transform="translate(-318.89 -260.12)"/><path class="cls-1" d="M877.6,347.73l3.39,2.78a38.48,38.48,0,0,1-.61,5.36L877,353.1a37.33,37.33,0,0,0,.61-5.37" transform="translate(-318.89 -260.12)"/><path class="cls-1" d="M877,353.1l3.39,2.77a30.51,30.51,0,0,1-.9,3.54l-3.39-2.78a28.91,28.91,0,0,0,.9-3.53" transform="translate(-318.89 -260.12)"/><path class="cls-1" d="M876.09,356.63l3.39,2.78a24.5,24.5,0,0,1-1.07,2.75L875,359.38a23.09,23.09,0,0,0,1.07-2.75" transform="translate(-318.89 -260.12)"/><path class="cls-1" d="M875,359.38l3.39,2.78a23.68,23.68,0,0,1-1.24,2.34l-3.39-2.78a21.63,21.63,0,0,0,1.24-2.34" transform="translate(-318.89 -260.12)"/><path class="cls-1" d="M873.78,361.72l3.39,2.78a21,21,0,0,1-1.53,2.16l-3.39-2.77a22.25,22.25,0,0,0,1.53-2.17" transform="translate(-318.89 -260.12)"/><path class="cls-1" d="M872.25,363.89l3.39,2.77a20.32,20.32,0,0,1-2.16,2.29l-3.39-2.78a20.23,20.23,0,0,0,2.16-2.28" transform="translate(-318.89 -260.12)"/><path class="cls-1" d="M870.09,366.17l3.39,2.78c-4.06,3.67-9.77,5.83-17.15,6.38L853,372.55c7.38-.54,13.08-2.71,17.14-6.38" transform="translate(-318.89 -260.12)"/></g></g></g></g><polygon class="cls-15" points="18.48 38.67 23.16 134.08 51.84 131.97 52.62 147.87 6.5 151.26 1.05 39.95 18.48 38.67"/><path class="cls-15" d="M412.32,293.28l23.21,110-17.6,1.29-4-20-21.4,1.57-2,20.42-16,1.18,12.3-112.62ZM394,370.91l16.79-1.24L399.66,314,394,370.91" transform="translate(-318.89 -260.12)"/><path class="cls-15" d="M489.34,287.61l4.15,84.75c.88,17.81-7.5,28.64-24.61,29.9s-26.49-8.27-27.36-26.07l-4.16-84.76,17.43-1.28L459,376c.39,7.94,4,10.55,9.56,10.14s8.9-3.53,8.51-11.47l-4.21-85.87Z" transform="translate(-318.89 -260.12)"/><polygon class="cls-15" points="237.49 22.55 242.95 133.86 225.03 135.18 199.38 56.15 203.33 136.77 187.64 137.93 182.18 26.62 204.05 25.01 225.23 90.31 221.96 23.69 237.49 22.55"/><path class="cls-15" d="M593.39,278.67c17.11-1.26,26.49,8.27,27.36,26.07l.53,10.82-16.47,1.21-.59-11.93c-.39-7.94-4-10.71-9.57-10.3s-8.89,3.69-8.5,11.63l2.94,60.11c.39,8,4,10.55,9.57,10.14s8.9-3.52,8.51-11.47l-.78-15.9,16.48-1.21.72,14.79c.87,17.8-7.5,28.63-24.62,29.89s-26.48-8.26-27.36-26.07l-2.83-57.88C567.9,290.76,576.27,279.93,593.39,278.67Z" transform="translate(-318.89 -260.12)"/><polygon class="cls-15" points="366.16 13.08 371.62 124.39 353.87 125.69 351.53 77.98 331.73 79.44 334.06 127.15 316.63 128.43 311.17 17.13 328.61 15.84 330.95 63.55 350.75 62.09 348.42 14.38 366.16 13.08"/><path class="cls-15" d="M723.4,270.38c17.43-1.29,26.47,7.78,27.34,25.6l.71,14.47c.87,17.8-7.21,28.13-24.65,29.41l-8.23.61,2,41.82-17.44,1.29-5.46-111.31Zm10.67,42.46-.82-16.69c-.39-8-3.53-10.28-9.07-9.87l-8.24.61,1.85,37.68L726,324c5.55-.41,8.44-3.17,8.05-11.12" transform="translate(-318.89 -260.12)"/><path class="cls-15" d="M794.09,265.17l23.2,110-17.6,1.29-4-20-21.4,1.57-2,20.42-16,1.18,12.3-112.62Zm-18.31,77.64,16.8-1.24-11.16-55.68-5.64,56.92" transform="translate(-318.89 -260.12)"/><path class="cls-15" d="M847.49,261.24C864.92,260,874,269,874.82,286.84l2.76,56.29c.87,17.81-7.21,28.14-24.63,29.42l-27.58,2-5.46-111.31Zm12.7,84-2.83-57.89c-.39-7.94-3.86-10.56-9.41-10.15l-9.83.72L842,357.4l9.83-.73c5.54-.41,8.73-3.51,8.34-11.46" transform="translate(-318.89 -260.12)"/></svg>