<svg xmlns="http://www.w3.org/2000/svg" width="105.792" height="105.792" viewBox="0 0 105.792 105.792">
  <g id="组_76" data-name="组 76" transform="translate(-157.149 -39.575)">
    <g id="inner">
      <path id="路径_43" data-name="路径 43" d="M210.045,145.367a52.9,52.9,0,1,1,52.9-52.9A52.956,52.956,0,0,1,210.045,145.367Zm0-105.122A52.226,52.226,0,1,0,262.27,92.471,52.284,52.284,0,0,0,210.045,40.245Z" fill="#4f4e4e"/>
    </g>
    <path id="icarus" d="M218.6,92.472c10.834-16.872,19.228-27.251,23.878-32.43-5.179,4.651-15.556,13.046-32.428,23.876-16.877-10.833-27.25-19.224-32.428-23.876,4.651,5.178,13.046,15.559,23.876,32.428-10.828,16.874-19.227,27.252-23.876,32.428,5.177-4.648,15.558-13.043,32.428-23.876,16.869,10.83,27.251,19.227,32.428,23.877C237.823,119.722,229.424,109.342,218.6,92.472Zm-8.548,4.872L186.716,115.8,205.173,92.47,186.716,69.147,210.042,87.6l23.329-18.457L214.916,92.475,233.371,115.8Z" fill="#4f4e4e"/>
  </g>
</svg>
