<svg width="60" height="60" viewBox="0 0 60 60" fill="none" xmlns="http://www.w3.org/2000/svg">
<path fill-rule="evenodd" clip-rule="evenodd" d="M30.0167 25.5518C35.2508 22.3578 42.8428 16.7558 46.8896 13.1104C43.311 17.0903 38.3779 23.8796 34.4481 29.9833C37.6923 35.1003 42.6588 42.0736 46.8896 46.8562C42.0903 42.592 35.719 38.0435 30.0167 34.4147C25.0836 37.4749 17.7593 42.7592 13.1438 46.8562C17.3244 42.291 21.7057 36.0535 25.5853 29.9833C22.2241 24.699 17.1739 17.6087 13.1772 13.1438C17.6923 17.2073 24.7325 22.1906 30.0167 25.5518ZM29.9833 27.4582C33.2776 24.8829 39.0301 20.3512 42.107 17.893C40.4427 19.9647 38.0007 23.0489 35.5873 26.0971C34.5331 27.4285 33.4844 28.753 32.5083 29.9833C34.7697 32.9641 38.2301 37.2601 40.9989 40.6974C41.3833 41.1746 41.7543 41.6353 42.107 42.0736C39.8534 40.3162 37.146 38.1689 34.5499 36.1099C32.9465 34.8382 31.3855 33.6001 30 32.5084C26.7391 35.0669 21.3712 39.2976 17.9264 42.0736C19.4877 40.0565 21.3808 37.6683 23.3121 35.2318C24.7112 33.4667 26.1305 31.6763 27.4582 29.9833C25.4162 27.4455 22.8743 24.1996 20.5995 21.2948C19.6516 20.0843 18.75 18.933 17.9504 17.9169C21.3879 20.6856 26.4883 24.7492 29.9833 27.4582Z" fill="#FFD600"/>
<path fill-rule="evenodd" clip-rule="evenodd" d="M30.0001 56.9553C44.8871 56.9553 56.9554 44.887 56.9554 30C56.9554 15.113 44.8871 3.04473 30.0001 3.04473C15.1131 3.04473 3.04476 15.113 3.04476 30C3.04476 44.887 15.1131 56.9553 30.0001 56.9553ZM30.0001 57.2887C45.0711 57.2887 57.2887 45.0711 57.2887 30C57.2887 14.9289 45.0711 2.7114 30.0001 2.7114C14.929 2.7114 2.71143 14.9289 2.71143 30C2.71143 45.0711 14.929 57.2887 30.0001 57.2887Z" fill="white"/>
<path fill-rule="evenodd" clip-rule="evenodd" d="M30 59.6667C46.3844 59.6667 59.6667 46.3844 59.6667 30C59.6667 13.6156 46.3844 0.333333 30 0.333333C13.6156 0.333333 0.333333 13.6156 0.333333 30C0.333333 46.3844 13.6156 59.6667 30 59.6667ZM30 60C46.5685 60 60 46.5685 60 30C60 13.4315 46.5685 0 30 0C13.4315 0 0 13.4315 0 30C0 46.5685 13.4315 60 30 60Z" fill="white"/>
</svg>
