<svg width="26" height="24" viewBox="0 0 26 24" fill="none" xmlns="http://www.w3.org/2000/svg">
<path d="M24.3334 3.33333H1.66669C0.745977 3.33333 0 2.58736 0 1.66669C0 0.746027 0.745977 0 1.66669 0H24.3334C25.254 0 26 0.745977 26 1.66669C26 2.58741 25.254 3.33333 24.3334 3.33333Z" fill="#37394C"/>
<path d="M15 13.3334H1.66669C0.745976 13.3334 0 12.5874 0 11.6667C0 10.746 0.745976 10 1.66669 10H15C15.9207 10 16.6667 10.746 16.6667 11.6667C16.6667 12.5874 15.9207 13.3334 15 13.3334Z" fill="#37394C"/>
<path d="M24.3334 13.3334H21.6667C20.746 13.3334 20 12.5874 20 11.6667C20 10.746 20.746 10 21.6667 10H24.3334C25.254 10 26 10.746 26 11.6667C26 12.5874 25.254 13.3334 24.3334 13.3334Z" fill="#37394C" fill-opacity="0.5"/>
<path d="M24.3334 23.3334H1.66669C0.745977 23.3334 0 22.5874 0 21.6667C0 20.746 0.745977 20 1.66669 20H24.3334C25.254 20 26 20.746 26 21.6667C26 22.5874 25.254 23.3334 24.3334 23.3334Z" fill="#37394C"/>
</svg>
