<svg width="17" height="16" viewBox="0 0 17 16" fill="none" xmlns="http://www.w3.org/2000/svg">
<path fill-rule="evenodd" clip-rule="evenodd" d="M4.86365 13.9545L7.09097 14.5454V13.7726L7.27279 13.5908H8.54552V14.4999V15.1363H7.18188L5.50001 14.409L4.86365 13.9545Z" fill="#CDBDB2"/>
<path fill-rule="evenodd" clip-rule="evenodd" d="M12.1364 13.9545L9.95452 14.5454V13.7726L9.7727 13.5908H8.49997V14.4999V15.1363H9.86361L11.5454 14.409L12.1364 13.9545Z" fill="#CDBDB2"/>
<path fill-rule="evenodd" clip-rule="evenodd" d="M7.27276 12.2727L7.09094 13.7727L7.31818 13.5909H9.68182L9.95455 13.7727L9.77273 12.2727L9.40909 12.0454L7.5909 12.0909L7.27276 12.2727Z" fill="#393939"/>
<path fill-rule="evenodd" clip-rule="evenodd" d="M6.04541 2.13623L7.13632 4.6817L7.63637 12.0909H9.40906L9.95452 4.6817L10.9545 2.13623H6.04541Z" fill="#F89C35"/>
<path fill-rule="evenodd" clip-rule="evenodd" d="M1.27273 7.72741L0 11.4092L3.18183 11.2274H5.22726V9.63651L5.13635 6.36377L4.6818 6.72741L1.27273 7.72741Z" fill="#F89D35"/>
<path fill-rule="evenodd" clip-rule="evenodd" d="M3.68176 8.13623L7.40905 8.22714L7 10.1362L5.22722 9.68169L3.68176 8.13623Z" fill="#D87C30"/>
<path fill-rule="evenodd" clip-rule="evenodd" d="M3.68176 8.18213L5.22722 9.63668V11.0912L3.68176 8.18213Z" fill="#EA8D3A"/>
<path fill-rule="evenodd" clip-rule="evenodd" d="M5.22729 9.68164L7.04549 10.1362L7.63644 12.0908L7.2273 12.318L5.22729 11.1362V9.68164Z" fill="#F89D35"/>
<path fill-rule="evenodd" clip-rule="evenodd" d="M5.22729 11.1362L4.86365 13.9544L7.27279 12.2726L5.22729 11.1362Z" fill="#EB8F35"/>
<path fill-rule="evenodd" clip-rule="evenodd" d="M7.40914 8.22705L7.63645 12.0907L6.95459 10.1134L7.40914 8.22705Z" fill="#EA8E3A"/>
<path fill-rule="evenodd" clip-rule="evenodd" d="M3.13635 11.1817L5.22727 11.1362L4.86363 13.9544L3.13635 11.1817Z" fill="#D87C30"/>
<path fill-rule="evenodd" clip-rule="evenodd" d="M1 15.1821L4.86362 13.9548L3.13634 11.1821L0 11.4094L1 15.1821Z" fill="#EB8F35"/>
<path fill-rule="evenodd" clip-rule="evenodd" d="M7.13632 4.68213L5.18181 6.3185L3.68176 8.13669L7.40905 8.2731L7.13632 4.68213Z" fill="#E8821E"/>
<path fill-rule="evenodd" clip-rule="evenodd" d="M4.86365 13.9547L7.27279 12.2729L7.09097 13.7275V14.5457L5.4546 14.2275L4.86365 13.9547Z" fill="#DFCEC3"/>
<path fill-rule="evenodd" clip-rule="evenodd" d="M12.1364 13.9547L9.7727 12.2729L9.95452 13.7275V14.5457L11.5909 14.2275L12.1364 13.9547Z" fill="#DFCEC3"/>
<path fill-rule="evenodd" clip-rule="evenodd" d="M6.40914 9.04541L6.90918 10.0909L5.1364 9.63636L6.40914 9.04541Z" fill="#393939"/>
<path fill-rule="evenodd" clip-rule="evenodd" d="M0.954468 0L7.13632 4.6818L6.0909 2.13633L0.954468 0Z" fill="#E88F35"/>
<path fill-rule="evenodd" clip-rule="evenodd" d="M0.954538 0L0.136353 2.50001L0.5909 5.2273L0.272717 5.40912L0.727264 5.81821L0.363626 6.13639L0.863629 6.59094L0.545445 6.86367L1.27272 7.77276L4.68183 6.7273C6.3485 5.39397 7.16669 4.71214 7.13639 4.68184C7.10608 4.65154 5.04547 3.09092 0.954538 0Z" fill="#8E5A30"/>
<path fill-rule="evenodd" clip-rule="evenodd" d="M15.7273 7.72741L17 11.4092L13.8182 11.2274H11.7727V9.63651L11.8637 6.36377L12.3182 6.72741L15.7273 7.72741Z" fill="#F89D35"/>
<path fill-rule="evenodd" clip-rule="evenodd" d="M13.3182 8.13623L9.59095 8.22714L10 10.1362L11.7728 9.68169L13.3182 8.13623Z" fill="#D87C30"/>
<path fill-rule="evenodd" clip-rule="evenodd" d="M13.3182 8.18213L11.7728 9.63668V11.0912L13.3182 8.18213Z" fill="#EA8D3A"/>
<path fill-rule="evenodd" clip-rule="evenodd" d="M11.7727 9.68164L9.95451 10.1362L9.36356 12.0908L9.7727 12.318L11.7727 11.1362V9.68164Z" fill="#F89D35"/>
<path fill-rule="evenodd" clip-rule="evenodd" d="M11.7727 11.1362L12.1364 13.9544L9.7727 12.3181L11.7727 11.1362Z" fill="#EB8F35"/>
<path fill-rule="evenodd" clip-rule="evenodd" d="M9.59086 8.22705L9.36355 12.0907L10.0454 10.1134L9.59086 8.22705Z" fill="#EA8E3A"/>
<path fill-rule="evenodd" clip-rule="evenodd" d="M13.8636 11.1817L11.7727 11.1362L12.1364 13.9544L13.8636 11.1817Z" fill="#D87C30"/>
<path fill-rule="evenodd" clip-rule="evenodd" d="M16 15.1821L12.1364 13.9548L13.8637 11.1821L17 11.4094L16 15.1821Z" fill="#EB8F35"/>
<path fill-rule="evenodd" clip-rule="evenodd" d="M9.86368 4.68213L11.8182 6.3185L13.3182 8.13669L9.59095 8.2731L9.86368 4.68213Z" fill="#E8821E"/>
<path fill-rule="evenodd" clip-rule="evenodd" d="M10.591 9.04541L10.0909 10.0909L11.8637 9.63636L10.591 9.04541Z" fill="#393939"/>
<path fill-rule="evenodd" clip-rule="evenodd" d="M16.0455 0L9.86368 4.6818L10.9091 2.13633L16.0455 0Z" fill="#E88F35"/>
<path fill-rule="evenodd" clip-rule="evenodd" d="M16.0455 0L16.8636 2.50001L16.4091 5.2273L16.7273 5.40912L16.2727 5.81821L16.6364 6.13639L16.1364 6.59094L16.4546 6.86367L15.7273 7.77276L12.3182 6.7273C10.6515 5.39397 9.83331 4.71214 9.86361 4.68184C9.89392 4.65154 11.9545 3.09092 16.0455 0Z" fill="#8E5A30"/>
</svg>
