<svg width="25" height="24" viewBox="0 0 25 24" fill="none" xmlns="http://www.w3.org/2000/svg">
<path d="M22.3906 15.5625H21.6875V4.92188C21.6875 4.73438 21.6115 4.55457 21.4815 4.42456L17.2629 0.205994C17.1349 0.0780029 16.9566 0 16.7656 0H4.01562C3.62726 0 3.3125 0.314758 3.3125 0.703125V4.21875H2.60938C1.44629 4.21875 0.5 5.16504 0.5 6.32812V9.14062C0.5 10.3037 1.44629 11.25 2.60938 11.25H3.3125V23.2969C3.3125 23.6852 3.62726 24 4.01562 24H20.9844C21.3727 24 21.6875 23.6852 21.6875 23.2969V22.5938H22.3906C23.5537 22.5938 24.5 21.6475 24.5 20.4844V17.6719C24.5 16.5088 23.5537 15.5625 22.3906 15.5625ZM23.0938 17.6719V18.4958C22.8737 18.4178 22.6371 18.375 22.3906 18.375C21.8746 18.375 18.6249 18.375 18.1719 18.375C17.7835 18.375 17.4688 18.6898 17.4688 19.0781V19.1706L15.2208 17.6719L17.4688 16.1732V16.2656C17.4688 16.654 17.7835 16.9688 18.1719 16.9688H22.3906C22.7783 16.9688 23.0938 17.2842 23.0938 17.6719ZM17.4688 2.4007L19.2868 4.21875H17.4688V2.4007ZM2.60938 5.625H6.82812C7.21649 5.625 7.53125 5.31024 7.53125 4.92188V4.82135L9.81641 6.32812L7.53125 7.8349V7.73438C7.53125 7.34601 7.21649 7.03125 6.82812 7.03125C6.33429 7.03125 3.27844 7.03125 2.60938 7.03125C2.36292 7.03125 2.12634 7.0741 1.90625 7.1521V6.32812C1.90625 5.94049 2.22174 5.625 2.60938 5.625ZM2.60938 9.84375C2.22174 9.84375 1.90625 9.52826 1.90625 9.14062C1.90625 8.75299 2.22174 8.4375 2.60938 8.4375H3.3125V9.84375H2.60938ZM20.2812 22.5938H4.71875C4.71875 22.1395 4.71875 9.18823 4.71875 8.4375H6.125V9.14062C6.125 9.39935 6.26709 9.63702 6.49487 9.7597C6.72247 9.88239 6.99933 9.87012 7.21521 9.72766L11.4808 6.91516C11.6782 6.78497 11.7969 6.56451 11.7969 6.32812C11.7969 6.09174 11.6782 5.87128 11.4808 5.74109L7.21521 2.92859C6.99933 2.78632 6.72247 2.77386 6.49487 2.89655C6.26709 3.01923 6.125 3.2569 6.125 3.51562V4.21875H4.71875V1.40625H16.0625V4.92188C16.0625 5.31024 16.3773 5.625 16.7656 5.625H20.2812V15.5625H18.875V14.8594C18.875 14.6001 18.7322 14.3619 18.5037 14.2394C18.275 14.1171 17.9976 14.1304 17.7819 14.2744L13.5631 17.0869C13.3676 17.2172 13.25 17.4368 13.25 17.6719C13.25 17.907 13.3676 18.1265 13.5631 18.2569L17.7819 21.0694C17.9976 21.2133 18.275 21.2267 18.5037 21.1044C18.7322 20.9819 18.875 20.7437 18.875 20.4844V19.7812H20.2812V22.5938ZM22.3906 21.1875H21.6875V19.7812H22.3906C22.7783 19.7812 23.0938 20.0967 23.0938 20.4844C23.0938 20.872 22.7783 21.1875 22.3906 21.1875Z" fill="#34374A"/>
<path d="M12.5469 8.4375H16.7656C17.154 8.4375 17.4688 8.12274 17.4688 7.73438C17.4688 7.34601 17.154 7.03125 16.7656 7.03125H12.5469C12.1585 7.03125 11.8438 7.34601 11.8438 7.73438C11.8438 8.12274 12.1585 8.4375 12.5469 8.4375Z" fill="#34374A"/>
<path d="M12.5469 11.25H16.7656C17.154 11.25 17.4688 10.9352 17.4688 10.5469C17.4688 10.1585 17.154 9.84375 16.7656 9.84375H12.5469C12.1585 9.84375 11.8438 10.1585 11.8438 10.5469C11.8438 10.9352 12.1585 11.25 12.5469 11.25Z" fill="#34374A"/>
<path d="M11.0938 15.5625H6.82812C6.43976 15.5625 6.125 15.8773 6.125 16.2656C6.125 16.654 6.43976 16.9688 6.82812 16.9688H11.0938C11.4821 16.9688 11.7969 16.654 11.7969 16.2656C11.7969 15.8773 11.4821 15.5625 11.0938 15.5625Z" fill="#34374A"/>
<path d="M11.0938 18.375H6.82812C6.43976 18.375 6.125 18.6898 6.125 19.0781C6.125 19.4665 6.43976 19.7812 6.82812 19.7812H11.0938C11.4821 19.7812 11.7969 19.4665 11.7969 19.0781C11.7969 18.6898 11.4821 18.375 11.0938 18.375Z" fill="#34374A"/>
<path d="M6.82812 14.1562H16.7656C17.154 14.1562 17.4688 13.8415 17.4688 13.4531C17.4688 13.0648 17.154 12.75 16.7656 12.75H6.82812C6.43976 12.75 6.125 13.0648 6.125 13.4531C6.125 13.8415 6.43976 14.1562 6.82812 14.1562Z" fill="#34374A"/>
</svg>
