<svg width="30" height="30" viewBox="0 0 30 30" fill="none" xmlns="http://www.w3.org/2000/svg">
<g filter="url(#filter0_d)">
<path d="M24.8906 18.5625H24.1875V7.92188C24.1875 7.73438 24.1115 7.55457 23.9815 7.42456L19.7629 3.20599C19.6349 3.078 19.4566 3 19.2656 3H6.51562C6.12726 3 5.8125 3.31476 5.8125 3.70312V7.21875H5.10938C3.94629 7.21875 3 8.16504 3 9.32812V12.1406C3 13.3037 3.94629 14.25 5.10938 14.25H5.8125V26.2969C5.8125 26.6852 6.12726 27 6.51562 27H23.4844C23.8727 27 24.1875 26.6852 24.1875 26.2969V25.5938H24.8906C26.0537 25.5938 27 24.6475 27 23.4844V20.6719C27 19.5088 26.0537 18.5625 24.8906 18.5625ZM25.5938 20.6719V21.4958C25.3737 21.4178 25.1371 21.375 24.8906 21.375C24.3746 21.375 21.1249 21.375 20.6719 21.375C20.2835 21.375 19.9688 21.6898 19.9688 22.0781V22.1706L17.7208 20.6719L19.9688 19.1732V19.2656C19.9688 19.654 20.2835 19.9688 20.6719 19.9688H24.8906C25.2783 19.9688 25.5938 20.2842 25.5938 20.6719ZM19.9688 5.4007L21.7868 7.21875H19.9688V5.4007ZM5.10938 8.625H9.32812C9.71649 8.625 10.0312 8.31024 10.0312 7.92188V7.82135L12.3164 9.32812L10.0312 10.8349V10.7344C10.0312 10.346 9.71649 10.0312 9.32812 10.0312C8.83429 10.0312 5.77844 10.0312 5.10938 10.0312C4.86292 10.0312 4.62634 10.0741 4.40625 10.1521V9.32812C4.40625 8.94049 4.72174 8.625 5.10938 8.625ZM5.10938 12.8438C4.72174 12.8438 4.40625 12.5283 4.40625 12.1406C4.40625 11.753 4.72174 11.4375 5.10938 11.4375H5.8125V12.8438H5.10938ZM22.7812 25.5938H7.21875C7.21875 25.1395 7.21875 12.1882 7.21875 11.4375H8.625V12.1406C8.625 12.3994 8.76709 12.637 8.99487 12.7597C9.22247 12.8824 9.49933 12.8701 9.71521 12.7277L13.9808 9.91516C14.1782 9.78497 14.2969 9.56451 14.2969 9.32812C14.2969 9.09174 14.1782 8.87128 13.9808 8.74109L9.71521 5.92859C9.49933 5.78632 9.22247 5.77386 8.99487 5.89655C8.76709 6.01923 8.625 6.2569 8.625 6.51562V7.21875H7.21875V4.40625H18.5625V7.92188C18.5625 8.31024 18.8773 8.625 19.2656 8.625H22.7812V18.5625H21.375V17.8594C21.375 17.6001 21.2322 17.3619 21.0037 17.2394C20.775 17.1171 20.4976 17.1304 20.2819 17.2744L16.0631 20.0869C15.8676 20.2172 15.75 20.4368 15.75 20.6719C15.75 20.907 15.8676 21.1265 16.0631 21.2569L20.2819 24.0694C20.4976 24.2133 20.775 24.2267 21.0037 24.1044C21.2322 23.9819 21.375 23.7437 21.375 23.4844V22.7812H22.7812V25.5938ZM24.8906 24.1875H24.1875V22.7812H24.8906C25.2783 22.7812 25.5938 23.0967 25.5938 23.4844C25.5938 23.872 25.2783 24.1875 24.8906 24.1875Z" fill="#34374A"/>
<path d="M15.0469 11.4375H19.2656C19.654 11.4375 19.9688 11.1227 19.9688 10.7344C19.9688 10.346 19.654 10.0312 19.2656 10.0312H15.0469C14.6585 10.0312 14.3438 10.346 14.3438 10.7344C14.3438 11.1227 14.6585 11.4375 15.0469 11.4375Z" fill="#34374A"/>
<path d="M15.0469 14.25H19.2656C19.654 14.25 19.9688 13.9352 19.9688 13.5469C19.9688 13.1585 19.654 12.8438 19.2656 12.8438H15.0469C14.6585 12.8438 14.3438 13.1585 14.3438 13.5469C14.3438 13.9352 14.6585 14.25 15.0469 14.25Z" fill="#34374A"/>
<path d="M13.5938 18.5625H9.32812C8.93976 18.5625 8.625 18.8773 8.625 19.2656C8.625 19.654 8.93976 19.9688 9.32812 19.9688H13.5938C13.9821 19.9688 14.2969 19.654 14.2969 19.2656C14.2969 18.8773 13.9821 18.5625 13.5938 18.5625Z" fill="#34374A"/>
<path d="M13.5938 21.375H9.32812C8.93976 21.375 8.625 21.6898 8.625 22.0781C8.625 22.4665 8.93976 22.7812 9.32812 22.7812H13.5938C13.9821 22.7812 14.2969 22.4665 14.2969 22.0781C14.2969 21.6898 13.9821 21.375 13.5938 21.375Z" fill="#34374A"/>
<path d="M9.32812 17.1562H19.2656C19.654 17.1562 19.9688 16.8415 19.9688 16.4531C19.9688 16.0648 19.654 15.75 19.2656 15.75H9.32812C8.93976 15.75 8.625 16.0648 8.625 16.4531C8.625 16.8415 8.93976 17.1562 9.32812 17.1562Z" fill="#34374A"/>
</g>
<defs>
<filter id="filter0_d" x="0" y="0" width="30" height="30" filterUnits="userSpaceOnUse" color-interpolation-filters="sRGB">
<feFlood flood-opacity="0" result="BackgroundImageFix"/>
<feColorMatrix in="SourceAlpha" type="matrix" values="0 0 0 0 0 0 0 0 0 0 0 0 0 0 0 0 0 0 127 0"/>
<feOffset/>
<feGaussianBlur stdDeviation="1.5"/>
<feColorMatrix type="matrix" values="0 0 0 0 0.471333 0 0 0 0 0 0 0 0 0 0.841667 0 0 0 0.75 0"/>
<feBlend mode="normal" in2="BackgroundImageFix" result="effect1_dropShadow"/>
<feBlend mode="normal" in="SourceGraphic" in2="effect1_dropShadow" result="shape"/>
</filter>
</defs>
</svg>
