<svg width="26" height="26" viewBox="0 0 26 26" fill="none" xmlns="http://www.w3.org/2000/svg">
<g filter="url(#filter0_dd)">
<path d="M22.8906 16.5625H22.1875V5.92188C22.1875 5.73438 22.1115 5.55457 21.9815 5.42456L17.7629 1.20599C17.6349 1.078 17.4566 1 17.2656 1H4.51562C4.12726 1 3.8125 1.31476 3.8125 1.70312V5.21875H3.10938C1.94629 5.21875 1 6.16504 1 7.32812V10.1406C1 11.3037 1.94629 12.25 3.10938 12.25H3.8125V24.2969C3.8125 24.6852 4.12726 25 4.51562 25H21.4844C21.8727 25 22.1875 24.6852 22.1875 24.2969V23.5938H22.8906C24.0537 23.5938 25 22.6475 25 21.4844V18.6719C25 17.5088 24.0537 16.5625 22.8906 16.5625ZM23.5938 18.6719V19.4958C23.3737 19.4178 23.1371 19.375 22.8906 19.375C22.3746 19.375 19.1249 19.375 18.6719 19.375C18.2835 19.375 17.9688 19.6898 17.9688 20.0781V20.1706L15.7208 18.6719L17.9688 17.1732V17.2656C17.9688 17.654 18.2835 17.9688 18.6719 17.9688H22.8906C23.2783 17.9688 23.5938 18.2842 23.5938 18.6719ZM17.9688 3.4007L19.7868 5.21875H17.9688V3.4007ZM3.10938 6.625H7.32812C7.71649 6.625 8.03125 6.31024 8.03125 5.92188V5.82135L10.3164 7.32812L8.03125 8.8349V8.73438C8.03125 8.34601 7.71649 8.03125 7.32812 8.03125C6.83429 8.03125 3.77844 8.03125 3.10938 8.03125C2.86292 8.03125 2.62634 8.0741 2.40625 8.1521V7.32812C2.40625 6.94049 2.72174 6.625 3.10938 6.625ZM3.10938 10.8438C2.72174 10.8438 2.40625 10.5283 2.40625 10.1406C2.40625 9.75299 2.72174 9.4375 3.10938 9.4375H3.8125V10.8438H3.10938ZM20.7812 23.5938H5.21875C5.21875 23.1395 5.21875 10.1882 5.21875 9.4375H6.625V10.1406C6.625 10.3994 6.76709 10.637 6.99487 10.7597C7.22247 10.8824 7.49933 10.8701 7.71521 10.7277L11.9808 7.91516C12.1782 7.78497 12.2969 7.56451 12.2969 7.32812C12.2969 7.09174 12.1782 6.87128 11.9808 6.74109L7.71521 3.92859C7.49933 3.78632 7.22247 3.77386 6.99487 3.89655C6.76709 4.01923 6.625 4.2569 6.625 4.51562V5.21875H5.21875V2.40625H16.5625V5.92188C16.5625 6.31024 16.8773 6.625 17.2656 6.625H20.7812V16.5625H19.375V15.8594C19.375 15.6001 19.2322 15.3619 19.0037 15.2394C18.775 15.1171 18.4976 15.1304 18.2819 15.2744L14.0631 18.0869C13.8676 18.2172 13.75 18.4368 13.75 18.6719C13.75 18.907 13.8676 19.1265 14.0631 19.2569L18.2819 22.0694C18.4976 22.2133 18.775 22.2267 19.0037 22.1044C19.2322 21.9819 19.375 21.7437 19.375 21.4844V20.7812H20.7812V23.5938ZM22.8906 22.1875H22.1875V20.7812H22.8906C23.2783 20.7812 23.5938 21.0967 23.5938 21.4844C23.5938 21.872 23.2783 22.1875 22.8906 22.1875Z" fill="#34374A"/>
<path d="M13.0469 9.4375H17.2656C17.654 9.4375 17.9688 9.12274 17.9688 8.73438C17.9688 8.34601 17.654 8.03125 17.2656 8.03125H13.0469C12.6585 8.03125 12.3438 8.34601 12.3438 8.73438C12.3438 9.12274 12.6585 9.4375 13.0469 9.4375Z" fill="#34374A"/>
<path d="M13.0469 12.25H17.2656C17.654 12.25 17.9688 11.9352 17.9688 11.5469C17.9688 11.1585 17.654 10.8438 17.2656 10.8438H13.0469C12.6585 10.8438 12.3438 11.1585 12.3438 11.5469C12.3438 11.9352 12.6585 12.25 13.0469 12.25Z" fill="#34374A"/>
<path d="M11.5938 16.5625H7.32812C6.93976 16.5625 6.625 16.8773 6.625 17.2656C6.625 17.654 6.93976 17.9688 7.32812 17.9688H11.5938C11.9821 17.9688 12.2969 17.654 12.2969 17.2656C12.2969 16.8773 11.9821 16.5625 11.5938 16.5625Z" fill="#34374A"/>
<path d="M11.5938 19.375H7.32812C6.93976 19.375 6.625 19.6898 6.625 20.0781C6.625 20.4665 6.93976 20.7812 7.32812 20.7812H11.5938C11.9821 20.7812 12.2969 20.4665 12.2969 20.0781C12.2969 19.6898 11.9821 19.375 11.5938 19.375Z" fill="#34374A"/>
<path d="M7.32812 15.1562H17.2656C17.654 15.1562 17.9688 14.8415 17.9688 14.4531C17.9688 14.0648 17.654 13.75 17.2656 13.75H7.32812C6.93976 13.75 6.625 14.0648 6.625 14.4531C6.625 14.8415 6.93976 15.1562 7.32812 15.1562Z" fill="#34374A"/>
</g>
<defs>
<filter id="filter0_dd" x="0" y="0" width="26" height="26" filterUnits="userSpaceOnUse" color-interpolation-filters="sRGB">
<feFlood flood-opacity="0" result="BackgroundImageFix"/>
<feColorMatrix in="SourceAlpha" type="matrix" values="0 0 0 0 0 0 0 0 0 0 0 0 0 0 0 0 0 0 127 0"/>
<feOffset/>
<feGaussianBlur stdDeviation="0.5"/>
<feColorMatrix type="matrix" values="0 0 0 0 0.471333 0 0 0 0 0 0 0 0 0 0.841667 0 0 0 0.75 0"/>
<feBlend mode="normal" in2="BackgroundImageFix" result="effect1_dropShadow"/>
<feColorMatrix in="SourceAlpha" type="matrix" values="0 0 0 0 0 0 0 0 0 0 0 0 0 0 0 0 0 0 127 0"/>
<feOffset/>
<feGaussianBlur stdDeviation="0.5"/>
<feColorMatrix type="matrix" values="0 0 0 0 0.471333 0 0 0 0 0 0 0 0 0 0.841667 0 0 0 0.75 0"/>
<feBlend mode="normal" in2="effect1_dropShadow" result="effect2_dropShadow"/>
<feBlend mode="normal" in="SourceGraphic" in2="effect2_dropShadow" result="shape"/>
</filter>
</defs>
</svg>
