<svg width="31" height="31" viewBox="0 0 31 31" fill="none" xmlns="http://www.w3.org/2000/svg">
<g filter="url(#filter0_d)">
<path d="M25.3906 19.3945H24.6875V8.75391C24.6875 8.56641 24.6115 8.3866 24.4815 8.25659L20.2629 4.03802C20.1349 3.91003 19.9566 3.83203 19.7656 3.83203H7.01562C6.62726 3.83203 6.3125 4.14679 6.3125 4.53516V8.05078H5.60938C4.44629 8.05078 3.5 8.99707 3.5 10.1602V12.9727C3.5 14.1357 4.44629 15.082 5.60938 15.082H6.3125V27.1289C6.3125 27.5173 6.62726 27.832 7.01562 27.832H23.9844C24.3727 27.832 24.6875 27.5173 24.6875 27.1289V26.4258H25.3906C26.5537 26.4258 27.5 25.4795 27.5 24.3164V21.5039C27.5 20.3408 26.5537 19.3945 25.3906 19.3945ZM26.0938 21.5039V22.3279C25.8737 22.2499 25.6371 22.207 25.3906 22.207C24.8746 22.207 21.6249 22.207 21.1719 22.207C20.7835 22.207 20.4688 22.5218 20.4688 22.9102V23.0026L18.2208 21.5039L20.4688 20.0052V20.0977C20.4688 20.486 20.7835 20.8008 21.1719 20.8008H25.3906C25.7783 20.8008 26.0938 21.1163 26.0938 21.5039ZM20.4688 6.23273L22.2868 8.05078H20.4688V6.23273ZM5.60938 9.45703H9.82812C10.2165 9.45703 10.5312 9.14227 10.5312 8.75391V8.65338L12.8164 10.1602L10.5312 11.6669V11.5664C10.5312 11.178 10.2165 10.8633 9.82812 10.8633C9.33429 10.8633 6.27844 10.8633 5.60938 10.8633C5.36292 10.8633 5.12634 10.9061 4.90625 10.9841V10.1602C4.90625 9.77252 5.22174 9.45703 5.60938 9.45703ZM5.60938 13.6758C5.22174 13.6758 4.90625 13.3603 4.90625 12.9727C4.90625 12.585 5.22174 12.2695 5.60938 12.2695H6.3125V13.6758H5.60938ZM23.2812 26.4258H7.71875C7.71875 25.9715 7.71875 13.0203 7.71875 12.2695H9.125V12.9727C9.125 13.2314 9.26709 13.4691 9.49487 13.5917C9.72247 13.7144 9.99933 13.7021 10.2152 13.5597L14.4808 10.7472C14.6782 10.617 14.7969 10.3965 14.7969 10.1602C14.7969 9.92377 14.6782 9.70331 14.4808 9.57312L10.2152 6.76062C9.99933 6.61835 9.72247 6.6059 9.49487 6.72858C9.26709 6.85126 9.125 7.08893 9.125 7.34766V8.05078H7.71875V5.23828H19.0625V8.75391C19.0625 9.14227 19.3773 9.45703 19.7656 9.45703H23.2812V19.3945H21.875V18.6914C21.875 18.4321 21.7322 18.1939 21.5037 18.0714C21.275 17.9491 20.9976 17.9625 20.7819 18.1064L16.5631 20.9189C16.3676 21.0493 16.25 21.2688 16.25 21.5039C16.25 21.739 16.3676 21.9586 16.5631 22.0889L20.7819 24.9014C20.9976 25.0453 21.275 25.0587 21.5037 24.9364C21.7322 24.8139 21.875 24.5757 21.875 24.3164V23.6133H23.2812V26.4258ZM25.3906 25.0195H24.6875V23.6133H25.3906C25.7783 23.6133 26.0938 23.9288 26.0938 24.3164C26.0938 24.704 25.7783 25.0195 25.3906 25.0195Z" fill="white"/>
<path d="M15.5469 12.2695H19.7656C20.154 12.2695 20.4688 11.9548 20.4688 11.5664C20.4688 11.178 20.154 10.8633 19.7656 10.8633H15.5469C15.1585 10.8633 14.8438 11.178 14.8438 11.5664C14.8438 11.9548 15.1585 12.2695 15.5469 12.2695Z" fill="white"/>
<path d="M15.5469 15.082H19.7656C20.154 15.082 20.4688 14.7673 20.4688 14.3789C20.4688 13.9905 20.154 13.6758 19.7656 13.6758H15.5469C15.1585 13.6758 14.8438 13.9905 14.8438 14.3789C14.8438 14.7673 15.1585 15.082 15.5469 15.082Z" fill="white"/>
<path d="M14.0938 19.3945H9.82812C9.43976 19.3945 9.125 19.7093 9.125 20.0977C9.125 20.486 9.43976 20.8008 9.82812 20.8008H14.0938C14.4821 20.8008 14.7969 20.486 14.7969 20.0977C14.7969 19.7093 14.4821 19.3945 14.0938 19.3945Z" fill="white"/>
<path d="M14.0938 22.207H9.82812C9.43976 22.207 9.125 22.5218 9.125 22.9102C9.125 23.2985 9.43976 23.6133 9.82812 23.6133H14.0938C14.4821 23.6133 14.7969 23.2985 14.7969 22.9102C14.7969 22.5218 14.4821 22.207 14.0938 22.207Z" fill="white"/>
<path d="M9.82812 17.9883H19.7656C20.154 17.9883 20.4688 17.6735 20.4688 17.2852C20.4688 16.8968 20.154 16.582 19.7656 16.582H9.82812C9.43976 16.582 9.125 16.8968 9.125 17.2852C9.125 17.6735 9.43976 17.9883 9.82812 17.9883Z" fill="white"/>
</g>
<defs>
<filter id="filter0_d" x="0.5" y="0.832031" width="30" height="30" filterUnits="userSpaceOnUse" color-interpolation-filters="sRGB">
<feFlood flood-opacity="0" result="BackgroundImageFix"/>
<feColorMatrix in="SourceAlpha" type="matrix" values="0 0 0 0 0 0 0 0 0 0 0 0 0 0 0 0 0 0 127 0"/>
<feOffset/>
<feGaussianBlur stdDeviation="1.5"/>
<feColorMatrix type="matrix" values="0 0 0 0 0 0 0 0 0 0.94 0 0 0 0 1 0 0 0 1 0"/>
<feBlend mode="normal" in2="BackgroundImageFix" result="effect1_dropShadow"/>
<feBlend mode="normal" in="SourceGraphic" in2="effect1_dropShadow" result="shape"/>
</filter>
</defs>
</svg>
