<svg width="21" height="22" viewBox="0 0 21 22" fill="none" xmlns="http://www.w3.org/2000/svg">
<path d="M11.5107 0.719416L10.8848 0.406267C10.3664 0.146912 9.73593 0.356807 9.47647 0.875116L9.32007 1.18792C9.09562 1.07481 8.82736 1.09305 8.62029 1.2355C7.55243 0.754755 3.12286 -1.01008 0.268482 1.42899C0.0438236 1.60146 -0.0518492 1.8942 0.0275945 2.16606C0.107038 2.43792 0.345288 2.63308 0.627467 2.65744C2.86542 2.78355 5.05413 3.36477 7.05979 4.36559C7.07572 4.61236 7.22108 4.83226 7.44187 4.94361L2.03226 15.7593C1.80397 16.2071 1.8333 16.7429 2.10912 17.1631C2.38494 17.5832 2.86488 17.8232 3.36651 17.7918C3.86814 17.7605 4.31442 17.4625 4.53571 17.0112L9.94531 6.19585C10.1665 6.30776 10.4308 6.29226 10.6374 6.15526C12.6409 7.15963 14.4186 8.5621 15.8616 10.2769C16.0504 10.4878 16.3494 10.5612 16.6144 10.4617C16.8795 10.3623 17.0563 10.1104 17.0599 9.82733C17.2996 6.08109 13.2325 3.59514 12.2066 3.03042C12.1966 2.77855 12.0496 2.55234 11.8235 2.44086L11.9803 2.12806C12.1049 1.87901 12.1254 1.59065 12.0373 1.32646C11.9493 1.06226 11.7598 0.843892 11.5107 0.719416ZM10.1024 1.19001C10.1437 1.10638 10.2166 1.04268 10.305 1.01306C10.3935 0.983429 10.49 0.990326 10.5734 1.03222L11.1993 1.34711C11.2823 1.38863 11.3454 1.46143 11.3748 1.54949C11.4041 1.63755 11.3973 1.73366 11.3557 1.81666L11.199 2.12911L9.94601 1.50141L10.1024 1.19001ZM0.722986 1.95977C3.14526 -0.109117 7.08009 1.33942 8.21827 1.82681L7.28442 3.69661C5.23417 2.68808 3.0037 2.09766 0.722986 1.95977ZM3.90976 16.6974C3.73321 17.036 3.31778 17.1705 2.97625 16.9997C2.63471 16.8289 2.49318 16.4158 2.65821 16.0714L8.06782 5.25675L9.31937 5.88305L3.90976 16.6974ZM10.2585 5.5699L9.94566 5.4135L7.75537 4.31766L9.00762 1.81456L11.5107 3.06646L10.2585 5.57025V5.5699ZM16.3615 9.7829C14.8838 8.04109 13.0742 6.61063 11.0384 5.5748L11.9729 3.70465C13.0464 4.32221 16.5655 6.59892 16.3615 9.7829Z" fill="#34374A"/>
<path d="M20.5396 3.69249C19.8659 3.94256 19.3156 4.44431 19.0046 5.09204C18.6138 5.13998 17.864 5.31562 17.5379 5.96676C17.4819 6.07886 17.4902 6.21231 17.5596 6.31665C18.3595 7.71608 18.4755 9.40449 17.8745 10.9002C17.8378 10.9999 17.8478 11.1109 17.9018 11.2025C17.9896 11.3515 18.7205 12.6835 17.3223 13.5226C17.2462 13.5681 17.1903 13.6411 17.1663 13.7266C17.0238 14.163 16.7073 14.5211 16.2916 14.716C15.7506 14.9232 15.0432 14.7594 14.1895 14.2262C14.1336 14.1904 14.0686 14.1712 14.0023 14.1709C13.9729 14.1709 11.157 14.2035 9.95127 16.892C8.9661 16.6125 7.92302 17.0846 7.48281 18.0092C6.66548 17.9983 4.15678 18.1715 3.51614 20.7341C3.49008 20.8386 3.51359 20.9493 3.57987 21.0341C3.64616 21.119 3.74784 21.1686 3.85553 21.1687H20.3002C20.6867 21.1687 21 20.8554 21 20.4689V4.02418C20.9999 3.91178 20.9458 3.80626 20.8546 3.74055C20.7634 3.67485 20.6462 3.65697 20.5396 3.69249ZM20.3002 20.4689H4.33593C5.14627 18.4745 7.55699 18.7051 7.6665 18.7173C7.82267 18.7344 7.97104 18.6452 8.02934 18.4994C8.1666 18.1107 8.46027 17.7972 8.83917 17.6349C9.21807 17.4725 9.64761 17.4762 10.0237 17.6449C10.1111 17.68 10.209 17.6784 10.2952 17.6404C10.3814 17.6024 10.4486 17.5313 10.4817 17.4431C11.0095 15.9792 12.3574 14.9694 13.9106 14.8742C14.9221 15.4844 15.807 15.6509 16.5421 15.3679C17.1216 15.1196 17.5735 14.6441 17.7919 14.0527C18.9318 13.307 19.1099 12.1052 18.5833 10.9971C19.1641 9.4038 19.0487 7.6398 18.2653 6.13575C18.5431 5.90676 18.8906 5.77905 19.2506 5.77362C19.4012 5.77366 19.535 5.67724 19.5826 5.5343C19.7162 5.15589 19.9677 4.83038 20.3002 4.6057V20.4689Z" fill="#34374A"/>
<path d="M17.801 17.1243L17.1344 16.9143C16.7662 16.7975 16.373 17.0011 16.2559 17.3692L16.0459 18.0364C15.9293 18.4045 16.1328 18.7975 16.5008 18.9146C17.2202 19.1421 17.238 19.1596 17.3797 19.1596C17.6843 19.1584 17.9531 18.9603 18.0445 18.6697L18.2544 18.0025C18.3712 17.6348 18.1684 17.242 17.801 17.1243ZM17.3811 18.4587L16.7139 18.2488L16.9238 17.5816L17.591 17.7915L17.3811 18.4587Z" fill="#34374A"/>
<path d="M13.3197 17.9799C13.2026 17.612 12.8096 17.4084 12.4415 17.5251L11.7746 17.735C11.4067 17.8521 11.2031 18.2451 11.3197 18.6132L11.5297 19.2801C11.6468 19.6482 12.04 19.8518 12.4082 19.735L13.0755 19.525C13.4434 19.4079 13.647 19.0149 13.5303 18.6468L13.3197 17.9799ZM12.1962 19.0691L11.9863 18.4022L12.6535 18.1923L12.8634 18.8595L12.1962 19.0691Z" fill="#34374A"/>
<path d="M14.7021 16.27C14.5088 16.27 14.3522 16.4267 14.3522 16.6199V16.9698C14.3522 17.163 14.5088 17.3197 14.7021 17.3197C14.8953 17.3197 15.0519 17.163 15.0519 16.9698V16.6199C15.0519 16.4267 14.8953 16.27 14.7021 16.27Z" fill="#34374A"/>
<path d="M8.85643 18.8219L8.50654 19.1717C8.37395 19.309 8.37584 19.5273 8.51081 19.6622C8.64577 19.7972 8.864 19.7991 9.00128 19.6665L9.35117 19.3166C9.48377 19.1793 9.48187 18.9611 9.34691 18.8261C9.21195 18.6911 8.99372 18.6893 8.85643 18.8219Z" fill="#34374A"/>
<path d="M19.148 14.9732C19.0107 14.8406 18.7925 14.8425 18.6575 14.9775C18.5226 15.1124 18.5207 15.3307 18.6533 15.468C19.0242 15.8392 19.0686 15.9204 19.2505 15.9204C19.392 15.9203 19.5196 15.8351 19.5737 15.7044C19.6279 15.5736 19.5979 15.4232 19.4979 15.3231L19.148 14.9732Z" fill="#34374A"/>
<path d="M11.5531 11.9959C11.5531 13.0788 12.2588 13.7397 13.4117 13.3604C13.7896 13.2744 14.1084 13.0224 14.2794 12.6747C14.4862 12.1747 14.2094 11.6289 13.9645 11.1471C13.4334 10.1033 11.5531 10.9641 11.5531 11.9959ZM13.6328 12.4088C13.5401 12.6323 12.7997 12.9073 12.5002 12.6887C12.3181 12.5065 12.2273 12.2522 12.2529 11.9959C12.2529 11.6212 13.1899 11.1688 13.3403 11.4658C13.5167 11.8129 13.7168 12.2062 13.6328 12.4088Z" fill="#34374A"/>
</svg>
