<svg width="30" height="23" viewBox="0 0 30 23" fill="none" xmlns="http://www.w3.org/2000/svg">
<path d="M21.0404 22.259C21.8877 22.2587 22.7091 21.9674 23.3672 21.4337C24.0253 20.9001 24.4801 20.1566 24.6555 19.3276H17.4185C17.5952 20.1571 18.0514 20.9008 18.7106 21.4343C19.3698 21.9679 20.1923 22.259 21.0404 22.259Z" fill="#34374A"/>
<path d="M8.38015 22.259C9.22742 22.2587 10.0489 21.9674 10.707 21.4337C11.3651 20.9001 11.8199 20.1566 11.9952 19.3276H4.7583C4.93621 20.1565 5.39263 20.8995 6.05161 21.4328C6.71059 21.9662 7.53237 22.2577 8.38015 22.259Z" fill="#34374A"/>
<path d="M5.37562 0H3.53422L2.53906 2.67409H4.37369L5.37562 0Z" fill="#34374A"/>
<path d="M12.463 0H10.6216L9.62646 2.67409H11.4611L12.463 0Z" fill="#34374A"/>
<path d="M1.81393 0C1.45483 0 1.11047 0.142649 0.85655 0.396567C0.602632 0.650485 0.459962 0.994873 0.459962 1.35397C0.459691 1.54664 0.501994 1.73699 0.583922 1.91138C0.665849 2.08576 0.78534 2.23988 0.933818 2.36267L1.80715 0.0135426L1.81393 0Z" fill="#34374A"/>
<path d="M28.2707 0.189453L27.3433 2.67398H27.6005C27.9596 2.67398 28.304 2.53133 28.5579 2.27741C28.8118 2.0235 28.9545 1.67911 28.9545 1.32001C28.9466 1.08886 28.8796 0.863587 28.7599 0.665674C28.6402 0.467762 28.4718 0.303808 28.2707 0.189453Z" fill="#34374A"/>
<path d="M8.91518 0H7.08055L6.07861 2.67409H7.92001L8.91518 0Z" fill="#34374A"/>
<path d="M26.6388 0H24.7974L23.8022 2.67409H25.6369L26.6388 0Z" fill="#34374A"/>
<path d="M23.0914 0H21.2568L20.2549 2.67409H22.0963L23.0914 0Z" fill="#34374A"/>
<path d="M16.0035 0H14.1689L13.167 2.67409H15.0084L16.0035 0Z" fill="#34374A"/>
<path d="M19.5509 0H17.7095L16.7144 2.67409H18.549L19.5509 0Z" fill="#34374A"/>
<path d="M28.061 10.5264V3.28271H1.35397V10.5264H0V11.4742H1.35397V17.7025C1.35575 17.9706 1.46354 18.2272 1.65378 18.4161C1.84403 18.6051 2.10129 18.7112 2.36944 18.7112H27.0455C27.3149 18.7112 27.5732 18.6042 27.7636 18.4137C27.954 18.2233 28.061 17.965 28.061 17.6957V11.4742H29.415V10.5197L28.061 10.5264ZM19.4497 7.47324C19.5244 7.41539 19.619 7.38934 19.7128 7.40075C19.8066 7.41216 19.892 7.4601 19.9507 7.53417L20.2689 7.9539C20.3268 8.02861 20.3528 8.12311 20.3414 8.21691C20.33 8.3107 20.282 8.39621 20.2079 8.45487L19.7409 8.81367L18.9826 7.83205L19.4497 7.47324ZM9.15961 16.951L8.40139 15.9694L16.9314 9.3688L17.6896 10.3504L9.15961 16.951ZM20.7563 15.7595C20.092 13.5614 19.0194 11.5082 17.5948 9.70729C16.2112 7.87805 14.4956 6.32556 12.5377 5.13088C13.8222 5.15479 15.0841 5.47225 16.227 6.05895C17.3699 6.64564 18.3635 7.48603 19.1316 8.51579C19.9378 9.51881 20.5035 10.6933 20.7852 11.949C21.0668 13.2047 21.057 14.5082 20.7563 15.7595Z" fill="#34374A"/>
</svg>
