<svg width="21" height="14" viewBox="0 0 21 14" fill="none" xmlns="http://www.w3.org/2000/svg">
<path d="M20.4559 11.578C20.2567 12.2261 19.7935 12.6219 19.3802 13.0521C19.0366 13.4077 18.4738 13.3791 18.1053 13.0521C18.0206 12.9775 17.9409 12.8915 17.8662 12.7997C15.5256 10.1038 13.185 7.40796 10.8444 4.71208C10.7896 4.64898 10.7548 4.56868 10.7149 4.49411C10.6851 4.49411 10.6602 4.49411 10.6303 4.49411C10.5855 4.56868 10.5506 4.64898 10.5008 4.70634C8.14524 7.41943 5.79467 10.1325 3.43912 12.8456C3.0208 13.3274 2.49789 13.4708 2.07957 13.1095C1.69113 12.7768 1.34253 12.3581 1.05369 11.9164C0.774807 11.4977 0.859466 10.9183 1.15827 10.5111C1.20807 10.4423 1.26285 10.3792 1.31265 10.3161C4.14628 7.0466 6.97991 3.77712 9.81355 0.507648C9.88327 0.427345 9.95797 0.341308 10.0376 0.272477C10.4311 -0.0946217 10.9241 -0.0888873 11.3175 0.278211C11.4022 0.358515 11.4769 0.444554 11.5566 0.530594C14.3155 3.71977 17.0744 6.90894 19.8383 10.0981C20.0923 10.3964 20.3513 10.6832 20.4658 11.0962C20.4559 11.2568 20.4559 11.4174 20.4559 11.578Z" fill="#9248A2"/>
</svg>
