<svg xmlns="http://www.w3.org/2000/svg" width="30.94" height="30.94" viewBox="0 0 30.94 30.94">
  <g id="grind-menu" transform="translate(-1551.706 -282.354)">
    <g id="组_69" data-name="组 69">
      <path id="路径_41" data-name="路径 41" d="M1554.206,296.7h9.35a2.5,2.5,0,0,0,2.5-2.5v-9.35a2.5,2.5,0,0,0-2.5-2.5h-9.35a2.5,2.5,0,0,0-2.5,2.5v9.35A2.507,2.507,0,0,0,1554.206,296.7Zm.5-11.35h8.35v8.35h-8.35Zm8.85,13.59h-9.35a2.5,2.5,0,0,0-2.5,2.5v9.35a2.5,2.5,0,0,0,2.5,2.5h9.35a2.5,2.5,0,0,0,2.5-2.5v-9.35A2.5,2.5,0,0,0,1563.556,298.944Zm-.5,11.35h-8.35v-8.35h8.35Zm17.09-27.94h-9.34a2.5,2.5,0,0,0-2.5,2.5v9.35a2.5,2.5,0,0,0,2.5,2.5h9.34a2.5,2.5,0,0,0,2.5-2.5v-9.35A2.5,2.5,0,0,0,1580.146,282.354Zm-.5,11.34h-8.34v-8.34h8.34Zm.5,5.25h-9.35a2.5,2.5,0,0,0-2.5,2.5v9.35a2.5,2.5,0,0,0,2.5,2.5h9.35a2.5,2.5,0,0,0,2.5-2.5v-9.35A2.5,2.5,0,0,0,1580.146,298.944Zm-.5,11.35h-8.35v-8.35h8.35Z" fill="#4f4e4e"/>
    </g>
  </g>
</svg>
