<svg width="16" height="16" viewBox="0 0 16 16" fill="none" xmlns="http://www.w3.org/2000/svg">
<path d="M1.26743 7.42082H6.00767C6.34382 7.42082 6.6661 7.28461 6.90379 7.04215C7.14148 6.7997 7.2751 6.47087 7.2751 6.12799V1.29282C7.2751 0.949946 7.14148 0.621114 6.90379 0.378663C6.6661 0.136211 6.34382 0 6.00767 0H1.26743C0.931288 0 0.608883 0.136211 0.371194 0.378663C0.133504 0.621114 0 0.949946 0 1.29282V6.12799C0.00133494 6.47045 0.135279 6.79848 0.372679 7.04064C0.61008 7.2828 0.931699 7.41946 1.26743 7.42082ZM1.52092 1.55139H5.75419V5.86943H1.52092V1.55139ZM6.00767 8.57918H1.26743C0.931288 8.57918 0.608883 8.71539 0.371194 8.95785C0.133504 9.2003 0 9.52913 0 9.87201V14.7072C0 15.0501 0.133504 15.3789 0.371194 15.6213C0.608883 15.8638 0.931288 16 1.26743 16H6.00767C6.34382 16 6.6661 15.8638 6.90379 15.6213C7.14148 15.3789 7.2751 15.0501 7.2751 14.7072V9.87201C7.2751 9.52913 7.14148 9.2003 6.90379 8.95785C6.6661 8.71539 6.34382 8.57918 6.00767 8.57918ZM5.75419 14.4486H1.52092V10.1306H5.75419V14.4486ZM14.4183 0H9.68322C9.34708 0 9.02468 0.136211 8.78699 0.378663C8.5493 0.621114 8.41579 0.949946 8.41579 1.29282V6.12799C8.41579 6.47087 8.5493 6.7997 8.78699 7.04215C9.02468 7.28461 9.34708 7.42082 9.68322 7.42082H14.4183C14.7544 7.42082 15.0768 7.28461 15.3145 7.04215C15.5522 6.7997 15.6857 6.47087 15.6857 6.12799V1.29282C15.6857 0.949946 15.5522 0.621114 15.3145 0.378663C15.0768 0.136211 14.7544 0 14.4183 0ZM14.1648 5.86425H9.93671V1.55139H14.1648V5.86425ZM14.4183 8.57918H9.67815C9.34201 8.57918 9.0196 8.71539 8.78191 8.95785C8.54422 9.2003 8.41072 9.52913 8.41072 9.87201V14.7072C8.41072 15.0501 8.54422 15.3789 8.78191 15.6213C9.0196 15.8638 9.34201 16 9.67815 16H14.4183C14.7544 16 15.0768 15.8638 15.3145 15.6213C15.5522 15.3789 15.6857 15.0501 15.6857 14.7072V9.87201C15.6857 9.52913 15.5522 9.2003 15.3145 8.95785C15.0768 8.71539 14.7544 8.57918 14.4183 8.57918ZM14.1648 14.4486H9.93164V10.1306H14.1648V14.4486Z" fill="#7416B2"/>
</svg>
