<svg xmlns="http://www.w3.org/2000/svg" width="33.351" height="34.353" viewBox="0 0 33.351 34.353">
  <g id="dark-mode" transform="translate(-1276.405 -278.907)">
    <g id="组_62" data-name="组 62">
      <path id="路径_35" data-name="路径 35" d="M1309.378,303.34a2.47,2.47,0,0,0-2.62-1.14,14.894,14.894,0,0,1-2.67.35,16,16,0,0,1-15.99-15.99,20.248,20.248,0,0,1,.82-4.51,2.5,2.5,0,0,0-3.73-2.77,18.405,18.405,0,0,0-7.99,21.06,18.16,18.16,0,0,0,11.35,11.87,18.637,18.637,0,0,0,6.16,1.05,18.358,18.358,0,0,0,14.51-7.07A2.468,2.468,0,0,0,1309.378,303.34Zm-19.84,6.04a15.149,15.149,0,0,1-9.47-9.91,15.465,15.465,0,0,1,5.63-16.95,18.608,18.608,0,0,0-.6,4.03,19.013,19.013,0,0,0,18.99,18.99,13.772,13.772,0,0,0,1.89-.17A15.454,15.454,0,0,1,1289.538,309.38Zm5.85-20.3,3.19,1.6,1.61,3.21a1,1,0,0,0,.89.55h0a.988.988,0,0,0,.89-.55l1.6-3.2,3.23-1.59a1.007,1.007,0,0,0,.01-1.8l-3.22-1.61-1.58-3.2a1.016,1.016,0,0,0-.89-.56h0a.988.988,0,0,0-.89.55l-1.62,3.2-3.2,1.6a1,1,0,0,0-.55.89A1.011,1.011,0,0,0,1295.388,289.08Zm4.4-1.75a1.062,1.062,0,0,0,.45-.44l.87-1.71.85,1.71a1.03,1.03,0,0,0,.45.45l1.71.85-1.72.85a.981.981,0,0,0-.45.45l-.86,1.71-.87-1.72a1.03,1.03,0,0,0-.45-.45l-1.69-.84Z" fill="#4f4e4e"/>
    </g>
  </g>
</svg>
