<svg width="24" height="24" viewBox="0 0 24 24" fill="none" xmlns="http://www.w3.org/2000/svg">
<circle cx="12" cy="12" r="12" fill="#7416B2"/>
<path d="M17.3999 12.6H12.6V17.4C12.6 17.7312 12.3312 18 11.9999 18C11.6688 18 11.4 17.7312 11.4 17.4V12.6H6.59996C6.26883 12.6 6 12.3312 6 12.0001C6 11.6688 6.26883 11.4 6.59996 11.4H11.4V6.60007C11.4 6.26884 11.6688 6 11.9999 6C12.3312 6 12.6 6.26884 12.6 6.60007V11.4H17.3999C17.7312 11.4 18 11.6688 18 12.0001C18 12.3312 17.7312 12.6 17.3999 12.6Z" fill="white"/>
</svg>
