<svg width="21" height="22" viewBox="0 0 21 22" fill="none" xmlns="http://www.w3.org/2000/svg">
<path d="M3.65582 8.12468L4.13586 9.42622C4.1539 9.47523 4.20056 9.50772 4.25271 9.50772C4.30487 9.50772 4.35152 9.47523 4.36957 9.42622L4.84961 8.12468C5.23817 7.071 6.06878 6.24039 7.12238 5.8519L8.42393 5.37186C8.47286 5.35382 8.50535 5.30716 8.50535 5.25501C8.50535 5.20285 8.47286 5.1562 8.42393 5.13815L7.12231 4.65811C6.0687 4.26955 5.2381 3.43902 4.84961 2.38541L4.36957 1.08387C4.35152 1.03494 4.30487 1.00244 4.25271 1.00244C4.20056 1.00244 4.1539 1.03494 4.13586 1.08387L3.65582 2.38541C3.26726 3.43902 2.43672 4.26955 1.38305 4.65811L0.0814247 5.13815C0.0324965 5.1562 0 5.20285 0 5.25501C0 5.30716 0.0324965 5.35382 0.0814247 5.37186L1.38297 5.8519C2.43665 6.24039 3.26726 7.07092 3.65582 8.12468Z" fill="#34374A"/>
<path d="M14.2085 13.6225L12.907 13.1425C11.8533 12.7539 11.0227 11.9234 10.6342 10.8698L10.1542 9.56824C10.1361 9.51931 10.0895 9.48682 10.0373 9.48682C9.98515 9.48682 9.9385 9.51931 9.92045 9.56824L9.44041 10.8697C9.05185 11.9234 8.22125 12.7539 7.16764 13.1425L5.86609 13.6225C5.81716 13.6405 5.78467 13.6872 5.78467 13.7393C5.78467 13.7915 5.81716 13.8381 5.86609 13.8562L7.16771 14.3363C8.22132 14.7248 9.05185 15.5554 9.44041 16.609L9.92045 17.9106C9.9385 17.9595 9.98515 17.992 10.0373 17.992C10.0895 17.992 10.1361 17.9595 10.1542 17.9106L10.6342 16.609C11.0228 15.5554 11.8533 14.7248 12.9069 14.3363L14.2085 13.8562C14.2575 13.8381 14.2899 13.7915 14.2899 13.7393C14.2899 13.6872 14.2574 13.6405 14.2085 13.6225Z" fill="#34374A"/>
<path d="M20.9446 8.05532L20.06 7.72911C19.3439 7.46503 18.7795 6.90056 18.5154 6.18453L18.1892 5.30001C18.1769 5.26678 18.1452 5.24463 18.1097 5.24463C18.0743 5.24463 18.0426 5.26678 18.0303 5.30001L17.7042 6.18446C17.4401 6.90056 16.8756 7.46503 16.1595 7.72911L15.275 8.05532C15.2418 8.06757 15.2196 8.09926 15.2196 8.13469C15.2196 8.17012 15.2418 8.20188 15.275 8.21413L16.1596 8.54027C16.8756 8.80443 17.4401 9.3689 17.7042 10.0849L18.0303 10.9696C18.0426 11.0028 18.0743 11.025 18.1097 11.025C18.1452 11.025 18.1769 11.0028 18.1892 10.9696L18.5154 10.0849C18.7795 9.36882 19.3439 8.80443 20.06 8.54035L20.9446 8.21413C20.9778 8.20188 20.9999 8.17012 20.9999 8.13469C20.9999 8.09926 20.9778 8.06757 20.9446 8.05532Z" fill="#34374A"/>
<path d="M18.8019 19.6997L18.1848 19.4721C17.6853 19.2879 17.2916 18.8942 17.1074 18.3948L16.8798 17.7778C16.8713 17.7547 16.8491 17.7393 16.8244 17.7393C16.7997 17.7393 16.7776 17.7547 16.769 17.7778L16.5414 18.3948C16.3572 18.8942 15.9635 19.2879 15.4641 19.4721L14.8471 19.6997C14.8239 19.7082 14.8085 19.7303 14.8085 19.7551C14.8085 19.7798 14.8239 19.8019 14.8471 19.8105L15.464 20.0381C15.9636 20.2223 16.3573 20.616 16.5415 21.1155L16.7691 21.7325C16.7776 21.7557 16.7998 21.7711 16.8245 21.7711C16.8492 21.7711 16.8714 21.7557 16.8799 21.7325L17.1075 21.1155C17.2917 20.616 17.6854 20.2223 18.185 20.0381L18.8019 19.8105C18.8251 19.8019 18.8405 19.7798 18.8405 19.7551C18.8405 19.7303 18.8251 19.7082 18.8019 19.6997Z" fill="#34374A"/>
<path d="M14.2513 1.9605L13.6343 1.73295C13.1348 1.54876 12.7411 1.15506 12.557 0.655578L12.3293 0.0386584C12.3208 0.0154047 12.2987 0 12.274 0C12.2492 0 12.2271 0.0154047 12.2186 0.038585L11.991 0.655432C11.8068 1.15491 11.4131 1.54868 10.9136 1.73288L10.2965 1.96043C10.2733 1.96894 10.2579 1.99109 10.2579 2.01581C10.2579 2.04053 10.2733 2.06268 10.2965 2.07119L10.9135 2.29882C11.4131 2.48301 11.8068 2.87678 11.991 3.37634L12.2186 3.99326C12.2271 4.01644 12.2492 4.03184 12.274 4.03184C12.2987 4.03184 12.3208 4.01644 12.3293 3.99326L12.557 3.37626C12.7412 2.87671 13.1349 2.48301 13.6344 2.29889L14.2514 2.07127C14.2746 2.06276 14.29 2.0406 14.29 2.01588C14.29 1.99116 14.2746 1.96901 14.2513 1.9605Z" fill="#34374A"/>
<path d="M6.68298 18.4313L5.90688 18.1452C5.27866 17.9136 4.78337 17.4183 4.55156 16.79L4.2654 16.0139C4.25462 15.9848 4.22682 15.9653 4.19571 15.9653C4.16461 15.9653 4.13681 15.9848 4.12603 16.0139L3.83987 16.7899C3.60821 17.4182 3.11291 17.9135 2.48455 18.1452L1.7086 18.4313C1.67933 18.442 1.66003 18.4699 1.66003 18.501C1.66003 18.5321 1.6794 18.56 1.7086 18.5707L2.48462 18.8569C3.11284 19.0886 3.60814 19.5839 3.83987 20.2122L4.12603 20.9883C4.13681 21.0175 4.16461 21.0368 4.19571 21.0368C4.22682 21.0368 4.25469 21.0175 4.2654 20.9883L4.55164 20.2121C4.78329 19.5839 5.27852 19.0887 5.90681 18.8569L6.68298 18.5707C6.71218 18.56 6.73154 18.5321 6.73154 18.501C6.73154 18.4699 6.71225 18.442 6.68298 18.4313Z" fill="#34374A"/>
</svg>
