<svg width="28" height="29" viewBox="0 0 28 29" fill="none" xmlns="http://www.w3.org/2000/svg">
<path d="M5.44775 12.2178C8.45646 12.2178 10.8955 9.77872 10.8955 6.77001C10.8955 3.76131 8.45646 1.32227 5.44775 1.32227C2.43904 1.32227 0 3.76131 0 6.77001C0 9.77872 2.43904 12.2178 5.44775 12.2178Z" fill="#34374A"/>
<path d="M15.7711 5.18673C17.2034 5.18673 18.3645 4.02564 18.3645 2.59336C18.3645 1.16109 17.2034 0 15.7711 0C14.3388 0 13.1777 1.16109 13.1777 2.59336C13.1777 4.02564 14.3388 5.18673 15.7711 5.18673Z" fill="#34374A"/>
<path d="M23.2817 14.1957C25.3371 14.1957 27.0033 12.5295 27.0033 10.4741C27.0033 8.41868 25.3371 6.75244 23.2817 6.75244C21.2263 6.75244 19.5601 8.41868 19.5601 10.4741C19.5601 12.5295 21.2263 14.1957 23.2817 14.1957Z" fill="#34374A"/>
<path d="M21.6062 28.0215C23.0245 28.0215 24.1743 26.8717 24.1743 25.4534C24.1743 24.035 23.0245 22.8853 21.6062 22.8853C20.1879 22.8853 19.0381 24.035 19.0381 25.4534C19.0381 26.8717 20.1879 28.0215 21.6062 28.0215Z" fill="#34374A"/>
<path d="M5.38025 27.0788C7.18455 27.0788 8.64719 25.6162 8.64719 23.8119C8.64719 22.0076 7.18455 20.5449 5.38025 20.5449C3.57596 20.5449 2.11328 22.0076 2.11328 23.8119C2.11328 25.6162 3.57596 27.0788 5.38025 27.0788Z" fill="#34374A"/>
<path d="M17.5474 14.8532C17.3615 14.5549 17.1502 14.2732 16.9159 14.0112L7.47705 18.5833C7.52696 18.9295 7.61745 19.2686 7.74655 19.5937L17.5474 14.8532Z" fill="#34374A"/>
<path d="M7.61182 16.2761L15.072 12.6639C14.5864 12.4558 14.0729 12.3196 13.548 12.2598L8.22646 14.8279C7.95342 15.2788 7.74644 15.7665 7.61182 16.2761Z" fill="#34374A"/>
<path d="M15.628 12.9507L7.48596 16.8912C7.4396 17.1695 7.417 17.4512 7.41853 17.7333C7.41853 17.8511 7.41853 17.9774 7.41853 18.1037L16.5543 13.6832C16.2732 13.4061 15.9625 13.1604 15.628 12.9507Z" fill="#34374A"/>
<path d="M18.3891 17.6904C18.3868 17.3798 18.3586 17.07 18.3048 16.7642L8.84912 21.3362C9.1006 21.617 9.38307 21.8684 9.69112 22.0856L18.3975 17.8756C18.3891 17.8082 18.3891 17.7493 18.3891 17.6904Z" fill="#34374A"/>
<path d="M12.1836 23.1214C12.4184 23.148 12.6546 23.1621 12.8909 23.1635C13.8352 23.1643 14.7636 22.9204 15.5855 22.4556C16.4075 21.9907 17.095 21.3209 17.581 20.5112L12.1836 23.1214Z" fill="#34374A"/>
<path d="M12.4956 12.2344C11.1428 12.3338 9.87585 12.9343 8.94238 13.9184L12.4956 12.2344Z" fill="#34374A"/>
<path d="M18.1703 16.2677C18.0813 15.9313 17.9601 15.6042 17.8083 15.291L7.96533 20.0567C8.11792 20.3538 8.29827 20.6358 8.50412 20.8987L18.1703 16.2677Z" fill="#34374A"/>
<path d="M17.9516 19.7541C18.1215 19.329 18.2401 18.8852 18.3052 18.4321L10.1294 22.3895C10.523 22.6218 10.9446 22.8029 11.384 22.9284L17.9516 19.7541Z" fill="#34374A"/>
</svg>
