<svg width="121" height="65" viewBox="0 0 121 65" fill="none" xmlns="http://www.w3.org/2000/svg">
<g clip-path="url(#clip0)">
<path d="M5.55697 31.9414H114.767C115.397 31.9414 116.02 32.0644 116.602 32.3032C117.183 32.5421 117.712 32.8923 118.157 33.3336C118.602 33.775 118.955 34.2991 119.196 34.8758C119.437 35.4525 119.561 36.0706 119.561 36.6948V59.7356C119.561 60.9312 119.082 62.0778 118.23 62.9232C117.377 63.7686 116.221 64.2436 115.015 64.2436H5.32459C4.11875 64.2436 2.96229 63.7686 2.10963 62.9232C1.25697 62.0778 0.777954 60.9312 0.777954 59.7356V36.6948C0.777948 35.4367 1.28097 34.23 2.17677 33.3389C3.07258 32.4479 4.28811 31.9454 5.55697 31.9414Z" fill="#591280"/>
<path d="M115 64.9997H5.32462C3.91285 64.9984 2.55929 64.4418 1.56102 63.452C0.562752 62.4622 0.00133753 61.1201 0 59.7204V36.7197C0 35.2584 0.585468 33.857 1.62761 32.8237C2.66975 31.7904 4.08319 31.21 5.557 31.21H114.777C116.251 31.21 117.665 31.7904 118.707 32.8237C119.749 33.857 120.334 35.2584 120.334 36.7197V59.7605C120.322 61.155 119.755 62.4883 118.756 63.4697C117.756 64.4511 116.406 65.0011 115 64.9997ZM5.55195 32.7126C4.48009 32.7126 3.45213 33.1348 2.69421 33.8863C1.93629 34.6377 1.51049 35.657 1.51049 36.7197V59.7605C1.51183 60.7617 1.91357 61.7215 2.62762 62.4295C3.34167 63.1375 4.30975 63.5358 5.31956 63.5371H114.995C116.004 63.5358 116.972 63.1375 117.686 62.4295C118.401 61.7215 118.802 60.7617 118.804 59.7605V36.7197C118.804 35.657 118.378 34.6377 117.62 33.8863C116.862 33.1348 115.834 32.7126 114.762 32.7126H5.55195Z" fill="white"/>
<path d="M42.8446 7.59837L42.7688 7.68852L42.0464 8.38476C42.0403 8.39265 42.037 8.40234 42.037 8.41231C42.037 8.42228 42.0403 8.43196 42.0464 8.43985L42.2283 9.4817C42.2323 9.50123 42.2306 9.52147 42.2235 9.5401C42.2163 9.55872 42.204 9.57496 42.1879 9.5869C42.1701 9.59918 42.1489 9.60576 42.1273 9.60576C42.1056 9.60576 42.0844 9.59918 42.0666 9.5869L41.5615 9.31142L41.1472 9.09601C41.1382 9.09019 41.1277 9.08712 41.1169 9.08712C41.1061 9.08712 41.0956 9.09019 41.0866 9.09601L40.1621 9.5969H40.1065C40.0899 9.5988 40.0731 9.59678 40.0574 9.591C40.0417 9.58522 40.0276 9.57585 40.0163 9.56364C40.0049 9.55142 39.9967 9.53672 39.9922 9.52074C39.9877 9.50476 39.987 9.48794 39.9903 9.47168C39.9903 9.30138 40.0459 9.12607 40.0762 8.97079C40.1065 8.81552 40.1368 8.61516 40.1722 8.43985C40.1722 8.43985 40.1722 8.4048 40.1722 8.38978L39.3538 7.6685H39.3285C39.3177 7.65214 39.3119 7.63299 39.3119 7.61341C39.3119 7.59382 39.3177 7.57468 39.3285 7.55832C39.3346 7.54017 39.346 7.52423 39.3614 7.51261C39.3767 7.501 39.3952 7.49424 39.4144 7.4932L40.0307 7.40301L40.4753 7.33793C40.4753 7.33793 40.5056 7.33793 40.5157 7.30788L40.9855 6.37119C40.9912 6.35356 41.001 6.33752 41.0142 6.32445C41.0274 6.31137 41.0435 6.30165 41.0613 6.29608C41.086 6.29181 41.1114 6.29591 41.1334 6.30772C41.1554 6.31954 41.1727 6.33839 41.1826 6.36119L41.3341 6.66673L41.6524 7.30788C41.6557 7.31709 41.6619 7.32499 41.6701 7.33041C41.6783 7.33583 41.688 7.33848 41.6978 7.33793L42.4758 7.45312L42.7284 7.48819C42.7544 7.48819 42.7797 7.49578 42.8013 7.51005C42.8229 7.52431 42.8397 7.54458 42.8497 7.56832L42.8446 7.59837Z" fill="#F9CB2A"/>
<path d="M52.9936 5.70519C52.9431 5.76029 52.8977 5.82539 52.8421 5.87548C52.3773 6.33128 51.9075 6.78209 51.4377 7.23289C51.4237 7.24632 51.4132 7.26289 51.407 7.28119C51.4009 7.2995 51.3993 7.31903 51.4023 7.33809C51.5236 8.01428 51.6398 8.69048 51.7559 9.34163C51.7649 9.37995 51.762 9.42003 51.7475 9.45667C51.7331 9.49332 51.7079 9.5248 51.6751 9.54698C51.6414 9.57141 51.6007 9.58456 51.5589 9.58456C51.5172 9.58456 51.4765 9.57141 51.4427 9.54698L50.4324 9.0461L49.6291 8.62534C49.6119 8.61413 49.5917 8.60819 49.571 8.60819C49.5504 8.60819 49.5302 8.61413 49.5129 8.62534L47.7195 9.55701C47.6859 9.57924 47.6481 9.59455 47.6084 9.60207C47.5764 9.60784 47.5434 9.60565 47.5124 9.59568C47.4814 9.58572 47.4534 9.56829 47.4309 9.54496C47.4084 9.52164 47.392 9.49314 47.3833 9.46202C47.3746 9.43091 47.3739 9.39816 47.3811 9.36667C47.4366 9.03108 47.4973 8.69548 47.5528 8.3649L47.7347 7.33307C47.7347 7.28799 47.7347 7.26796 47.6943 7.2379L46.2596 5.85044L46.2091 5.79535C46.1818 5.76956 46.1626 5.73657 46.1537 5.7003C46.1448 5.66403 46.1466 5.62598 46.1588 5.59067C46.171 5.55536 46.1932 5.52427 46.2227 5.50107C46.2522 5.47786 46.2878 5.46354 46.3252 5.45976L47.5175 5.28443L48.4015 5.16423C48.4197 5.16396 48.4373 5.158 48.4518 5.1472C48.4663 5.1364 48.477 5.12133 48.4824 5.10412C48.7855 4.49805 49.0886 3.89198 49.3866 3.2859C49.399 3.25149 49.4198 3.22066 49.4471 3.19618C49.4744 3.17169 49.5075 3.15432 49.5432 3.14564C49.5907 3.13421 49.6408 3.14072 49.6838 3.16386C49.7267 3.187 49.7595 3.22513 49.7756 3.27086C49.8767 3.46621 49.9727 3.66158 50.0686 3.85692L50.69 5.10412C50.696 5.12094 50.7068 5.13564 50.7212 5.14634C50.7356 5.15704 50.7529 5.16326 50.7708 5.16423L52.2864 5.38462L52.7916 5.45475C52.8419 5.4559 52.8908 5.47107 52.9328 5.49853C52.9748 5.52599 53.0081 5.56464 53.029 5.61002L52.9936 5.70519Z" fill="#F9CB2A"/>
<path d="M66.0271 3.82154C65.9564 3.90669 65.8857 3.99686 65.8049 4.077L63.7235 6.08054C63.7019 6.09957 63.6857 6.124 63.6768 6.15132C63.668 6.17863 63.6666 6.20782 63.673 6.23582C63.8515 7.23759 64.0199 8.23936 64.1782 9.24113C64.1934 9.29772 64.1904 9.3576 64.1696 9.4124C64.1487 9.46719 64.1111 9.51414 64.062 9.54667C64.0115 9.58113 63.9516 9.59959 63.8902 9.59959C63.8289 9.59959 63.769 9.58113 63.7185 9.54667L62.2029 8.76027L61.0309 8.16923C61.0052 8.15323 60.9754 8.14474 60.945 8.14474C60.9146 8.14474 60.8849 8.15323 60.8591 8.16923L58.2019 9.5567C58.1512 9.5856 58.0969 9.60751 58.0402 9.62181C57.9925 9.6305 57.9433 9.62727 57.8972 9.61246C57.851 9.59764 57.8093 9.57171 57.7757 9.53695C57.7421 9.50218 57.7178 9.4597 57.7049 9.41331C57.692 9.36693 57.6909 9.31809 57.7018 9.27119L57.9594 7.76853C58.0453 7.26764 58.1362 6.76675 58.2271 6.26587C58.2322 6.23844 58.2291 6.21015 58.2184 6.18439C58.2076 6.15864 58.1896 6.13648 58.1665 6.12059L56.0347 4.06196L55.9589 3.98684C55.9196 3.94715 55.8924 3.89729 55.8805 3.84297C55.8685 3.78866 55.8722 3.73209 55.8912 3.67978C55.9102 3.62747 55.9437 3.58154 55.9878 3.54725C56.032 3.51296 56.085 3.49172 56.1408 3.48596L57.9038 3.2305L59.192 3.04517C59.219 3.04372 59.2449 3.03438 59.2665 3.01833C59.288 3.00228 59.3043 2.98025 59.3133 2.95502C59.7579 2.05342 60.2075 1.15683 60.652 0.260246C60.6711 0.208844 60.7021 0.162583 60.7424 0.125181C60.7828 0.0877782 60.8314 0.0602783 60.8844 0.0448689C60.9551 0.0308804 61.0286 0.0423571 61.0916 0.0772443C61.1545 0.112131 61.2029 0.168114 61.2279 0.235178C61.3744 0.520683 61.5209 0.816231 61.6624 1.10675C61.9705 1.72284 62.2787 2.33893 62.5818 2.95502C62.5922 2.98029 62.6096 3.00214 62.6319 3.01809C62.6542 3.03403 62.6806 3.04343 62.7081 3.04517L64.9461 3.36572L65.6786 3.47091C65.7528 3.47234 65.8251 3.49481 65.8868 3.53563C65.9486 3.57646 65.9973 3.63395 66.0271 3.70133V3.82154Z" fill="#F9CB2A"/>
<path d="M75.757 5.70519C75.7065 5.76029 75.661 5.82539 75.6055 5.87548L74.2061 7.23289C74.1904 7.24502 74.1787 7.26147 74.1724 7.28018C74.1661 7.2989 74.1656 7.31905 74.1708 7.33809L74.5193 9.34163C74.5295 9.37944 74.5277 9.41941 74.5142 9.45615C74.5006 9.4929 74.4759 9.52463 74.4435 9.54698C74.4098 9.57141 74.3691 9.58456 74.3274 9.58456C74.2856 9.58456 74.2449 9.57141 74.2112 9.54698L73.2008 9.0461L72.3976 8.62534C72.3803 8.61413 72.3601 8.60819 72.3395 8.60819C72.3188 8.60819 72.2986 8.61413 72.2814 8.62534L70.493 9.55701C70.4589 9.57839 70.4213 9.59363 70.3819 9.60207C70.3498 9.60784 70.3169 9.60565 70.2859 9.59568C70.2549 9.58572 70.2269 9.56829 70.2044 9.54496C70.1819 9.52164 70.1655 9.49314 70.1568 9.46202C70.1481 9.43091 70.1474 9.39816 70.1546 9.36667C70.2101 9.03108 70.2657 8.69548 70.3263 8.3649C70.3869 8.03431 70.4425 7.67869 70.5082 7.33307C70.5098 7.31514 70.507 7.29708 70.4999 7.28049C70.4929 7.2639 70.4818 7.24929 70.4678 7.2379L69.028 5.85044L68.9775 5.79535C68.9501 5.76924 68.9309 5.73585 68.9222 5.69917C68.9135 5.66249 68.9157 5.62409 68.9285 5.58862C68.9413 5.55316 68.9642 5.52213 68.9944 5.49926C69.0246 5.4764 69.0608 5.46269 69.0987 5.45976L70.291 5.28443L71.1346 5.16423C71.1534 5.16426 71.1718 5.15848 71.1872 5.14772C71.2026 5.13695 71.2142 5.12172 71.2205 5.10412C71.5185 4.49805 71.8217 3.89198 72.1248 3.2859C72.1358 3.25163 72.1556 3.22073 72.1821 3.19618C72.2086 3.17162 72.2411 3.15421 72.2763 3.14564C72.3238 3.13421 72.3739 3.14072 72.4169 3.16386C72.4598 3.187 72.4925 3.22513 72.5087 3.27086L72.8068 3.85692C73.0088 4.27266 73.221 4.68839 73.4231 5.10412C73.4294 5.12172 73.441 5.13695 73.4564 5.14772C73.4718 5.15848 73.4901 5.16426 73.509 5.16423L75.0245 5.38462L75.5297 5.45475C75.5794 5.45564 75.6278 5.47076 75.669 5.49831C75.7103 5.52587 75.7426 5.56467 75.7621 5.61002L75.757 5.70519Z" fill="#F9CB2A"/>
<path d="M83.2589 7.59837L83.1831 7.68852L82.4557 8.38476C82.4508 8.39314 82.4482 8.40264 82.4482 8.41231C82.4482 8.42198 82.4508 8.43148 82.4557 8.43985L82.6375 9.4817C82.6415 9.50123 82.6399 9.52147 82.6327 9.5401C82.6256 9.55872 82.6132 9.57496 82.5971 9.5869C82.5793 9.59918 82.5582 9.60576 82.5365 9.60576C82.5148 9.60576 82.4937 9.59918 82.4759 9.5869L81.9707 9.31142L81.5565 9.09601C81.5565 9.09601 81.5211 9.09601 81.4958 9.09601L80.5764 9.5969H80.5208C80.5038 9.5997 80.4864 9.59837 80.47 9.59299C80.4537 9.5876 80.4389 9.57832 80.4269 9.56599C80.415 9.55366 80.4062 9.53861 80.4015 9.52218C80.3967 9.50575 80.3961 9.48841 80.3996 9.47168L80.4905 8.97079L80.5815 8.43985C80.5815 8.43985 80.5815 8.4048 80.5815 8.38978L79.7984 7.6685C79.7835 7.65478 79.7731 7.63692 79.7686 7.61726C79.7641 7.5976 79.7657 7.57707 79.7732 7.55832C79.7792 7.54017 79.7907 7.52423 79.806 7.51261C79.8213 7.501 79.8398 7.49424 79.859 7.4932L80.4703 7.40301L80.9199 7.33793C80.9199 7.33793 80.9502 7.33793 80.9604 7.30788C81.117 6.99733 81.2736 6.68174 81.4251 6.37119C81.4322 6.35358 81.4432 6.33776 81.4571 6.32478C81.4711 6.3118 81.4878 6.302 81.5059 6.29608C81.5306 6.29181 81.556 6.29591 81.578 6.30772C81.6 6.31954 81.6173 6.33839 81.6272 6.36119L81.7787 6.66673L82.097 7.30788C82.097 7.30788 82.097 7.33793 82.1374 7.33793L82.9154 7.45312L83.173 7.48819C83.199 7.48819 83.2243 7.49578 83.2459 7.51005C83.2675 7.52431 83.2843 7.54458 83.2943 7.56832L83.2589 7.59837Z" fill="#F9CB2A"/>
<path d="M89.028 13.7993H31.2958C28.4723 13.7993 26.1834 16.0688 26.1834 18.8683V30.0681C26.1834 32.8676 28.4723 35.1371 31.2958 35.1371H89.028C91.8515 35.1371 94.1405 32.8676 94.1405 30.0681V18.8683C94.1405 16.0688 91.8515 13.7993 89.028 13.7993Z" fill="#591280"/>
<path d="M89.7153 35.9381H30.6091C29.1129 35.9368 27.6784 35.3469 26.6204 34.298C25.5625 33.249 24.9675 31.8267 24.9662 30.3432V18.1867C24.9675 16.7033 25.5625 15.281 26.6204 14.232C27.6784 13.183 29.1129 12.5932 30.6091 12.5918H89.7153C90.4583 12.5892 91.1945 12.7319 91.8817 13.0119C92.5689 13.2918 93.1937 13.7034 93.7203 14.2231C94.2468 14.7429 94.6647 15.3605 94.9501 16.0406C95.2355 16.7208 95.3828 17.4501 95.3834 18.1867V30.3432C95.3828 31.0799 95.2355 31.8092 94.9501 32.4893C94.6647 33.1695 94.2468 33.7871 93.7203 34.3068C93.1937 34.8266 92.5689 35.2382 91.8817 35.5181C91.1945 35.798 90.4583 35.9408 89.7153 35.9381ZM30.6091 13.799C30.0272 13.7983 29.451 13.9113 28.9132 14.1314C28.3754 14.3516 27.8867 14.6746 27.4748 15.082C27.0629 15.4895 26.736 15.9734 26.5127 16.5061C26.2895 17.0388 26.1742 17.6099 26.1736 18.1867V30.3432C26.1749 31.5065 26.6416 32.6218 27.4712 33.4444C28.3008 34.267 29.4257 34.7297 30.599 34.731H89.7052C90.8785 34.7297 92.0033 34.267 92.8329 33.4444C93.6626 32.6218 94.1292 31.5065 94.1306 30.3432V18.1867C94.1292 17.0234 93.6626 15.9081 92.8329 15.0856C92.0033 14.263 90.8785 13.8003 89.7052 13.799H30.6091Z" fill="white"/>
<path d="M35.6405 23.1964H33.8572C33.1853 23.1964 33.0843 23.3566 33.5591 23.7473C34.4079 24.4853 34.8238 25.2016 34.8069 25.8962C34.8069 26.5874 34.3775 27.0031 33.5591 27.1383H28.6185V25.4654H31.7304C32.468 25.4654 32.5639 25.2851 32.0133 24.8543C31.0989 24.0228 30.715 23.2615 30.8514 22.5652C30.8833 22.2588 31.0361 21.9774 31.2765 21.7822C31.5168 21.587 31.8253 21.494 32.1345 21.5234H35.6304L35.6405 23.1964Z" fill="white"/>
<path d="M40.3943 21.538V23.1959H38.6009V27.1379H36.7822V23.1959H34.9838V21.5229L40.3943 21.538Z" fill="white"/>
<path d="M40.0456 27.153L41.9047 21.5381H44.7185L46.613 27.153H44.471L44.1174 26.1513H42.43L42.0764 27.153H40.0456ZM43.3192 22.7803L42.5058 25.0092H44.0668L43.3192 22.7803Z" fill="white"/>
<path d="M46.5374 27.153V21.5381H50.2252C50.6234 21.5605 51.0093 21.6829 51.3467 21.8937C51.6364 22.0914 51.8599 22.3705 51.9883 22.6951C52.0901 23.0725 52.0901 23.4698 51.9883 23.8472C51.894 24.1187 51.7176 24.3548 51.4831 24.5234C51.181 24.7353 50.8364 24.8805 50.4728 24.9491L50.8971 25.4851H52.5895V27.158H50.3566L48.5581 25.3048V27.158L46.5374 27.153ZM48.5834 22.9406V23.9724H50.0131C50.1023 23.9693 50.1886 23.9396 50.2606 23.8872C50.3465 23.8321 50.397 23.6919 50.4021 23.4665C50.4057 23.3884 50.3932 23.3103 50.3654 23.2371C50.3376 23.1639 50.2951 23.0971 50.2404 23.0407C50.1758 22.9835 50.0943 22.9484 50.008 22.9406H48.5834Z" fill="white"/>
<path d="M56.3429 27.153V23.196H55.1658V21.523H60.2176C60.7102 21.4961 61.2004 21.6072 61.6322 21.8436C61.8018 21.9631 61.9425 22.1186 62.0439 22.2989C62.1452 22.4791 62.2048 22.6795 62.2182 22.8854C62.2388 23.0398 62.2284 23.1967 62.1877 23.3472C62.1469 23.4976 62.0766 23.6386 61.9807 23.762C61.7309 24.0152 61.4167 24.1969 61.0714 24.2879C61.2713 24.3108 61.466 24.3667 61.6473 24.4532C61.8082 24.5309 61.9564 24.6322 62.0868 24.7537C62.2027 24.8661 62.2969 24.9985 62.3647 25.1444C62.4278 25.2776 62.4606 25.423 62.4607 25.5702C62.4841 25.936 62.3606 26.2961 62.1171 26.5719C61.8751 26.8063 61.5666 26.9618 61.2331 27.0177C60.8012 27.0927 60.3629 27.1246 59.9246 27.1129L56.3429 27.153ZM58.298 22.9004V23.7519H59.667C59.7606 23.7449 59.8476 23.7017 59.9095 23.6317C59.9928 23.5474 60.0399 23.4343 60.0408 23.3162C60.0424 23.254 60.0296 23.1923 60.0033 23.1359C59.977 23.0794 59.938 23.0297 59.8893 22.9906C59.8253 22.9402 59.7482 22.9089 59.667 22.9004H58.298ZM58.298 24.9791V26.016H59.5559C59.7556 26.0298 59.9548 25.9825 60.1267 25.8807C60.1968 25.8447 60.2562 25.791 60.2987 25.7251C60.3413 25.6591 60.3656 25.5833 60.3692 25.505C60.3785 25.4281 60.3642 25.3501 60.3282 25.2813C60.2921 25.2125 60.236 25.1561 60.1671 25.1194C59.9804 25.0174 59.7688 24.9689 59.5559 24.9791H58.298Z" fill="white"/>
<path d="M69.0381 24.3783C69.0532 24.9277 68.9189 25.471 68.6491 25.9511C68.3882 26.3863 67.9933 26.7269 67.5226 26.9228C66.3962 27.3637 65.143 27.3637 64.0166 26.9228C63.5533 26.7233 63.1659 26.383 62.9103 25.9511C62.6445 25.4698 62.5137 24.9267 62.5314 24.3783C62.5249 23.9545 62.5986 23.5331 62.7486 23.1361C62.8829 22.7911 63.0996 22.4835 63.3801 22.2396C63.673 21.985 64.0175 21.7954 64.3904 21.6836C64.8344 21.5517 65.296 21.4875 65.7595 21.4932C66.3613 21.48 66.9589 21.5944 67.5125 21.8288C67.9854 22.0362 68.3798 22.387 68.639 22.8306C68.9084 23.3022 69.0461 23.8364 69.0381 24.3783ZM64.5471 24.3783C64.5389 24.7084 64.6228 25.0342 64.7895 25.32C64.9015 25.4653 65.0501 25.5789 65.2204 25.6492C65.3906 25.7195 65.5766 25.7442 65.7595 25.7207C66.0529 25.7412 66.3452 25.6674 66.593 25.5103C66.763 25.3882 66.8845 25.211 66.9366 25.0095C66.9869 24.7956 67.0174 24.5777 67.0275 24.3583C67.0218 24.0274 66.9314 23.7034 66.7648 23.4166C66.6484 23.2655 66.4933 23.1482 66.3156 23.0768C66.1379 23.0054 65.9441 22.9827 65.7544 23.0109C64.9512 23.046 64.5673 23.4968 64.5673 24.3934L64.5471 24.3783Z" fill="white"/>
<path d="M75.6156 24.3783C75.6308 24.9277 75.4964 25.471 75.2267 25.9511C74.9665 26.385 74.5737 26.7254 74.1052 26.9228C72.977 27.3635 71.7223 27.3635 70.5941 26.9228C70.1308 26.7233 69.7434 26.383 69.4878 25.9511C69.2238 25.4694 69.0947 24.9263 69.1139 24.3783C69.1059 23.9548 69.1779 23.5335 69.3261 23.1361C69.4622 22.792 69.6786 22.4848 69.9576 22.2396C70.2506 21.985 70.5951 21.7954 70.968 21.6836C71.4119 21.5517 71.8736 21.4875 72.337 21.4932C72.9388 21.48 73.5365 21.5944 74.09 21.8288C74.5639 22.0348 74.9587 22.3859 75.2165 22.8306C75.4859 23.3022 75.6237 23.8364 75.6156 24.3783ZM71.1246 24.3783C71.1164 24.7084 71.2003 25.0342 71.3671 25.32C71.4794 25.4649 71.628 25.5782 71.7982 25.6485C71.9684 25.7188 72.1541 25.7437 72.337 25.7207C72.6304 25.7412 72.9227 25.6674 73.1706 25.5103C73.3405 25.3882 73.462 25.211 73.5141 25.0095C73.5645 24.7956 73.5949 24.5777 73.605 24.3583C73.5993 24.0274 73.5089 23.7034 73.3423 23.4166C73.226 23.2655 73.0708 23.1482 72.8931 23.0768C72.7154 23.0054 72.5216 22.9827 72.332 23.0109C71.5287 23.046 71.1347 23.4968 71.1347 24.3934L71.1246 24.3783Z" fill="white"/>
<path d="M80.344 23.1964H78.9598C78.2879 23.1964 78.1919 23.3566 78.6618 23.7473C79.5105 24.4853 79.9264 25.2016 79.9095 25.8961C79.9095 26.5874 79.4801 27.0031 78.6618 27.1383H75.6307V25.4654H76.8229C77.5605 25.4654 77.6565 25.2851 77.1058 24.8543C76.1965 24.0228 75.8092 23.2598 75.9439 22.5652C75.9758 22.2579 76.1293 21.9756 76.3708 21.7803C76.6123 21.585 76.922 21.4926 77.2321 21.5234H80.3238L80.344 23.1964Z" fill="white"/>
<path d="M85.502 21.538V23.1959H83.7035V27.1379H81.8596V23.1959H80.0612V21.5229L85.502 21.538Z" fill="white"/>
<path d="M87.068 24.4683C87.068 24.6786 86.7144 24.9291 86.77 25.1244C86.8255 25.3198 87.2751 25.3699 87.356 25.5402C87.4368 25.7105 87.2852 26.1112 87.4317 26.2564C87.5782 26.4017 87.9723 26.2264 88.1491 26.3316C88.3259 26.4368 88.3714 26.8325 88.5734 26.9126C88.7755 26.9927 89.0231 26.6171 89.2352 26.6171C89.4474 26.6171 89.7 26.9627 89.897 26.9126C90.094 26.8625 90.1446 26.4117 90.3214 26.3316C90.4982 26.2514 90.8973 26.4017 91.0387 26.2564C91.1802 26.1112 91.0084 25.7205 91.1145 25.5402C91.2206 25.3599 91.65 25.3248 91.7005 25.1244C91.751 24.9241 91.4025 24.6786 91.4025 24.4683C91.4025 24.2579 91.7561 24.0075 91.7005 23.8121C91.6449 23.6168 91.1953 23.5667 91.1145 23.3914C91.0337 23.2161 91.1852 22.8203 91.0387 22.6801C90.8922 22.5399 90.4982 22.7102 90.3214 22.605C90.1446 22.4998 90.0991 22.074 89.897 22.0239C89.695 21.9739 89.4474 22.3195 89.2352 22.3195C89.0231 22.3195 88.7705 21.9688 88.5734 22.0239C88.3764 22.079 88.3259 22.5248 88.1491 22.605C87.9723 22.6851 87.5732 22.5348 87.4317 22.6801C87.2903 22.8254 87.462 23.2161 87.356 23.3914C87.2499 23.5667 86.8205 23.6118 86.77 23.8121C86.7194 24.0125 87.068 24.2579 87.068 24.4683Z" fill="#1F7EE5"/>
<path d="M90.5841 23.8724L90.2304 23.4717L88.7805 24.7089L88.3006 24.1579L87.8864 24.5135L88.7149 25.4652L88.7351 25.4502L90.5841 23.8724Z" fill="white"/>
</g>
<defs>
<clipPath id="clip0">
<rect width="120.319" height="65" fill="white"/>
</clipPath>
</defs>
</svg>
