<svg width="108" height="52" viewBox="0 0 108 52" fill="none" xmlns="http://www.w3.org/2000/svg">
<path d="M1.025 33.5H3.775V51H1.025V33.5ZM9.70957 51.25C8.3929 51.25 7.38457 50.875 6.68457 50.125C6.00124 49.375 5.65957 48.3167 5.65957 46.95V37.55C5.65957 36.1833 6.00124 35.125 6.68457 34.375C7.38457 33.625 8.3929 33.25 9.70957 33.25C11.0262 33.25 12.0262 33.625 12.7096 34.375C13.4096 35.125 13.7596 36.1833 13.7596 37.55V39.4H11.1596V37.375C11.1596 36.2917 10.7012 35.75 9.78457 35.75C8.8679 35.75 8.40957 36.2917 8.40957 37.375V47.15C8.40957 48.2167 8.8679 48.75 9.78457 48.75C10.7012 48.75 11.1596 48.2167 11.1596 47.15V44.475H13.7596V46.95C13.7596 48.3167 13.4096 49.375 12.7096 50.125C12.0262 50.875 11.0262 51.25 9.70957 51.25ZM17.5299 33.5H21.2549L24.1049 51H21.3549L20.8549 47.525V47.575H17.7299L17.2299 51H14.6799L17.5299 33.5ZM20.5299 45.2L19.3049 36.55H19.2549L18.0549 45.2H20.5299ZM25.4391 33.5H29.5141C30.9307 33.5 31.9641 33.8333 32.6141 34.5C33.2641 35.15 33.5891 36.1583 33.5891 37.525V38.6C33.5891 40.4167 32.9891 41.5667 31.7891 42.05V42.1C32.4557 42.3 32.9224 42.7083 33.1891 43.325C33.4724 43.9417 33.6141 44.7667 33.6141 45.8V48.875C33.6141 49.375 33.6307 49.7833 33.6641 50.1C33.6974 50.4 33.7807 50.7 33.9141 51H31.1141C31.0141 50.7167 30.9474 50.45 30.9141 50.2C30.8807 49.95 30.8641 49.5 30.8641 48.85V45.65C30.8641 44.85 30.7307 44.2917 30.4641 43.975C30.2141 43.6583 29.7724 43.5 29.1391 43.5H28.1891V51H25.4391V33.5ZM29.1891 41C29.7391 41 30.1474 40.8583 30.4141 40.575C30.6974 40.2917 30.8391 39.8167 30.8391 39.15V37.8C30.8391 37.1667 30.7224 36.7083 30.4891 36.425C30.2724 36.1417 29.9224 36 29.4391 36H28.1891V41H29.1891ZM39.5221 51.25C38.1887 51.25 37.1721 50.875 36.4721 50.125C35.7721 49.3583 35.4221 48.2667 35.4221 46.85V33.5H38.1721V47.05C38.1721 47.65 38.2887 48.0833 38.5221 48.35C38.7721 48.6167 39.1221 48.75 39.5721 48.75C40.0221 48.75 40.3637 48.6167 40.5971 48.35C40.8471 48.0833 40.9721 47.65 40.9721 47.05V33.5H43.6221V46.85C43.6221 48.2667 43.2721 49.3583 42.5721 50.125C41.8721 50.875 40.8554 51.25 39.5221 51.25ZM49.1557 51.25C47.8223 51.25 46.814 50.875 46.1307 50.125C45.4473 49.3583 45.1057 48.2667 45.1057 46.85V45.85H47.7057V47.05C47.7057 48.1833 48.1807 48.75 49.1307 48.75C49.5973 48.75 49.9473 48.6167 50.1807 48.35C50.4307 48.0667 50.5557 47.6167 50.5557 47C50.5557 46.2667 50.389 45.625 50.0557 45.075C49.7223 44.5083 49.1057 43.8333 48.2057 43.05C47.0723 42.05 46.2807 41.15 45.8307 40.35C45.3807 39.5333 45.1557 38.6167 45.1557 37.6C45.1557 36.2167 45.5057 35.15 46.2057 34.4C46.9057 33.6333 47.9223 33.25 49.2557 33.25C50.5723 33.25 51.564 33.6333 52.2307 34.4C52.914 35.15 53.2557 36.2333 53.2557 37.65V38.375H50.6557V37.475C50.6557 36.875 50.539 36.4417 50.3057 36.175C50.0723 35.8917 49.7307 35.75 49.2807 35.75C48.364 35.75 47.9057 36.3083 47.9057 37.425C47.9057 38.0583 48.0723 38.65 48.4057 39.2C48.7557 39.75 49.3807 40.4167 50.2807 41.2C51.4307 42.2 52.2223 43.1083 52.6557 43.925C53.089 44.7417 53.3057 45.7 53.3057 46.8C53.3057 48.2333 52.9473 49.3333 52.2307 50.1C51.5307 50.8667 50.5057 51.25 49.1557 51.25ZM62.4613 51.25C61.128 51.25 60.1197 50.875 59.4363 50.125C58.753 49.3583 58.4113 48.2667 58.4113 46.85V45.85H61.0113V47.05C61.0113 48.1833 61.4863 48.75 62.4363 48.75C62.903 48.75 63.253 48.6167 63.4863 48.35C63.7363 48.0667 63.8613 47.6167 63.8613 47C63.8613 46.2667 63.6947 45.625 63.3613 45.075C63.028 44.5083 62.4113 43.8333 61.5113 43.05C60.378 42.05 59.5863 41.15 59.1363 40.35C58.6863 39.5333 58.4613 38.6167 58.4613 37.6C58.4613 36.2167 58.8113 35.15 59.5113 34.4C60.2113 33.6333 61.228 33.25 62.5613 33.25C63.878 33.25 64.8697 33.6333 65.5363 34.4C66.2197 35.15 66.5613 36.2333 66.5613 37.65V38.375H63.9613V37.475C63.9613 36.875 63.8447 36.4417 63.6113 36.175C63.378 35.8917 63.0363 35.75 62.5863 35.75C61.6697 35.75 61.2113 36.3083 61.2113 37.425C61.2113 38.0583 61.378 38.65 61.7113 39.2C62.0613 39.75 62.6863 40.4167 63.5863 41.2C64.7363 42.2 65.528 43.1083 65.9613 43.925C66.3947 44.7417 66.6113 45.7 66.6113 46.8C66.6113 48.2333 66.253 49.3333 65.5363 50.1C64.8363 50.8667 63.8113 51.25 62.4613 51.25ZM70.3381 36H67.4631V33.5H75.9631V36H73.0881V51H70.3381V36ZM78.2721 33.5H81.9971L84.8471 51H82.0971L81.5971 47.525V47.575H78.4721L77.9721 51H75.4221L78.2721 33.5ZM81.2721 45.2L80.0471 36.55H79.9971L78.7971 45.2H81.2721ZM87.1838 36H84.3088V33.5H92.8088V36H89.9338V51H87.1838V36ZM97.7152 51.25C96.3819 51.25 95.3736 50.875 94.6902 50.125C94.0069 49.3583 93.6652 48.2667 93.6652 46.85V45.85H96.2652V47.05C96.2652 48.1833 96.7402 48.75 97.6902 48.75C98.1569 48.75 98.5069 48.6167 98.7402 48.35C98.9902 48.0667 99.1152 47.6167 99.1152 47C99.1152 46.2667 98.9486 45.625 98.6152 45.075C98.2819 44.5083 97.6652 43.8333 96.7652 43.05C95.6319 42.05 94.8402 41.15 94.3902 40.35C93.9402 39.5333 93.7152 38.6167 93.7152 37.6C93.7152 36.2167 94.0652 35.15 94.7652 34.4C95.4652 33.6333 96.4819 33.25 97.8152 33.25C99.1319 33.25 100.124 33.6333 100.79 34.4C101.474 35.15 101.815 36.2333 101.815 37.65V38.375H99.2152V37.475C99.2152 36.875 99.0986 36.4417 98.8652 36.175C98.6319 35.8917 98.2902 35.75 97.8402 35.75C96.9236 35.75 96.4652 36.3083 96.4652 37.425C96.4652 38.0583 96.6319 38.65 96.9652 39.2C97.3152 39.75 97.9402 40.4167 98.8402 41.2C99.9902 42.2 100.782 43.1083 101.215 43.925C101.649 44.7417 101.865 45.7 101.865 46.8C101.865 48.2333 101.507 49.3333 100.79 50.1C100.09 50.8667 99.0652 51.25 97.7152 51.25ZM103.442 38.825H106.092V41.475H103.442V38.825ZM103.442 48.35H106.092V51H103.442V48.35Z" fill="#353659"/>
<path d="M41 12H35V24H41V12Z" fill="#353659"/>
<path d="M56.8571 8.57129H50V23.9999H56.8571V8.57129Z" fill="#353659"/>
<path d="M48.7142 3.42859H42.7142V24H48.7142V3.42859Z" fill="#353659"/>
<path d="M65.4284 0H58.5713V24H65.4284V0Z" fill="#353659"/>
</svg>
