<svg width="24" height="24" viewBox="0 0 24 24" fill="none" xmlns="http://www.w3.org/2000/svg">
<circle cx="12" cy="12" r="12" fill="#7416B2"/>
<path d="M11.5334 13.9752C11.7393 13.7942 12.074 13.8214 12.2551 14.0273L14.1646 16.1798V7.57709C14.1646 7.29439 14.3977 7.06128 14.6804 7.06128C14.9631 7.06128 15.1962 7.29439 15.1962 7.57709V16.1798L17.1057 14.0273C17.3116 13.8214 17.6215 13.7942 17.8274 13.9752C18.0332 14.181 18.0605 14.491 17.8794 14.6968L15.0673 17.8438C14.8565 18.1042 14.4845 18.0645 14.3183 17.8438L11.4813 14.6968C11.3003 14.4935 11.3251 14.1562 11.5334 13.9752Z" fill="white"/>
<path d="M6.01114 9.22911L8.79852 6.08214C9.04651 5.83167 9.35649 5.8168 9.57224 6.08214L12.4092 9.22911C12.5903 9.43494 12.563 9.76973 12.3572 9.95076C12.0397 10.2037 11.7198 10.0301 11.6355 9.89868L9.726 7.74614V16.3241C9.726 16.6068 9.49289 16.8399 9.21018 16.8399C8.92748 16.8399 8.69437 16.634 8.69437 16.3489V7.74862L6.78486 9.90116C6.57903 10.107 6.26904 10.1343 6.06321 9.95324C5.85738 9.74493 5.8301 9.43494 6.01114 9.22911Z" fill="white"/>
</svg>
