<svg width="29" height="38" viewBox="0 0 29 38" fill="none" xmlns="http://www.w3.org/2000/svg">
<path d="M24.7898 25.0586H5.51074V35.4875H24.7898V25.0586Z" fill="white"/>
<path d="M6.34008 12.6973H23.0148V12.8597C23.0148 13.4188 22.9939 13.9791 23.0148 14.5383C23.0496 15.2343 22.1436 15.7772 20.6947 16.2239C18.9546 16.761 16.8758 17.109 14.7969 17.4524C14.6899 17.4669 14.5814 17.4669 14.4744 17.4524C12.4304 17.1194 10.3968 16.7784 8.67413 16.2552C7.10688 15.7796 6.24959 15.1949 6.32268 14.4513C6.38184 13.8747 6.34008 13.2947 6.34008 12.6973Z" fill="white"/>
<path d="M25.7941 34.3447C26.2581 34.3447 26.6653 34.3447 27.0702 34.3447C27.9483 34.3517 28.5782 34.934 28.5782 35.7368C28.5782 36.5395 27.9437 37.1196 27.0702 37.1207H8.30035C6.25864 37.1207 4.21809 37.1277 2.17638 37.1207C1.81741 37.1237 1.47136 36.9869 1.21152 36.7392C0.951684 36.4915 0.798465 36.1523 0.78431 35.7936C0.766749 35.4423 0.884789 35.0976 1.11405 34.8308C1.34332 34.5639 1.6663 34.3953 2.0163 34.3598C2.50468 34.3215 2.99887 34.3528 3.5615 34.3528V33.8772C3.5615 32.3285 3.59746 30.7787 3.55338 29.23C3.47217 26.2974 4.66356 23.9668 6.81663 22.0608C8.0057 21.0086 9.34325 20.1792 10.7318 19.4251C10.9337 19.3161 11.1367 19.2094 11.4198 19.0597L10.6634 18.6467C8.86182 17.67 7.15653 16.5586 5.77954 15.0134C4.28422 13.3279 3.53134 11.3697 3.55802 9.10755C3.57658 7.50087 3.55802 5.89302 3.55802 4.28634V3.76779C3.09399 3.76779 2.66593 3.76779 2.23671 3.76779C1.39566 3.75619 0.77503 3.1576 0.77735 2.36875C0.77967 1.57991 1.4003 0.988281 2.24947 0.988281C10.5292 0.988281 18.809 0.988281 27.0887 0.988281C27.9402 0.988281 28.562 1.57527 28.5701 2.36179C28.5771 3.16804 27.9506 3.75387 27.0748 3.76547C26.6699 3.76547 26.2628 3.76547 25.7918 3.76547V4.23529C25.7918 5.85938 25.7767 7.48347 25.7918 9.10059C25.8196 11.4509 24.9716 13.4462 23.3939 15.1561C21.9589 16.7106 20.198 17.8115 18.3477 18.7906C18.2084 18.8637 18.0704 18.9391 17.8767 19.0435C18.0449 19.1444 18.1702 19.2268 18.3024 19.2964C20.1446 20.2592 21.8928 21.3543 23.3313 22.8833C24.9554 24.6141 25.8266 26.6431 25.7929 29.0432C25.7709 30.636 25.7929 32.2288 25.7929 33.8215L25.7941 34.3447ZM23.0099 34.325C23.0099 32.5849 22.9763 30.8889 23.0192 29.1975C23.0691 27.302 22.3441 25.7672 21.0007 24.4877C19.2015 22.7742 16.9915 21.7232 14.7828 20.6734C14.6785 20.6333 14.5627 20.6358 14.4603 20.6803C12.5299 21.5863 10.5961 22.5179 8.93375 23.8925C7.3201 25.2255 6.29809 26.86 6.33753 29.0432C6.36653 30.6487 6.34333 32.2554 6.34333 33.8621V34.3261L23.0099 34.325ZM6.33985 3.78519C6.33985 5.49744 6.38509 7.16213 6.32825 8.82334C6.25516 10.9567 7.11245 12.6341 8.67969 14.0007C10.4001 15.5007 12.4337 16.4797 14.48 17.4368C14.5833 17.4791 14.6992 17.4791 14.8025 17.4368C16.8813 16.4519 18.9555 15.4531 20.7003 13.9137C22.1515 12.6376 23.0575 11.0878 23.0204 9.07739C22.9937 7.47187 23.0204 5.86518 23.0204 4.25965V3.79563L6.33985 3.78519Z" fill="white"/>
</svg>
