<svg width="11" height="12" viewBox="0 0 11 12" fill="none" xmlns="http://www.w3.org/2000/svg">
<path d="M6.46392 6.68524C7.19891 6.47856 7.84349 6.03843 8.29692 5.43367C8.75035 4.82891 8.98708 4.09359 8.9701 3.34263C8.9552 2.4491 8.58267 1.59729 7.93318 0.971667C7.2837 0.346046 6.40954 -0.0030302 5.5 1.98199e-05C4.59046 -0.0030302 3.7163 0.346046 3.06681 0.971667C2.41733 1.59729 2.0448 2.4491 2.0299 3.34263C2.01292 4.09359 2.24964 4.82891 2.70308 5.43367C3.15651 6.03843 3.80109 6.47856 4.53608 6.68524C3.2655 6.90747 2.11491 7.56161 1.28566 8.53321C0.456412 9.50481 0.00131318 10.732 0 12H11C10.9987 10.732 10.5436 9.50481 9.71434 8.53321C8.88509 7.56161 7.7345 6.90747 6.46392 6.68524Z" fill="white"/>
</svg>
