<svg width="22" height="21" viewBox="0 0 22 21" fill="none" xmlns="http://www.w3.org/2000/svg">
<path d="M20.7751 9.51481C20.4607 9.21257 20.0331 9.02589 19.6018 9.00251C19.112 8.97613 18.6531 9.15814 18.3114 9.51447L15.9764 11.9225C15.9302 11.8392 15.8775 11.7605 15.8184 11.6875C15.5311 11.332 15.111 11.1363 14.6357 11.1363H11.3669C10.7506 11.1363 10.1493 11.053 9.57984 10.8889C8.09526 10.4609 6.67701 10.7735 5.4781 11.7934C4.99056 12.2082 4.63487 12.6594 4.40993 12.9883L3.82385 12.3955C3.74679 12.3176 3.64232 12.2733 3.53482 12.2733C3.53386 12.2733 3.53305 12.2733 3.53209 12.2733C3.42074 12.2741 3.31308 12.3224 3.23585 12.4059L0.386696 15.4885C0.310432 15.571 0.268936 15.6819 0.271339 15.7964C0.273742 15.9111 0.319725 16.02 0.399353 16.099L5.21823 20.8811C5.29818 20.9604 5.40071 21 5.50309 21C5.6106 21 5.71811 20.9564 5.79902 20.8699L8.62157 17.8519C8.69864 17.7694 8.74142 17.6567 8.73934 17.5415C8.73725 17.428 8.69159 17.3184 8.6134 17.2393L8.36763 16.9908L8.93015 16.9249C9.27046 16.8836 9.61653 16.8627 9.95907 16.8627H14.9324C15.7405 16.8627 16.4269 16.6786 16.9726 16.3152C16.9771 16.3122 16.9816 16.309 16.9861 16.3059C17.1815 16.1643 17.3589 15.9965 17.513 15.8073L20.8645 11.6981C21.438 10.9949 21.4022 10.1174 20.7751 9.51481ZM5.49236 19.9642L1.26998 15.774L3.54459 13.3129L7.7423 17.5584L5.49236 19.9642ZM20.235 11.1404L16.8835 15.2497C16.7771 15.3801 16.6552 15.496 16.5208 15.5942C16.1111 15.8645 15.5768 16.0018 14.9324 16.0018H9.95891C9.5848 16.0018 9.20653 16.0247 8.83627 16.0696L7.59971 16.2142L5.01058 13.5956C5.19051 13.3176 5.52136 12.8683 6.00057 12.4605C6.99681 11.6129 8.12698 11.3633 9.35954 11.7188C10.0007 11.9036 10.676 11.9975 11.3669 11.9975H14.6357C15.2227 11.9975 15.3794 12.5275 15.3794 12.8405C15.3794 13.0693 15.3089 13.287 15.186 13.438C15.0527 13.6015 14.8632 13.6843 14.6227 13.6843H11.7772C11.5491 13.6843 11.3642 13.8772 11.3642 14.1149C11.3642 14.3527 11.5491 14.5454 11.7772 14.5454H14.6227C15.103 14.5454 15.5266 14.35 15.8157 13.9954C16.0562 13.7005 16.1933 13.3128 16.2048 12.8983L18.8941 10.125C19.2785 9.72437 19.879 9.82489 20.2149 10.1478C20.3886 10.3148 20.6222 10.6656 20.235 11.1404Z" fill="#34374A"/>
<path d="M3.24562 9H7.16688C7.3804 9 7.57799 8.92654 7.73875 8.80246C7.89951 8.92654 8.0971 9 8.31061 9H12.232C12.4455 9 12.6431 8.92654 12.8039 8.80246C12.9646 8.92654 13.1622 9 13.3758 9H17.297C17.8342 9 18.2712 8.5366 18.2712 7.96715V6.02884C18.2712 5.15829 17.8116 4.40206 17.1236 4.02899C17.457 3.60281 17.6577 3.05619 17.6577 2.46061C17.6577 1.10382 16.6164 0 15.3364 0C14.0564 0 13.0151 1.10382 13.0151 2.46061C13.0151 3.05619 13.2158 3.60298 13.5492 4.02899C13.2518 4.19046 12.9973 4.42357 12.8039 4.70631C12.6105 4.4234 12.356 4.19029 12.0585 4.02899C12.3918 3.60298 12.5926 3.05619 12.5926 2.46061C12.5926 1.10382 11.5512 0 10.2712 0C8.99126 0 7.94992 1.10382 7.94992 2.46061C7.94992 3.05619 8.15079 3.60298 8.48417 4.02915C8.18669 4.19046 7.93213 4.42357 7.73875 4.70647C7.54537 4.42357 7.29081 4.19046 6.99333 4.02899C7.32671 3.60298 7.52742 3.05619 7.52742 2.46077C7.52742 1.10382 6.48608 0 5.2061 0C3.92627 0 2.88493 1.10382 2.88493 2.46077C2.88493 3.05619 3.08565 3.60298 3.41902 4.02915C2.73104 4.40222 2.27124 5.15862 2.27124 6.02901V7.96715C2.27124 8.5366 2.70841 9 3.24562 9ZM15.3365 0.85318C16.1726 0.85318 16.853 1.57417 16.853 2.46061C16.853 3.34687 16.1726 4.06803 15.3365 4.06803C14.5003 4.06803 13.8201 3.34704 13.8201 2.46061C13.8199 1.57417 14.5003 0.85318 15.3365 0.85318ZM14.291 4.65651C14.6055 4.82542 14.9606 4.92121 15.3364 4.92121C15.7124 4.92121 16.0674 4.82542 16.3818 4.65651C17.0072 4.77199 17.4665 5.34325 17.4665 6.02884V7.96715C17.4665 8.06625 17.3905 8.14682 17.297 8.14682H13.3758C13.2824 8.14682 13.2064 8.06625 13.2064 7.96715V6.02884C13.2063 5.34342 13.6657 4.77199 14.291 4.65651ZM10.2714 0.85318C11.1075 0.85318 11.7878 1.57417 11.7878 2.46061C11.7878 3.34687 11.1075 4.06803 10.2714 4.06803C9.43514 4.06803 8.75496 3.34704 8.75496 2.46061C8.75496 1.57417 9.43514 0.85318 10.2714 0.85318ZM9.226 4.65651C9.54034 4.82542 9.89541 4.92121 10.2714 4.92121C10.6474 4.92121 11.0023 4.82542 11.3168 4.65651C11.942 4.77199 12.4015 5.34325 12.4015 6.02884V7.96715C12.4015 8.06625 12.3255 8.14682 12.232 8.14682H8.31077C8.21728 8.14682 8.14127 8.06625 8.14127 7.96715V6.02884C8.14127 5.34342 8.60076 4.77199 9.226 4.65651ZM5.20625 0.85318C6.04235 0.85318 6.72269 1.57417 6.72269 2.46061C6.72269 3.34687 6.04235 4.06803 5.20625 4.06803C4.37015 4.06803 3.68982 3.34687 3.68982 2.46061C3.68982 1.57417 4.37015 0.85318 5.20625 0.85318ZM3.07613 6.02884C3.07613 5.34342 3.53561 4.77199 4.16086 4.65651C4.47535 4.82542 4.83027 4.92121 5.20625 4.92121C5.58224 4.92121 5.93716 4.82542 6.25165 4.65651C6.87705 4.77199 7.33638 5.34325 7.33638 6.02884V7.96715C7.33638 8.06625 7.26037 8.14682 7.16688 8.14682H3.24562C3.15213 8.14682 3.07613 8.06625 3.07613 7.96715V6.02884Z" fill="#34374A"/>
</svg>
