<svg width="33" height="32" viewBox="0 0 33 32" fill="none" xmlns="http://www.w3.org/2000/svg">
<path d="M29.5879 14.7182H31.1036C31.3255 14.7318 31.5478 14.7014 31.7579 14.6287C31.968 14.5559 32.1617 14.4423 32.3276 14.2943C32.4936 14.1464 32.6286 13.9671 32.7249 13.7667C32.8212 13.5663 32.8768 13.3488 32.8886 13.1268C32.8768 12.9048 32.8212 12.6873 32.7249 12.4869C32.6286 12.2865 32.4936 12.1072 32.3276 11.9592C32.1617 11.8113 31.968 11.6977 31.7579 11.6249C31.5478 11.5522 31.3255 11.5218 31.1036 11.5354H1.80189C1.58067 11.5229 1.35915 11.5542 1.15004 11.6274C0.940931 11.7007 0.74834 11.8145 0.583295 11.9624C0.418251 12.1102 0.283952 12.2891 0.188196 12.489C0.0924403 12.6888 0.0371183 12.9055 0.0252847 13.1268C0.0371183 13.348 0.0924403 13.5648 0.188196 13.7646C0.283952 13.9644 0.418251 14.1434 0.583295 14.2912C0.74834 14.439 0.940931 14.5529 1.15004 14.6261C1.35915 14.6994 1.58067 14.7307 1.80189 14.7182H3.368V27.5166H0V31.053H32.838V27.5166H29.5374L29.5879 14.7182ZM26.7504 14.7182V27.5166H23.7361V14.7182H26.7504ZM20.9069 14.7182V27.5166H17.8925V14.7182H20.9069ZM15.0128 14.7182V27.5166H12.0069V14.7182H15.0128ZM6.16351 14.7182H9.1694V27.5166H6.16351V14.7182Z" fill="#34374A"/>
<path d="M16.7477 4.63931V0.00830078H16.1583V4.64772C10.7866 4.69822 5.63898 6.80788 1.77686 10.5417H31.129C27.2682 6.8048 22.1205 4.69206 16.7477 4.63931Z" fill="#34374A"/>
<path d="M19.8291 0H19.2902L18.103 3.06488H18.6419L19.8291 0Z" fill="#34374A"/>
<path d="M17.6902 0L16.9155 1.98712V3.06488H17.0418L18.229 0H17.6902Z" fill="#34374A"/>
<path d="M20.6294 0H20.0905L18.9033 3.06488H19.4422L20.6294 0Z" fill="#34374A"/>
<path d="M19.0288 0H18.49L17.3027 3.06488H17.8416L19.0288 0Z" fill="#34374A"/>
<path d="M21.3105 3.0646H21.6979V2.0542L21.3105 3.0646Z" fill="#34374A"/>
<path d="M21.4376 0H20.8903L19.7031 3.06488H20.2504L21.4376 0Z" fill="#34374A"/>
<path d="M17.4291 0H16.9155V1.31352L17.4291 0Z" fill="#34374A"/>
<path d="M21.6984 1.38088V0L20.5112 3.06488H21.0501L21.6984 1.38088Z" fill="#34374A"/>
</svg>
