<svg width="21" height="21" viewBox="0 0 21 21" fill="none" xmlns="http://www.w3.org/2000/svg">
<path d="M11.5107 0.551448L10.8848 0.238299C10.3664 -0.021057 9.73593 0.188838 9.47647 0.707148L9.32007 1.01995C9.09562 0.906842 8.82736 0.925084 8.62029 1.06753C7.55243 0.586786 3.12286 -1.17804 0.268482 1.26102C0.0438236 1.43349 -0.0518492 1.72623 0.0275945 1.99809C0.107038 2.26995 0.345288 2.46511 0.627467 2.48947C2.86542 2.61558 5.05413 3.19681 7.05979 4.19762C7.07572 4.44439 7.22108 4.66429 7.44187 4.77564L2.03226 15.5914C1.80397 16.0391 1.8333 16.5749 2.10912 16.9951C2.38494 17.4153 2.86488 17.6553 3.36651 17.6239C3.86814 17.5925 4.31442 17.2945 4.53571 16.8432L9.94531 6.02788C10.1665 6.13979 10.4308 6.1243 10.6374 5.9873C12.6409 6.99166 14.4186 8.39414 15.8616 10.109C16.0504 10.3198 16.3494 10.3932 16.6144 10.2938C16.8795 10.1943 17.0563 9.94243 17.0599 9.65936C17.2996 5.91312 13.2325 3.42717 12.2066 2.86245C12.1966 2.61058 12.0496 2.38437 11.8235 2.27289L11.9803 1.96009C12.1049 1.71104 12.1254 1.42268 12.0373 1.15849C11.9493 0.894293 11.7598 0.675923 11.5107 0.551448ZM10.1024 1.02205C10.1437 0.938416 10.2166 0.874716 10.305 0.845088C10.3935 0.815461 10.49 0.822357 10.5734 0.864247L11.1993 1.17915C11.2823 1.22066 11.3454 1.29346 11.3748 1.38152C11.4041 1.46958 11.3973 1.56569 11.3557 1.64869L11.199 1.96114L9.94601 1.33345L10.1024 1.02205ZM0.722986 1.7918C3.14526 -0.277085 7.08009 1.17145 8.21827 1.65884L7.28442 3.52864C5.23417 2.52011 3.0037 1.92969 0.722986 1.7918ZM3.90976 16.5294C3.73321 16.868 3.31778 17.0026 2.97625 16.8317C2.63471 16.6609 2.49318 16.2478 2.65821 15.9035L8.06782 5.08879L9.31937 5.71508L3.90976 16.5294ZM10.2585 5.40193L9.94566 5.24553L7.75537 4.14969L9.00762 1.64659L11.5107 2.89849L10.2585 5.40228V5.40193ZM16.3615 9.61493C14.8838 7.87312 13.0742 6.44266 11.0384 5.40683L11.9729 3.53669C13.0464 4.15424 16.5655 6.43095 16.3615 9.61493Z" fill="white"/>
<path d="M20.5396 3.52379C19.8659 3.77386 19.3156 4.27561 19.0046 4.92334C18.6138 4.97127 17.864 5.14692 17.5379 5.79806C17.4819 5.91016 17.4902 6.04361 17.5596 6.14794C18.3595 7.54738 18.4755 9.23579 17.8745 10.7315C17.8378 10.8312 17.8478 10.9422 17.9018 11.0338C17.9896 11.1828 18.7205 12.5148 17.3223 13.3539C17.2462 13.3994 17.1903 13.4724 17.1663 13.5579C17.0238 13.9943 16.7073 14.3524 16.2916 14.5473C15.7506 14.7545 15.0432 14.5907 14.1895 14.0575C14.1336 14.0217 14.0686 14.0025 14.0023 14.0022C13.9729 14.0022 11.157 14.0348 9.95127 16.7233C8.9661 16.4438 7.92302 16.9159 7.48281 17.8405C6.66548 17.8296 4.15678 18.0028 3.51614 20.5654C3.49008 20.6699 3.51359 20.7806 3.57987 20.8654C3.64616 20.9503 3.74784 20.9999 3.85553 21H20.3002C20.6867 21 21 20.6867 21 20.3002V3.85548C20.9999 3.74308 20.9458 3.63755 20.8546 3.57185C20.7634 3.50615 20.6462 3.48827 20.5396 3.52379ZM20.3002 20.3002H4.33593C5.14627 18.3058 7.55699 18.5364 7.6665 18.5486C7.82267 18.5657 7.97104 18.4765 8.02934 18.3307C8.1666 17.942 8.46027 17.6285 8.83917 17.4662C9.21807 17.3038 9.64761 17.3075 10.0237 17.4762C10.1111 17.5113 10.209 17.5097 10.2952 17.4717C10.3814 17.4337 10.4486 17.3626 10.4817 17.2744C11.0095 15.8105 12.3574 14.8007 13.9106 14.7055C14.9221 15.3157 15.807 15.4822 16.5421 15.1992C17.1216 14.9509 17.5735 14.4754 17.7919 13.884C18.9318 13.1383 19.1099 11.9365 18.5833 10.8284C19.1641 9.23509 19.0487 7.4711 18.2653 5.96705C18.5431 5.73805 18.8906 5.61035 19.2506 5.60492C19.4012 5.60496 19.535 5.50854 19.5826 5.3656C19.7162 4.98719 19.9677 4.66168 20.3002 4.437V20.3002Z" fill="white"/>
<path d="M17.801 16.9558L17.1344 16.7459C16.7662 16.629 16.373 16.8326 16.2559 17.2007L16.0459 17.868C15.9293 18.2361 16.1328 18.6291 16.5008 18.7462C17.2202 18.9736 17.238 18.9911 17.3797 18.9911C17.6843 18.9899 17.9531 18.7918 18.0445 18.5013L18.2544 17.834C18.3712 17.4663 18.1684 17.0735 17.801 16.9558ZM17.3811 18.2903L16.7139 18.0803L16.9238 17.4131L17.591 17.623L17.3811 18.2903Z" fill="white"/>
<path d="M13.3197 17.812C13.2026 17.444 12.8096 17.2405 12.4415 17.3571L11.7746 17.567C11.4067 17.6841 11.2031 18.0772 11.3197 18.4452L11.5297 19.1121C11.6468 19.4803 12.04 19.6839 12.4082 19.567L13.0755 19.3571C13.4434 19.24 13.647 18.8469 13.5303 18.4788L13.3197 17.812ZM12.1962 18.9012L11.9863 18.2343L12.6535 18.0243L12.8634 18.6916L12.1962 18.9012Z" fill="white"/>
<path d="M14.7021 16.1016C14.5088 16.1016 14.3522 16.2582 14.3522 16.4514V16.8013C14.3522 16.9946 14.5088 17.1512 14.7021 17.1512C14.8953 17.1512 15.0519 16.9946 15.0519 16.8013V16.4514C15.0519 16.2582 14.8953 16.1016 14.7021 16.1016Z" fill="white"/>
<path d="M8.85643 18.6549L8.50654 19.0047C8.37395 19.142 8.37584 19.3603 8.51081 19.4952C8.64577 19.6302 8.864 19.6321 9.00128 19.4995L9.35117 19.1496C9.48377 19.0123 9.48187 18.7941 9.34691 18.6591C9.21195 18.5242 8.99372 18.5223 8.85643 18.6549Z" fill="white"/>
<path d="M19.148 14.8052C19.0107 14.6727 18.7925 14.6745 18.6575 14.8095C18.5226 14.9445 18.5207 15.1627 18.6533 15.3C19.0242 15.6712 19.0686 15.7524 19.2505 15.7524C19.392 15.7524 19.5196 15.6671 19.5737 15.5364C19.6279 15.4057 19.5979 15.2552 19.4979 15.1551L19.148 14.8052Z" fill="white"/>
<path d="M11.5531 11.8284C11.5531 12.9113 12.2588 13.5722 13.4117 13.193C13.7896 13.1069 14.1084 12.855 14.2794 12.5072C14.4862 12.0072 14.2094 11.4614 13.9645 10.9796C13.4334 9.93587 11.5531 10.7966 11.5531 11.8284ZM13.6328 12.2413C13.5401 12.4649 12.7997 12.7399 12.5002 12.5212C12.3181 12.339 12.2273 12.0847 12.2529 11.8284C12.2529 11.4537 13.1899 11.0013 13.3403 11.2983C13.5167 11.6454 13.7168 12.0387 13.6328 12.2413Z" fill="white"/>
</svg>
