<svg width="17" height="23" viewBox="0 0 17 23" fill="none" xmlns="http://www.w3.org/2000/svg">
<path d="M14.8395 9.6864C15.1387 8.62355 15.1253 7.4966 14.8007 6.43856C14.4762 5.38051 13.8541 4.43554 13.0078 3.71516C12.1616 2.99478 11.1265 2.52906 10.0248 2.37298C8.92309 2.21689 7.8007 2.37695 6.79011 2.83426C5.77952 3.29157 4.9229 4.02704 4.32136 4.95388C3.71982 5.88072 3.39847 6.96024 3.39522 8.06503C3.39198 9.16982 3.70698 10.2538 4.30305 11.1889C4.89912 12.1241 5.75138 12.8715 6.75924 13.3429L4.8757 20.0394C4.85202 20.1236 4.84528 20.2117 4.85588 20.2986C4.86647 20.3856 4.8942 20.4697 4.93746 20.5461C4.98073 20.6225 5.0387 20.6898 5.10805 20.7441C5.1774 20.7984 5.25678 20.8386 5.34166 20.8625L5.89042 21.0168C6.06174 21.0647 6.24492 21.0432 6.39974 20.957C6.55456 20.8708 6.66836 20.727 6.71615 20.5571L8.59969 13.8605C9.9719 14.0131 11.3521 13.6773 12.4947 12.913C13.6373 12.1486 14.4682 11.0053 14.8395 9.6864ZM7.93851 12.6826C7.02616 12.4261 6.20975 11.907 5.59253 11.1909C4.97532 10.4748 4.58503 9.59374 4.47102 8.65929C4.35702 7.72484 4.52442 6.77893 4.95206 5.94119C5.3797 5.10345 6.04837 4.41152 6.87349 3.95292C7.69861 3.49431 8.64311 3.28963 9.58754 3.36476C10.532 3.4399 11.4339 3.79146 12.1793 4.375C12.9246 4.95854 13.4799 5.74784 13.775 6.64306C14.07 7.53829 14.0914 8.49922 13.8367 9.40434C13.4954 10.6178 12.6822 11.6448 11.5761 12.2596C10.47 12.8744 9.16149 13.0265 7.93851 12.6826Z" fill="#301B44"/>
</svg>
