<svg width="379" height="125" viewBox="0 0 379 125" fill="none" xmlns="http://www.w3.org/2000/svg">
<path d="M371.036 13.7871L364.237 21.715L337.503 23.189L344.302 15.2523L371.036 13.7871Z" fill="#7416B2"/>
<path d="M369.075 54.752L362.276 62.6882L341.026 63.8481L347.825 55.9206L369.075 54.752Z" fill="#7416B2"/>
<path d="M378.208 96.4922L371.409 104.428L329.195 106.748L335.994 98.8207L378.208 96.4922Z" fill="#7416B2"/>
<path d="M335.994 98.8203L329.195 106.748L320.825 10.2548L327.624 2.31836L335.994 98.8203Z" fill="#7416B2"/>
<path d="M329.248 99.1895L322.449 107.126L281.504 109.376L288.303 101.44L329.248 99.1895Z" fill="#7416B2"/>
<path d="M288.303 101.438L281.504 109.375L273.134 12.873L279.933 4.94531L288.303 101.438Z" fill="#7416B2"/>
<path d="M261.205 80.7687L254.406 88.7051L247.953 14.2597L254.752 6.33203L261.205 80.7687Z" fill="#7416B2"/>
<path d="M259.536 88.2788L252.737 96.2065C254.077 94.6541 254.681 92.2383 254.379 88.6974L261.178 80.7695C261.48 84.3017 260.876 86.7263 259.536 88.2788Z" fill="#7416B2"/>
<path d="M229.606 81.5449L222.807 89.4727L216.434 15.995L223.233 8.05859L229.606 81.5449Z" fill="#7416B2"/>
<path d="M271.146 97.6264L264.347 105.589C260.796 109.705 255.346 112.086 247.988 112.496C232.783 113.368 224.138 104.935 222.798 89.5068L229.606 81.5703C230.937 97.0072 239.583 105.397 254.787 104.56C262.154 104.159 267.622 101.769 271.146 97.6612" fill="#7416B2"/>
<path d="M217.206 34.7109L210.407 42.6471L195.77 43.4495L202.569 35.522L217.206 34.7109Z" fill="#7416B2"/>
<path d="M202.569 35.5227L195.77 43.4504L195.424 39.4473L202.223 31.5195L202.569 35.5227Z" fill="#7416B2"/>
<path d="M202.214 31.5194L195.415 39.447C194.821 32.5572 191.776 30.0891 186.85 30.3595C184.551 30.4903 182.758 31.1619 181.524 32.5573L188.323 24.6296C189.522 23.2342 191.315 22.5627 193.649 22.4319C198.575 22.1616 201.637 24.6297 202.214 31.5194Z" fill="#7416B2"/>
<path d="M204.398 91.1826L197.599 99.1104C198.93 97.558 199.543 95.1334 199.241 91.5926C197.519 71.7428 166.941 69.6845 164.553 42.1163C163.852 34.1102 165.397 27.7698 169.142 23.4004L175.941 15.4727C172.196 19.8333 170.616 26.1825 171.352 34.1887C173.74 61.7568 204.318 63.8412 206.04 83.6648C206.342 87.2057 205.729 89.6302 204.398 91.1826Z" fill="#7416B2"/>
<path d="M175.275 84.3886L168.476 92.325L167.962 86.3945L174.77 78.4668L175.275 84.3886Z" fill="#7416B2"/>
<path d="M216.824 100.48L210.016 108.407C206.466 112.515 201.025 114.905 193.658 115.306C178.462 116.178 169.817 107.753 168.477 92.3164L175.276 84.3887C176.616 99.8254 185.261 108.215 200.457 107.378C207.824 106.968 213.292 104.587 216.824 100.48Z" fill="#7416B2"/>
<path d="M150.636 35.051L143.837 42.9788C143.242 36.0802 140.375 34.0219 135.449 34.2574L142.248 26.3297C147.174 26.0593 150.041 28.1176 150.636 35.051Z" fill="#7416B2"/>
<path d="M142.257 26.3633L135.458 34.2995L128.144 34.7007L134.943 26.7732L142.257 26.3633Z" fill="#7416B2"/>
<path d="M151.896 49.5194L145.097 57.4558L143.846 42.9784L150.645 35.0508L151.896 49.5194Z" fill="#7416B2"/>
<path d="M150.414 56.9327L143.615 64.8691C144.884 63.3952 145.39 61.0317 145.097 57.4472L151.896 49.5195C152.207 53.104 151.683 55.4588 150.414 56.9327Z" fill="#7416B2"/>
<path d="M162.867 66.0039L156.068 73.9317C152.571 78.0133 147.059 80.3419 139.479 80.7605L146.278 72.824C153.858 72.4141 159.37 70.0768 162.867 66.0039Z" fill="#7416B2"/>
<path d="M146.287 72.832L139.488 80.7597L132.165 81.1609L138.964 73.2332L146.287 72.832Z" fill="#7416B2"/>
<path d="M126.635 110.333L119.836 118.26L111.466 21.7675L118.265 13.8398L126.635 110.333Z" fill="#7416B2"/>
<path d="M142.115 109.479L135.316 117.415L119.836 118.261L126.635 110.333L142.115 109.479Z" fill="#7416B2"/>
<path d="M96.4031 81.2483L89.604 89.176L77.9143 40.79L84.7133 32.8535L96.4031 81.2483Z" fill="#7416B2"/>
<path d="M119.454 110.729L112.655 118.665L97.0422 119.52L103.841 111.592L119.454 110.729Z" fill="#7416B2"/>
<path d="M103.841 111.593L97.0422 119.521L92.8527 102.156L99.6518 94.2285L103.841 111.593Z" fill="#7416B2"/>
<path d="M99.6516 94.2285L92.8526 102.156L73.8579 103.203L80.6569 95.2751L99.6516 94.2285Z" fill="#7416B2"/>
<path d="M79.5032 112.926L72.7041 120.853L58.4847 121.638L65.2838 113.711L79.5032 112.926Z" fill="#7416B2"/>
<path d="M65.2838 113.709L58.4847 121.636L65.8785 24.2714L72.6776 16.3438L65.2838 113.709Z" fill="#7416B2"/>
<path d="M38.8599 40.5022L32.0608 48.4299C31.4661 41.5401 28.1465 39.0894 23.1847 39.3597C20.8148 39.4906 18.9242 40.2319 17.6638 41.6796L24.4629 33.7432C25.7233 32.278 27.6139 31.5629 29.9838 31.4321C34.9101 31.1617 38.2297 33.6124 38.8599 40.5022Z" fill="#7416B2"/>
<path d="M54.4017 50.043L47.6027 57.9706L32.9573 58.7729L39.7652 50.8453L54.4017 50.043Z" fill="#7416B2"/>
<path d="M39.7652 50.8437L32.9573 58.7715L32.0608 48.4278L38.8687 40.5L39.7652 50.8437Z" fill="#7416B2"/>
<path d="M7.45646 43.206L0.657341 51.1338C-0.0349969 43.1799 1.54496 36.8656 5.26405 32.5049L12.0632 24.5684C8.31745 28.9291 6.73749 35.2521 7.45646 43.206Z" fill="#7416B2"/>
<path d="M43.3869 92.6125L36.5877 100.54L35.3894 86.7605L42.1886 78.8242L43.3869 92.6125Z" fill="#7416B2"/>
<path d="M41.7446 100.129L34.9722 108.057C36.3036 106.504 36.916 104.08 36.6054 100.539L43.4044 92.6113C43.7151 96.1522 43.1026 98.5767 41.7712 100.129" fill="#7416B2"/>
<path d="M11.7792 93.377L4.98012 101.313L0.630859 51.1308L7.42991 43.2031L11.7792 93.377Z" fill="#7416B2"/>
<path d="M53.3278 109.461L46.5287 117.397C42.9783 121.505 37.5284 123.895 30.1613 124.296C14.9655 125.168 6.32026 116.743 4.97998 101.307L11.779 93.3789C13.1193 108.816 21.7646 117.206 36.9604 116.368C44.3363 115.958 49.804 113.578 53.3278 109.461Z" fill="#7416B2"/>
<path d="M369.838 0L371.037 13.7884L344.302 15.2536L346.636 42.1328L367.877 40.9641L369.075 54.7526L347.826 55.9213L350.276 84.1784L377.019 82.7132L378.208 96.4929L335.994 98.8215L327.624 2.31988L369.838 0Z" fill="white"/>
<path d="M295.413 4.08984L302.585 86.8031L328.05 85.3989L329.248 99.1874L288.303 101.438L279.933 4.94454L295.413 4.08984Z" fill="white"/>
<path d="M269.379 5.52148L275.752 78.9988C277.093 94.4356 269.974 103.698 254.787 104.526C239.6 105.355 230.937 96.9735 229.606 81.5367L223.233 8.05937L238.713 7.18724L245.165 81.6239C245.76 88.5138 249.071 90.8249 253.997 90.5546C258.923 90.2842 261.799 87.6329 261.204 80.7431L254.752 6.2977L269.379 5.52148Z" fill="white"/>
<path d="M192.078 8.66891C207.167 7.79677 215.635 16.2391 216.975 31.6846L217.242 34.7109L202.596 35.5133L202.25 31.5189C201.655 24.629 198.611 22.1609 193.684 22.4313C188.758 22.7016 186.149 25.475 186.752 32.33C188.474 52.1798 219.043 54.238 221.431 81.815C222.771 97.2518 215.662 106.505 200.466 107.342C185.27 108.18 176.625 99.7898 175.284 84.353L174.77 78.4224L189.415 77.6811L190.019 84.571C190.613 91.4696 193.933 93.7808 198.895 93.5104C203.856 93.24 206.706 90.5887 206.111 83.6901C204.389 63.8403 173.811 61.782 171.423 34.2138C170.012 18.7421 176.989 9.49744 192.078 8.66891Z" fill="white"/>
<path d="M141.059 12.576C156.538 11.7039 164.864 19.7275 166.204 35.1643L167.287 47.7056C168.628 63.1424 161.757 71.9771 146.278 72.8231L138.964 73.2243L142.106 109.479L126.626 110.351L118.265 13.8494L141.059 12.576ZM151.896 49.5197L150.636 35.0509C150.041 28.1524 147.174 26.0941 142.248 26.3296L134.934 26.7308L137.766 59.4097L145.088 59.0085C150.006 58.7382 152.491 56.3921 151.896 49.4848" fill="white"/>
<path d="M95.329 15.0977L119.454 110.727L103.841 111.599L99.6516 94.2525L80.657 95.2904L79.4942 112.951L65.2926 113.727L72.6863 16.371L95.329 15.0977ZM81.4824 82.0427L96.3942 81.2229L84.6778 32.8543L81.4824 82.0427Z" fill="white"/>
<path d="M28.4038 17.669C43.5995 16.7969 52.2448 25.2217 53.5851 40.6672L54.3928 50.034L39.7562 50.845L38.8686 40.5015C38.2739 33.6117 34.9543 31.1609 29.9926 31.4313C25.0309 31.7017 22.1994 34.4925 22.7941 41.3824L27.312 93.4925C27.9156 100.391 31.2264 102.702 36.1881 102.432C41.1498 102.162 43.9901 99.5015 43.3865 92.6116L42.1971 78.8232L56.8337 78.0208L57.9432 90.8412C59.2835 106.278 52.1649 115.531 36.9692 116.369C21.7734 117.206 13.1193 108.816 11.779 93.3791L7.45637 43.2051C6.08947 27.7596 13.208 18.5063 28.4038 17.669Z" fill="white"/>
</svg>
