<svg width="278" height="124" viewBox="0 0 278 124" fill="none" xmlns="http://www.w3.org/2000/svg">
<path d="M35.7822 18.071L44.6522 27.251C43.8269 26.4794 42.8537 25.883 41.7916 25.498C40.7294 25.113 39.6002 24.9474 38.4722 25.011C36.3297 24.8665 34.205 25.4827 32.4722 26.751L23.6022 17.581C25.3359 16.3139 27.459 15.6946 29.6022 15.831C30.7302 15.7674 31.8594 15.9331 32.9216 16.3181C33.9838 16.7031 34.9569 17.2994 35.7822 18.071Z" fill="#7416B2"/>
<path d="M23.6422 17.582L32.5121 26.752C32.2141 26.9882 31.9365 27.2492 31.6821 27.532L22.8121 18.3521C23.0666 18.0724 23.3443 17.8148 23.6422 17.582Z" fill="#7416B2"/>
<path d="M22.8121 18.3516L31.6821 27.5315C31.4589 27.7771 31.2486 28.0341 31.0521 28.3015L22.1821 19.1316C22.3761 18.859 22.5865 18.5985 22.8121 18.3516Z" fill="#7416B2"/>
<path d="M22.1821 19.1309L31.0521 28.3008C30.8513 28.5863 30.6677 28.8834 30.5021 29.1907L21.6321 20.0208C21.7991 19.7143 21.9827 19.4173 22.1821 19.1309Z" fill="#7416B2"/>
<path d="M21.6321 20.0215L30.5021 29.1914C30.307 29.5577 30.1334 29.9351 29.9821 30.3215L21.1221 21.1416C21.2659 20.7569 21.4363 20.3825 21.6321 20.0215Z" fill="#7416B2"/>
<path d="M21.1221 21.1406L29.9821 30.3206C29.7848 30.8361 29.6211 31.3637 29.4921 31.9004L20.6221 22.7205C20.7512 22.1826 20.9183 21.6548 21.1221 21.1406Z" fill="#7416B2"/>
<path d="M20.6221 22.7207L29.4921 31.9006C29.2701 32.7905 29.1197 33.697 29.0422 34.6108L20.1721 25.4307C20.2496 24.5168 20.4001 23.6106 20.6221 22.7207Z" fill="#7416B2"/>
<path d="M20.1721 25.4316L29.0422 34.6118C29.0422 35.0018 28.9721 35.4118 28.9521 35.8318L20.0922 26.6516C20.0922 26.2316 20.0921 25.8216 20.1721 25.4316Z" fill="#7416B2"/>
<path d="M48.1721 6.70117L57.0422 15.8813C57.3422 16.188 57.6322 16.5213 57.9122 16.8813L49.0422 7.71118C48.7622 7.38118 48.4721 7.05118 48.1721 6.71118" fill="#7416B2"/>
<path d="M49.0422 7.67188L57.9122 16.842C59.0109 18.1601 59.9445 19.6073 60.6922 21.1519L51.8222 11.9819C51.0829 10.4327 50.1487 8.98426 49.0422 7.67188Z" fill="#7416B2"/>
<path d="M51.8221 11.9805L60.6921 21.1504C61.8803 23.6818 62.676 26.3794 63.0521 29.1504L54.1821 19.9805C53.806 17.2095 53.0103 14.5119 51.8221 11.9805Z" fill="#7416B2"/>
<path d="M54.1821 19.9414L63.0521 29.1116C63.4359 31.8269 63.5565 34.573 63.4122 37.3115L54.5521 28.1416C54.6886 25.4027 54.5647 22.6569 54.1821 19.9414Z" fill="#7416B2"/>
<path d="M54.5421 28.1406L63.4121 37.3106L62.9321 48.0806L54.0621 38.9006L54.5421 28.1406Z" fill="#7416B2"/>
<path d="M54.0622 38.9007L62.9322 48.0807L46.4622 47.9007L37.5922 38.7207L54.0622 38.9007Z" fill="#7416B2"/>
<path d="M20.0821 26.6504L28.9521 35.8304L26.2721 95.6504L17.4121 86.4704L20.0821 26.6504Z" fill="#7416B2"/>
<path d="M17.4122 86.4707L26.2822 95.6506C26.2159 96.9026 26.2661 98.158 26.4322 99.4006L17.5722 90.2307C17.3972 88.9855 17.3436 87.7263 17.4122 86.4707Z" fill="#7416B2"/>
<path d="M17.5721 90.2715L26.4321 99.4414C26.5824 100.479 26.8822 101.49 27.3221 102.441L18.4521 93.2715C18.0117 92.3206 17.7151 91.3096 17.5721 90.2715Z" fill="#7416B2"/>
<path d="M18.4521 93.2715L27.3221 102.451C27.5944 102.99 27.9301 103.493 28.3221 103.951L19.4622 94.7815C19.0648 94.3236 18.7287 93.816 18.4622 93.2715" fill="#7416B2"/>
<path d="M19.4221 94.7812L28.2822 103.951C28.3822 104.071 28.4822 104.171 28.5822 104.281L19.7122 95.1013C19.6122 95.0013 19.5121 94.8912 19.4221 94.7812Z" fill="#7416B2"/>
<path d="M52.6222 71.0312L61.4922 80.2012L60.8322 94.9212L51.9622 85.7513L52.6222 71.0312Z" fill="#7416B2"/>
<path d="M51.9522 85.752L60.8222 94.9219C60.8222 95.7719 60.7222 96.6019 60.6522 97.4119L51.7822 88.2319C51.8522 87.4219 51.9122 86.592 51.9522 85.752Z" fill="#7416B2"/>
<path d="M51.8021 88.2715L60.6721 97.4514C60.4842 99.473 60.15 101.478 59.6721 103.451L50.8021 94.2715C51.2847 92.2992 51.619 90.2936 51.8021 88.2715Z" fill="#7416B2"/>
<path d="M50.7922 94.2715L59.6622 103.451C59.327 104.778 58.9129 106.084 58.4221 107.362L49.5521 98.1814C50.0488 96.906 50.4631 95.6 50.7922 94.2715Z" fill="#7416B2"/>
<path d="M49.5521 98.1826L58.4221 107.363C58.0253 108.371 57.5712 109.356 57.0621 110.313L48.1921 101.133C48.7091 100.163 49.1634 99.1608 49.5521 98.1328" fill="#7416B2"/>
<path d="M48.1921 101.133L57.0621 110.313C56.6027 111.161 56.0953 111.982 55.5422 112.773L46.6721 103.593C47.2331 102.808 47.741 101.986 48.1921 101.133Z" fill="#7416B2"/>
<path d="M46.6721 103.592L55.5421 112.772C54.9979 113.553 54.3997 114.294 53.7521 114.992L44.8821 105.822C45.5274 105.119 46.1254 104.374 46.6721 103.592Z" fill="#7416B2"/>
<path d="M44.8821 105.822L53.7521 114.992C53.0047 115.807 52.1957 116.562 51.3322 117.252L42.4622 108.072C43.3255 107.386 44.1346 106.633 44.8821 105.822Z" fill="#7416B2"/>
<path d="M42.4622 108.071L51.3322 117.251C46.9122 120.751 40.9921 122.571 33.6321 122.491C25.5721 122.401 19.4322 120.071 15.2922 115.781L6.42212 106.611C10.5721 110.901 16.7021 113.221 24.7621 113.311C32.1221 113.391 38.0422 111.581 42.4622 108.071Z" fill="#7416B2"/>
<path d="M91.4222 17.7814L100.292 26.9614L91.9022 26.8714L83.0422 17.6914L91.4222 17.7814Z" fill="#7416B2"/>
<path d="M97.4921 19.9111L106.352 29.0913C104.982 27.6713 102.992 26.9912 100.352 26.9612L91.4822 17.7812C94.1722 17.7812 96.1722 18.4911 97.5422 19.9111" fill="#7416B2"/>
<path d="M83.0422 17.6914L91.9022 26.8714L90.3822 60.8914L81.5122 51.7114L83.0422 17.6914Z" fill="#7416B2"/>
<path d="M111.812 8.32227L120.682 17.4922C120.942 17.7722 121.202 18.0523 121.442 18.3423L112.572 9.16211C112.332 8.87211 112.082 8.59227 111.812 8.32227Z" fill="#7416B2"/>
<path d="M112.572 9.16211L121.442 18.3423C122.358 19.435 123.134 20.6375 123.752 21.9221L114.882 12.7422C114.262 11.4588 113.486 10.2564 112.572 9.16211Z" fill="#7416B2"/>
<path d="M114.882 12.7422L123.752 21.9221C124.782 24.1185 125.473 26.4587 125.802 28.8623L116.932 19.6821C116.602 17.2788 115.911 14.9392 114.882 12.7422Z" fill="#7416B2"/>
<path d="M116.952 19.6816L125.822 28.8618C126.188 31.5117 126.302 34.1904 126.162 36.8618L117.292 27.6816C117.432 25.0102 117.318 22.3315 116.952 19.6816Z" fill="#7416B2"/>
<path d="M117.262 27.7227L126.132 36.9027L125.742 45.6027L116.872 36.4327L117.262 27.7227Z" fill="#7416B2"/>
<path d="M86.8123 67.613L95.6823 76.783L89.6823 76.723L80.8123 67.543L86.8123 67.613Z" fill="#7416B2"/>
<path d="M94.8322 70.2717L103.702 79.4517C101.922 77.6117 99.2821 76.8017 95.7021 76.7617L86.8322 67.5918C90.4222 67.5918 93.0722 68.4417 94.8322 70.2717Z" fill="#7416B2"/>
<path d="M116.882 36.4316L125.752 45.6018C125.752 46.4418 125.652 47.2517 125.582 48.0417L116.712 38.8618C116.792 38.0718 116.842 37.2616 116.882 36.4316Z" fill="#7416B2"/>
<path d="M116.712 38.8613L125.582 48.0413C125.411 49.935 125.1 51.8133 124.652 53.6611L115.782 44.4812C116.23 42.6334 116.541 40.755 116.712 38.8613Z" fill="#7416B2"/>
<path d="M115.782 44.4824L124.652 53.6624C124.366 54.8113 124.005 55.9404 123.572 57.0425L114.712 47.8726C115.136 46.7648 115.493 45.6326 115.782 44.4824Z" fill="#7416B2"/>
<path d="M114.712 47.8711L123.572 57.041C123.243 57.8984 122.859 58.7335 122.422 59.541L113.562 50.3611C113.989 49.552 114.373 48.7209 114.712 47.8711Z" fill="#7416B2"/>
<path d="M113.562 50.3613L122.422 59.5413C122.04 60.2526 121.616 60.9405 121.152 61.6013L112.282 52.4211C112.752 51.762 113.179 51.0742 113.562 50.3613Z" fill="#7416B2"/>
<path d="M112.282 52.4219L121.152 61.6021C120.693 62.26 120.189 62.8847 119.642 63.4719L110.782 54.302C111.323 53.7091 111.824 53.081 112.282 52.4219Z" fill="#7416B2"/>
<path d="M110.782 54.2715L119.642 63.4414C119.027 64.1297 118.358 64.7685 117.642 65.3516L108.772 56.1714C109.5 55.5882 110.185 54.9533 110.822 54.2715" fill="#7416B2"/>
<path d="M108.732 56.2012L117.602 65.3813C116.298 66.4113 114.87 67.2744 113.352 67.9512L104.482 58.7712C106.002 58.098 107.43 57.2343 108.732 56.2012Z" fill="#7416B2"/>
<path d="M78.7922 112.643L87.6622 121.823L70.2422 121.623L61.3822 112.453L78.7922 112.643Z" fill="#7416B2"/>
<path d="M80.8122 67.543L89.6822 76.723L87.6622 121.823L78.7922 112.643L80.8122 67.543Z" fill="#7416B2"/>
<path d="M109.722 62.3516L118.592 71.5315C118.832 71.7815 119.062 72.0315 119.282 72.2915L110.412 63.1216C110.192 62.8616 109.962 62.6016 109.722 62.3516Z" fill="#7416B2"/>
<path d="M110.412 63.1211L119.282 72.291C120.141 73.3174 120.87 74.4458 121.452 75.6509L112.582 66.4709C111.997 65.2703 111.269 64.1455 110.412 63.1211Z" fill="#7416B2"/>
<path d="M112.582 66.4707L121.452 75.6506C122.475 77.8673 123.149 80.2284 123.452 82.6506L114.582 73.4707C114.283 71.0478 113.608 68.6862 112.582 66.4707Z" fill="#7416B2"/>
<path d="M114.632 73.4805L123.502 82.6604C123.9 85.6429 124.017 88.6561 123.852 91.6604L114.982 82.4905C115.146 79.4861 115.029 76.473 114.632 73.4905" fill="#7416B2"/>
<path d="M114.972 82.4824L123.842 91.6524L123.082 108.742L114.212 99.5724L114.972 82.4824Z" fill="#7416B2"/>
<path d="M115.512 113.042L124.382 122.222L106.652 122.032L97.7822 112.852L115.512 113.042Z" fill="#7416B2"/>
<path d="M114.212 99.5723L123.082 108.742C122.859 111.775 122.919 114.821 123.262 117.842L114.392 108.662C114.054 105.644 113.994 102.601 114.212 99.5723Z" fill="#7416B2"/>
<path d="M114.392 108.662L123.262 117.842C123.477 119.338 123.852 120.807 124.382 122.222L115.522 113.042C114.984 111.629 114.605 110.16 114.392 108.662Z" fill="#7416B2"/>
<path d="M177.442 2.90234L186.312 12.0723L185.602 27.9023L176.732 18.7223L177.442 2.90234Z" fill="#7416B2"/>
<path d="M176.732 18.7226L185.602 27.9026L155.522 27.5726L146.662 18.3926L176.732 18.7226Z" fill="#7416B2"/>
<path d="M146.662 18.3926L155.522 27.5726L154.142 58.4226L145.282 49.2526L146.662 18.3926Z" fill="#7416B2"/>
<path d="M169.182 49.5117L178.052 58.6917L177.342 74.5117L168.482 65.3417L169.182 49.5117Z" fill="#7416B2"/>
<path d="M168.482 65.3423L177.342 74.5123L153.442 74.2523L144.572 65.0723L168.482 65.3423Z" fill="#7416B2"/>
<path d="M144.572 65.0723L153.442 74.2523L151.992 106.692L143.122 97.5223L144.572 65.0723Z" fill="#7416B2"/>
<path d="M172.492 113.672L181.352 122.852L133.872 122.332L125.012 113.152L172.492 113.672Z" fill="#7416B2"/>
<path d="M173.192 97.8516L182.062 107.022L181.352 122.852L172.492 113.672L173.192 97.8516Z" fill="#7416B2"/>
<path d="M201.182 3.16211L210.052 12.3321L215.492 99.7921L206.622 90.6121L201.182 3.16211Z" fill="#7416B2"/>
<path d="M224.512 55.1816L233.382 64.3616L224.412 123.322L215.542 114.152L224.512 55.1816Z" fill="#7416B2"/>
<path d="M215.542 114.153L224.412 123.323L200.512 123.063L191.642 113.883L215.542 114.153Z" fill="#7416B2"/>
<path d="M235.692 3.54297L244.562 12.713L249.332 100.803L240.462 91.623L235.692 3.54297Z" fill="#7416B2"/>
<path d="M268.612 3.90234L277.482 13.0823L260.182 123.722L251.322 114.542L268.612 3.90234Z" fill="#7416B2"/>
<path d="M251.322 114.543L260.182 123.723L237.072 123.463L228.212 114.293L251.322 114.543Z" fill="#7416B2"/>
<path d="M29.8322 0.00265122C46.9222 0.192651 55.3422 10.4228 54.5522 28.1428L54.0622 38.9026L37.6022 38.7226L38.1322 26.8527C38.4822 18.9427 35.1322 15.8527 29.6022 15.8527C24.0722 15.8527 20.4422 18.7626 20.0922 26.6726L17.4122 86.4926C17.0622 94.4026 20.4122 97.2928 25.9522 97.3528C31.4922 97.4128 35.1022 94.6026 35.4522 86.6926L36.1622 70.8628L52.6322 71.0427L51.9722 85.7727C51.1822 103.493 41.8622 113.523 24.7622 113.333C7.66218 113.143 -0.74784 102.913 0.0521598 85.1926L2.62217 27.5827C3.41217 9.84273 12.7322 -0.187349 29.8322 0.00265122Z" fill="white"/>
<path d="M114.212 99.572C113.972 104.952 113.962 108.912 115.522 113.042L97.7822 112.852C96.9622 109.992 96.4022 108.242 96.7822 99.2219L97.5622 81.812C98.0222 71.532 94.7122 67.6921 86.7922 67.6121L80.7922 67.542L78.7922 112.642L61.3822 112.452L66.3822 1.67188L92.6622 1.96191C110.712 2.16191 118.082 10.6319 117.322 27.7219L116.932 36.4319C116.422 47.8219 112.452 55.222 104.532 58.772C113.072 62.512 115.532 70.9319 115.032 82.4819L114.212 99.572ZM99.2922 40.1919L99.7822 29.272C100.132 21.362 97.6022 17.852 91.4322 17.782L83.0422 17.6919L81.5222 51.6919L88.3222 51.772C94.8122 51.842 98.8922 49.0319 99.3222 40.1719" fill="white"/>
<path d="M177.442 2.90109L176.732 18.7211L146.662 18.3911L145.282 49.2511L169.182 49.5111L168.482 65.3411L144.572 65.0711L143.122 97.5211L173.192 97.8511L172.492 113.671L125.012 113.151L129.962 2.37109L177.442 2.90109Z" fill="white"/>
<path d="M268.612 3.90266L251.322 114.543L228.212 114.293L224.512 55.1827L215.542 114.153L191.642 113.883L184.242 2.97266L201.182 3.16266L206.622 90.6127L218.912 3.35266L235.692 3.54266L240.462 91.6227L253.422 3.73266L268.612 3.90266Z" fill="white"/>
</svg>
