<svg width="240" height="101" viewBox="0 0 240 101" fill="none" xmlns="http://www.w3.org/2000/svg">
<path d="M18.3519 0.154297L25.6318 7.55741L21.561 96.8867L14.281 89.4917L18.3519 0.154297Z" fill="#7416B2"/>
<path d="M14.281 89.4911L21.561 96.886L7.28001 96.7328L0 89.3379L14.281 89.4911Z" fill="#7416B2"/>
<path d="M38.9441 13.1476L46.2241 20.551L31.2866 20.3897L24.0066 12.9863L38.9441 13.1476Z" fill="#7416B2"/>
<path d="M68.7618 0.703125L76.0335 8.10629L75.459 20.8643L68.1791 13.4692L68.7618 0.703125Z" fill="#7416B2"/>
<path d="M68.179 13.4699L75.4589 20.8645L60.5214 20.7032L53.2415 13.3086L68.179 13.4699Z" fill="#7416B2"/>
<path d="M53.2413 13.3086L60.5214 20.7036L57.0332 97.2747L49.7532 89.8716L53.2413 13.3086Z" fill="#7416B2"/>
<path d="M49.7531 89.8739L57.0331 97.2771L42.744 97.1239L35.464 89.7207L49.7531 89.8739Z" fill="#7416B2"/>
<path d="M113.968 1.19336L121.248 8.58846L120.665 21.3545L113.385 13.9513L113.968 1.19336Z" fill="#7416B2"/>
<path d="M113.386 13.9497L120.666 21.3525L95.9775 21.0864L88.6975 13.6836L113.386 13.9497Z" fill="#7416B2"/>
<path d="M88.6976 13.6836L95.9777 21.0867L94.845 45.9734L87.5649 38.5703L88.6976 13.6836Z" fill="#7416B2"/>
<path d="M107.181 38.7812L114.461 46.1843L113.878 58.9421L106.606 51.5471L107.181 38.7812Z" fill="#7416B2"/>
<path d="M106.606 51.5476L113.878 58.9426L94.2621 58.733L86.9904 51.3379L106.606 51.5476Z" fill="#7416B2"/>
<path d="M86.9905 51.3379L94.2622 58.7329L93.0721 84.8936L85.8004 77.4905L86.9905 51.3379Z" fill="#7416B2"/>
<path d="M109.897 90.5209L117.177 97.9246L78.2003 97.5052L70.9203 90.1016L109.897 90.5209Z" fill="#7416B2"/>
<path d="M110.48 77.7637L117.76 85.1587L117.178 97.9246L109.897 90.5215L110.48 77.7637Z" fill="#7416B2"/>
<path d="M142.547 1.5L149.818 8.90313L157.459 72.4426L150.179 65.0476L142.547 1.5Z" fill="#7416B2"/>
<path d="M133.945 27.5801L141.225 34.9832L138.353 98.1516L131.073 90.7566L133.945 27.5801Z" fill="#7416B2"/>
<path d="M131.073 90.7562L138.353 98.1514L125.877 98.0223L118.597 90.6191L131.073 90.7562Z" fill="#7416B2"/>
<path d="M155.235 91.0143L162.507 98.4175L149.006 98.2723L141.726 90.8691L155.235 91.0143Z" fill="#7416B2"/>
<path d="M168.023 27.0566L175.303 34.4597L162.507 98.4182L155.235 91.0151L168.023 27.0566Z" fill="#7416B2"/>
<path d="M178.618 91.2741L185.898 98.6689L172.389 98.5238L165.109 91.1289L178.618 91.2741Z" fill="#7416B2"/>
<path d="M182.681 1.93555L189.961 9.33866L185.898 98.668L178.618 91.2729L182.681 1.93555Z" fill="#7416B2"/>
<path d="M217.029 15.7486L224.309 23.1519C223.657 22.5557 222.889 22.096 222.051 21.8007C221.213 21.5054 220.323 21.3807 219.434 21.4341C217.758 21.3292 216.098 21.8027 214.739 22.7727L207.459 15.3696C208.821 14.4005 210.484 13.9298 212.162 14.0389C213.049 13.9855 213.937 14.1095 214.774 14.4033C215.611 14.6972 216.378 15.1549 217.029 15.7486Z" fill="#7416B2"/>
<path d="M207.459 15.3379L214.739 22.7409C214.508 22.9199 214.291 23.1168 214.091 23.3296L206.819 15.9266C207.016 15.714 207.23 15.5172 207.459 15.3379Z" fill="#7416B2"/>
<path d="M206.819 15.9277L214.091 23.331C213.916 23.5191 213.754 23.7184 213.606 23.9277L206.359 16.5568C206.51 16.3451 206.675 16.1431 206.852 15.952" fill="#7416B2"/>
<path d="M206.359 16.5547L213.639 23.9498C213.48 24.172 213.335 24.4036 213.204 24.6433L205.924 17.2482C206.051 17.0064 206.196 16.7746 206.359 16.5547Z" fill="#7416B2"/>
<path d="M205.892 17.2246L213.171 24.62C213.015 24.9037 212.878 25.1974 212.761 25.499L205.481 18.1037C205.6 17.8029 205.737 17.5093 205.892 17.2246Z" fill="#7416B2"/>
<path d="M205.481 18.1035L212.761 25.4989C212.597 25.9121 212.46 26.3351 212.351 26.7651L205.071 19.3697C205.179 18.9392 205.316 18.5163 205.481 18.1035Z" fill="#7416B2"/>
<path d="M205.07 19.3711L212.35 26.7663C212.161 27.5242 212.032 28.2953 211.964 29.0728L204.684 21.6695C204.755 20.8951 204.884 20.1269 205.07 19.3711Z" fill="#7416B2"/>
<path d="M204.718 21.668L211.998 29.0709C211.965 29.4096 211.94 29.7644 211.924 30.1353C211.866 31.3219 211.935 32.5111 212.129 33.6836L204.849 26.2887C204.655 25.1136 204.586 23.9217 204.644 22.7325C204.644 22.3615 204.669 22.0067 204.718 21.668Z" fill="#7416B2"/>
<path d="M204.816 26.2891L212.096 33.6841C212.369 35.2695 212.87 36.809 213.582 38.2566L206.302 30.8535C205.589 29.4087 205.089 27.8719 204.816 26.2891Z" fill="#7416B2"/>
<path d="M206.302 30.8516L213.582 38.2546C214.564 40.1868 215.791 41.9888 217.234 43.6174L209.954 36.2143C208.509 34.5871 207.282 32.7848 206.302 30.8516Z" fill="#7416B2"/>
<path d="M209.954 36.2148L217.234 43.6182C217.956 44.4247 218.72 45.2795 219.524 46.094L212.252 38.6906C211.431 37.8842 210.676 37.0778 209.954 36.2148Z" fill="#7416B2"/>
<path d="M227.157 6.56445L234.429 13.9592C234.675 14.2092 234.905 14.4592 235.135 14.7656L227.855 7.36279C227.633 7.09667 227.395 6.84673 227.157 6.60481" fill="#7416B2"/>
<path d="M227.855 7.32422L235.135 14.7273C236.04 15.7877 236.806 16.9554 237.416 18.2031L230.136 10.7999C229.527 9.55223 228.76 8.38459 227.855 7.32422Z" fill="#7416B2"/>
<path d="M230.161 10.7988L237.441 18.202C238.41 20.2453 239.06 22.4202 239.37 24.6536L232.09 17.2584C231.784 15.0242 231.134 12.8487 230.161 10.8069" fill="#7416B2"/>
<path d="M232.065 17.2246L239.345 24.6196C239.663 26.8416 239.765 29.0882 239.649 31.3291L232.369 23.9342C232.489 21.6933 232.387 19.4462 232.065 17.2246Z" fill="#7416B2"/>
<path d="M232.369 23.9258L239.649 31.3289L239.518 34.1353L232.237 26.7322L232.369 23.9258Z" fill="#7416B2"/>
<path d="M232.237 26.7331L239.517 34.1362L226.008 33.9911L218.736 26.5879L232.237 26.7331Z" fill="#7416B2"/>
<path d="M208.428 55.1614L215.708 62.5645C213.286 60.1452 210.57 57.7259 207.993 55.0808L200.713 47.6777C203.29 50.2986 206.006 52.7018 208.428 55.1614Z" fill="#7416B2"/>
<path d="M201.533 64.5801L208.813 71.9833L208.526 78.3623L201.246 70.9591L201.533 64.5801Z" fill="#7416B2"/>
<path d="M201.246 70.959L208.526 78.3621C208.471 79.3744 208.513 80.3895 208.649 81.3943L201.377 73.9993C201.234 72.9924 201.19 71.9742 201.246 70.959Z" fill="#7416B2"/>
<path d="M201.377 73.9983L208.649 81.3936C208.772 82.2305 209.018 83.0454 209.38 83.813L202.1 76.4096C201.738 75.6428 201.495 74.8274 201.377 73.9902" fill="#7416B2"/>
<path d="M202.1 76.4492L209.38 83.8525C209.598 84.2917 209.874 84.701 210.2 85.0703L202.92 77.667C202.594 77.2977 202.318 76.8884 202.1 76.4492Z" fill="#7416B2"/>
<path d="M202.896 77.668L210.176 85.071C210.25 85.1597 210.332 85.2485 210.414 85.3291L203.134 77.926C203.052 77.8453 202.97 77.7567 202.896 77.668Z" fill="#7416B2"/>
<path d="M219.951 46.1758L227.231 53.5709C228.158 54.5145 229.061 55.4822 229.931 56.4902L222.651 49.087C221.781 48.0817 220.881 47.1113 219.951 46.1758Z" fill="#7416B2"/>
<path d="M222.651 49.0879L229.931 56.4912C231.899 58.7158 233.568 61.1795 234.897 63.8218L227.617 56.4186C226.285 53.7777 224.617 51.3142 222.651 49.0879Z" fill="#7416B2"/>
<path d="M227.616 56.418L234.897 63.821C236.107 66.269 236.936 68.8812 237.359 71.5708L230.079 64.1759C229.658 61.4834 228.828 58.8683 227.616 56.418Z" fill="#7416B2"/>
<path d="M230.071 64.1777L237.351 71.5727C237.663 73.63 237.767 75.7128 237.663 77.7903C237.663 78.4677 237.589 79.1371 237.523 79.7903L230.243 72.3952C230.309 71.7447 230.358 71.0754 230.391 70.3872C230.489 68.3121 230.382 66.2325 230.071 64.1777Z" fill="#7416B2"/>
<path d="M230.243 72.3926L237.523 79.7876C237.373 81.4184 237.099 83.0359 236.702 84.6262L229.422 77.2312C229.818 75.6407 230.093 74.0233 230.243 72.3926Z" fill="#7416B2"/>
<path d="M229.414 77.2656L236.694 84.6607C236.428 85.7358 236.088 86.792 235.676 87.822L228.405 80.4188C228.809 79.39 229.147 78.3369 229.414 77.2656Z" fill="#7416B2"/>
<path d="M228.405 80.416L235.676 87.8194C235.359 88.6492 234.986 89.4575 234.56 90.2388L227.288 82.8354C227.708 82.0508 228.08 81.243 228.405 80.416Z" fill="#7416B2"/>
<path d="M227.288 82.7969L234.56 90.1999C234.189 90.8856 233.775 91.5482 233.321 92.1838L226.057 84.7807C226.513 84.1444 226.93 83.482 227.305 82.7969" fill="#7416B2"/>
<path d="M226.057 84.7793L233.337 92.1826C232.886 92.8088 232.395 93.4068 231.868 93.9729L224.588 86.5777C225.118 86.0108 225.608 85.41 226.057 84.7793Z" fill="#7416B2"/>
<path d="M224.572 86.5762L231.852 93.9714C231.239 94.6297 230.572 95.2366 229.857 95.7859L222.585 88.3907C223.292 87.8347 223.956 87.2283 224.572 86.5762Z" fill="#7416B2"/>
<path d="M222.585 88.3944L229.857 95.7895C226.238 98.6201 221.379 100.08 215.346 100.015C208.723 99.9427 203.692 98.0718 200.286 94.6122L193.014 87.209C196.412 90.6686 201.443 92.5396 208.066 92.6122C214.099 92.6767 218.958 91.217 222.585 88.3944Z" fill="#7416B2"/>
<path d="M18.3518 0.153224L14.2809 89.4907L0 89.3375L4.06267 0L18.3518 0.153224Z" fill="white"/>
<path d="M68.7619 0.700409L68.1792 13.4663L53.2417 13.3051L49.7535 89.8684L35.4644 89.7152L38.9443 13.1438L24.0068 12.9825L24.5896 0.224609L68.7619 0.700409Z" fill="white"/>
<path d="M113.968 1.19304L113.386 13.9509L88.6976 13.6848L87.565 38.5715L107.181 38.7811L106.606 51.547L86.9904 51.3374L85.8004 77.4902L110.48 77.7644L109.897 90.5222L70.9203 90.1029L74.9912 0.765625L113.968 1.19304Z" fill="white"/>
<path d="M182.681 1.93447L178.618 91.2722L165.109 91.1271L168.022 27.0552L155.235 91.0142L141.726 90.869L133.945 27.5794L131.073 90.7561L118.597 90.619L122.668 1.28125L142.547 1.49899L150.18 65.0467L162.803 1.71673L182.681 1.93447Z" fill="white"/>
<path d="M212.351 1.23239C226.254 1.37755 233.017 9.62744 232.369 23.9256L232.245 26.7239L218.736 26.5788L218.9 22.8772C219.196 16.4983 216.701 14.0467 212.162 14.0064C207.623 13.9661 204.898 16.3532 204.611 22.7321C203.79 41.1109 231.548 44.8608 230.391 70.3846C229.734 84.6747 222.093 92.7634 208.066 92.6102C194.04 92.4569 187.129 84.2151 187.778 69.925L188.032 64.4331L201.533 64.5864L201.246 70.9572C200.959 77.3442 203.708 79.6748 208.255 79.7232C212.802 79.7716 215.773 77.5055 216.06 71.1185C216.881 52.7397 189.124 48.9978 190.289 23.474C190.938 9.17579 198.447 1.08723 212.351 1.23239Z" fill="white"/>
</svg>
