<svg width="502" height="235" viewBox="0 0 502 235" fill="none" xmlns="http://www.w3.org/2000/svg">
<path d="M175.92 5.84766L179.343 13.2223L197.169 69.9281L193.747 62.5535L175.92 5.84766Z" fill="#7416B2"/>
<path d="M171.284 32.5391L174.698 39.9137L176.977 109.38L173.554 102.006L171.284 32.5391Z" fill="#7416B2"/>
<path d="M173.554 102.002L176.976 109.377L162.995 109.99L159.581 102.616L173.554 102.002Z" fill="#7416B2"/>
<path d="M205.704 4.53906L209.118 11.9223L212.259 107.827L208.845 100.452L205.704 4.53906Z" fill="#7416B2"/>
<path d="M208.846 100.449L212.259 107.824L196.316 108.524L192.893 101.149L208.846 100.449Z" fill="#7416B2"/>
<path d="M257.934 2.24609L261.348 9.62072L261.797 23.3239L258.383 15.9492L257.934 2.24609Z" fill="#7416B2"/>
<path d="M258.383 15.9512L261.797 23.3258L236.245 24.4497L232.831 17.0751L258.383 15.9512Z" fill="#7416B2"/>
<path d="M232.831 17.0723L236.245 24.4468L237.196 53.3486L233.782 45.974L232.831 17.0723Z" fill="#7416B2"/>
<path d="M254.274 58.7949L257.688 66.1695L237.644 67.0514L234.23 59.6768L254.274 58.7949Z" fill="#7416B2"/>
<path d="M253.816 45.1016L257.239 52.4761L257.688 66.1792L254.274 58.8046L253.816 45.1016Z" fill="#7416B2"/>
<path d="M235.524 99.2773L238.938 106.652L223.408 107.335L219.994 99.9603L235.524 99.2773Z" fill="#7416B2"/>
<path d="M234.23 59.6816L237.644 67.0562L238.937 106.653L235.523 99.278L234.23 59.6816Z" fill="#7416B2"/>
<path d="M277.573 15.0879L280.995 22.4626L264.762 23.1802L261.339 15.8055L277.573 15.0879Z" fill="#7416B2"/>
<path d="M308.887 0L312.301 7.37462L312.75 21.0778L309.336 13.7031L308.887 0Z" fill="#7416B2"/>
<path d="M309.336 13.7051L312.75 21.0796L296.525 21.7886L293.102 14.414L309.336 13.7051Z" fill="#7416B2"/>
<path d="M293.102 14.4082L296.525 21.7828L299.209 103.993L295.795 96.6181L293.102 14.4082Z" fill="#7416B2"/>
<path d="M295.796 96.6172L299.209 103.992L283.68 104.675L280.266 97.3002L295.796 96.6172Z" fill="#7416B2"/>
<path d="M205.704 4.53906L208.846 100.452L192.893 101.152L171.283 32.5331L173.553 102L159.581 102.613L156.44 6.70908L175.92 5.85318L193.747 62.5589L191.873 5.15289L205.704 4.53906Z" fill="white"/>
<path d="M257.934 2.23828L258.383 15.9414L232.831 17.0653L233.782 45.9672L253.817 45.0853L254.274 58.7884L234.23 59.6703L235.524 99.2666L219.994 99.9496L216.853 4.04519L257.934 2.23828Z" fill="white"/>
<path d="M308.889 0L309.337 13.7031L293.103 14.412L295.796 96.6219L280.266 97.3049L277.573 15.095L261.34 15.8126L260.891 2.1095L308.889 0Z" fill="white"/>
<path d="M30.5984 146.175L34.0124 153.55C32.6662 150.636 30.1057 149.529 26.7181 149.676C24.7016 149.649 22.7505 150.379 21.2629 151.717L17.8401 144.351C19.3286 143.008 21.2834 142.275 23.3041 142.302C26.6829 142.155 29.2434 143.262 30.5984 146.175Z" fill="#7416B2"/>
<path d="M17.7958 144.354L21.2186 151.719C20.933 152.002 20.6766 152.312 20.4531 152.645L17.0303 145.27C17.2594 144.944 17.5154 144.638 17.7958 144.354Z" fill="#7416B2"/>
<path d="M17.0304 145.27L20.4532 152.644C20.2272 152.973 20.03 153.32 19.8637 153.681L16.4497 146.307C16.613 145.946 16.8072 145.599 17.0304 145.27Z" fill="#7416B2"/>
<path d="M16.4496 146.305L19.8635 153.679C19.6597 154.126 19.4948 154.589 19.3707 155.063L15.948 147.688C16.079 147.215 16.2467 146.753 16.4496 146.305Z" fill="#7416B2"/>
<path d="M15.9462 147.684L19.3689 155.058C19.1637 155.828 19.0312 156.616 18.973 157.41L15.5591 150.035C15.6102 149.241 15.7398 148.453 15.9462 147.684Z" fill="#7416B2"/>
<path d="M15.5611 150.035L18.975 157.41C18.939 158.101 18.939 158.793 18.975 159.485L15.5523 152.11C15.5308 151.418 15.5455 150.726 15.5962 150.035" fill="#7416B2"/>
<path d="M43.7972 139.739L47.22 147.113C47.9699 148.765 48.5449 150.489 48.9358 152.257L45.513 144.883C45.119 143.096 44.5289 141.357 43.7532 139.695" fill="#7416B2"/>
<path d="M45.5042 144.93L48.9269 152.304C49.4113 154.54 49.6852 156.815 49.7452 159.1L46.3313 151.725C46.264 149.44 45.9871 147.166 45.5042 144.93Z" fill="#7416B2"/>
<path d="M46.3315 151.723L49.7544 159.097L50.0535 168.408L46.6395 161.034L46.3315 151.723Z" fill="#7416B2"/>
<path d="M46.6393 161.031L50.0532 168.406L35.368 169.046L31.9541 161.671L46.6393 161.031Z" fill="#7416B2"/>
<path d="M15.5266 152.109L18.9406 159.484L20.6389 211.279L17.216 203.904L15.5266 152.109Z" fill="#7416B2"/>
<path d="M17.2162 203.908L20.6301 211.274C20.6578 212.329 20.7844 213.38 21.0084 214.412L17.5857 207.038C17.3654 206.008 17.2417 204.96 17.2162 203.908Z" fill="#7416B2"/>
<path d="M17.5859 207.031L21.0087 214.406C21.1558 215.099 21.38 215.775 21.6774 216.42L18.2546 209.046C17.9612 208.399 17.7371 207.724 17.5859 207.031Z" fill="#7416B2"/>
<path d="M47.5457 188.844L50.9685 196.218L51.382 208.962L47.9592 201.587L47.5457 188.844Z" fill="#7416B2"/>
<path d="M47.9589 201.574L51.373 208.949C51.426 210.39 51.3996 211.833 51.2939 213.271L47.871 205.897C47.9797 204.459 48.0091 203.016 47.9589 201.574Z" fill="#7416B2"/>
<path d="M47.8709 205.918L51.2937 213.293C51.154 215.158 50.8418 217.007 50.361 218.817L46.947 211.442C47.4291 209.633 47.7384 207.784 47.8709 205.918Z" fill="#7416B2"/>
<path d="M46.9468 211.492L50.3607 218.867C50.0291 220.108 49.5936 221.319 49.0585 222.489L45.6357 215.115C46.1738 213.945 46.6123 212.733 46.9468 211.492Z" fill="#7416B2"/>
<path d="M45.6361 215.061L49.059 222.435C48.5972 223.431 48.0528 224.388 47.4312 225.297L44.0171 217.922C44.6376 217.015 45.1792 216.057 45.6361 215.061Z" fill="#7416B2"/>
<path d="M44.0164 217.934L47.4304 225.308C46.7764 226.266 46.031 227.161 45.2043 227.98L41.7815 220.605C42.6109 219.786 43.3593 218.892 44.0164 217.934Z" fill="#7416B2"/>
<path d="M41.7819 220.604L45.2047 227.978C41.4652 231.67 36.0539 233.779 29.0148 234.091C18.3682 234.557 11.162 230.632 7.60729 222.929L4.20215 215.555C7.72168 223.215 14.9631 227.183 25.6008 226.716C32.6399 226.405 38.0512 224.295 41.7907 220.604" fill="#7416B2"/>
<path d="M85.0383 143.787L88.461 151.162C87.106 148.24 84.5455 147.133 81.158 147.28C79.1415 147.253 77.1904 147.982 75.7028 149.32L72.2888 141.946C73.7765 140.608 75.7275 139.878 77.744 139.905C81.1228 139.758 83.692 140.865 85.0383 143.787Z" fill="#7416B2"/>
<path d="M72.2884 141.945L75.7024 149.32C75.4194 149.605 75.1632 149.915 74.9369 150.245L71.5229 142.87C71.7465 142.538 72.0029 142.228 72.2884 141.945Z" fill="#7416B2"/>
<path d="M71.5231 142.873L74.9371 150.248C74.7141 150.574 74.5198 150.918 74.3563 151.276L70.9336 143.902C71.0999 143.543 71.2972 143.199 71.5231 142.873Z" fill="#7416B2"/>
<path d="M70.9331 143.902L74.356 151.277C74.1531 151.725 73.9854 152.187 73.8545 152.66L70.4404 145.286C70.5645 144.812 70.7293 144.349 70.9331 143.902Z" fill="#7416B2"/>
<path d="M70.4399 145.283L73.8538 152.658C73.6482 153.431 73.5185 154.221 73.4666 155.018L70.0439 147.643C70.1029 146.847 70.2355 146.057 70.4399 145.283Z" fill="#7416B2"/>
<path d="M70.0448 147.639L73.4676 155.013C73.4315 155.704 73.4315 156.397 73.4676 157.088L70.0536 149.714C70.0176 149.022 70.0176 148.33 70.0536 147.639" fill="#7416B2"/>
<path d="M99.1599 137.625L102.574 145C103.348 146.647 103.938 148.372 104.334 150.144L100.911 142.769C100.531 140.986 99.9589 139.247 99.2038 137.582" fill="#7416B2"/>
<path d="M100.867 142.77L104.29 150.144C104.755 152.289 105.02 154.471 105.082 156.663L101.659 149.288C101.598 147.096 101.332 144.914 100.867 142.77Z" fill="#7416B2"/>
<path d="M70.0095 149.719L73.4322 157.093L75.1215 208.888L71.7077 201.514L70.0095 149.719Z" fill="#7416B2"/>
<path d="M71.7073 201.52L75.1211 208.886C75.1446 209.95 75.2713 211.009 75.4995 212.05L72.0769 204.675C71.8524 203.637 71.7286 202.581 71.7073 201.52Z" fill="#7416B2"/>
<path d="M72.0769 204.674L75.4996 212.048C75.6497 212.759 75.8768 213.452 76.1771 214.115L72.7632 206.74C72.4626 206.076 72.2326 205.384 72.0769 204.674Z" fill="#7416B2"/>
<path d="M101.668 149.291L105.082 156.666L106.718 206.533L103.295 199.158L101.668 149.291Z" fill="#7416B2"/>
<path d="M103.295 199.158L106.709 206.533C106.754 207.917 106.727 209.302 106.63 210.683L103.207 203.308C103.312 201.927 103.342 200.542 103.295 199.158Z" fill="#7416B2"/>
<path d="M103.207 203.309L106.63 210.683C106.507 212.519 106.213 214.339 105.75 216.121L102.327 208.747C102.794 206.965 103.089 205.144 103.207 203.309Z" fill="#7416B2"/>
<path d="M102.291 208.751L105.714 216.125C105.376 217.368 104.937 218.582 104.403 219.756L100.989 212.373C101.532 211.203 101.971 209.988 102.3 208.742" fill="#7416B2"/>
<path d="M100.989 212.363L104.412 219.738C103.94 220.753 103.387 221.73 102.758 222.66L99.3351 215.285C99.9706 214.36 100.524 213.382 100.989 212.363Z" fill="#7416B2"/>
<path d="M99.3267 215.291L102.749 222.666C102.077 223.65 101.307 224.568 100.453 225.406L97.0391 218.032C97.8908 217.194 98.6569 216.276 99.3267 215.291Z" fill="#7416B2"/>
<path d="M97.0386 218.044L100.453 225.418C96.6163 229.214 91.0554 231.375 83.9196 231.695C73.1498 232.162 65.6973 228.116 62.0634 220.283L58.6494 212.908C62.2745 220.741 69.7359 224.787 80.5056 224.32C87.6327 224 93.1936 221.839 97.0386 218.044Z" fill="#7416B2"/>
<path d="M126.454 125.148L129.868 132.523L132.56 214.733L129.146 207.358L126.454 125.148Z" fill="#7416B2"/>
<path d="M154.698 206.232L158.112 213.607L158.561 227.31L155.147 219.935L154.698 206.232Z" fill="#7416B2"/>
<path d="M155.147 219.936L158.561 227.31L117.488 229.108L114.074 221.734L155.147 219.936Z" fill="#7416B2"/>
<path d="M174.302 123.043L177.725 130.418L180.417 212.619L176.994 205.244L174.302 123.043Z" fill="#7416B2"/>
<path d="M202.546 204.125L205.969 211.5L206.418 225.203L202.995 217.828L202.546 204.125Z" fill="#7416B2"/>
<path d="M202.995 217.828L206.418 225.203L165.336 227.01L161.913 219.635L202.995 217.828Z" fill="#7416B2"/>
<path d="M248.977 119.754L252.4 127.129L252.84 140.832L249.426 133.457L248.977 119.754Z" fill="#7416B2"/>
<path d="M249.427 133.459L252.841 140.834L226.022 142.018L222.608 134.643L249.427 133.459Z" fill="#7416B2"/>
<path d="M222.608 134.637L226.022 142.011L226.893 168.726L223.479 161.351L222.608 134.637Z" fill="#7416B2"/>
<path d="M244.789 160.41L248.212 167.785L248.661 181.488L245.238 174.113L244.789 160.41Z" fill="#7416B2"/>
<path d="M245.238 174.121L248.661 181.496L227.341 182.429L223.927 175.055L245.238 174.121Z" fill="#7416B2"/>
<path d="M223.927 175.049L227.341 182.423L228.265 210.513L224.851 203.138L223.927 175.049Z" fill="#7416B2"/>
<path d="M252.119 215.664L255.533 223.039L213.184 224.897L209.77 217.523L252.119 215.664Z" fill="#7416B2"/>
<path d="M251.67 201.961L255.084 209.336L255.533 223.039L252.119 215.664L251.67 201.961Z" fill="#7416B2"/>
<path d="M288.582 134.832L291.995 142.198C290.649 139.284 288.089 138.178 284.71 138.325C282.689 138.298 280.735 139.031 279.246 140.374L275.832 132.999C277.318 131.658 279.27 130.925 281.287 130.95C284.675 130.803 287.227 131.919 288.582 134.832Z" fill="#7416B2"/>
<path d="M275.832 133.002L279.246 140.376C278.96 140.656 278.704 140.963 278.48 141.293L275.058 133.918C275.287 133.591 275.546 133.284 275.832 133.002Z" fill="#7416B2"/>
<path d="M275.057 133.918L278.48 141.292C278.255 141.618 278.061 141.962 277.899 142.321L274.477 134.947C274.645 134.591 274.839 134.247 275.057 133.918Z" fill="#7416B2"/>
<path d="M274.476 134.945L277.899 142.32C277.69 142.765 277.522 143.228 277.398 143.703L273.975 136.329C274.107 135.856 274.275 135.394 274.476 134.945Z" fill="#7416B2"/>
<path d="M273.975 136.328L277.397 143.703C277.192 144.476 277.062 145.266 277.01 146.063L273.588 138.688C273.648 137.892 273.778 137.103 273.975 136.328Z" fill="#7416B2"/>
<path d="M273.588 138.684L277.011 146.058C276.97 146.749 276.97 147.442 277.011 148.133L273.597 140.759C273.557 140.067 273.557 139.375 273.597 138.684" fill="#7416B2"/>
<path d="M301.823 128.434L305.237 135.808C305.99 137.46 306.565 139.184 306.953 140.952L303.53 133.578C303.15 131.794 302.578 130.055 301.823 128.391" fill="#7416B2"/>
<path d="M303.53 133.588L306.953 140.962C307.438 143.198 307.712 145.473 307.771 147.758L304.358 140.383C304.3 138.098 304.023 135.822 303.53 133.588Z" fill="#7416B2"/>
<path d="M304.357 140.373L307.78 147.748L308.079 157.059L304.665 149.684L304.357 140.373Z" fill="#7416B2"/>
<path d="M304.665 149.686L308.079 157.06L293.394 157.708L289.98 150.334L304.665 149.686Z" fill="#7416B2"/>
<path d="M273.553 140.764L276.976 148.138L278.665 199.934L275.251 192.559L273.553 140.764Z" fill="#7416B2"/>
<path d="M275.207 192.557L278.63 199.931C278.651 200.987 278.775 202.037 278.999 203.07L275.576 195.695C275.361 194.661 275.237 193.611 275.207 192.557Z" fill="#7416B2"/>
<path d="M275.612 195.693L279.035 203.068C279.186 203.76 279.41 204.436 279.703 205.082L276.281 197.708C275.991 197.059 275.767 196.385 275.612 195.693Z" fill="#7416B2"/>
<path d="M305.572 177.508L308.995 184.882L309.408 197.617L305.994 190.243L305.572 177.508Z" fill="#7416B2"/>
<path d="M306.003 190.232L309.426 197.607C309.472 199.049 309.442 200.491 309.338 201.93L305.924 194.555C306.03 193.117 306.056 191.674 306.003 190.232Z" fill="#7416B2"/>
<path d="M305.906 194.574L309.32 201.949C309.202 203.813 308.908 205.663 308.44 207.473L305.017 200.099C305.498 198.289 305.811 196.44 305.949 194.574" fill="#7416B2"/>
<path d="M304.973 200.1L308.396 207.474C308.057 208.714 307.619 209.925 307.085 211.097L303.662 203.722C304.2 202.552 304.638 201.341 304.973 200.1Z" fill="#7416B2"/>
<path d="M303.662 203.703L307.085 211.078C306.623 212.077 306.078 213.037 305.457 213.948L302.043 206.573C302.661 205.662 303.203 204.702 303.662 203.703Z" fill="#7416B2"/>
<path d="M302.043 206.592L305.457 213.966C304.803 214.922 304.057 215.813 303.231 216.629L299.817 209.255C300.641 208.437 301.386 207.545 302.043 206.592Z" fill="#7416B2"/>
<path d="M299.843 209.25L303.257 216.625C299.518 220.316 294.106 222.426 287.067 222.737C276.421 223.204 269.215 219.279 265.669 211.576L262.246 204.201C265.765 211.87 273.007 215.829 283.653 215.363C290.692 215.051 296.104 212.942 299.843 209.25Z" fill="#7416B2"/>
<path d="M325.228 130.133L328.642 137.507L312.408 138.216L308.986 130.85L325.228 130.133Z" fill="#7416B2"/>
<path d="M356.534 115.045L359.948 122.42L360.397 136.123L356.983 128.739L356.534 115.045Z" fill="#7416B2"/>
<path d="M356.983 128.734L360.397 136.118L344.163 136.827L340.749 129.452L356.983 128.734Z" fill="#7416B2"/>
<path d="M340.749 129.453L344.163 136.828L346.856 219.029L343.442 211.654L340.749 129.453Z" fill="#7416B2"/>
<path d="M343.442 211.66L346.856 219.035L331.335 219.718L327.921 212.343L343.442 211.66Z" fill="#7416B2"/>
<path d="M378.839 114.057L382.253 121.431L385.394 217.336L381.98 209.961L378.839 114.057Z" fill="#7416B2"/>
<path d="M381.98 209.959L385.394 217.334L369.864 218.017L366.45 210.642L381.98 209.959Z" fill="#7416B2"/>
<path d="M420.131 129.051L423.545 136.426C422.199 133.513 419.639 132.397 416.26 132.553C414.241 132.523 412.286 133.253 410.796 134.593L407.382 127.219C408.87 125.881 410.821 125.151 412.837 125.178C416.225 125.023 418.776 126.138 420.131 129.051Z" fill="#7416B2"/>
<path d="M407.382 127.217L410.796 134.591C410.513 134.877 410.257 135.186 410.03 135.516L406.616 128.142C406.84 127.81 407.096 127.5 407.382 127.217Z" fill="#7416B2"/>
<path d="M406.617 128.145L410.031 135.519C409.804 135.843 409.61 136.188 409.45 136.548L406.027 129.173C406.194 128.815 406.391 128.47 406.617 128.145Z" fill="#7416B2"/>
<path d="M406.027 129.172L409.45 136.546C409.239 136.991 409.071 137.454 408.948 137.93L405.526 130.555C405.656 130.082 405.824 129.62 406.027 129.172Z" fill="#7416B2"/>
<path d="M405.525 130.557L408.948 137.931C408.742 138.704 408.612 139.495 408.561 140.292L405.138 132.917C405.198 132.121 405.328 131.331 405.525 130.557Z" fill="#7416B2"/>
<path d="M405.138 132.91L408.561 140.285C408.52 140.976 408.52 141.669 408.561 142.36L405.147 134.985C405.107 134.294 405.107 133.601 405.147 132.91" fill="#7416B2"/>
<path d="M434.245 122.889L437.668 130.263C438.422 131.929 438.997 133.668 439.383 135.451L435.96 128.076C435.568 126.289 434.978 124.55 434.201 122.889" fill="#7416B2"/>
<path d="M435.961 128.034L439.383 135.409C439.846 137.556 440.108 139.741 440.167 141.936L436.752 134.553C436.692 132.358 436.427 130.173 435.961 128.025" fill="#7416B2"/>
<path d="M405.103 134.99L408.526 142.365L410.215 194.151L406.801 186.777L405.103 134.99Z" fill="#7416B2"/>
<path d="M406.793 186.783L410.216 194.158C410.241 195.218 410.365 196.275 410.585 197.313L407.171 189.939C406.947 188.9 406.821 187.844 406.793 186.783Z" fill="#7416B2"/>
<path d="M407.189 189.938L410.603 197.312C410.76 198.022 410.99 198.714 411.29 199.378L407.867 192.004C407.573 191.338 407.346 190.646 407.189 189.938Z" fill="#7416B2"/>
<path d="M436.752 134.564L440.175 141.939L441.803 191.806L438.389 184.432L436.752 134.564Z" fill="#7416B2"/>
<path d="M438.381 184.424L441.804 191.798C441.85 193.182 441.821 194.568 441.716 195.948L438.302 188.574C438.408 187.193 438.435 185.807 438.381 184.424Z" fill="#7416B2"/>
<path d="M438.302 188.574L441.716 195.949C441.598 197.785 441.303 199.606 440.836 201.387L437.413 194.012C437.876 192.23 438.171 190.41 438.293 188.574" fill="#7416B2"/>
<path d="M437.387 194.01L440.809 201.384C440.473 202.629 440.032 203.843 439.49 205.016L436.076 197.641C436.615 196.469 437.054 195.254 437.387 194.01Z" fill="#7416B2"/>
<path d="M436.076 197.656L439.49 205.031C439.024 206.05 438.471 207.028 437.835 207.953L434.421 200.578C435.054 199.651 435.607 198.673 436.076 197.656Z" fill="#7416B2"/>
<path d="M434.465 200.557L437.88 207.931C437.207 208.914 436.441 209.832 435.592 210.672L432.178 203.297C433.029 202.459 433.796 201.541 434.465 200.557Z" fill="#7416B2"/>
<path d="M432.134 203.304L435.548 210.679C431.711 214.466 426.15 216.636 419.023 216.947C408.254 217.422 400.783 213.368 397.158 205.535L393.736 198.16C397.37 205.993 404.831 210.048 415.601 209.572C422.737 209.261 428.289 207.091 432.134 203.304Z" fill="#7416B2"/>
<path d="M465.367 110.246L468.781 117.621L486.607 174.326L483.193 166.952L465.367 110.246Z" fill="#7416B2"/>
<path d="M460.722 136.939L464.144 144.314L466.415 213.781L462.992 206.406L460.722 136.939Z" fill="#7416B2"/>
<path d="M462.992 206.402L466.414 213.777L452.442 214.391L449.019 207.016L462.992 206.402Z" fill="#7416B2"/>
<path d="M495.142 108.939L498.565 116.314L501.706 212.219L498.284 204.844L495.142 108.939Z" fill="#7416B2"/>
<path d="M498.284 204.842L501.707 212.216L485.754 212.917L482.34 205.542L498.284 204.842Z" fill="#7416B2"/>
<path d="M22.3899 128.621C37.6295 127.955 45.8212 136.401 46.3315 151.713L46.6307 161.033L31.9455 161.672L31.6111 151.401C31.3823 144.546 28.1972 142.082 23.261 142.298C18.3249 142.514 15.298 145.254 15.518 152.11L17.2162 203.905C17.4362 210.753 20.6301 213.078 25.5663 212.862C30.5024 212.646 33.4852 210.044 33.3092 203.197L32.8605 189.493L47.5458 188.845L47.9593 201.58C48.4608 216.934 40.8411 226.047 25.5927 226.721C10.3443 227.395 2.16134 218.94 1.65101 203.62L0.0232436 153.753C-0.47829 138.399 7.14154 129.295 22.3899 128.621Z" fill="white"/>
<path d="M77.2945 126.203C92.5341 125.537 101.157 133.932 101.659 149.278L103.295 199.145C103.797 214.499 95.7457 223.629 80.5061 224.303C65.2665 224.978 56.6437 216.522 56.1422 201.22L54.5145 151.353C54.0041 135.998 62.0462 126.877 77.2945 126.203ZM87.7916 200.796L86.1022 149.001C85.8734 142.145 82.6794 139.681 77.7433 139.897C72.8071 140.113 69.8244 142.854 70.0092 149.71L71.7073 201.505C71.9273 208.352 75.1124 210.816 80.0574 210.6C85.0023 210.384 87.9763 207.643 87.7916 200.796Z" fill="white"/>
<path d="M126.454 125.148L129.146 207.358L154.698 206.234L155.147 219.938L114.074 221.736L110.933 125.831L126.454 125.148Z" fill="white"/>
<path d="M174.301 123.051L176.994 205.252L202.546 204.128L202.994 217.831L161.913 219.638L158.771 123.734L174.301 123.051Z" fill="white"/>
<path d="M248.977 119.758L249.426 133.461L222.607 134.645L223.478 161.36L244.789 160.418L245.238 174.121L223.927 175.054L224.851 203.144L251.67 201.968L252.118 215.671L209.77 217.53L206.628 121.625L248.977 119.758Z" fill="white"/>
<path d="M280.416 117.258C295.664 116.584 303.856 125.039 304.358 140.35L304.665 149.661L289.98 150.31L289.637 140.039C289.417 133.183 286.232 130.711 281.287 130.927C276.342 131.143 273.324 133.883 273.553 140.739L275.207 192.56C275.436 199.408 278.612 201.733 283.566 201.517C288.52 201.301 291.485 198.699 291.3 191.852L290.851 178.148L305.537 177.5L305.95 190.243C306.452 205.589 298.832 214.71 283.592 215.376C268.353 216.042 260.152 207.595 259.651 192.275L258.014 142.408C257.548 127.062 265.168 117.95 280.416 117.258Z" fill="white"/>
<path d="M356.535 115.041L356.983 128.735L340.75 129.453L343.442 211.654L327.921 212.337L325.228 130.136L308.986 130.854L308.537 117.151L356.535 115.041Z" fill="white"/>
<path d="M378.839 114.051L381.98 209.955L366.45 210.638L363.309 114.734L378.839 114.051Z" fill="white"/>
<path d="M412.389 111.481C427.638 110.807 436.252 119.202 436.753 134.556L438.381 184.423C438.883 199.769 430.849 208.907 415.601 209.573C400.353 210.239 391.739 201.844 391.237 186.489L389.592 136.622C389.099 121.276 397.15 112.147 412.389 111.481ZM422.886 186.066L421.188 134.279C420.968 127.423 417.783 124.959 412.838 125.176C407.893 125.392 404.875 128.132 405.104 134.988L406.793 186.775C407.022 193.622 410.216 196.086 415.152 195.87C420.088 195.654 423.071 192.913 422.886 186.066Z" fill="white"/>
<path d="M495.142 108.939L498.283 204.844L482.34 205.544L460.721 136.934L462.991 206.4L449.019 207.014L445.886 111.101L465.367 110.245L483.193 166.951L481.31 109.545L495.142 108.939Z" fill="white"/>
</svg>
