<svg width="302" height="192" viewBox="0 0 302 192" fill="none" xmlns="http://www.w3.org/2000/svg">
<path d="M130.301 20.7281L127.437 28.8516C127.577 23.3752 125.154 21.1482 121.225 21.0151C118.879 20.9101 117.023 21.5684 115.903 23.2772L118.767 15.1536C119.901 13.4448 121.75 12.7866 124.089 12.8916C128.018 13.0597 130.441 15.2517 130.301 20.7281Z" fill="#7416B2"/>
<path d="M118.767 15.1816L115.902 23.3051C115.613 23.7416 115.377 24.212 115.202 24.7058L118.066 16.5822C118.242 16.0885 118.477 15.6181 118.767 15.1816Z" fill="#7416B2"/>
<path d="M105.111 20.4067L102.247 28.5303C102.279 25.8631 102.726 23.2171 103.57 20.6868L106.434 12.5703C105.59 15.098 105.143 17.7417 105.111 20.4067Z" fill="#7416B2"/>
<path d="M129.243 62.1386L126.372 70.2621L127.437 28.8462L130.301 20.7227L129.243 62.1386Z" fill="#7416B2"/>
<path d="M128.641 65.7421L125.77 73.8657C126.153 72.7018 126.349 71.4844 126.351 70.2591L129.215 62.1426C129.211 63.3649 129.017 64.5792 128.641 65.7421Z" fill="#7416B2"/>
<path d="M104.088 60.2835L101.224 68.407L102.247 28.5247L105.111 20.4082L104.088 60.2835Z" fill="#7416B2"/>
<path d="M140.287 69.75L137.423 77.8735C136.957 79.2137 136.326 80.4909 135.546 81.6761L138.41 73.5526C139.19 72.3674 139.821 71.0902 140.287 69.75Z" fill="#7416B2"/>
<path d="M138.445 73.5539L135.581 81.6774C132.416 86.4185 126.981 88.8275 119.53 88.5054C107.401 87.9732 100.944 80.683 101.259 68.4067L104.123 60.2832C103.808 72.5595 110.265 79.8497 122.394 80.3819C129.845 80.704 135.28 78.281 138.445 73.5539Z" fill="#7416B2"/>
<path d="M81.2163 35.9249L78.3521 44.0484L88.6815 9.50243L91.5458 1.37891L81.2163 35.9249Z" fill="#7416B2"/>
<path d="M74.0594 51.9555L71.1951 60.079L56.8879 8.12352L59.7522 0L74.0594 51.9555Z" fill="#7416B2"/>
<path d="M85.7613 77.9084L82.897 86.0319L70.5437 85.4927L73.4079 77.3691L85.7613 77.9084Z" fill="#7416B2"/>
<path d="M73.4079 77.3691L70.5437 85.4926L71.195 60.0786L74.0592 51.9551L73.4079 77.3691Z" fill="#7416B2"/>
<path d="M174.168 64.2046L171.304 72.3281L172.816 13.1595L175.681 5.04297L174.168 64.2046Z" fill="#7416B2"/>
<path d="M173.594 67.7606L170.729 75.8842C171.108 74.7362 171.301 73.5354 171.304 72.3266L174.161 64.2031C174.159 65.4119 173.965 66.6126 173.587 67.7606" fill="#7416B2"/>
<path d="M149.027 62.3487L146.163 70.4652L147.655 12.0669L150.519 3.94336L149.027 62.3487Z" fill="#7416B2"/>
<path d="M184.519 71.998L181.647 80.1216C181.19 81.4527 180.566 82.7209 179.792 83.8962L182.656 75.7727C183.431 74.5969 184.057 73.3289 184.519 71.998Z" fill="#7416B2"/>
<path d="M182.656 75.7745L179.791 83.898C176.71 88.527 171.437 90.901 164.084 90.5508C151.954 90.0256 145.876 82.7354 146.163 70.4731L149.027 62.3496C148.712 74.6189 154.818 81.9021 166.948 82.4273C174.301 82.7495 179.553 80.4035 182.656 75.7745Z" fill="#7416B2"/>
<path d="M213.812 17.6673L210.947 25.7838L204.995 25.5247L207.859 17.4082L213.812 17.6673Z" fill="#7416B2"/>
<path d="M219.904 25.8284L217.04 33.952C217.18 28.4756 215.331 25.9825 210.948 25.7934L213.812 17.6699C218.196 17.859 220.044 20.359 219.904 25.8284Z" fill="#7416B2"/>
<path d="M219.708 33.3895L216.844 41.513L217.04 33.9497L219.905 25.8262L219.708 33.3895Z" fill="#7416B2"/>
<path d="M219.099 37.2423L216.235 45.3588C216.638 44.1171 216.844 42.8197 216.844 41.5141L219.68 33.3906C219.679 34.6961 219.473 35.9933 219.071 37.2353" fill="#7416B2"/>
<path d="M230.92 38.6133L228.056 46.7369C227.668 47.8648 227.141 48.9399 226.487 49.9372L229.351 41.8137C230.005 40.8164 230.532 39.7412 230.92 38.6133Z" fill="#7416B2"/>
<path d="M229.351 41.793L226.487 49.9165C225.1 51.9887 223.11 53.5851 220.787 54.4895L223.651 46.373C225.974 45.4636 227.963 43.8654 229.351 41.793Z" fill="#7416B2"/>
<path d="M211.249 52.109L208.384 60.2255L204.113 60.0434L206.977 51.9199L211.249 52.109Z" fill="#7416B2"/>
<path d="M219.085 62.2078L216.221 70.3313C216.403 63.2092 213.994 60.471 208.385 60.2329L211.249 52.1094C216.851 52.3545 219.267 55.0857 219.085 62.2078Z" fill="#7416B2"/>
<path d="M218.777 74.2612L215.913 82.3847L216.221 70.3325L219.085 62.209L218.777 74.2612Z" fill="#7416B2"/>
<path d="M232.237 84.2748L229.373 92.3983L216.795 91.852L219.659 83.7285L232.237 84.2748Z" fill="#7416B2"/>
<path d="M219.68 83.7329L216.816 91.8494C216.193 89.8536 215.773 88.621 215.934 82.3813L218.798 74.2578C218.637 80.5045 219.057 81.7301 219.68 83.7329Z" fill="#7416B2"/>
<path d="M206.179 83.1467L203.314 91.2632L190.961 90.7309L193.825 82.6074L206.179 83.1467Z" fill="#7416B2"/>
<path d="M193.825 82.6074L190.961 90.7309L192.929 14.0337L195.793 5.91016L193.825 82.6074Z" fill="#7416B2"/>
<path d="M124.369 1.93292C136.499 2.45815 142.948 9.76238 142.633 22.0387L141.611 61.914C141.296 74.1903 134.496 80.9062 122.359 80.381C110.223 79.8557 103.773 72.5586 104.088 60.2823L105.111 20.4069C105.426 8.13061 112.233 1.4077 124.369 1.93292ZM129.236 62.159L130.301 20.7431C130.441 15.2667 128.018 13.0398 124.089 12.9067C120.16 12.7737 117.632 14.7065 117.492 20.1829L116.428 61.5989C116.288 67.0822 118.711 69.3022 122.64 69.4422C126.568 69.5823 129.096 67.6354 129.236 62.159Z" fill="white"/>
<path d="M103.339 1.89782L86.4127 52.4948L85.7615 77.9088L73.4081 77.3695L74.0594 51.9555L59.7522 0L72.6728 0.560243L81.2165 35.9256L91.546 1.3796L103.339 1.89782Z" fill="white"/>
<path d="M187.362 5.54593L185.87 63.9513C185.555 76.2136 179.084 82.9575 166.962 82.4253C154.839 81.8931 148.754 74.6169 149.041 62.3475L150.533 3.94922L162.886 4.48146L161.373 63.6501C161.233 69.1265 163.656 71.2134 167.585 71.3534C171.514 71.4935 174.042 69.6517 174.182 64.1753L175.694 5.01369L187.362 5.54593Z" fill="white"/>
<path d="M231.13 74.91C231.039 78.6356 231.081 81.3738 232.237 84.28L219.631 83.7338C219.008 81.7309 218.588 80.5053 218.749 74.2586L219.057 62.2064C219.239 55.0843 216.837 52.3531 211.221 52.108L206.949 51.9189L206.15 83.1455L193.797 82.6063L195.765 5.91602L214.407 6.72138C227.209 7.28162 232.566 13.3252 232.265 25.1603L232.111 31.1829C231.908 39.0754 229.19 44.1105 223.623 46.3935C229.737 49.1947 231.613 55.0773 231.41 63.0748L231.13 74.91ZM219.68 33.3889L219.876 25.8186C220.016 20.3492 218.168 17.8492 213.784 17.6601L207.831 17.401L207.229 40.9592L212.061 41.1693C216.669 41.3654 219.526 39.5166 219.68 33.3889Z" fill="white"/>
<path d="M96.8892 120.227L99.7604 112.104C100.734 109.345 102.863 108.294 105.769 108.42C109.705 108.595 112.121 110.787 111.981 116.257L109.116 124.38C109.256 118.904 106.84 116.719 102.905 116.544C99.9985 116.397 97.8696 117.426 96.8892 120.227Z" fill="#7416B2"/>
<path d="M111.981 116.237L109.117 124.36C109.257 118.884 106.841 116.699 102.905 116.524C100.566 116.426 98.7031 117.084 97.5896 118.786L100.454 110.662C101.588 108.96 103.43 108.302 105.769 108.4C109.705 108.575 112.121 110.767 111.981 116.237Z" fill="#7416B2"/>
<path d="M100.454 110.664L97.5895 118.788C97.3023 119.226 97.0672 119.696 96.8892 120.188L99.7604 112.065C99.9356 111.571 100.171 111.1 100.461 110.664" fill="#7416B2"/>
<path d="M85.2574 116.202L88.1287 108.078C87.2792 110.605 86.8302 113.249 86.7981 115.914L83.9338 124.038C83.9666 121.373 84.4131 118.729 85.2574 116.202Z" fill="#7416B2"/>
<path d="M86.7981 115.914L83.9338 124.038C83.9666 121.373 84.4131 118.729 85.2574 116.202L88.1287 108.078C87.2792 110.605 86.8302 113.249 86.7981 115.914Z" fill="#7416B2"/>
<path d="M110.924 157.652L108.059 165.776L109.117 124.36L111.981 116.236L110.924 157.652Z" fill="#7416B2"/>
<path d="M110.342 161.259L107.478 169.382C107.854 168.217 108.05 167.001 108.059 165.776L110.923 157.652C110.914 158.877 110.718 160.093 110.342 161.259Z" fill="#7416B2"/>
<path d="M110.342 161.259L107.478 169.382C107.854 168.217 108.05 167.001 108.059 165.776L110.923 157.652C110.914 158.877 110.718 160.093 110.342 161.259Z" fill="#7416B2"/>
<path d="M85.7754 155.798L82.9111 163.915L83.9336 124.04L86.7978 115.916L85.7754 155.798Z" fill="#7416B2"/>
<path d="M121.974 165.265L119.11 173.381C116.554 180.623 110.405 184.418 101.175 184.012C89.0529 183.487 82.596 176.19 82.9112 163.92L85.7755 155.797C85.4603 168.073 91.9171 175.363 104.039 175.896C113.269 176.295 119.418 172.499 121.974 165.265Z" fill="#7416B2"/>
<path d="M121.974 165.266L119.11 173.382C118.644 174.722 118.013 176 117.233 177.185L120.097 169.061C120.876 167.878 121.507 166.603 121.974 165.266Z" fill="#7416B2"/>
<path d="M120.097 169.061L117.233 177.184C114.068 181.932 108.626 184.341 101.175 184.012C89.0529 183.487 82.596 176.19 82.9112 163.92L85.7755 155.797C85.4603 168.073 91.9171 175.363 104.039 175.896C111.491 176.218 116.932 173.795 120.097 169.061Z" fill="#7416B2"/>
<path d="M82.6101 108.275L79.7459 116.399L66.8323 115.831L69.6965 107.715L82.6101 108.275Z" fill="#7416B2"/>
<path d="M57.3361 107.174L54.4718 115.297L41.5582 114.73L44.4225 106.613L57.3361 107.174Z" fill="#7416B2"/>
<path d="M44.4225 106.614L41.5582 114.731L41.8383 103.778L44.7026 95.6543L44.4225 106.614Z" fill="#7416B2"/>
<path d="M68.0159 173.444L65.1516 181.568L52.7913 181.029L55.6555 172.912L68.0159 173.444Z" fill="#7416B2"/>
<path d="M55.6555 172.911L52.7913 181.028L54.472 115.297L57.3362 107.174L55.6555 172.911Z" fill="#7416B2"/>
<path d="M14.3445 116.462L17.2087 108.339C18.1401 105.692 20.136 104.683 22.9862 104.837C26.9149 105.006 29.1139 107.183 28.9668 112.66L26.1025 120.783C26.2426 115.307 24.0507 113.129 20.122 112.954C17.2928 112.807 15.2759 113.815 14.3445 116.462Z" fill="#7416B2"/>
<path d="M28.9669 112.63L26.1026 120.754C26.2426 115.278 24.0507 113.1 20.122 112.925C17.832 112.826 16.1023 113.457 15.0238 115.075L17.888 106.951C18.9665 105.333 20.6893 104.703 22.9863 104.808C26.915 104.976 29.1139 107.154 28.9669 112.63Z" fill="#7416B2"/>
<path d="M17.888 106.922L15.0238 115.045C14.731 115.48 14.4956 115.951 14.3235 116.446L17.1877 108.322C17.3613 107.828 17.5966 107.357 17.888 106.922Z" fill="#7416B2"/>
<path d="M40.5779 116.311L37.7137 124.434L26.0256 123.93L28.8899 115.807L40.5779 116.311Z" fill="#7416B2"/>
<path d="M28.8899 115.81L26.0256 123.934L26.1027 120.754L28.9739 112.631L28.8899 115.81Z" fill="#7416B2"/>
<path d="M26.7819 157.582L23.9176 165.705C24.289 164.553 24.4804 163.351 24.4849 162.141C24.8911 146.37 0.81462 142.357 1.37486 120.452C1.41404 117.678 1.88662 114.928 2.77547 112.3L5.63969 104.184C4.75089 106.809 4.2783 109.557 4.23908 112.328C3.67884 134.234 27.7553 138.239 27.3491 154.024C27.3447 155.232 27.1534 156.432 26.7819 157.582Z" fill="#7416B2"/>
<path d="M26.7819 157.582L23.9176 165.705C24.289 164.553 24.4804 163.351 24.4849 162.141C24.8911 146.37 0.81462 142.357 1.37486 120.452C1.41404 117.678 1.88662 114.928 2.77547 112.3L5.63969 104.184C4.75089 106.809 4.2783 109.557 4.23908 112.328C3.67884 134.234 27.7553 138.239 27.3491 154.024C27.3447 155.232 27.1534 156.432 26.7819 157.582Z" fill="#7416B2"/>
<path d="M2.8806 152.19L0.0163574 160.313L0.135418 155.6L2.99966 147.477L2.8806 152.19Z" fill="#7416B2"/>
<path d="M38.3719 161.854L35.5007 169.95C32.9936 177.044 27.0971 180.763 17.9371 180.37C5.80784 179.838 -0.270863 172.562 0.00925831 160.286L2.87356 152.162C2.55843 164.438 8.67206 171.722 20.8013 172.247C29.9473 172.674 35.8648 168.955 38.3719 161.854Z" fill="#7416B2"/>
<path d="M38.3719 161.854L35.5006 169.95C35.0392 171.278 34.4134 172.544 33.6378 173.717L36.5021 165.594C37.2777 164.42 37.9034 163.155 38.3649 161.826" fill="#7416B2"/>
<path d="M36.5088 165.621L33.6446 173.745C30.5632 178.374 25.297 180.713 17.9438 180.398C5.81455 179.865 -0.264149 172.589 0.0159722 160.313L2.88028 152.189C2.56514 164.466 8.67877 171.749 20.808 172.274C28.1612 172.589 33.4134 170.25 36.5088 165.621Z" fill="#7416B2"/>
<path d="M232.139 126.091L235.003 117.967C235.977 115.166 238.113 114.158 241.019 114.284C244.955 114.452 247.364 116.644 247.224 122.12L244.359 130.244C244.499 124.767 242.09 122.54 238.155 122.407C235.248 122.281 233.113 123.325 232.139 126.091Z" fill="#7416B2"/>
<path d="M247.224 122.12L244.359 130.244C244.5 124.768 242.091 122.541 238.155 122.408C235.816 122.303 233.953 122.961 232.833 124.67L235.697 116.546C236.838 114.844 238.68 114.179 241.019 114.284C244.955 114.452 247.364 116.644 247.224 122.12Z" fill="#7416B2"/>
<path d="M235.697 116.547L232.832 124.67C232.542 125.107 232.307 125.577 232.132 126.071L234.996 117.947C235.171 117.454 235.407 116.983 235.697 116.547Z" fill="#7416B2"/>
<path d="M258.701 130.845L255.837 138.969L244.149 138.458L247.013 130.334L258.701 130.845Z" fill="#7416B2"/>
<path d="M247.013 130.334L244.149 138.457L244.359 130.236L247.224 122.119L247.013 130.334Z" fill="#7416B2"/>
<path d="M220.542 121.853L223.406 113.736C222.533 116.335 222.075 119.055 222.048 121.797L219.183 129.92C219.21 127.177 219.668 124.454 220.542 121.853Z" fill="#7416B2"/>
<path d="M222.048 121.797L219.183 129.92C219.21 127.177 219.668 124.454 220.542 121.853L223.406 113.736C222.533 116.335 222.075 119.055 222.048 121.797Z" fill="#7416B2"/>
<path d="M246.53 149.403L243.666 157.527L238.05 157.282L240.914 149.158L246.53 149.403Z" fill="#7416B2"/>
<path d="M240.914 149.157L238.05 157.281L238.33 146.321L241.194 138.197L240.914 149.157Z" fill="#7416B2"/>
<path d="M246.166 163.534L243.302 171.651L243.666 157.526L246.53 149.402L246.166 163.534Z" fill="#7416B2"/>
<path d="M245.592 167.1L242.728 175.216C243.106 174.068 243.299 172.867 243.302 171.659L246.166 163.535C246.163 164.746 245.969 165.949 245.592 167.1Z" fill="#7416B2"/>
<path d="M245.592 167.1L242.728 175.216C243.106 174.068 243.299 172.867 243.302 171.659L246.166 163.535C246.163 164.746 245.969 165.949 245.592 167.1Z" fill="#7416B2"/>
<path d="M221.032 161.672L218.168 169.796L219.183 129.913L222.048 121.797L221.032 161.672Z" fill="#7416B2"/>
<path d="M256.517 171.35L253.652 179.466C251.152 186.567 245.249 190.286 236.089 189.894C223.959 189.362 217.881 182.085 218.161 169.809L221.032 161.686C220.717 173.962 226.824 181.245 238.953 181.77C248.092 182.155 253.995 178.437 256.517 171.35Z" fill="#7416B2"/>
<path d="M256.517 171.35L253.652 179.466C253.192 180.796 252.569 182.064 251.797 183.241L254.661 175.117C255.433 173.943 256.056 172.677 256.517 171.35Z" fill="#7416B2"/>
<path d="M254.696 175.104L251.832 183.227C248.743 187.849 243.477 190.195 236.124 189.88C223.995 189.348 217.916 182.072 218.196 169.795L221.067 161.672C220.752 173.948 226.859 181.231 238.988 181.757C246.341 182.079 251.594 179.733 254.696 175.104Z" fill="#7416B2"/>
<path d="M200.282 154.852L197.418 162.969L192.46 123.934L195.324 115.811L200.282 154.852Z" fill="#7416B2"/>
<path d="M201.704 165.328L198.84 173.452L183.678 172.793L186.542 164.67L201.704 165.328Z" fill="#7416B2"/>
<path d="M215.948 179.882L213.083 187.999L200.611 187.459L203.475 179.336L215.948 179.882Z" fill="#7416B2"/>
<path d="M203.475 179.334L200.611 187.458L198.839 173.452L201.704 165.328L203.475 179.334Z" fill="#7416B2"/>
<path d="M184.049 178.495L181.185 186.619L169.84 186.122L172.704 177.998L184.049 178.495Z" fill="#7416B2"/>
<path d="M172.704 177.998L169.84 186.121L184.385 109.977L187.249 101.854L172.704 177.998Z" fill="#7416B2"/>
<path d="M150.799 111.234L147.935 119.357L141.982 119.098L144.846 110.975L150.799 111.234Z" fill="#7416B2"/>
<path d="M156.884 119.398L154.013 127.514C154.153 122.045 152.311 119.545 147.935 119.356L150.799 111.232C155.176 111.422 157.024 113.922 156.884 119.398Z" fill="#7416B2"/>
<path d="M156.884 119.398L154.013 127.514C154.153 122.045 152.311 119.545 147.935 119.356L150.799 111.232C155.176 111.422 157.024 113.922 156.884 119.398Z" fill="#7416B2"/>
<path d="M156.688 126.954L153.824 135.077L154.02 127.514L156.885 119.391L156.688 126.954Z" fill="#7416B2"/>
<path d="M156.072 130.808L153.208 138.931C153.609 137.689 153.817 136.392 153.824 135.086L156.688 126.963C156.682 128.269 156.474 129.565 156.072 130.808Z" fill="#7416B2"/>
<path d="M156.072 130.808L153.208 138.931C153.609 137.689 153.817 136.392 153.824 135.086L156.688 126.963C156.682 128.269 156.474 129.565 156.072 130.808Z" fill="#7416B2"/>
<path d="M167.9 132.184L165.036 140.307C164.475 142.06 163.533 143.667 162.275 145.011C161.018 146.355 159.478 147.404 157.767 148.081L160.631 139.957C162.343 139.28 163.883 138.232 165.14 136.888C166.397 135.543 167.34 133.937 167.9 132.184Z" fill="#7416B2"/>
<path d="M167.9 132.184L165.036 140.307C164.645 141.433 164.115 142.505 163.46 143.501L166.325 135.377C166.983 134.383 167.512 133.31 167.9 132.184Z" fill="#7416B2"/>
<path d="M166.325 135.377L163.46 143.5C162.076 145.574 160.089 147.173 157.767 148.08L160.631 139.957C162.953 139.049 164.941 137.451 166.325 135.377Z" fill="#7416B2"/>
<path d="M148.229 145.673L145.357 153.797L141.1 153.608L143.964 145.484L148.229 145.673Z" fill="#7416B2"/>
<path d="M156.065 155.779L153.201 163.896C153.383 156.774 150.981 154.042 145.357 153.797L148.222 145.674C153.852 145.919 156.247 148.65 156.065 155.779Z" fill="#7416B2"/>
<path d="M156.065 155.779L153.201 163.896C153.383 156.774 150.981 154.042 145.357 153.797L148.222 145.674C153.824 145.919 156.247 148.65 156.065 155.779Z" fill="#7416B2"/>
<path d="M155.757 167.826L152.893 175.949L153.201 163.897L156.065 155.773L155.757 167.826Z" fill="#7416B2"/>
<path d="M169.224 177.845L166.36 185.962L153.775 185.415L156.639 177.299L169.224 177.845Z" fill="#7416B2"/>
<path d="M156.653 177.3L153.789 185.424C153.166 183.421 152.746 182.195 152.907 175.949L155.771 167.832C155.596 174.072 156.016 175.297 156.653 177.3Z" fill="#7416B2"/>
<path d="M156.653 177.3L153.789 185.424C153.166 183.421 152.746 182.195 152.907 175.949L155.771 167.832C155.61 174.072 156.03 175.297 156.653 177.3Z" fill="#7416B2"/>
<path d="M143.166 176.711L140.294 184.835L127.941 184.295L130.805 176.172L143.166 176.711Z" fill="#7416B2"/>
<path d="M130.805 176.173L127.941 184.296L129.902 107.599L132.766 99.4824L130.805 176.173Z" fill="#7416B2"/>
<path d="M300.754 117.754L297.89 125.877L276.552 124.946L279.416 116.822L300.754 117.754Z" fill="#7416B2"/>
<path d="M295.551 149.885L292.687 158.008L275.726 157.266L278.59 149.143L295.551 149.885Z" fill="#7416B2"/>
<path d="M299.074 183.491L296.21 191.607L262.511 190.144L265.375 182.027L299.074 183.491Z" fill="#7416B2"/>
<path d="M265.375 182.029L262.511 190.146L264.472 113.456L267.336 105.332L265.375 182.029Z" fill="#7416B2"/>
<path d="M106.049 97.4466C118.178 97.9718 124.635 105.276 124.32 117.545L123.298 157.428C122.983 169.697 116.176 176.42 104.039 175.895C91.9031 175.369 85.4603 168.072 85.7754 155.796L86.7979 115.879C87.113 103.644 93.9269 96.9214 106.049 97.4466ZM110.951 157.673L112.009 116.257C112.149 110.787 109.733 108.595 105.797 108.42C101.861 108.245 99.3473 110.227 99.2072 115.704L98.1427 157.12C98.0027 162.603 100.419 164.788 104.348 164.963C108.276 165.138 110.811 163.156 110.951 157.673Z" fill="white"/>
<path d="M82.8972 97.314L82.61 108.274L69.6964 107.714L68.0157 173.444L55.6554 172.912L57.3361 107.174L44.4225 106.614L44.7026 95.6543L82.8972 97.314Z" fill="white"/>
<path d="M22.9302 93.8332C34.9545 94.3585 40.949 101.635 40.6339 113.911L40.5779 116.32L28.8898 115.809L28.9669 112.629C29.1139 107.153 26.9149 104.975 22.9862 104.807C19.0575 104.639 16.7535 106.621 16.6135 112.09C16.2073 127.868 40.2838 131.881 39.7235 153.793C39.4084 166.07 32.9446 172.799 20.8153 172.274C8.68605 171.749 2.60743 164.466 2.88755 152.19L3.00655 147.483L14.6877 147.988L14.5475 153.464C14.4075 158.947 16.8305 161.027 20.7592 161.167C24.6879 161.307 27.2161 159.473 27.3561 153.996C27.7623 138.218 3.68586 134.206 4.2461 112.3C4.55424 100.052 10.913 93.308 22.9302 93.8332Z" fill="white"/>
<path d="M240.963 103.31C253.092 103.842 259.171 111.125 258.891 123.402L258.702 130.846L247.013 130.342L247.224 122.12C247.364 116.644 244.955 114.417 241.019 114.284C237.083 114.151 234.562 116.09 234.422 121.56L233.365 162.976C233.225 168.459 235.648 170.539 239.576 170.679C243.505 170.819 246.026 168.984 246.166 163.501L246.53 149.369L240.928 149.124L241.208 138.171L258.505 138.92L257.882 163.242C257.574 175.518 251.103 182.248 238.974 181.723C226.845 181.198 220.766 173.914 221.053 161.638L222.069 121.763C222.363 109.522 228.827 102.785 240.963 103.31Z" fill="white"/>
<path d="M205.331 102.635L215.948 179.878L203.476 179.339L201.704 165.333L186.542 164.675L184.049 178.499L172.697 178.001L187.25 101.857L205.331 102.635ZM188.377 154.331L200.282 154.849L195.324 115.807L188.377 154.324" fill="white"/>
<path d="M168.11 168.476C168.012 172.202 168.054 174.947 169.224 177.846L156.618 177.3C155.995 175.297 155.575 174.072 155.736 167.832L156.044 155.78C156.226 148.651 153.824 145.92 148.2 145.674L143.943 145.485L143.137 176.712L130.784 176.173L132.745 99.4824L151.387 100.295C164.202 100.848 169.553 106.892 169.252 118.727L169.098 124.756C168.894 132.642 166.177 137.684 160.61 139.96C166.723 142.761 168.593 148.644 168.39 156.641L168.11 168.476ZM156.688 126.962L156.884 119.399C157.024 113.923 155.175 111.423 150.799 111.234L144.846 110.974L144.244 134.533L149.069 134.743C153.67 134.939 156.527 133.09 156.688 126.962Z" fill="white"/>
<path d="M301.035 106.796L300.755 117.755L279.416 116.824L278.87 138.19L295.831 138.926L295.551 149.885L278.59 149.143L278.016 171.609L299.354 172.533L299.074 183.493L265.375 182.029L267.336 105.332L301.035 106.796Z" fill="white"/>
</svg>
