<svg width="237" height="110" viewBox="0 0 237 110" fill="none" xmlns="http://www.w3.org/2000/svg">
<path d="M16.1781 14.2403L24.0627 22.3915L7.88459 22.2138L0 14.0625L16.1781 14.2403Z" fill="#7416B2"/>
<path d="M48.4631 0.523438L56.3476 8.6836L55.7254 22.7461L47.8408 14.5859L48.4631 0.523438Z" fill="#7416B2"/>
<path d="M47.8409 14.586L55.7255 22.7461L39.5385 22.5595L31.6628 14.4082L47.8409 14.586Z" fill="#7416B2"/>
<path d="M31.6629 14.4082L39.5386 22.5595L35.7696 106.961L27.885 98.8098L31.6629 14.4082Z" fill="#7416B2"/>
<path d="M27.8849 98.8095L35.7695 106.961L20.2848 106.792L12.4091 98.6406L27.8849 98.8095Z" fill="#7416B2"/>
<path d="M97.4329 1.06641L105.309 9.21767L104.686 23.2802L96.8018 15.1289L97.4329 1.06641Z" fill="#7416B2"/>
<path d="M96.8018 15.1284L104.686 23.2797L77.9481 22.9863L70.0635 14.8262L96.8018 15.1284Z" fill="#7416B2"/>
<path d="M70.0635 14.8262L77.9481 22.9863L76.7214 50.4268L68.8368 42.2667L70.0635 14.8262Z" fill="#7416B2"/>
<path d="M90.0817 42.498L97.9663 50.6582L97.3352 64.7296L89.4506 56.5694L90.0817 42.498Z" fill="#7416B2"/>
<path d="M89.4505 56.569L97.3351 64.7292L76.0903 64.4892L68.2057 56.3379L89.4505 56.569Z" fill="#7416B2"/>
<path d="M68.2057 56.3379L76.0903 64.4892L74.8013 93.3252L66.9167 85.174L68.2057 56.3379Z" fill="#7416B2"/>
<path d="M93.0239 99.5297L100.909 107.681L58.6944 107.219L50.8098 99.0586L93.0239 99.5297Z" fill="#7416B2"/>
<path d="M93.655 85.4668L101.54 93.6181L100.909 107.681L93.0239 99.5293L93.655 85.4668Z" fill="#7416B2"/>
<path d="M128.438 18.8535L136.322 27.0137L126.642 76.7301L118.758 68.57L128.438 18.8535Z" fill="#7416B2"/>
<path d="M116.198 81.9121L124.073 90.0723L120.607 107.904L112.722 99.7435L116.198 81.9121Z" fill="#7416B2"/>
<path d="M112.722 99.744L120.607 107.904L106.393 107.744L98.5084 99.584L112.722 99.744Z" fill="#7416B2"/>
<path d="M135.185 82.1254L143.069 90.2856L124.073 90.0723L116.198 81.9121L135.185 82.1254Z" fill="#7416B2"/>
<path d="M141.327 1.54688L149.212 9.70702L160.563 108.34L152.678 100.189L141.327 1.54688Z" fill="#7416B2"/>
<path d="M152.678 100.188L160.563 108.339L144.945 108.17L137.06 100.01L152.678 100.188Z" fill="#7416B2"/>
<path d="M185.639 2.03516L193.524 10.1953L201.791 80.2322L193.915 72.072L185.639 2.03516Z" fill="#7416B2"/>
<path d="M176.332 30.7812L184.217 38.9414L181.106 108.569L173.221 100.409L176.332 30.7812Z" fill="#7416B2"/>
<path d="M173.221 100.411L181.106 108.571L167.594 108.42L159.71 100.26L173.221 100.411Z" fill="#7416B2"/>
<path d="M199.391 100.695L207.275 108.855L192.644 108.695L184.759 100.535L199.391 100.695Z" fill="#7416B2"/>
<path d="M213.24 30.2031L221.124 38.3544L207.275 108.853L199.391 100.693L213.24 30.2031Z" fill="#7416B2"/>
<path d="M224.715 100.98L232.6 109.14L217.96 108.972L210.084 100.82L224.715 100.98Z" fill="#7416B2"/>
<path d="M229.115 2.51367L237 10.6738L232.6 109.138L224.715 100.978L229.115 2.51367Z" fill="#7416B2"/>
<path d="M48.4631 0.524451L47.8409 14.5869L31.6628 14.4092L27.885 98.8107L12.4091 98.6418L16.1781 14.2403L0 14.0625L0.631123 0L48.4631 0.524451Z" fill="white"/>
<path d="M97.4329 1.06878L96.8018 15.1313L70.0635 14.829L68.8368 42.2695L90.0817 42.5007L89.4505 56.572L68.2057 56.3409L66.9168 85.177L93.6551 85.4704L93.0239 99.5328L50.8098 99.0617L55.2188 0.597656L97.4329 1.06878Z" fill="white"/>
<path d="M141.327 1.54797L152.678 100.216L137.06 100.039L135.185 82.1539L116.189 81.9494L112.722 99.7275L98.4995 99.5765L118.66 1.28125L141.327 1.54797ZM118.784 68.5714L133.7 68.7403L128.465 18.8638L118.784 68.5714Z" fill="white"/>
<path d="M229.115 2.51581L224.715 100.98L210.084 100.82L213.24 30.2052L199.39 100.695L184.759 100.535L176.332 30.783L173.221 100.411L159.71 100.26L164.11 1.80469L185.639 2.03581L193.915 72.0727L207.595 2.27581L229.115 2.51581Z" fill="white"/>
</svg>
