<svg width="382" height="107" viewBox="0 0 382 107" fill="none" xmlns="http://www.w3.org/2000/svg">
<path d="M13.6652 16.0957L16.6356 22.5121L18.7485 86.8794L15.7705 80.463L13.6652 16.0957Z" fill="#7416B2"/>
<path d="M15.7705 80.4707L18.7485 86.8872C18.7707 87.8027 18.8783 88.7142 19.07 89.6104L16.0997 83.1938C15.9048 82.298 15.7946 81.3864 15.7705 80.4707Z" fill="#7416B2"/>
<path d="M16.0996 83.1895L19.07 89.6057C19.2003 90.2085 19.3953 90.7961 19.6518 91.3584L16.6738 84.9421C16.42 84.3794 16.2275 83.7919 16.0996 83.1895Z" fill="#7416B2"/>
<path d="M40.4446 14.9141L43.4149 21.3305L45.4973 84.8706L42.5192 78.4542L40.4446 14.9141Z" fill="#7416B2"/>
<path d="M42.5191 78.4512L45.4971 84.8674C45.5413 86.1215 45.5158 87.3771 45.4206 88.6284L42.4731 82.2122C42.5657 80.9607 42.5887 79.7051 42.542 78.4512" fill="#7416B2"/>
<path d="M42.4733 82.2148L45.4437 88.6316C45.3416 90.2538 45.0853 91.8631 44.6782 93.4385L41.7001 87.0217C42.1061 85.4459 42.3649 83.8369 42.4733 82.2148Z" fill="#7416B2"/>
<path d="M41.6387 87.0352L44.6167 93.4513C44.3257 94.531 43.9441 95.5852 43.476 96.603L40.5056 90.1868C40.9712 89.1688 41.3502 88.1146 41.6387 87.0352Z" fill="#7416B2"/>
<path d="M40.5057 90.1895L43.4761 96.6065C43.0769 97.4755 42.6058 98.3108 42.0674 99.104L39.0894 92.6871C39.6302 91.894 40.1039 91.0586 40.5057 90.1895Z" fill="#7416B2"/>
<path d="M39.0894 92.6836L42.0674 99.1004C41.4936 99.9302 40.8426 100.706 40.1229 101.417L37.1526 95.0006C37.872 94.2908 38.5206 93.515 39.0894 92.6836Z" fill="#7416B2"/>
<path d="M37.1526 95.0003L40.1229 101.417C36.8693 104.628 32.1611 106.464 26.0366 106.735C16.7733 107.141 10.5034 103.726 7.4182 97.0237L4.44019 90.6074C7.50243 97.2719 13.803 100.724 23.0662 100.318C29.1907 100.048 33.8989 98.2122 37.1526 95.0003Z" fill="#7416B2"/>
<path d="M69.9337 25.5527L72.9117 31.9702L66.5269 32.2485L63.5488 25.8311L69.9337 25.5527Z" fill="#7416B2"/>
<path d="M75.9353 28.5366L78.9057 34.9531C77.8263 32.6212 75.7975 31.8464 72.9114 31.9442L69.9333 25.5277C72.8272 25.4073 74.8559 26.1746 75.9353 28.5366Z" fill="#7416B2"/>
<path d="M88.1921 23.0352L91.1702 29.4517C91.8095 30.8485 92.2946 32.3087 92.6171 33.8071L89.6467 27.3906C89.317 25.8931 88.8295 24.4334 88.1921 23.0352Z" fill="#7416B2"/>
<path d="M89.647 27.3906L92.6172 33.807C93.0491 35.7862 93.29 37.801 93.3368 39.8247L90.3666 33.4083C90.316 31.3849 90.0751 29.3704 89.647 27.3906Z" fill="#7416B2"/>
<path d="M63.5488 25.832L66.5269 32.2484L67.4456 60.5015L64.4752 54.0926L63.5488 25.832Z" fill="#7416B2"/>
<path d="M90.3665 33.3691L93.3369 39.7856L93.6967 50.6401L90.7186 44.2237L90.3665 33.3691Z" fill="#7416B2"/>
<path d="M71.2502 65.7227L74.2206 72.1396L67.8358 72.418L64.8655 66.0085L71.2502 65.7227Z" fill="#7416B2"/>
<path d="M90.703 44.2246L93.6811 50.6412C93.7256 51.9255 93.7 53.2111 93.6045 54.4927L90.6265 48.0761C90.7258 46.7947 90.7514 45.5088 90.703 44.2246Z" fill="#7416B2"/>
<path d="M90.6417 48.0781L93.6198 54.4948C93.5146 56.0944 93.2583 57.6809 92.8542 59.2339L89.8838 52.8173C90.2885 51.2644 90.5448 49.6778 90.6494 48.0781" fill="#7416B2"/>
<path d="M89.8533 52.8184L92.8237 59.2344C92.5429 60.265 92.1767 61.2713 91.7289 62.2432L88.7585 55.8271C89.2031 54.8539 89.5692 53.8479 89.8533 52.8184Z" fill="#7416B2"/>
<path d="M88.7585 55.8848L91.7288 62.3011C91.3474 63.1326 90.8941 63.9303 90.3738 64.6855L87.4034 58.2693C87.9197 57.5116 88.3728 56.7141 88.7585 55.8848Z" fill="#7416B2"/>
<path d="M87.4036 58.2383L90.374 64.6545C89.8327 65.4642 89.2122 66.22 88.5213 66.9111L85.5432 60.4949C86.2365 59.8039 86.8596 59.0481 87.4036 58.2383Z" fill="#7416B2"/>
<path d="M85.5432 60.4629L88.5212 66.8792C85.2829 70.0685 80.5288 71.8662 74.2283 72.1445L71.2502 65.7283C77.5584 65.45 82.3126 63.6522 85.5432 60.4629Z" fill="#7416B2"/>
<path d="M64.8655 66.0117L67.8359 72.4207L68.8618 103.781L65.8913 97.3643L64.8655 66.0117Z" fill="#7416B2"/>
<path d="M65.8915 97.3633L68.8619 103.779L55.3573 104.374L52.3793 97.9575L65.8915 97.3633Z" fill="#7416B2"/>
<path d="M122.091 25.967L125.062 32.3833C123.89 29.8484 121.663 28.8856 118.715 29.0134C116.961 28.9897 115.263 29.6246 113.969 30.7886L110.991 24.3723C112.287 23.2065 113.988 22.5715 115.745 22.5971C118.685 22.4692 120.912 23.432 122.091 25.967Z" fill="#7416B2"/>
<path d="M110.968 24.373L113.946 30.7894C113.697 31.0373 113.472 31.3066 113.272 31.5942L110.302 25.178C110.496 24.8888 110.719 24.6191 110.968 24.373Z" fill="#7416B2"/>
<path d="M110.302 25.1777L113.272 31.5941C113.081 31.8795 112.912 32.1788 112.767 32.4893L109.796 26.0728C109.936 25.7594 110.105 25.4597 110.302 25.1777Z" fill="#7416B2"/>
<path d="M109.796 26.0703L112.767 32.4881C112.59 32.8767 112.446 33.2794 112.338 33.6919L109.36 27.2741C109.471 26.8614 109.617 26.4587 109.796 26.0703Z" fill="#7416B2"/>
<path d="M109.36 27.3066L112.338 33.7233C112.159 34.396 112.044 35.0834 111.993 35.7769L109.023 29.3602C109.067 28.6666 109.18 27.9789 109.36 27.3066Z" fill="#7416B2"/>
<path d="M109.023 29.3281L111.994 35.7443C111.962 36.3431 111.962 36.9431 111.994 37.542L109.016 31.1259C108.997 30.5264 109.01 29.9263 109.054 29.3281" fill="#7416B2"/>
<path d="M133.575 20.3965L136.553 26.8132C137.209 28.2625 137.709 29.7752 138.046 31.3267L135.068 24.91C134.726 23.3551 134.213 21.8416 133.536 20.3965" fill="#7416B2"/>
<path d="M135.106 24.875L138.084 31.2912C138.505 33.2337 138.744 35.2103 138.796 37.1958L135.818 30.7796C135.766 28.7941 135.527 26.8176 135.106 24.875Z" fill="#7416B2"/>
<path d="M135.787 30.7793L138.765 37.1955L139.025 45.3042L136.055 38.888L135.787 30.7793Z" fill="#7416B2"/>
<path d="M136.055 38.8867L139.025 45.3044L126.248 45.8687L123.278 39.451L136.055 38.8867Z" fill="#7416B2"/>
<path d="M123.959 60.1875L126.93 66.6039L120.79 66.8672L117.82 60.4583L123.959 60.1875Z" fill="#7416B2"/>
<path d="M108.985 31.123L111.955 37.5394L113.433 82.5972L110.462 76.1808L108.985 31.123Z" fill="#7416B2"/>
<path d="M110.462 76.1953L113.433 82.6117C113.458 83.5299 113.568 84.4439 113.762 85.3423L110.784 78.9259C110.592 78.0272 110.485 77.1132 110.462 76.1953Z" fill="#7416B2"/>
<path d="M110.784 78.918L113.762 85.3355C113.89 85.939 114.085 86.5268 114.344 87.0884L111.373 80.7085C111.118 80.1457 110.923 79.5582 110.792 78.9556" fill="#7416B2"/>
<path d="M136.346 47.7109L139.316 54.1274L140.181 80.5908L137.211 74.1743L136.346 47.7109Z" fill="#7416B2"/>
<path d="M137.211 74.1758L140.182 80.5923C140.228 81.8463 140.205 83.1019 140.113 84.3535L137.135 77.937C137.23 76.6855 137.255 75.43 137.211 74.1758Z" fill="#7416B2"/>
<path d="M137.135 77.9512L140.113 84.3676C139.992 85.9908 139.72 87.5997 139.301 89.1743L136.331 82.7579C136.751 81.1838 137.02 79.5745 137.135 77.9512Z" fill="#7416B2"/>
<path d="M136.331 82.7617L139.301 89.1783C139.013 90.2578 138.634 91.312 138.168 92.3301L135.19 85.9136C135.658 84.8957 136.04 83.8415 136.331 82.7617Z" fill="#7416B2"/>
<path d="M135.19 85.9141L138.168 92.3304C137.768 93.198 137.294 94.0309 136.752 94.8203L133.781 88.4039C134.321 87.6143 134.793 86.7814 135.19 85.9141Z" fill="#7416B2"/>
<path d="M133.781 88.3984L136.752 94.8152C136.185 95.6504 135.536 96.4289 134.815 97.1396L131.837 90.723C132.561 90.0124 133.212 89.2338 133.781 88.3984Z" fill="#7416B2"/>
<path d="M131.837 90.725L134.815 97.1413C131.561 100.353 126.853 102.189 120.729 102.46C111.465 102.866 105.195 99.413 102.103 92.7484L99.1322 86.332C102.194 92.9966 108.487 96.4493 117.751 96.0431C123.875 95.7723 128.583 93.937 131.837 90.725Z" fill="#7416B2"/>
<path d="M164.259 21.4141L167.229 27.8313L160.722 28.1172L157.751 21.6999L164.259 21.4141Z" fill="#7416B2"/>
<path d="M170.437 24.6272L173.384 31.0664C172.297 28.727 170.322 27.7189 167.206 27.8544L164.228 21.4378C167.29 21.3024 169.327 22.3104 170.406 24.6498" fill="#7416B2"/>
<path d="M182.892 18.0508L185.862 24.4674C186.44 25.7267 186.879 27.0431 187.172 28.394L184.194 21.9775C183.903 20.6268 183.467 19.3104 182.892 18.0508Z" fill="#7416B2"/>
<path d="M184.194 21.9805L187.172 28.397C187.582 30.3105 187.812 32.257 187.861 34.2119L184.89 27.7953C184.843 25.8399 184.61 23.8931 184.194 21.9805Z" fill="#7416B2"/>
<path d="M184.89 27.7852L187.861 34.2012L188.075 40.7603L185.105 34.3442L184.89 27.7852Z" fill="#7416B2"/>
<path d="M157.751 21.6973L160.722 28.1137L161.564 53.7417L158.586 47.3253L157.751 21.6973Z" fill="#7416B2"/>
<path d="M185.105 34.3457L188.075 40.762C188.122 41.9784 188.099 43.1964 188.006 44.4102L185.036 37.9939C185.121 36.7797 185.144 35.5621 185.105 34.3457Z" fill="#7416B2"/>
<path d="M185.036 37.9922L188.006 44.4085C187.901 45.8589 187.66 47.2966 187.287 48.7036L184.316 42.2949C184.689 40.8852 184.93 39.4449 185.036 37.9922Z" fill="#7416B2"/>
<path d="M184.316 42.2969L187.287 48.7053C187.04 49.6196 186.717 50.5126 186.322 51.3755L183.352 44.9595C183.747 44.0992 184.069 43.2087 184.316 42.2969Z" fill="#7416B2"/>
<path d="M183.336 44.9609L186.307 51.3774C185.969 52.1072 185.573 52.8091 185.12 53.4761L182.15 47.0596C182.602 46.3926 182.999 45.6908 183.336 44.9609Z" fill="#7416B2"/>
<path d="M182.165 47.0566L185.135 53.4727C184.654 54.1786 184.105 54.8385 183.497 55.4434L180.519 49.0273C181.131 48.4242 181.682 47.7642 182.165 47.0566Z" fill="#7416B2"/>
<path d="M180.519 49.0273L183.497 55.4435C182.406 56.5053 181.154 57.3935 179.784 58.0762L176.814 51.66C178.182 50.9792 179.433 50.0908 180.519 49.0273Z" fill="#7416B2"/>
<path d="M163.646 59.0488L166.616 65.4654L161.954 65.6685L158.976 59.2519L163.646 59.0488Z" fill="#7416B2"/>
<path d="M171.638 62.9564L174.609 69.373C173.231 66.3641 170.643 65.2883 166.624 65.4613L163.646 59.0446C167.673 58.8716 170.26 59.985 171.638 62.9564Z" fill="#7416B2"/>
<path d="M184.286 58.498L187.264 64.9142C187.844 66.194 188.285 67.5303 188.58 68.9009L185.602 62.4847C185.311 61.1132 184.869 59.7766 184.286 58.498Z" fill="#7416B2"/>
<path d="M185.633 62.4844L188.611 68.9008C189.07 71.0572 189.326 73.2503 189.377 75.4526L186.399 69.0362C186.348 66.8338 186.092 64.6407 185.633 62.4844Z" fill="#7416B2"/>
<path d="M158.976 59.25L161.954 65.6665L163.064 99.6372L160.086 93.2207L158.976 59.25Z" fill="#7416B2"/>
<path d="M160.086 93.2227L163.064 99.6391L149.56 100.233L146.582 93.8169L160.086 93.2227Z" fill="#7416B2"/>
<path d="M186.36 69.0312L189.33 75.4477L189.751 88.3257L186.781 81.9092L186.36 69.0312Z" fill="#7416B2"/>
<path d="M186.781 81.9062L189.759 88.3228C189.767 90.5689 189.982 92.8097 190.402 95.0176L187.432 88.6011C187.009 86.3935 186.791 84.1526 186.781 81.9062Z" fill="#7416B2"/>
<path d="M187.432 88.6035L190.402 95.02C190.646 96.131 191.01 97.2129 191.49 98.2471L188.519 91.8306C188.04 90.7965 187.675 89.7145 187.432 88.6035Z" fill="#7416B2"/>
<path d="M188.581 91.9727L191.559 98.3899L177.801 98.9917L174.831 92.5745L188.581 91.9727Z" fill="#7416B2"/>
<path d="M213.109 22.123L216.087 28.5395L210.958 71.0249L207.987 64.6085L213.109 22.123Z" fill="#7416B2"/>
<path d="M223.214 75.2871L226.185 81.7048L209.603 82.4346L206.632 76.0169L223.214 75.2871Z" fill="#7416B2"/>
<path d="M206.632 76.0156L209.603 82.432L207.765 97.6719L204.795 91.2555L206.632 76.0156Z" fill="#7416B2"/>
<path d="M204.795 91.2539L207.765 97.6701L195.371 98.2192L192.393 91.7955L204.795 91.2539Z" fill="#7416B2"/>
<path d="M223.184 6.87891L226.162 13.2953L242.652 96.1367L239.674 89.7203L223.184 6.87891Z" fill="#7416B2"/>
<path d="M239.674 89.7227L242.652 96.1385L229.017 96.7402L226.039 90.3244L239.674 89.7227Z" fill="#7416B2"/>
<path d="M264.723 17L267.701 23.4175L260.083 23.7485L257.105 17.331L264.723 17Z" fill="#7416B2"/>
<path d="M270.955 20.2421L273.925 26.6582C272.784 24.1911 270.625 23.2884 267.701 23.4163L264.723 17.0003C267.647 16.8724 269.806 17.7524 270.955 20.2421Z" fill="#7416B2"/>
<path d="M283.226 14.4648L286.197 20.8811C286.833 22.2797 287.32 23.7392 287.651 25.2363L284.673 18.82C284.348 17.3223 283.864 15.8625 283.226 14.4648Z" fill="#7416B2"/>
<path d="M284.673 18.8184L287.651 25.2345C288.075 27.2149 288.316 29.2289 288.371 31.252L285.393 24.8358C285.346 22.8123 285.105 20.7976 284.673 18.8184Z" fill="#7416B2"/>
<path d="M257.105 17.332L260.083 23.7485L262.036 83.3545L259.058 76.938L257.105 17.332Z" fill="#7416B2"/>
<path d="M285.393 24.8086L288.363 31.225L289.749 73.4165L286.771 67.0001L285.393 24.8086Z" fill="#7416B2"/>
<path d="M267.31 88.5117L270.289 94.9283L248.914 95.8687L245.936 89.452L267.31 88.5117Z" fill="#7416B2"/>
<path d="M286.779 67.0059L289.749 73.4225C289.798 74.7067 289.772 75.9925 289.673 77.2739L286.687 70.8573C286.778 69.5756 286.804 68.2901 286.763 67.0059" fill="#7416B2"/>
<path d="M286.687 70.8594L289.657 77.2756C289.552 78.8776 289.296 80.4665 288.892 82.022L285.921 75.6057C286.325 74.0503 286.582 72.4614 286.687 70.8594Z" fill="#7416B2"/>
<path d="M285.921 75.6055L288.892 82.0219C288.611 83.0525 288.245 84.0588 287.797 85.0308L284.826 78.6143C285.274 77.6424 285.64 76.6361 285.921 75.6055Z" fill="#7416B2"/>
<path d="M284.811 78.6426L287.781 85.0589C287.4 85.8888 286.949 86.6863 286.434 87.4434L283.456 81.0271C283.974 80.2702 284.427 79.4726 284.811 78.6426Z" fill="#7416B2"/>
<path d="M283.456 81.0273L286.434 87.4436C285.89 88.2534 285.267 89.0092 284.574 89.7002L281.596 83.284C282.289 82.593 282.912 81.8372 283.456 81.0273Z" fill="#7416B2"/>
<path d="M281.596 83.2539L284.574 89.6702C281.336 92.8595 276.589 94.6497 270.289 94.9355L267.311 88.5193C273.611 88.241 278.365 86.4507 281.596 83.2539Z" fill="#7416B2"/>
<path d="M330.163 2.18164L333.133 8.59816L333.524 20.521L330.553 14.1045L330.163 2.18164Z" fill="#7416B2"/>
<path d="M330.553 14.1035L333.524 20.5198L310.189 21.5503L307.219 15.134L330.553 14.1035Z" fill="#7416B2"/>
<path d="M307.219 15.1348L310.189 21.5511L310.947 44.7944L307.977 38.3781L307.219 15.1348Z" fill="#7416B2"/>
<path d="M326.519 37.5566L329.497 43.973L329.887 55.8955L326.909 49.4792L326.519 37.5566Z" fill="#7416B2"/>
<path d="M326.909 49.4805L329.887 55.8977L311.338 56.7178L308.367 50.293L326.909 49.4805Z" fill="#7416B2"/>
<path d="M308.367 50.2949L311.338 56.719L312.141 81.1514L309.163 74.7349L308.367 50.2949Z" fill="#7416B2"/>
<path d="M332.896 85.6328L335.866 92.0488L299.02 93.666L296.042 87.25L332.896 85.6328Z" fill="#7416B2"/>
<path d="M332.506 73.7109L335.476 80.1275L335.866 92.0503L332.896 85.6338L332.506 73.7109Z" fill="#7416B2"/>
<path d="M363.511 15.192L366.481 21.6084C365.356 19.1863 363.273 18.261 360.357 18.3889C358.66 18.3443 357.012 18.9514 355.763 20.0814L352.785 13.665C354.037 12.5398 355.682 11.9334 357.378 11.9725C360.257 11.8446 362.347 12.7699 363.503 15.192" fill="#7416B2"/>
<path d="M352.854 13.666L355.832 20.0836C355.597 20.3141 355.384 20.566 355.197 20.8359L352.226 14.4184C352.411 14.1486 352.621 13.8967 352.854 13.666Z" fill="#7416B2"/>
<path d="M352.226 14.4269L355.197 20.8434C355.008 21.117 354.844 21.4065 354.707 21.7085L351.759 15.2694C351.896 14.9674 352.06 14.6779 352.249 14.4043" fill="#7416B2"/>
<path d="M351.759 15.2656L354.729 21.6817C354.556 22.0664 354.412 22.4637 354.301 22.8701L351.331 16.454C351.439 16.0465 351.582 15.649 351.759 15.2656Z" fill="#7416B2"/>
<path d="M351.308 16.4785L354.278 22.8951C354.098 23.58 353.985 24.2803 353.941 24.9863L350.963 18.5697C351.013 17.8639 351.129 17.1639 351.308 16.4785Z" fill="#7416B2"/>
<path d="M350.993 18.5684L353.971 24.9846C353.936 25.626 353.936 26.2687 353.971 26.9101C354.004 27.9615 354.142 29.0072 354.385 30.0317L351.414 23.6155C351.168 22.5917 351.029 21.5456 351.001 20.4939C350.966 19.8525 350.966 19.2098 351.001 18.5684" fill="#7416B2"/>
<path d="M351.346 23.6191L354.316 30.035C354.554 31.0226 354.89 31.9848 355.319 32.9082L352.349 26.4924C351.916 25.5704 351.58 24.6077 351.346 23.6191Z" fill="#7416B2"/>
<path d="M375.017 9.6875L377.987 16.1039C378.66 17.5504 379.173 19.0634 379.519 20.6172L376.541 14.2008C376.198 12.6464 375.685 11.1331 375.01 9.6875" fill="#7416B2"/>
<path d="M376.51 14.1797L379.488 20.5963C379.917 22.5762 380.16 24.5907 380.215 26.6143L377.237 20.1977C377.186 18.1738 376.943 16.159 376.51 14.1797Z" fill="#7416B2"/>
<path d="M377.237 20.166L380.208 26.5823L380.3 29.2075L377.322 22.7912L377.237 20.166Z" fill="#7416B2"/>
<path d="M377.322 22.791L380.3 29.2073L367.53 29.7715L364.552 23.3552L377.322 22.791Z" fill="#7416B2"/>
<path d="M363.878 58.9859L366.856 65.4023C362.362 55.7138 348.483 51.065 342.833 38.8715L339.855 32.4551C345.512 44.6486 359.392 49.2973 363.878 58.9859Z" fill="#7416B2"/>
<path d="M351.101 59.6406L354.079 66.0571L354.271 72.0146L351.3 65.5982L351.101 59.6406Z" fill="#7416B2"/>
<path d="M351.3 65.5977L354.27 72.0141C354.296 72.9317 354.404 73.8454 354.592 74.7446L351.622 68.3282C351.426 67.4303 351.318 66.5159 351.3 65.5977Z" fill="#7416B2"/>
<path d="M351.622 68.332L354.592 74.7483C354.726 75.3501 354.921 75.9373 355.174 76.501L352.204 70.0846C351.947 69.5223 351.752 68.9348 351.622 68.332Z" fill="#7416B2"/>
<path d="M376.372 53.0234L379.342 59.4398C380.082 61.0324 380.652 62.6962 381.042 64.4043L378.072 57.9881C377.678 56.2809 377.108 54.6174 376.372 53.0234Z" fill="#7416B2"/>
<path d="M378.071 57.9883L381.042 64.4045C381.462 66.2354 381.701 68.1021 381.754 69.9783C381.802 71.2323 381.776 72.4881 381.677 73.7393L378.707 67.323C378.798 66.0714 378.824 64.8161 378.783 63.562C378.726 61.6861 378.488 59.8199 378.071 57.9883Z" fill="#7416B2"/>
<path d="M378.707 67.3379L381.677 73.7543C381.562 75.3776 381.293 76.9868 380.873 78.561L377.903 72.1446C378.309 70.5692 378.566 68.96 378.669 67.3379" fill="#7416B2"/>
<path d="M377.903 72.1445L380.874 78.5612C380.584 79.6389 380.202 80.6907 379.733 81.7056L376.763 75.2965C377.227 74.2772 377.609 73.2232 377.903 72.1445Z" fill="#7416B2"/>
<path d="M376.763 75.2969L379.733 81.7061C379.335 82.5759 378.864 83.4114 378.324 84.2036L375.346 77.7868C375.887 76.9964 376.361 76.1636 376.763 75.2969Z" fill="#7416B2"/>
<path d="M375.346 77.7832L378.324 84.2C377.755 85.0335 377.107 85.8118 376.387 86.5244L373.409 80.1076C374.131 79.3969 374.779 78.6184 375.346 77.7832Z" fill="#7416B2"/>
<path d="M373.409 80.1077L376.387 86.524C373.134 89.7359 368.425 91.5713 362.309 91.8346C353.045 92.2483 346.768 88.8258 343.683 82.1312L340.705 75.7148C343.767 82.3794 350.067 85.832 359.331 85.4183C365.455 85.155 370.156 83.3196 373.409 80.1077Z" fill="#7416B2"/>
<path d="M40.4443 14.9199L42.5189 78.4598C42.963 91.8042 36.3332 99.74 23.0661 100.319C9.79898 100.898 2.67164 93.5493 2.23527 80.2275L0.152954 16.6876L13.6651 16.0933L15.7703 80.4683C15.9694 86.4258 18.7407 88.4493 23.0431 88.2612C27.3456 88.0732 29.9714 85.809 29.7724 79.8514L27.6671 15.4766L40.4443 14.9199Z" fill="white"/>
<path d="M69.5433 13.6444C83.0555 13.0502 89.9302 20.0232 90.3666 33.3826L90.7187 44.2296C91.1551 57.5739 84.7626 65.1412 71.2505 65.7354L64.8657 66.0137L65.8916 97.3662L52.3794 97.9604L49.6464 14.517L69.5433 13.6444ZM77.1989 45.6588L76.7855 33.1419C76.5941 27.1769 74.1979 25.3716 69.8955 25.5596L63.5107 25.8455L64.437 54.0987L70.8218 53.8204C75.1242 53.6323 77.3903 51.6164 77.1989 45.6588Z" fill="white"/>
<path d="M114.956 10.6881C128.223 10.1089 135.351 17.458 135.787 30.7799L136.055 38.8964L123.278 39.453L122.987 30.5091C122.788 24.5515 120.017 22.4077 115.722 22.5957C111.427 22.7838 108.794 25.1683 108.985 31.1259L110.462 76.1915C110.654 82.1491 113.425 84.1725 117.728 83.9845C122.03 83.7964 124.618 81.5398 124.465 75.5747L123.959 60.1917L117.835 60.4625L117.444 48.5473L136.361 47.7199L137.226 74.1756C137.663 87.5275 131.033 95.4559 117.766 96.0426C104.499 96.6293 97.3714 89.2726 96.935 75.9508L95.5187 32.5551C95.067 19.2032 101.697 11.2748 114.956 10.6881Z" fill="white"/>
<path d="M186.781 81.9079C186.919 85.9624 187.133 88.9337 188.58 91.9727L174.8 92.5821C174.034 90.4683 173.46 89.1744 173.269 82.3819L172.84 69.2706C172.588 61.5152 169.778 58.7394 163.653 59.0478L158.984 59.251L160.101 93.229L146.597 93.8232L143.864 10.3714L164.251 9.47635C178.245 8.85952 184.477 14.9149 184.921 27.793L185.135 34.3448C185.411 42.9277 182.77 48.6371 176.844 51.646C183.688 54.0982 186.107 60.3191 186.391 69.0223L186.781 81.9079ZM171.692 37.9179L171.416 29.6961C171.225 23.7385 169.051 21.2035 164.258 21.4217L157.751 21.7075L158.585 47.3433L163.876 47.1101C168.905 46.8844 171.906 44.6052 171.692 37.9254" fill="white"/>
<path d="M223.191 6.89062L239.681 89.7396L226.047 90.3339L223.214 75.2896L206.632 76.0418L204.772 91.2441L192.37 91.7856L203.417 7.74816L223.191 6.89062ZM207.987 64.6232L221.002 64.0515L213.116 22.1305L207.987 64.6232Z" fill="white"/>
<path d="M264.585 5.07019C278.089 4.47594 284.957 11.4567 285.393 24.8086L286.779 67.0083C287.215 80.3602 280.815 87.9201 267.31 88.5143L245.943 89.4546L243.21 6.01047L264.585 5.07019ZM273.282 68.1968L271.865 24.8011C271.666 18.8435 269.025 16.8125 264.723 17.0005L257.113 17.339L259.065 76.9527L266.675 76.6217C270.977 76.4337 273.481 74.1694 273.282 68.2118" fill="white"/>
<path d="M330.163 2.18164L330.553 14.1044L307.219 15.1349L307.977 38.3786L326.519 37.5587L326.909 49.4814L308.367 50.2938L309.163 74.7335L332.505 73.7105L332.896 85.6332L296.042 87.2505L293.316 3.80643L330.163 2.18164Z" fill="white"/>
<path d="M356.651 0.065034C369.796 -0.514175 376.801 6.83499 377.237 20.1718L377.322 22.7971L364.552 23.3537L364.445 19.9011C364.246 13.9435 361.712 11.7846 357.417 11.9726C353.122 12.1607 350.734 14.5377 350.933 20.4952C351.491 37.6609 378.003 39.7144 378.784 63.5598C379.22 76.9042 372.59 84.8401 359.331 85.4193C346.071 85.9985 338.936 78.6494 338.5 65.3276L338.331 60.2049L351.101 59.6408L351.3 65.5984C351.491 71.5635 354.27 73.5869 358.565 73.3989C362.86 73.2108 365.494 70.9541 365.295 64.989C364.736 47.8234 338.224 45.7623 337.443 21.917C337.007 8.57258 343.514 0.644243 356.651 0.065034Z" fill="white"/>
</svg>
