<svg width="21" height="21" viewBox="0 0 21 21" fill="none" xmlns="http://www.w3.org/2000/svg">
<path d="M19.5679 18.0675C20.3575 18.0675 21 17.425 21 16.6353V2.05078C21 0.91998 20.08 0 18.9492 0H2.05078C0.91998 0 0 0.91998 0 2.05078V16.6353C0 17.425 0.642469 18.0675 1.43214 18.0675H1.88672V20.1797H0.410156C0.183627 20.1797 0 20.3634 0 20.5898C0 20.8163 0.183627 21 0.410156 21H20.5898C20.8164 21 21 20.8163 21 20.5898C21 20.3634 20.8164 20.1797 20.5898 20.1797H19.1133V18.0675H19.5679ZM0.820312 2.05078C0.820312 1.3723 1.3723 0.820312 2.05078 0.820312H18.9492C19.6277 0.820312 20.1797 1.3723 20.1797 2.05078V2.95312H0.861492C0.847588 2.95312 0.833848 2.95386 0.820312 2.95522V2.05078ZM4.51172 20.1797H2.70703V16.4883H4.51172V20.1797ZM9.10547 20.1797H7.30078V11.9533H9.10547V20.1797ZM13.6992 20.1797H11.8945V15.4219H13.6992V20.1797ZM18.7031 10.5205H16.0781C15.8516 10.5205 15.668 10.7042 15.668 10.9307V13.0019C15.668 13.2284 15.8516 13.4121 16.0781 13.4121C16.3047 13.4121 16.4883 13.2284 16.4883 13.0019V11.3408H18.293V20.1797H16.4883V15.7603C16.4883 15.5338 16.3047 15.3501 16.0781 15.3501C15.8516 15.3501 15.668 15.5338 15.668 15.7603V20.1797H14.5195V15.0117C14.5195 14.7852 14.3359 14.6016 14.1094 14.6016H11.4844C11.2578 14.6016 11.0742 14.7852 11.0742 15.0117V20.1797H9.92578V11.5431C9.92578 11.3166 9.74215 11.133 9.51562 11.133H6.89062C6.6641 11.133 6.48047 11.3166 6.48047 11.5431V20.1797H5.33203V16.0781C5.33203 15.8516 5.1484 15.668 4.92188 15.668H2.29688C2.07035 15.668 1.88672 15.8516 1.88672 16.0781V17.2472H1.43214C1.09475 17.2472 0.820312 16.9727 0.820312 16.6353V3.77135C0.833848 3.7727 0.847588 3.77344 0.861492 3.77344H20.1797V16.6353C20.1797 16.9727 19.9052 17.2472 19.5679 17.2472H19.1133V10.9307C19.1133 10.7042 18.9297 10.5205 18.7031 10.5205Z" fill="#34374A"/>
<path d="M18.375 1.47656H9.10815C8.88163 1.47656 8.698 1.66023 8.698 1.88672C8.698 2.11321 8.88163 2.29688 9.10815 2.29688H18.375C18.6015 2.29688 18.7852 2.11321 18.7852 1.88672C18.7852 1.66023 18.6015 1.47656 18.375 1.47656Z" fill="#34374A"/>
<path d="M4.55561 1.59674C4.47932 1.52045 4.3735 1.47656 4.26562 1.47656C4.15775 1.47656 4.05193 1.52041 3.97564 1.59674C3.89936 1.67303 3.85547 1.77885 3.85547 1.88672C3.85547 1.99459 3.89936 2.10041 3.97564 2.17666C4.05193 2.25299 4.15775 2.29688 4.26562 2.29688C4.3735 2.29688 4.47932 2.25299 4.55561 2.17666C4.63189 2.10041 4.67578 1.99459 4.67578 1.88672C4.67578 1.77885 4.63189 1.67303 4.55561 1.59674Z" fill="#34374A"/>
<path d="M2.91498 1.59674C2.83869 1.52045 2.73287 1.47656 2.625 1.47656C2.51713 1.47656 2.41131 1.52041 2.33502 1.59674C2.25873 1.67303 2.21484 1.77885 2.21484 1.88672C2.21484 1.99459 2.25873 2.10041 2.33502 2.17666C2.41131 2.25299 2.51713 2.29688 2.625 2.29688C2.73287 2.29688 2.83869 2.25299 2.91498 2.17666C2.99127 2.10041 3.03516 1.99459 3.03516 1.88672C3.03516 1.77885 2.99127 1.67303 2.91498 1.59674Z" fill="#34374A"/>
<path d="M6.19623 1.59674C6.11994 1.52045 6.01453 1.47656 5.90625 1.47656C5.79838 1.47656 5.69256 1.52041 5.61627 1.59674C5.53998 1.67303 5.49609 1.77885 5.49609 1.88672C5.49609 1.99459 5.53998 2.10041 5.61627 2.17666C5.69256 2.25299 5.79838 2.29688 5.90625 2.29688C6.01412 2.29688 6.11994 2.25299 6.19623 2.17666C6.27252 2.10041 6.31641 1.99459 6.31641 1.88672C6.31641 1.77885 6.27252 1.67303 6.19623 1.59674Z" fill="#34374A"/>
<path d="M16.3681 14.1739C16.2918 14.0972 16.186 14.0537 16.0781 14.0537C15.9703 14.0537 15.8644 14.0972 15.7881 14.1739C15.7119 14.2502 15.668 14.356 15.668 14.4639C15.668 14.5717 15.7119 14.6776 15.7881 14.7538C15.8644 14.8301 15.9703 14.874 16.0781 14.874C16.186 14.874 16.2918 14.8301 16.3681 14.7538C16.4444 14.6776 16.4883 14.5717 16.4883 14.4639C16.4883 14.3556 16.4444 14.2502 16.3681 14.1739Z" fill="#34374A"/>
<path d="M17.3906 5.57568C16.5764 5.57568 15.9141 6.23804 15.9141 7.05225C15.9141 7.37565 16.0189 7.6749 16.1959 7.91841L13.4714 10.6429C13.26 10.5259 13.0171 10.459 12.7588 10.459C12.526 10.459 12.3058 10.5134 12.1098 10.6097L9.26495 7.76489C9.38197 7.55346 9.44882 7.31056 9.44882 7.05225C9.44882 6.23804 8.78646 5.57568 7.97226 5.57568C7.15806 5.57568 6.4957 6.23804 6.4957 7.05225C6.4957 7.33681 6.57683 7.60268 6.71685 7.82834L4.29476 10.2504C4.08332 10.1334 3.84043 10.0665 3.58215 10.0665C2.76795 10.0665 2.10559 10.7289 2.10559 11.5431C2.10559 12.3573 2.76795 13.0197 3.58215 13.0197C4.39635 13.0197 5.05872 12.3573 5.05872 11.5431C5.05872 11.2848 4.99186 11.0419 4.87484 10.8304L7.32585 8.37943C7.52121 8.47496 7.74056 8.52877 7.97226 8.52877C8.23054 8.52877 8.47343 8.46191 8.68487 8.34489L11.5018 11.1618C11.3627 11.387 11.2822 11.6519 11.2822 11.9355C11.2822 12.7497 11.9446 13.412 12.7588 13.412C13.573 13.412 14.2353 12.7497 14.2353 11.9355C14.2353 11.6772 14.1685 11.4343 14.0515 11.2228L16.8489 8.42537C17.0168 8.49189 17.1995 8.52881 17.3906 8.52881C18.2048 8.52881 18.8672 7.86645 18.8672 7.05225C18.8672 6.23804 18.2048 5.57568 17.3906 5.57568ZM3.58219 12.1994C3.22035 12.1994 2.92594 11.905 2.92594 11.5432C2.92594 11.1813 3.22035 10.8869 3.58219 10.8869C3.94403 10.8869 4.23844 11.1813 4.23844 11.5432C4.23844 11.905 3.94403 12.1994 3.58219 12.1994ZM7.9723 7.7085C7.61046 7.7085 7.31605 7.41409 7.31605 7.05225C7.31605 6.69041 7.61046 6.396 7.9723 6.396C8.33414 6.396 8.62855 6.69041 8.62855 7.05225C8.62855 7.41409 8.33414 7.7085 7.9723 7.7085ZM12.7588 12.5918C12.397 12.5918 12.1026 12.2974 12.1026 11.9356C12.1026 11.5737 12.397 11.2793 12.7588 11.2793C13.1207 11.2793 13.4151 11.5737 13.4151 11.9356C13.4151 12.2974 13.1207 12.5918 12.7588 12.5918ZM17.3906 7.7085C17.0288 7.7085 16.7344 7.41409 16.7344 7.05225C16.7344 6.69041 17.0288 6.396 17.3906 6.396C17.7525 6.396 18.0469 6.69041 18.0469 7.05225C18.0469 7.41409 17.7525 7.7085 17.3906 7.7085Z" fill="#34374A"/>
<path d="M6.0838 5.28916C6.0071 5.21287 5.90169 5.16895 5.79382 5.16895C5.68554 5.16895 5.57972 5.21283 5.50343 5.28916C5.42714 5.36541 5.38367 5.47123 5.38367 5.5791C5.38367 5.68697 5.42714 5.79279 5.50343 5.86908C5.58013 5.94537 5.68554 5.98926 5.79382 5.98926C5.90169 5.98926 6.0071 5.94541 6.0838 5.86908C6.16009 5.79279 6.20398 5.68697 6.20398 5.5791C6.20398 5.47123 6.16009 5.36541 6.0838 5.28916Z" fill="#34374A"/>
<path d="M4.26562 5.16895H2.29688C2.07035 5.16895 1.88672 5.35261 1.88672 5.5791C1.88672 5.80559 2.07035 5.98926 2.29688 5.98926H4.26562C4.49215 5.98926 4.67578 5.80559 4.67578 5.5791C4.67578 5.35261 4.49215 5.16895 4.26562 5.16895Z" fill="#34374A"/>
<path d="M4.26562 7.1377H2.29688C2.07035 7.1377 1.88672 7.32136 1.88672 7.54785C1.88672 7.77434 2.07035 7.95801 2.29688 7.95801H4.26562C4.49215 7.95801 4.67578 7.77434 4.67578 7.54785C4.67578 7.32136 4.49215 7.1377 4.26562 7.1377Z" fill="#34374A"/>
</svg>
