<svg width="23" height="25" viewBox="0 0 23 25" fill="none" xmlns="http://www.w3.org/2000/svg">
<path d="M11.5308 0C12.3132 0.443307 13.0955 0.92419 13.9639 1.32241C15.6806 2.14307 17.5344 2.667 19.4403 2.87023C20.4965 2.98293 21.5761 2.95288 22.6479 2.98293H22.9295C22.9295 3.26094 23 3.52392 23 3.79441C23 4.90643 23 6.04852 23 7.14551C22.9302 12.3171 20.7865 17.2637 17.0151 20.9556C15.4665 22.4985 13.7055 23.8307 11.7811 24.9154C11.7013 24.9704 11.6056 25 11.5073 25C11.4091 25 11.3133 24.9704 11.2335 24.9154C7.68463 22.9731 4.74264 20.1528 2.71378 16.748C1.40248 14.524 0.552351 12.077 0.210321 9.54237C0.0448516 8.22373 -0.0231294 6.8955 0.00690394 5.56764C0.00690394 4.71859 0.00690394 3.86955 0.00690394 2.99045H0.319765C1.33681 2.99045 2.34604 2.99045 3.35526 2.88526C5.36513 2.70314 7.32261 2.16564 9.12896 1.29987C9.91131 0.939218 10.592 0.51093 11.3196 0.105191C11.3698 0.0743557 11.417 0.0391435 11.4604 0H11.5308ZM3.05797 5.92078C3.05797 5.98089 3.05797 6.01845 3.05797 6.05602C3.01964 7.44239 3.14305 8.82852 3.42574 10.1885C4.41758 14.8317 7.2513 18.9221 11.3274 21.5943C11.3683 21.6324 11.423 21.6537 11.4799 21.6537C11.5369 21.6537 11.5916 21.6324 11.6325 21.5943C13.0314 20.6285 14.2983 19.4976 15.4034 18.2282C18.1735 15.1369 19.7607 11.2293 19.9019 7.15302C19.9019 6.73226 19.9019 6.31149 19.9019 5.88321L18.658 5.73294C16.3034 5.42071 14.0268 4.70292 11.9376 3.61408C11.8011 3.52621 11.6404 3.47931 11.476 3.47931C11.3116 3.47931 11.151 3.52621 11.0144 3.61408C9.12048 4.59513 7.07251 5.27276 4.95127 5.62024C4.3254 5.74046 3.69167 5.8231 3.05797 5.92078Z" fill="#34374A"/>
<path d="M18.1884 9.00162C18.1884 8.85886 18.2432 8.72361 18.2588 8.58837C18.2745 8.45312 18.2588 8.40804 18.2588 8.31787L6.35158 13.9156C6.43763 14.0884 6.53932 14.2462 6.62538 14.419L18.1884 9.00162Z" fill="#34374A"/>
<path d="M5.98409 13.0585L18.3764 7.28049C18.3764 7.28049 18.3764 7.23541 18.3764 7.21287C18.0791 7.1753 17.7896 7.10767 17.4923 7.05508L5.75718 12.5326C5.81977 12.7129 5.90586 12.8857 5.98409 13.0585Z" fill="#34374A"/>
<path d="M17.8052 10.8046C17.8678 10.5641 17.946 10.3237 18.0008 10.0532L7.04797 15.14C7.14967 15.3053 7.26697 15.4631 7.37649 15.6208L17.8052 10.8046Z" fill="#34374A"/>
<path d="M5.45969 11.661L16.037 6.73203C14.5627 6.37485 13.131 5.87123 11.7653 5.22929C11.6842 5.18517 11.5926 5.16198 11.4994 5.16198C11.4061 5.16198 11.3145 5.18517 11.2334 5.22929C9.60745 6.02517 7.87912 6.61129 6.09334 6.97246L4.57564 7.25798C4.67735 8.00935 4.73212 8.8058 4.88077 9.55717C5.02879 10.2691 5.22213 10.9717 5.45969 11.661Z" fill="#34374A"/>
<path d="M7.92429 16.4021C8.8896 17.666 10.0262 18.8006 11.304 19.7758C11.3274 19.8001 11.3559 19.8196 11.3875 19.8328C11.4192 19.8461 11.4533 19.853 11.4878 19.853C11.5223 19.853 11.5565 19.8461 11.5882 19.8328C11.6198 19.8196 11.6482 19.8001 11.6716 19.7758C13.5565 18.3654 15.1196 16.5982 16.264 14.5838C16.7343 13.746 17.1295 12.8713 17.4454 11.9691L7.92429 16.4021Z" fill="#34374A"/>
</svg>
