<svg width="25" height="24" viewBox="0 0 25 24" fill="none" xmlns="http://www.w3.org/2000/svg">
<path d="M0.40156 22.3998H1.60155V23.5998C1.60155 23.8207 1.78065 23.9998 2.00155 23.9998H18.8014C19.0223 23.9998 19.2014 23.8207 19.2014 23.5998V21.9998H18.4014V23.1998H2.40155V22.3998H11.6015V21.5998H0.801557V4.39997H4.00153C4.22243 4.39997 4.40153 4.22087 4.40153 3.99997V0.799994H16.8014V8.39994H17.6014V2.39998H18.4014V9.19994H19.2014V1.99999C19.2014 1.77909 19.0223 1.59999 18.8014 1.59999H17.6014V0.399997C17.6014 0.1791 17.4223 0 17.2014 0H4.00153C3.99353 0 3.9863 0.00410153 3.97829 0.00488277C3.94196 0.0066406 3.90603 0.0138671 3.87165 0.0259764C3.85974 0.029492 3.84822 0.0337888 3.83669 0.0384763C3.79294 0.0576168 3.7529 0.0847651 3.71872 0.118359L0.118749 3.71833C0.0853509 3.75232 0.0582027 3.79216 0.0388669 3.83572C0.0332029 3.84802 0.0300779 3.86052 0.0255858 3.87322C0.0140624 3.90642 0.0072265 3.94099 0.00527341 3.97595C0.00527341 3.98474 0 3.99235 0 4.00114V21.9998C0 22.1063 0.0423825 22.2082 0.117773 22.2832C0.193163 22.3584 0.29531 22.4002 0.40156 22.3998ZM3.60154 1.36562V3.59997H1.36718L3.60154 1.36562Z" fill="#34374A"/>
<path d="M12.4015 8.79969V8.3997H15.6015V6.39971C15.6007 5.77882 15.1261 5.26105 14.5076 5.20616C14.4724 5.20167 14.437 5.19952 14.4015 5.19972H3.20158C2.53889 5.19972 2.00159 5.73702 2.00159 6.39971V19.1996C2.00159 19.8625 2.53889 20.3996 3.20158 20.3996H9.20154V19.5996H5.20157V18.3996H8.40154V17.5996H5.20157V16.3996H8.00155V15.5996H5.20157V14.3997H8.08162V13.5997H5.20157V12.3997H8.80154V11.5997H5.20157V10.3997H10.4015V9.59969H5.20157V8.3997H11.6015V8.79969H12.4015ZM14.4343 6.00264C14.6417 6.01846 14.8019 6.1917 14.8015 6.39971V7.5997H12.4015V5.99698H14.3847C14.4011 5.99991 14.4177 6.00167 14.4343 6.00264ZM3.20158 5.99971H4.40157V7.5997H2.80158V6.39971C2.80158 6.17881 2.98068 5.99971 3.20158 5.99971ZM4.40157 19.5996H3.20158C2.98068 19.5996 2.80158 19.4205 2.80158 19.1996V18.3996H4.40157V19.5996ZM4.40157 17.5996H2.80158V16.3996H4.40157V17.5996ZM4.40157 15.5996H2.80158V14.3997H4.40157V15.5996ZM4.40157 13.5997H2.80158V12.3997H4.40157V13.5997ZM4.40157 11.5997H2.80158V10.3997H4.40157V11.5997ZM4.40157 9.59969H2.80158V8.3997H4.40157V9.59969ZM5.20157 7.5997V5.99971L11.6015 5.99776V7.5997H5.20157Z" fill="#34374A"/>
<path d="M6.00159 3.6001H9.20157V4.40009H6.00159V3.6001Z" fill="#34374A"/>
<path d="M10.0013 3.6001H11.6013V4.40009H10.0013V3.6001Z" fill="#34374A"/>
<path d="M6.00159 2H11.6015V2.79999H6.00159V2Z" fill="#34374A"/>
<path d="M20.6843 18.9174L20.6331 18.9686C22.3833 16.1555 21.7079 12.4729 19.0733 10.4639C16.4388 8.45477 12.7087 8.77801 10.4589 11.2102C8.20915 13.6424 8.17712 17.3863 10.3851 19.8564C12.5931 22.3267 16.3171 22.7137 18.9854 20.7498L21.8702 23.6345C22.3579 24.1222 23.1483 24.1222 23.6358 23.6345C24.1235 23.147 24.1235 22.3566 23.6358 21.8691L20.6843 18.9174ZM9.60152 15.6002C9.60152 12.5075 12.1087 10.0003 15.2015 10.0003C18.2942 10.0003 20.8014 12.5075 20.8014 15.6002C20.8014 18.693 18.2942 21.2002 15.2015 21.2002C12.1101 21.1969 9.60484 18.6916 9.60152 15.6002ZM22.753 23.2002C22.634 23.2006 22.52 23.1533 22.4358 23.0691L19.6015 20.235C19.8192 20.0291 20.0222 19.8082 20.2091 19.5738L23.0698 22.4346C23.1981 22.5629 23.2366 22.7556 23.1672 22.9232C23.0979 23.0908 22.9344 23.2002 22.753 23.2002Z" fill="#34374A"/>
<path d="M15.2015 10.7998C12.5505 10.7998 10.4015 12.9488 10.4015 15.5998C10.4015 18.2507 12.5505 20.3997 15.2015 20.3997C17.8524 20.3997 20.0014 18.2507 20.0014 15.5998C19.9987 12.95 17.8512 10.8027 15.2015 10.7998ZM13.6015 15.5998C13.6015 14.7162 14.3179 13.9998 15.2015 13.9998C16.0852 13.9998 16.8014 14.7162 16.8014 15.5998C16.8014 16.4836 16.0852 17.1998 15.2015 17.1998C14.3179 17.1998 13.6015 16.4836 13.6015 15.5998ZM13.1362 16.8162C12.4493 16.5529 11.831 16.1371 11.3282 15.5998C11.831 15.0627 12.4493 14.6467 13.1362 14.3834C12.6899 15.133 12.6899 16.0668 13.1362 16.8162ZM17.2667 14.3834C17.9538 14.6467 18.5719 15.0627 19.0747 15.5998C18.5719 16.1371 17.9538 16.5529 17.2667 16.8162C17.713 16.0668 17.713 15.133 17.2667 14.3834ZM15.2015 11.5998C16.9804 11.6019 18.5444 12.7775 19.0415 14.4855C18.011 13.6888 16.7524 13.2428 15.4503 13.2127C15.2856 13.1955 15.1198 13.1955 14.9552 13.2127C13.6521 13.2424 12.3927 13.6883 11.3614 14.4855C11.8585 12.7775 13.4228 11.6019 15.2015 11.5998ZM15.2015 19.5997C13.4228 19.5976 11.8585 18.4222 11.3614 16.7142C12.3921 17.5109 13.6505 17.9568 14.9526 17.9871C15.1173 18.0041 15.2833 18.0041 15.4479 17.9871C16.7509 17.9574 18.0102 17.5113 19.0415 16.7142C18.5444 18.4222 16.9804 19.5976 15.2015 19.5997Z" fill="#34374A"/>
<path d="M16.0015 15.5998C16.0015 16.0416 15.6433 16.3998 15.2015 16.3998C14.7597 16.3998 14.4015 16.0416 14.4015 15.5998C14.4015 15.158 14.7597 14.7998 15.2015 14.7998C15.6433 14.7998 16.0015 15.158 16.0015 15.5998Z" fill="#34374A"/>
</svg>
