<svg width="29" height="27" viewBox="0 0 29 27" fill="none" xmlns="http://www.w3.org/2000/svg">
<path d="M18.3615 0.0760434C15.9246 -0.210536 13.4615 0.317764 11.3564 1.57847C9.2514 2.83918 7.623 4.76136 6.7254 7.04497C6.04393 8.78112 5.81189 10.6612 6.05079 12.511C6.28969 14.3607 6.99177 16.1202 8.09198 17.6262L0.100094 24.4433C0.0684307 24.4739 0.0432474 24.5105 0.0260478 24.551C0.00884816 24.5915 0 24.6351 0 24.6791C0 24.7231 0.00884816 24.7666 0.0260478 24.8071C0.0432474 24.8476 0.0684307 24.8843 0.100094 24.9148L1.41877 26.4652C1.47616 26.5328 1.55793 26.575 1.64628 26.5825C1.73462 26.5899 1.82233 26.5622 1.89027 26.5052L10.0341 19.6002C11.8384 21.1108 14.0789 22.0042 16.4276 22.1496C18.7842 22.3036 21.1286 21.7024 23.1205 20.4335C25.1123 19.1645 26.6479 17.2938 27.5043 15.0928C28.1136 13.5077 28.3512 11.8039 28.1986 10.1126C28.0461 8.42121 27.5076 6.78743 26.6244 5.33691C25.7413 3.8864 24.5372 2.65784 23.1047 1.74578C21.6722 0.833729 20.0495 0.262495 18.3615 0.0760434ZM11.8881 10.5454V10.0179H22.1817V10.5454H11.8881ZM22.1817 11.6563V12.1838H11.8881V11.6563H22.1817ZM11.8881 8.90707V8.37162H22.1817V8.90707H11.8881ZM11.8881 7.3087V6.77324H22.1817V7.3087H11.8881ZM11.8881 16.7471H17.0589V17.0508H11.8881V16.7471ZM11.8881 16.3475V16.0518H17.0589V16.3475H11.8881ZM11.8881 15.6522V15.3565H17.0589V15.6522H11.8881ZM11.8881 13.862V13.3346H22.1817V13.862H11.8881ZM22.1817 5.67036H11.8881V5.13491H22.1817V5.67036ZM20.5833 2.47361C20.9475 2.62575 21.3024 2.79921 21.6462 2.99308H12.5115C13.7241 2.30058 15.0765 1.88871 16.4692 1.78775C17.8619 1.68678 19.2595 1.8993 20.5593 2.40967L20.5833 2.47361ZM7.79628 10.002C8.07519 7.75671 9.16004 5.68917 10.8491 4.18387V18.1297C9.70674 17.1187 8.82862 15.844 8.291 14.4164C7.75337 12.9888 7.57253 11.4514 7.76429 9.93803L7.79628 10.002ZM13.5744 19.832C13.2069 19.6815 12.8492 19.508 12.5035 19.3125H21.6382C20.4101 19.9929 19.0442 20.3873 17.6424 20.4661C16.2407 20.545 14.8391 20.3064 13.5424 19.768L13.5744 19.832ZM26.3614 12.3036C26.0797 14.5498 24.992 16.6172 23.3006 18.1217V4.17588C24.4153 5.17876 25.2729 6.43461 25.8013 7.83783C26.3298 9.24105 26.5136 10.7506 26.3374 12.2397L26.3614 12.3036Z" fill="#34374A"/>
</svg>
