<svg width="21" height="21" viewBox="0 0 21 21" fill="none" xmlns="http://www.w3.org/2000/svg">
<path d="M19.697 9.10981H15.0343L15.3545 8.78967C15.8625 8.28168 15.8625 7.45507 15.3545 6.94704L8.78905 0.381619C8.54295 0.135519 8.21571 0 7.86773 0C7.5197 0 7.19247 0.135519 6.94637 0.381619L4.96887 2.3592C4.8087 2.51937 4.8087 2.77909 4.96887 2.93926C5.12909 3.09943 5.38872 3.09943 5.54897 2.93926L7.52651 0.961718C7.61765 0.870538 7.73885 0.820375 7.86777 0.820375C7.99669 0.820375 8.11789 0.870579 8.20899 0.961718L14.7744 7.5271C14.9625 7.71528 14.9625 8.02147 14.7744 8.20961L8.20899 14.775C8.11781 14.8661 7.99664 14.9163 7.86777 14.9163C7.73881 14.9163 7.61765 14.8661 7.52651 14.7749L0.961093 8.20961C0.772908 8.02143 0.772908 7.71524 0.961093 7.52705L2.93863 5.54956C3.0988 5.38939 3.0988 5.12967 2.93863 4.96946C2.77842 4.80933 2.51878 4.80933 2.35853 4.96946L0.380994 6.94704C-0.126998 7.45503 -0.126998 8.28168 0.380994 8.78967L6.94641 15.355C7.19251 15.6011 7.51974 15.7367 7.86777 15.7367C8.2158 15.7367 8.54299 15.6011 8.78909 15.355L9.10922 15.0349V19.6976C9.10922 20.4161 9.69371 21.0005 10.4122 21.0005H19.697C20.4155 21.0005 21 20.4161 21 19.6976V10.4127C20.9999 9.69429 20.4154 9.10981 19.697 9.10981ZM20.1796 19.6976C20.1796 19.9637 19.9631 20.1802 19.6969 20.1802H10.4122C10.146 20.1802 9.92951 19.9637 9.92951 19.6976V14.2146L14.214 9.93014H19.697C19.9631 9.93014 20.1796 10.1466 20.1796 10.4127V19.6976H20.1796Z" fill="#34374A"/>
<path d="M15.0546 13.5381C14.218 13.5381 13.5374 14.2187 13.5374 15.0553C13.5374 15.8919 14.218 16.5725 15.0546 16.5725C15.8912 16.5725 16.5718 15.8919 16.5718 15.0553C16.5718 14.2187 15.8912 13.5381 15.0546 13.5381ZM15.0546 15.7522C14.6703 15.7522 14.3577 15.4395 14.3577 15.0553C14.3577 14.671 14.6703 14.3584 15.0546 14.3584C15.4388 14.3584 15.7514 14.671 15.7514 15.0553C15.7514 15.4395 15.4388 15.7522 15.0546 15.7522Z" fill="#34374A"/>
<path d="M4.73658 9.38504C5.12513 9.38504 5.5136 9.23718 5.80941 8.94141C5.80941 8.94137 5.80941 8.94137 5.80941 8.94137C6.40096 8.34983 6.40096 7.38729 5.80941 6.7957C5.21779 6.20416 4.25525 6.20416 3.66375 6.79574C3.07221 7.38729 3.07221 8.34982 3.66375 8.94141C3.95952 9.23718 4.34803 9.38504 4.73658 9.38504ZM4.24381 7.3758C4.37965 7.23991 4.55808 7.17199 4.73658 7.17199C4.91505 7.17199 5.09351 7.23995 5.22936 7.37576C5.50105 7.64745 5.50105 8.08961 5.22936 8.36131C4.95762 8.63304 4.5155 8.633 4.24385 8.36131C3.97211 8.08961 3.97211 7.6475 4.24381 7.3758Z" fill="#34374A"/>
<path d="M8.94058 5.81004C9.53213 5.21846 9.53213 4.25592 8.94058 3.66438C8.34904 3.07283 7.38654 3.07279 6.79496 3.66438C6.50842 3.95096 6.35059 4.33196 6.35059 4.73721C6.35059 5.14245 6.50842 5.52346 6.79496 5.81004C7.09073 6.10581 7.47928 6.25368 7.86775 6.25368C8.25626 6.25372 8.64481 6.10581 8.94058 5.81004ZM7.17088 4.73721C7.17088 4.55107 7.24336 4.37606 7.37502 4.24443C7.51087 4.10859 7.68929 4.04066 7.86779 4.04066C8.04622 4.04066 8.22468 4.10859 8.36053 4.24443C8.63222 4.51617 8.63222 4.95829 8.36053 5.22998C8.08887 5.50176 7.64671 5.50168 7.37506 5.22998C7.24336 5.09836 7.17088 4.92334 7.17088 4.73721Z" fill="#34374A"/>
<path d="M6.79488 12.0722C7.08142 12.3588 7.46243 12.5166 7.86771 12.5166C8.27296 12.5166 8.65396 12.3588 8.94046 12.0722C9.22705 11.7857 9.38492 11.4047 9.38492 10.9994C9.38492 10.5941 9.22705 10.2131 8.9405 9.92657C8.34896 9.33502 7.38642 9.33502 6.79488 9.92657C6.5083 10.2131 6.35046 10.5941 6.35046 10.9994C6.3505 11.4046 6.50834 11.7856 6.79488 12.0722ZM7.37498 10.5066C7.51083 10.3708 7.68925 10.3029 7.86771 10.3029C8.04618 10.3029 8.22464 10.3708 8.36053 10.5066C8.49215 10.6382 8.56463 10.8133 8.56463 10.9994C8.56463 11.1855 8.49215 11.3605 8.36053 11.4921C8.36049 11.4921 8.36049 11.4921 8.36049 11.4921C8.22886 11.6238 8.05385 11.6962 7.86775 11.6962C7.68162 11.6962 7.5066 11.6238 7.37494 11.4921C7.24332 11.3605 7.17084 11.1855 7.17084 10.9994C7.17084 10.8133 7.24332 10.6382 7.37498 10.5066Z" fill="#34374A"/>
<path d="M12.0717 8.94138C12.0717 8.94138 12.0717 8.94138 12.0717 8.94134C12.6633 8.34979 12.6633 7.38726 12.0717 6.79567C11.4801 6.20413 10.5175 6.20421 9.92608 6.79571C9.33454 7.38726 9.33454 8.34979 9.92608 8.94138C10.2219 9.23715 10.6104 9.38501 10.9989 9.38501C11.3873 9.38501 11.776 9.23711 12.0717 8.94138ZM10.5061 8.36132C10.2344 8.08963 10.2344 7.64747 10.5061 7.37577C10.642 7.23992 10.8204 7.172 10.9989 7.172C11.1774 7.172 11.3558 7.23992 11.4917 7.37577C11.7634 7.64747 11.7634 8.08963 11.4917 8.36132C11.2199 8.63301 10.7778 8.63297 10.5061 8.36132Z" fill="#34374A"/>
<path d="M3.95387 4.36477C4.06174 4.36477 4.16756 4.32088 4.24382 4.24459C4.32011 4.1683 4.36403 4.06247 4.36403 3.9546C4.36403 3.84632 4.32015 3.7409 4.24382 3.66461C4.16756 3.58832 4.06174 3.54443 3.95387 3.54443C3.84599 3.54443 3.74017 3.58791 3.66388 3.66461C3.58759 3.7409 3.5437 3.84673 3.5437 3.9546C3.5437 4.06247 3.58755 4.1683 3.66388 4.24459C3.74017 4.32088 3.84599 4.36477 3.95387 4.36477Z" fill="#34374A"/>
</svg>
