<svg width="29" height="29" viewBox="0 0 29 29" fill="none" xmlns="http://www.w3.org/2000/svg">
<path d="M16.518 4.59013C15.1424 5.48909 13.8614 6.52491 12.6943 7.68178C11.9209 8.45835 11.2015 9.28703 10.5414 10.162C8.40528 13.093 6.80464 16.3788 5.81348 19.8676L8.39703 22.4511C11.8858 21.4599 15.1716 19.8593 18.1026 17.7232C18.9776 17.0631 19.8061 16.3437 20.5827 15.5702C21.7396 14.4032 22.7755 13.1221 23.6745 11.7466C25.9626 8.17477 27.5117 4.18058 28.2302 0C24.0577 0.728665 20.0744 2.28971 16.518 4.59013ZM21.4698 11.1265C20.9144 11.6808 20.1618 11.9921 19.3771 11.9921C18.5925 11.9921 17.8399 11.6808 17.2845 11.1265C16.7302 10.5711 16.4189 9.81851 16.4189 9.03384C16.4189 8.24917 16.7302 7.49656 17.2845 6.94116C17.8399 6.38687 18.5925 6.07558 19.3771 6.07558C20.1618 6.07558 20.9144 6.38687 21.4698 6.94116C22.0241 7.49656 22.3354 8.24917 22.3354 9.03384C22.3354 9.81851 22.0241 10.5711 21.4698 11.1265Z" fill="#34374A"/>
<path d="M22.4079 20.2032C23.7037 17.9579 24.2413 15.3547 23.9409 12.7798C23.047 14.1617 22.0107 15.4461 20.8491 16.6121C20.0725 17.3828 19.2439 18.0993 18.369 18.7564C18.5369 19.3845 18.6407 20.0279 18.6789 20.6769C18.7557 21.9379 18.598 23.2022 18.2139 24.4058C19.944 23.3811 21.3868 21.9354 22.4079 20.2032Z" fill="#34374A"/>
<path d="M15.9147 3.9953C13.3398 3.69489 10.7368 4.23244 8.49144 5.52821C6.76123 6.54897 5.31813 7.99197 4.29736 9.72218C5.50092 9.33807 6.76533 9.18039 8.02636 9.25714C8.67526 9.29608 9.3186 9.39994 9.94679 9.56717C10.6014 8.69024 11.318 7.86137 12.0911 7.08695C13.2559 5.92757 14.5372 4.89154 15.9147 3.9953Z" fill="#34374A"/>
<path d="M5.2276 21.064L2.64404 27.9535C2.84212 27.9018 3.04877 27.8415 3.26407 27.764L5.74418 21.219L5.50303 20.9692H5.41703L5.2276 21.064Z" fill="#34374A"/>
<path d="M4.28912 21.366L1.70557 28.1521L2.1103 28.0574L2.30835 28.0057L4.89191 21.1162L4.28912 21.366Z" fill="#34374A"/>
<path d="M6.90715 22.3823L6.51104 21.9775L4.53027 27.1447C4.78787 27.0042 5.03544 26.8459 5.27099 26.671L6.90715 22.3823Z" fill="#34374A"/>
<path d="M3.54834 27.6362C3.77193 27.5544 3.99048 27.4596 4.20285 27.352L6.31271 21.7887L5.9166 21.3926L3.54834 27.6362Z" fill="#34374A"/>
<path d="M1.94599 22.6489C0.849265 24.1159 0.186838 25.8616 0.0341797 27.6869L1.94599 22.6489Z" fill="#34374A"/>
<path d="M5.64941 26.4031C5.80064 26.2734 5.94171 26.1323 6.07139 25.9811C6.7345 25.2577 6.76887 24.3362 7.28558 22.9411L7.36316 22.8378L7.10477 22.5708L5.64941 26.4031Z" fill="#34374A"/>
<path d="M3.04863 21.7793C2.7861 21.878 2.54378 22.024 2.33378 22.2099L0 28.3674H0.568307L3.04863 21.7793Z" fill="#34374A"/>
<path d="M3.9872 21.4521L3.35834 21.6588L0.84375 28.29L1.4293 28.2038L3.9872 21.4521Z" fill="#34374A"/>
</svg>
