<svg width="25" height="26" viewBox="0 0 25 26" fill="none" xmlns="http://www.w3.org/2000/svg">
<path d="M25.0004 0.879093C24.9392 1.33653 24.8817 1.79641 24.8089 2.2508C24.3386 5.19725 23.4158 7.97675 21.7432 10.4755C20.9997 11.5761 20.1101 12.5706 19.0989 13.4318C19.0316 13.4929 18.9662 13.5498 18.8903 13.6153C18.9949 13.8379 19.1081 14.0525 19.1961 14.2757C19.8382 15.8462 19.4065 17.2919 18.258 18.3645C16.9658 19.5711 15.4014 20.1619 13.6542 20.305C13.3986 20.3258 13.1589 20.2964 13.0299 20.0329C12.9008 19.7693 13.0299 19.5656 13.2005 19.3748C13.7882 18.7266 14.0444 17.9609 13.9955 17.0913C13.9772 16.755 13.8781 16.6999 13.5613 16.8106C12.9332 17.0308 12.3015 17.2387 11.6722 17.457C11.3242 17.5763 10.9756 17.6136 10.6026 17.4668C10.5207 17.6105 10.4412 17.7487 10.3629 17.8875C9.73971 18.9926 8.7282 19.5614 7.54974 19.8604C6.81955 20.0439 6.07162 20.1662 5.32797 20.2934C4.92863 20.3631 4.65528 20.1166 4.69258 19.732C4.80449 18.6196 5.03077 17.5335 5.46192 16.4957C5.83435 15.5991 6.4777 14.9594 7.32347 14.5075C7.38463 14.4739 7.44578 14.4372 7.53017 14.3913C7.3412 13.9736 7.44639 13.5724 7.57971 13.1768C7.78213 12.5762 7.99068 11.9787 8.19983 11.3806C8.28422 11.136 8.22368 11.0259 7.96866 11.0051C7.19068 10.9269 6.41283 11.1548 5.80011 11.6406C5.69125 11.7256 5.58912 11.8191 5.47965 11.9041C5.40809 11.9658 5.31946 12.0043 5.22554 12.0144C5.13161 12.0246 5.03681 12.006 4.95371 11.961C4.86631 11.9233 4.79339 11.8585 4.74579 11.7761C4.6982 11.6937 4.67846 11.5981 4.68952 11.5036C4.74334 11.0039 4.77086 10.4939 4.89439 10.0102C5.21179 8.76504 5.75057 7.62511 6.66789 6.69372C7.47086 5.87607 8.42671 5.42108 9.59783 5.51648C10.166 5.56986 10.7157 5.74642 11.2087 6.03386C11.3261 6.0999 11.3988 6.10113 11.4949 5.98738C13.5643 3.52772 16.216 1.97621 19.2481 1.01241C20.8756 0.493868 22.5553 0.156294 24.2567 0.00579644C24.5796 -0.0223349 24.8328 0.0461558 24.9985 0.339089L25.0004 0.879093ZM14.045 15.5459C14.1129 15.5147 14.1673 15.4958 14.2156 15.4676C15.04 14.9961 15.8889 14.5619 16.6833 14.0439C19.52 12.1946 21.5233 9.67625 22.693 6.48885C22.7054 6.44368 22.7073 6.39625 22.6985 6.35023C22.6897 6.30421 22.6704 6.26083 22.6422 6.22344C21.36 4.92858 20.0717 3.63983 18.7772 2.35721C18.7436 2.32942 18.704 2.30983 18.6616 2.29996C18.6191 2.29009 18.575 2.29022 18.5326 2.30034C16.9334 2.90394 15.4326 3.68978 14.1099 4.78262C12.107 6.4387 10.6313 8.50146 9.5171 10.8333C9.50519 10.8781 9.50415 10.9251 9.51404 10.9704C9.52393 11.0157 9.54448 11.0581 9.57398 11.0938C11.0124 12.5432 12.455 13.9885 13.9019 15.4297C13.9472 15.4731 13.9998 15.5092 14.045 15.5459ZM10.6968 6.8784C9.81064 6.26685 8.50498 6.3702 7.63903 7.12853C6.75289 7.9052 6.23553 8.90203 5.90407 10.0071C5.86187 10.1478 5.83679 10.2927 5.79521 10.4719C6.76941 10.0371 7.71914 9.86032 8.68234 10.1551L10.6968 6.8784ZM14.8462 16.3177C15.1519 17.2962 14.9422 18.2441 14.5526 19.173C14.5832 19.181 14.5997 19.192 14.6138 19.1889C15.909 18.8832 17.0655 18.3291 17.9314 17.287C18.6561 16.4137 18.7112 15.1845 18.1235 14.3032L14.8462 16.3177ZM5.73956 19.2654C6.60246 19.1174 7.39991 18.9474 8.15885 18.6183C8.90127 18.2967 9.39235 17.7389 9.71403 17.0173C9.74705 16.9439 9.73603 16.8014 9.68527 16.7482C9.21805 16.2627 8.73921 15.7869 8.25609 15.3166C8.22514 15.2911 8.18868 15.2732 8.14962 15.2643C8.11056 15.2554 8.06997 15.2557 8.03104 15.2652C7.43723 15.5208 6.93024 15.889 6.58839 16.4516C6.19394 17.1011 6.02821 17.8301 5.86187 18.5584C5.81234 18.7767 5.78482 19 5.73956 19.2654ZM19.7954 1.87164L23.1333 5.20887C23.5512 3.8443 23.8343 2.44203 23.9785 1.02219C22.5599 1.16948 21.159 1.45396 19.7954 1.87164ZM8.99362 11.9622C8.79915 12.5854 8.5955 13.1921 8.42977 13.8091C8.39797 13.9314 8.4738 14.1253 8.56676 14.2213C9.29084 14.9682 10.0259 15.7043 10.772 16.4296C10.865 16.5201 11.0497 16.6051 11.1597 16.5752C11.7902 16.4058 12.4116 16.2009 13.0378 16.007L8.99362 11.9622Z" fill="#34374A"/>
<path d="M0.585274 25.0019C0.143123 24.6961 0.121706 24.4258 0.511264 24.0363C1.53052 23.017 2.54977 21.9978 3.56902 20.9785C3.63064 20.914 3.69891 20.8562 3.77267 20.8061C3.86433 20.7441 3.97473 20.7161 4.08483 20.7269C4.19494 20.7376 4.29784 20.7864 4.37581 20.8649C4.45378 20.9434 4.50193 21.0466 4.51195 21.1567C4.52197 21.2669 4.49323 21.3771 4.4307 21.4684C4.37935 21.5414 4.32098 21.6092 4.25642 21.6708C3.23716 22.6901 2.21791 23.7081 1.19866 24.7249C1.0833 24.8254 0.960658 24.9171 0.831731 24.9995L0.585274 25.0019Z" fill="#34374A"/>
<path d="M4.49301 25.0019C4.05147 24.6961 4.03007 24.4258 4.41902 24.0363C5.43827 23.017 6.45752 21.9978 7.47677 20.9785C7.53861 20.914 7.60706 20.8562 7.68102 20.8061C7.77268 20.7441 7.88308 20.7161 7.99319 20.7269C8.10329 20.7376 8.2062 20.7864 8.28416 20.8649C8.36213 20.9434 8.41028 21.0466 8.4203 21.1567C8.43032 21.2669 8.40158 21.3771 8.33905 21.4684C8.2875 21.5412 8.22915 21.609 8.16477 21.6708C7.14551 22.6901 6.12626 23.7081 5.10701 24.7249C4.99165 24.8254 4.86901 24.9171 4.74008 24.9995L4.49301 25.0019Z" fill="#34374A"/>
<path d="M4.34676 17.0308C4.23668 17.2142 4.18041 17.361 4.07828 17.4643C3.02111 18.5321 1.95906 19.5954 0.89211 20.6542C0.638316 20.9068 0.345992 20.9172 0.139899 20.7019C-0.0661934 20.4866 -0.043566 20.2188 0.201054 19.968C1.26108 18.9027 2.32313 17.8392 3.38723 16.7776C3.55662 16.6082 3.76395 16.5091 3.97738 16.629C4.1266 16.7103 4.21711 16.8828 4.34676 17.0308Z" fill="#34374A"/>
<path d="M17.5972 9.8292C17.2768 9.82979 16.9595 9.76675 16.6637 9.64375C16.3679 9.52075 16.0994 9.34024 15.8739 9.11268C15.6484 8.88512 15.4703 8.61505 15.35 8.31813C15.2297 8.02121 15.1695 7.70335 15.173 7.383C15.1828 6.03025 16.2848 4.9368 17.6192 4.95331C18.9713 4.97227 20.0654 6.07551 20.0483 7.39951C20.0478 7.72026 19.9839 8.03774 19.8603 8.3337C19.7367 8.62967 19.5558 8.89828 19.328 9.12408C19.1002 9.34989 18.83 9.52843 18.533 9.64944C18.2359 9.77045 17.9179 9.83154 17.5972 9.8292ZM17.6125 8.85072C17.9018 8.85022 18.1846 8.76376 18.4247 8.60231C18.6649 8.44086 18.8516 8.2117 18.9613 7.94392C19.071 7.67614 19.0987 7.3818 19.0408 7.09827C18.9829 6.81474 18.8421 6.55479 18.6363 6.35142C18.4304 6.14805 18.1688 6.01042 17.8845 5.95601C17.6003 5.9016 17.3063 5.93285 17.0399 6.0458C16.7735 6.15875 16.5466 6.34831 16.3881 6.59042C16.2296 6.83252 16.1466 7.11626 16.1496 7.40563C16.15 7.59689 16.1881 7.78621 16.2619 7.96265C16.3358 8.1391 16.4438 8.29919 16.5798 8.43369C16.7157 8.5682 16.877 8.67446 17.0542 8.74635C17.2315 8.81824 17.4212 8.85433 17.6125 8.85256V8.85072Z" fill="#34374A"/>
</svg>
