<svg width="32" height="47" viewBox="0 0 32 47" fill="none" xmlns="http://www.w3.org/2000/svg">
<path d="M2.59131 11.256H29.2019C29.2019 8.36533 28.0536 5.59304 26.0096 3.54901C23.9656 1.50499 21.1933 0.356666 18.3026 0.356666H13.56C12.1229 0.347524 10.6982 0.622693 9.36782 1.16634C8.03744 1.70999 6.82763 2.51138 5.80818 3.52439C4.78872 4.5374 3.97959 5.74203 3.42752 7.06894C2.87544 8.39585 2.59128 9.81884 2.59131 11.256Z" fill="#34374A"/>
<path d="M31.0339 13.3633H0.762573C0.402626 13.3633 0.11084 13.6551 0.11084 14.015V14.126C0.11084 14.4859 0.402626 14.7777 0.762573 14.7777H31.0339C31.3939 14.7777 31.6857 14.4859 31.6857 14.126V14.015C31.6857 13.6551 31.3939 13.3633 31.0339 13.3633Z" fill="#34374A"/>
<path d="M30.6868 44.522H28.2739L26.7347 39.3497C28.3082 37.6455 29.1886 35.4151 29.2031 33.0957H2.59248C2.60537 35.418 3.4915 37.6506 5.0747 39.3497L3.5355 44.522H1.39995C1.27425 44.5145 1.14837 44.5319 1.02941 44.5732C0.910446 44.6144 0.800819 44.6788 0.706775 44.7625C0.612732 44.8463 0.536048 44.9477 0.481303 45.0611C0.426559 45.1745 0.394772 45.2976 0.387695 45.4233C0.4055 45.6748 0.521801 45.909 0.711346 46.0752C0.90089 46.2414 1.14834 46.3261 1.39995 46.3108H30.6868C30.8106 46.3183 30.9348 46.3013 31.052 46.2607C31.1693 46.2201 31.2775 46.1568 31.3703 46.0744C31.463 45.9919 31.5385 45.892 31.5925 45.7802C31.6466 45.6685 31.6781 45.5472 31.6851 45.4233C31.6708 45.172 31.558 44.9363 31.3711 44.7676C31.1842 44.5989 30.9383 44.5106 30.6868 44.522ZM6.1286 40.3619C8.20542 42.0699 10.8169 42.9928 13.5057 42.9689H18.3037C20.988 42.9907 23.5944 42.0679 25.667 40.3619L26.915 44.522H4.88055L6.1286 40.3619Z" fill="#34374A"/>
<path d="M2.59131 20.2275V22.7652L25.6658 31.5568H29.2018V30.3504L2.59131 20.2275Z" fill="#34374A"/>
<path d="M29.2021 21.2124V16.9414H17.9561L29.2021 21.2124Z" fill="#34374A"/>
<path d="M9.41381 16.9414H2.59131V16.9691L29.2018 27.1058V24.4711L9.41381 16.9414Z" fill="#34374A"/>
<path d="M2.59131 26.0234V31.5563H17.1238L2.59131 26.0234Z" fill="#34374A"/>
</svg>
