<svg width="17" height="22" viewBox="0 0 17 22" fill="none" xmlns="http://www.w3.org/2000/svg">
<path d="M14.2902 2.06055H4.08245C3.91182 2.06055 3.77356 2.19885 3.77356 2.36944C3.77356 2.54003 3.91182 2.67833 4.08245 2.67833H14.2903C14.4609 2.67833 14.5992 2.54003 14.5992 2.36944C14.5992 2.19885 14.4609 2.06055 14.2902 2.06055Z" fill="#34374A"/>
<path d="M6.22896 12.5078C6.22896 12.1048 5.90108 11.7769 5.49804 11.7769H2.44166C2.03862 11.7769 1.71069 12.1047 1.71069 12.5078V14.8981C1.71069 15.3012 2.03862 15.6291 2.44166 15.6291H5.49804C5.90108 15.6291 6.22896 15.3012 6.22896 14.8981V12.5078ZM5.61117 14.8981C5.61117 14.9605 5.56043 15.0113 5.49804 15.0113H2.44166C2.37922 15.0113 2.32848 14.9606 2.32848 14.8981V12.5078C2.32848 12.4454 2.37922 12.3946 2.44166 12.3946H5.49804C5.56043 12.3946 5.61117 12.4454 5.61117 12.5078V14.8981Z" fill="#34374A"/>
<path d="M5.49804 16.4004H2.44166C2.03862 16.4004 1.71069 16.7283 1.71069 17.1314V19.5217C1.71069 19.9247 2.03862 20.2526 2.44166 20.2526H5.49804C5.90108 20.2526 6.22896 19.9247 6.22896 19.5217V17.1314C6.22896 16.7283 5.90108 16.4004 5.49804 16.4004ZM5.61117 19.5216C5.61117 19.584 5.56043 19.6348 5.49804 19.6348H2.44166C2.37922 19.6348 2.32848 19.584 2.32848 19.5216V17.1313C2.32848 17.0689 2.37922 17.0181 2.44166 17.0181H5.49804C5.56043 17.0181 5.61117 17.0689 5.61117 17.1313V19.5216Z" fill="#34374A"/>
<path d="M13.8208 12.1748H7.37225C7.20162 12.1748 7.06335 12.3131 7.06335 12.4837C7.06335 12.6543 7.20162 12.7926 7.37225 12.7926H13.8208C13.9915 12.7926 14.1297 12.6543 14.1297 12.4837C14.1297 12.3131 13.9914 12.1748 13.8208 12.1748Z" fill="#34374A"/>
<path d="M13.8208 13.394H7.37225C7.20162 13.394 7.06335 13.5323 7.06335 13.7029C7.06335 13.8735 7.20162 14.0118 7.37225 14.0118H13.8208C13.9915 14.0118 14.1297 13.8735 14.1297 13.7029C14.1297 13.5323 13.9914 13.394 13.8208 13.394Z" fill="#34374A"/>
<path d="M13.8208 14.6128H7.37225C7.20162 14.6128 7.06335 14.7511 7.06335 14.9217C7.06335 15.0923 7.20162 15.2306 7.37225 15.2306H13.8208C13.9915 15.2306 14.1297 15.0923 14.1297 14.9217C14.1297 14.7511 13.9914 14.6128 13.8208 14.6128Z" fill="#34374A"/>
<path d="M13.8208 16.7983H7.37225C7.20162 16.7983 7.06335 16.9366 7.06335 17.1072C7.06335 17.2778 7.20162 17.4161 7.37225 17.4161H13.8208C13.9915 17.4161 14.1297 17.2778 14.1297 17.1072C14.1297 16.9366 13.9914 16.7983 13.8208 16.7983Z" fill="#34374A"/>
<path d="M13.8208 18.0176H7.37225C7.20162 18.0176 7.06335 18.1559 7.06335 18.3265C7.06335 18.4971 7.20162 18.6354 7.37225 18.6354H13.8208C13.9915 18.6354 14.1297 18.4971 14.1297 18.3265C14.1297 18.1559 13.9914 18.0176 13.8208 18.0176Z" fill="#34374A"/>
<path d="M13.8208 19.2368H7.37225C7.20162 19.2368 7.06335 19.3751 7.06335 19.5457C7.06335 19.7163 7.20162 19.8546 7.37225 19.8546H13.8208C13.9915 19.8546 14.1297 19.7163 14.1297 19.5457C14.1297 19.3751 13.9914 19.2368 13.8208 19.2368Z" fill="#34374A"/>
<path d="M4.37344 13.111L3.84465 13.6398L3.56615 13.3613C3.44548 13.2406 3.24993 13.2406 3.12929 13.3613C3.00866 13.4819 3.00866 13.6775 3.12929 13.7981L3.6262 14.295C3.7468 14.4156 3.94239 14.4156 4.06306 14.295L4.8103 13.5478C4.93093 13.4271 4.93093 13.2315 4.8103 13.111C4.68967 12.9904 4.49412 12.9904 4.37344 13.111Z" fill="#34374A"/>
<path d="M4.37344 17.7345L3.84465 18.2633L3.56611 17.9848C3.44552 17.8642 3.24992 17.8642 3.12929 17.9848C3.00865 18.1055 3.00865 18.3011 3.12933 18.4217L3.62624 18.9186C3.74675 19.0392 3.94234 19.0392 4.06306 18.9186L4.8103 18.1713C4.93093 18.0507 4.93093 17.8551 4.8103 17.7345C4.68966 17.6139 4.49411 17.6139 4.37344 17.7345Z" fill="#34374A"/>
<path d="M8.06663 10.8416C9.82704 10.8416 11.2517 9.40674 11.2517 7.65654C11.2517 6.20334 10.27 4.9351 8.86457 4.57237C8.69925 4.52979 8.53084 4.62913 8.48829 4.79428C8.44567 4.95948 8.54501 5.12793 8.7102 5.17056C9.84282 5.46285 10.6339 6.48509 10.6339 7.6565C10.6339 8.17442 10.4792 8.65662 10.2144 9.06041V9.05304C10.2144 8.44645 9.77256 7.94143 9.19393 7.842C9.34105 7.62471 9.42705 7.36281 9.42705 7.08122C9.42705 6.33106 8.81675 5.72072 8.06659 5.72072C7.31639 5.72072 6.70609 6.33101 6.70609 7.08122C6.70609 7.36281 6.79209 7.62471 6.93921 7.842C6.36058 7.94147 5.91878 8.44649 5.91878 9.05304V9.06041C5.65395 8.65662 5.49926 8.17442 5.49926 7.6565C5.49926 6.48509 6.29032 5.46281 7.42298 5.17056C7.58817 5.12793 7.68751 4.95948 7.64489 4.79428C7.6023 4.62913 7.43373 4.52974 7.26861 4.57237C5.8631 4.9351 4.88147 6.20334 4.88147 7.65654C4.88155 9.40213 6.30008 10.8416 8.06663 10.8416ZM8.06663 6.33859C8.47614 6.33859 8.8093 6.67175 8.8093 7.0813C8.8093 7.49085 8.47614 7.82401 8.06663 7.82401C7.65712 7.82401 7.32392 7.49085 7.32392 7.0813C7.32392 6.67175 7.65712 6.33859 8.06663 6.33859ZM6.53665 9.05308C6.53665 8.71597 6.81091 8.44176 7.14802 8.44176H8.98528C9.32239 8.44176 9.59661 8.71601 9.59661 9.05308V9.71671C9.13817 10.0581 8.59455 10.2238 8.06667 10.2238C7.53764 10.2238 6.99374 10.057 6.53669 9.71671V9.05308H6.53665Z" fill="#34374A"/>
<path d="M0 2.01333V20.8991C0 21.5061 0.493777 21.9998 1.10073 21.9998H15.0327C15.6397 21.9998 16.1335 21.5061 16.1335 20.8991V12.177C16.1335 12.0064 15.9952 11.8681 15.8246 11.8681C15.654 11.8681 15.5157 12.0064 15.5157 12.177V20.8991C15.5157 21.1654 15.299 21.382 15.0327 21.382H1.10069C0.834384 21.382 0.617747 21.1654 0.617747 20.8991V3.82551H15.5156V10.7355C15.5156 10.9061 15.6539 11.0444 15.8245 11.0444C15.9951 11.0444 16.1334 10.9061 16.1334 10.7355V2.01333C16.1334 1.40637 15.6396 0.912598 15.0327 0.912598H1.10069C0.493777 0.912598 0 1.40637 0 2.01333ZM2.88445 1.53039H15.0327C15.299 1.53039 15.5157 1.74702 15.5157 2.01333V3.20772H2.88445V1.53039ZM2.26666 3.20772H0.617788V2.01333C0.617788 1.74702 0.834384 1.53039 1.10069 1.53039H2.26666V3.20772Z" fill="#34374A"/>
</svg>
