<svg width="21" height="28" viewBox="0 0 21 28" fill="none" xmlns="http://www.w3.org/2000/svg">
<path d="M20.2139 1.35237e-09H1.85397V21.5495H20.6496V23.9747H1.39259V1.35237e-09H0.786038C0.577578 1.35237e-09 0.377677 0.0816181 0.230274 0.226909C0.0828699 0.372201 0 0.569262 0 0.774735V20.7747V27.5116C0 27.6411 0.0522441 27.7654 0.145173 27.8569C0.238101 27.9485 0.364168 28 0.495589 28H21V0.783152C21.0011 0.680706 20.9816 0.579062 20.9426 0.484092C20.9036 0.389123 20.8459 0.302713 20.7728 0.229878C20.6997 0.157042 20.6126 0.0992228 20.5167 0.0597631C20.4207 0.0203034 20.3179 -6.05107e-06 20.2139 1.35237e-09ZM16.6 17.2379H5.67289V16.5389H16.6V17.2379ZM16.6 15.84H5.67289V15.1411H16.6V15.84ZM16.6 14.1558H14.6778C14.3691 13.6625 13.9585 13.2389 13.4728 12.9124C12.987 12.586 12.4369 12.364 11.8584 12.2611C12.4818 12.0853 13.0164 11.6868 13.3576 11.1433C13.6989 10.5998 13.8223 9.95047 13.7038 9.3221C13.6052 8.81314 13.3538 8.34511 12.9821 7.97873C12.6104 7.61234 12.1356 7.36451 11.6192 7.26737C11.2418 7.19684 10.8532 7.20915 10.4812 7.30342C10.1092 7.3977 9.76286 7.57162 9.46677 7.81281C9.17068 8.054 8.93213 8.35655 8.76813 8.69892C8.60413 9.04129 8.51874 9.41507 8.51793 9.79368C8.52016 10.3498 8.70538 10.8901 9.04585 11.3336C9.38633 11.777 9.86365 12.0995 10.406 12.2526C9.8286 12.3557 9.27981 12.5777 8.79545 12.9042C8.31109 13.2308 7.90203 13.6544 7.59517 14.1474H5.67289V3.42736H16.6V14.1558ZM20.624 26.9558H1.39259V24.3116H20.624V26.9558Z" fill="#34374A"/>
</svg>
