<svg width="33" height="51" viewBox="0 0 33 51" fill="none" xmlns="http://www.w3.org/2000/svg">
<path d="M15.5957 9.61041V5.63062L5.45898 13.2574L8.09368 15.2542L15.5957 9.61041Z" fill="#34374A"/>
<path d="M15.5966 0L1.71582 10.4417L4.18412 12.2999L15.5966 3.71632V0Z" fill="#34374A"/>
<path d="M15.5961 17.417L13.2803 19.1642L15.5961 20.8976V17.417Z" fill="#34374A"/>
<path d="M15.5953 15.504V11.5242L9.36914 16.2112L12.0177 18.208L15.5953 15.504Z" fill="#34374A"/>
<path d="M20.6151 9.51218C19.7785 9.29609 18.9251 9.15226 18.0639 9.0823V4.0625H16.4551V16.82H18.0639V11.6061C18.7084 11.6812 19.3474 11.797 19.9773 11.9527C23.4803 12.8666 26.4792 15.1297 28.3188 18.2477C30.1584 21.3656 30.6892 25.0849 29.7952 28.593C29.4262 30.0714 28.8121 31.4775 27.9785 32.753L30.003 34.2784C31.0304 32.7593 31.7903 31.0756 32.2496 29.3002C33.329 25.1334 32.7097 20.7085 30.5281 16.998C28.3465 13.2875 24.781 10.595 20.6151 9.51218Z" fill="#34374A"/>
<path d="M15.1796 33.2666V38.8134C14.4734 38.7473 13.7734 38.6267 13.0857 38.4528C9.58022 37.542 6.57788 35.2801 4.73548 32.1618C2.89308 29.0435 2.36043 25.3226 3.254 21.8126C3.64288 20.334 4.27064 18.9289 5.11228 17.6526L3.08777 16.1272C2.04436 17.6627 1.27038 19.3651 0.799539 21.1609C0.263229 23.2259 0.139365 25.3764 0.434586 27.4895C0.729807 29.6025 1.43861 31.6367 2.52037 33.4757C3.60213 35.3146 5.03556 36.9224 6.739 38.2071C8.44243 39.4918 10.3824 40.4282 12.4479 40.9628C13.3584 41.1903 14.2859 41.3433 15.2213 41.4204V46.0519H16.8158V33.2666H15.1796Z" fill="#34374A"/>
<path d="M17.6621 38.827V34.8472L27.7988 42.4739L25.1502 44.4708L17.6621 38.827Z" fill="#34374A"/>
<path d="M17.6621 29.218L31.529 39.6598L29.0607 41.5179L17.6621 32.9343V29.218Z" fill="#34374A"/>
<path d="M17.6621 46.6343L19.964 48.3815L17.6621 50.1149V46.6343Z" fill="#34374A"/>
<path d="M17.6621 44.7205V40.7407L23.8745 45.4277L21.2398 47.4107L17.6621 44.7205Z" fill="#34374A"/>
</svg>
